<?xml version="1.0" encoding="UTF-8"?>
<svg id="Layer_2" data-name="Layer 2" xmlns="http://www.w3.org/2000/svg" viewBox="0 0 42.28 8.25">
  <g id="Layer_1-2" data-name="Layer 1">
    <g>
      <path d="M3.72,0l-.07,1.46h-.73s-.07-.95-.07-.95h-1.1v2.19h.51s.08-.5.08-.5h.5s0,1.53,0,1.53h-.5c-.1-.43-.09-.58-.59-.51v2.41h1.06l.1-.12.09-.9h.8s0,1.53,0,1.53H.07v-.58s.51,0,.51,0V.58L0,.51v-.51s3.72,0,3.72,0Z"/>
      <path d="M17.08,8.25v-.43s.44-.13.44-.13l-.07-5.26-.44-.03.03-.44,1.28-.21s0,.52.18.44c1.07-.99,2.17-.29,2.3,1.06.15,1.63-.15,3.52-2.26,2.81v1.68l.43.08v.43s-1.89,0-1.89,0ZM19.04,2.42c-.2.02-.45.18-.49.39-.07.37-.06,2.08,0,2.48s.94.4,1.12.09c.22-.39.21-2.32-.03-2.71-.12-.19-.37-.28-.59-.25Z"/>
      <path d="M4.6,2.48l-.44-.03-.07-.48,1.31-.14.12.36c.31-.34.78-.49,1.24-.43,1.52.19.72,2.65.92,3.68.04.23.32.23.51.26l-.07.44h-1.46v-3.32c0-.25-.92-.48-1.02.07-.14.75.1,1.89,0,2.69l.43.13v.43s-1.89,0-1.89,0v-.43s.44-.08.44-.08v-3.14Z"/>
      <path d="M27.96,2.48l-.44-.03-.07-.48,1.31-.15v.37c.24-.07.37-.26.64-.35.18-.06.3-.1.49-.1,1.81,0,.92,2.58,1.13,3.69.04.23.32.23.51.26l-.07.44h-1.46v-3.25c0-.38-.92-.53-1.02,0-.14.75.1,1.89,0,2.69l.43.13v.43s-1.89,0-1.89,0v-.43s.44-.08.44-.08v-3.14Z"/>
      <path d="M37.93,6.13c-.14-.05-.04-.35-.22-.29-.13.05-.29.27-.54.33-.69.16-1.52-.09-1.61-.88-.1-.87.08-1.95,0-2.84l-.51-.12v-.43s1.42-.07,1.42-.07c.06.18.1.36.11.55.07.8-.14,2.05.01,2.76.12.54.99.55,1.08.09.14-.75-.11-1.9,0-2.7l-.05-.12-.47-.07v-.44s1.42-.15,1.42-.15c.22.02.08,3.46.11,3.83l.43.13v.43s-1.19,0-1.19,0Z"/>
      <path d="M16.94,4.23h-2.08c-.24,0,.06.8.15.95.34.53,1.12.46,1.6.15l.19.46c-1.19.8-2.64.48-3.02-.99s.21-3.34,2.01-3.03c.97.16,1.37,1.63,1.15,2.46ZM14.75,3.72h1.2c.22,0-.01-.81-.07-.95-.1-.21-.27-.4-.51-.43-.52,0-.59,1-.62,1.38Z"/>
      <path d="M25.3,4.23c-.22.07-.04.62.03.77.34.71,1.15.66,1.75.33l.12.4c-2.22,1.63-3.84-1.02-2.84-3.08.52-1.06,2.1-1.28,2.72-.21.26.45.47,1.35.18,1.79h-1.97ZM26.43,3.72c.11-.49-.22-1.71-.9-1.3-.22.13-.37,1.02-.34,1.3h1.24Z"/>
      <path d="M32.82,4.23c-.19.05.05.79.15.95.4.6,1.09.34,1.67.22l.12.4c-.84.59-2,.64-2.66-.25-.78-1.04-.59-3.45.9-3.76s2.14,1.18,1.9,2.45h-2.08ZM32.71,3.72h1.2c.25,0-.06-1.1-.26-1.27-.67-.57-.97.83-.95,1.27Z"/>
      <path d="M39.79,2.48h-.44s0-.51,0-.51c.26.05,1.16-.26,1.28-.08l.03.3c.38-.21.9-.45,1.35-.36.34.07.06,1.01.03,1.3l-.65-.02-.07-.62-.43.19v2.9s.43.12.43.12l-.07.44h-1.83v-.43s.37-.08.37-.08v-3.14Z"/>
      <path d="M21.61,2.48l-.44-.03-.07-.48,1.27-.15.16.37c.34-.3.86-.41,1.3-.35l.11.11-.06,1.2h-.73s-.07-.66-.07-.66l-.44.2v2.9s.43.13.43.13v.43s-1.89,0-1.89,0v-.43s.44-.08.44-.08v-3.14Z"/>
      <path d="M11.17,2.48h-.44s0-.51,0-.51c.26.05,1.16-.26,1.28-.08l.07.3c.31-.22,1-.5,1.35-.33.27.13-.01.98,0,1.27l-.66-.03c-.2-.14.17-.97-.58-.43v2.76c.06.32.63.07.44.69h-1.9c.06-.33.03-.52.44-.51v-3.14Z"/>
      <path d="M9.64,1.02v.88s.73,0,.73,0v.47s-.73.11-.73.11c.09.52-.15,2.65.07,2.96.14.2.51.19.74.18,0,.28.09.4-.18.51-.49.21-1.46.12-1.61-.51-.21-.89.15-2.21-.1-3.11l-.43-.12v-.46c.01-.09.47-.06.56-.13.08-.06.15-.64.24-.78h.72Z"/>
      <path d="M41.62,5.63c.11-.18.84-.1.61.35-.19.37-.88.07-.61-.35Z"/>
    </g>
  </g>
</svg>