<?xml version="1.0" encoding="UTF-8"?>
<svg id="Layer_2" data-name="Layer 2" xmlns="http://www.w3.org/2000/svg" viewBox="0 0 40.11 33.99">
  <defs>
    <style>
      .cls-1 {
        fill: #dbdfe2;
      }

      .cls-2 {
        fill: #282c33;
      }

      .cls-3 {
        fill: #4aa16a;
      }

      .cls-4 {
        fill: #4aa16b;
      }

      .cls-5 {
        fill: #fff;
      }

      .cls-6 {
        fill: #272c33;
      }

      .cls-7 {
        fill: #262b32;
      }

      .cls-8 {
        fill: #49a06a;
      }

      .cls-9 {
        fill: #252a31;
      }

      .cls-10 {
        fill: #49a16a;
      }
    </style>
  </defs>
  <g id="Layer_1-2" data-name="Layer 1">
    <g>
      <rect class="cls-5" width="40.11" height="6.77"/>
      <rect class="cls-5" y="27.22" width="40.11" height="6.77"/>
      <g>
        <g>
          <path class="cls-3" d="M37.7,13.41c.51-.03.97.09,1.38.4.51.39.71,1.14.46,1.74-.11.26-.28.48-.51.65.13.12.28.22.4.35.34.36.48.8.44,1.29-.06.79-.62,1.34-1.33,1.54-.66.18-1.3.13-1.89-.22-.49-.29-.76-.73-.81-1.3-.06-.7.22-1.24.8-1.63.01-.01.03-.02.05-.04-.22-.17-.4-.37-.51-.64-.17-.43-.16-.87.06-1.27.31-.56.82-.81,1.45-.87M36.82,17.88c.04.19.13.36.28.49.42.35,1.06.35,1.49.01.3-.24.41-.75.22-1.09-.19-.35-.49-.53-.88-.55-.35-.02-.65.08-.9.35-.21.23-.26.49-.21.8M37.36,15.64c.2.11.41.13.63.11.56-.05.89-.62.62-1.11-.17-.3-.59-.47-.96-.38-.21.05-.39.15-.51.33-.21.31-.17.79.23,1.05Z"/>
          <path class="cls-10" d="M32.57,18.7v.67h-.95v-1.23h-2.7v-.3c0-.17,0-.33,0-.5,0-.11.03-.19.09-.28.64-.9,1.27-1.81,1.91-2.72.19-.27.38-.54.57-.81.02-.03.06-.05.1-.05.33,0,.65,0,.99,0v3.8h.59v.84h-.58v.57M31.61,17v-2.12h-.02c-.57.8-1.13,1.6-1.7,2.41h1.72c0-.09,0-.18,0-.29Z"/>
          <path class="cls-8" d="M34.96,19.01c0,.13,0,.24,0,.36h-1.04v-1.01h1.04v.64Z"/>
        </g>
        <g>
          <path class="cls-4" d="M11,15.91c.09.06.18.11.26.18.31.23.62.47.93.71.06.05.07.09.05.16-.15.47-.29.93-.43,1.4,0,.03-.02.06-.03.12.05-.03.09-.04.12-.06.38-.29.77-.58,1.15-.88.05-.04.07-.04.12,0,.38.3.77.59,1.16.88.03.02.06.03.12.06-.12-.39-.23-.75-.34-1.11-.04-.13-.08-.27-.13-.4-.03-.09,0-.13.06-.18.36-.27.72-.55,1.08-.83.03-.02.05-.06.09-.12h-.15c-.44,0-.88,0-1.32,0-.07,0-.11-.02-.13-.09-.14-.45-.28-.9-.42-1.35,0-.03-.04-.05-.07-.08-.02.03-.06.05-.07.08-.14.45-.28.9-.42,1.35-.02.07-.05.09-.13.09-.45,0-.9,0-1.36,0-.04,0-.08,0-.13.02,0,.02-.01.04-.01.05Z"/>
          <path class="cls-4" d="M17.47,14.77c-.04-.13-.08-.26-.12-.38-.01-.03-.04-.05-.07-.08-.02.03-.06.05-.07.08-.13.42-.26.83-.39,1.25-.06.2-.06.2-.27.2h-1.36s-.01.02-.02.02c.03.03.05.07.08.09.37.28.73.56,1.1.84.06.05.08.08.05.16-.15.47-.29.94-.44,1.41,0,.03-.01.05,0,.1.45-.3.87-.64,1.31-.96.44.32.85.67,1.3.98,0,0,.02-.02.02-.03-.1-.33-.2-.65-.3-.98-.05-.17-.1-.35-.16-.52-.03-.08,0-.12.06-.16.36-.28.73-.55,1.09-.83.03-.02.05-.07.09-.12h-.32c-.39,0-.78,0-1.17,0-.06,0-.09-.02-.11-.08-.1-.33-.2-.65-.3-.98Z"/>
          <path class="cls-4" d="M22.36,16.81c.38-.29.75-.57,1.11-.85.03-.02.04-.06.08-.11-.07,0-.11,0-.15,0-.45,0-.89,0-1.34,0-.06,0-.09-.02-.11-.08-.14-.45-.28-.9-.42-1.36-.01-.03-.05-.06-.07-.09-.02.03-.05.05-.06.08-.14.44-.28.88-.41,1.32-.03.09-.06.12-.16.12-.44,0-.88,0-1.33,0h-.12s-.01.02-.02.03c.03.03.05.07.08.09.36.28.71.55,1.08.82.09.06.1.12.07.22-.15.48-.3.97-.46,1.48.05-.02.09-.03.11-.05.39-.3.79-.6,1.18-.9.01,0,.02-.02.04-.03.43.33.86.66,1.29.98,0,0,.02-.02.03-.03-.04-.14-.08-.27-.13-.41-.11-.37-.22-.74-.34-1.11-.02-.06,0-.1.05-.13Z"/>
          <path class="cls-4" d="M24.58,16.7q.21.16.13.41c-.13.43-.26.85-.4,1.28,0,.02-.01.04,0,.07.24-.13.44-.31.66-.47.22-.16.43-.33.65-.49.44.32.86.67,1.3.98,0,0,.02-.02.02-.03-.1-.33-.2-.65-.3-.98-.05-.17-.1-.35-.16-.52-.03-.08,0-.12.06-.16.36-.28.73-.55,1.09-.83.03-.02.05-.06.09-.12h-.15c-.44,0-.88,0-1.32,0-.07,0-.11-.01-.13-.09-.14-.45-.28-.9-.42-1.35,0-.03-.04-.05-.07-.08-.02.03-.06.05-.07.08-.14.45-.28.89-.41,1.34-.02.08-.06.11-.14.11-.44,0-.89,0-1.34,0h-.12l-.02.02s.05.07.08.09c.32.25.65.5.98.75Z"/>
          <path class="cls-3" d="M11,15.92s0-.04,0-.06c-.04-.01-.07-.02-.11-.02-.44,0-.88,0-1.32,0-.08,0-.12-.02-.14-.1-.13-.45-.28-.9-.42-1.34-.01-.03-.04-.06-.06-.08-.02.03-.06.05-.07.09-.14.45-.28.9-.42,1.35-.02.07-.05.09-.12.09-.21,0-.42,0-.64,0-.02.06-.02.11-.03.17,0,.1,0,.19,0,.29,0,.07,0,.14,0,.21.11.09.23.19.35.28.08.05.09.1.06.19-.13.41-.26.83-.38,1.25-.02.07-.02.15-.04.26.44-.34.86-.66,1.28-.98.44.32.86.67,1.3.98,0,0,.02-.02.03-.03-.08-.27-.16-.53-.25-.8-.07-.24-.14-.48-.22-.71-.02-.06,0-.09.04-.13.39-.29.77-.59,1.16-.89Z"/>
          <path class="cls-1" d="M7.66,16.01c0-.05.01-.1.02-.16-.25,0-.49-.01-.74,0-.03,0-.05.01-.08.02.01.02.01.06.03.07.25.19.51.39.77.58,0-.06,0-.13,0-.21-.12-.1-.23-.18-.34-.27,0,0,0-.02.01-.02h.33Z"/>
        </g>
        <g>
          <path class="cls-3" d="M37.21,6.77c.4.06.82.46.9.85.04.21.04.89,0,1.1-.06.28-.27.5-.53.6l.33.25c.06.08.18.4.18.48v1.77h-1.01v-1.77c0-.05-.24-.29-.29-.29h-.68v2.06h-.97v-5.1s.05.04.06.04c.58,0,1.49-.08,2.03,0ZM36.82,7.63c-.19-.03-.46.02-.66,0l-.06.06v1.23h.84s.19-.2.21-.26c.04-.17.03-.77-.08-.9-.02-.03-.21-.12-.24-.13Z"/>
          <path class="cls-3" d="M24.29,11.84v-4.93s-.06-.08-.04-.14h1.81c.51,0,1.07.54,1.21,1.01.16.57.17,2.5-.02,3.06-.17.51-.72.99-1.27.99h-1.7ZM25.26,10.94h.57c.26,0,.48-.42.52-.65.05-.4.06-1.57,0-1.97-.08-.59-.56-.74-1.09-.68v3.31Z"/>
          <path class="cls-3" d="M29.23,6.67c.99-.07,1.68.45,1.76,1.45.05.61.07,2.36-.12,2.88-.45,1.28-2.57,1.25-2.99-.05-.16-.48-.13-2.26-.09-2.83.07-.85.58-1.38,1.44-1.45ZM29.31,7.52c-.29.04-.46.33-.49.6-.06.52-.06,1.8,0,2.33.08.82,1.07.82,1.16.04.06-.51.06-1.85,0-2.37-.04-.35-.3-.65-.67-.6Z"/>
          <path class="cls-3" d="M32.9,6.67c1.05-.07,1.68.49,1.76,1.53.05.65.07,2.36-.16,2.91-.47,1.08-2.31,1.1-2.84.09-.29-.55-.26-2.04-.23-2.7.05-1.01.34-1.76,1.48-1.84ZM33.01,7.52c-.29.02-.46.22-.53.49-.1.4-.1,2.22,0,2.62.16.63,1.04.59,1.14-.15.07-.51.06-1.73.01-2.25-.03-.38-.19-.74-.64-.71Z"/>
          <path class="cls-3" d="M10.8,8.41h-.97c.18-.88-.95-1.29-1.16-.36-.09.42-.1,2.14,0,2.54.13.46.7.67,1,.29.03-.04.16-.32.16-.35v-.76h-.58v-.82s.08-.04.1-.04h1.36s.11.02.14.06v1.56c0,1.67-2.69,1.92-3.13.36-.13-.47-.12-2.35-.06-2.89.12-1.16,1.22-1.57,2.25-1.24.4.13.91.65.91,1.08v.56Z"/>
          <path class="cls-3" d="M23.86,8.45h-1.01v-.6s-.2-.26-.26-.28c-.37-.17-.75.1-.7.51.06.53,1.07.93,1.45,1.28.49.45.67,1.14.45,1.77-.42,1.25-2.89,1.02-2.89-.39v-.64h.97v.56c0,.09.17.32.26.37.51.26.95-.27.67-.75-.36-.61-1.41-.71-1.78-1.61-.55-1.33.48-2.23,1.8-1.95.91.19,1.07.91,1.04,1.74Z"/>
          <path class="cls-3" d="M20.55,8.45h-.97v-.56s-.1-.17-.12-.19c-.43-.52-1.26.14-.66.77.76.81,2.12.88,1.74,2.52-.22.96-1.45,1.14-2.24.78-.3-.14-.67-.59-.67-.92v-.76h.97v.6c0,.08.18.29.26.33.57.3,1.03-.41.5-.93-.58-.57-1.61-.76-1.73-1.78-.15-1.26.73-1.86,1.92-1.6.44.1,1,.53,1,1.02v.72Z"/>
          <path class="cls-3" d="M14.04,11.84l1.27-5.07h.99s1.21,5.07,1.21,5.07h-1.01l-.16-.86-1.17.02-.15.83h-.97ZM15.36,10.16h.78l-.37-1.83-.41,1.83Z"/>
          <path class="cls-3" d="M12.28,6.77v4.17h1.48v.9h-2.49v-5.04l.06-.05s.03.03.04.03h.92Z"/>
          <path class="cls-3" d="M39.88,7.98h-1.36v-1.21h.78c0-.39-.28-.5-.62-.55v-.46c.38.04.83.12,1.07.47.04.06.14.28.14.33v1.42Z"/>
          <path class="cls-3" d="M7.25,6.77v1.46s-.11.25-.14.29c-.22.32-.69.44-1.07.43v-.47c.31.03.66-.16.62-.51h-.74v-1.21h1.33Z"/>
        </g>
        <g>
          <path class="cls-9" d="M6.86,22.89s.08,0,.12-.01c.04,0,.07,0,.09,0v-.14s-.03,0-.04,0c-.01,0-.03,0-.04,0-.02,0-.04,0-.07,0h-.02s-.03-.01-.05-.03c-.01-.01-.02-.03-.02-.05,0-.03,0-.05.02-.06.01-.02.04-.02.06-.02.02,0,.03,0,.05,0,.02,0,.04.01.05.02l.04-.11s-.1-.04-.17-.04c-.06,0-.12.02-.16.05-.04.03-.06.08-.06.14,0,.03,0,.06.03.08.02.02.04.04.06.05l-.11.02v.12s.05,0,.09-.01c.04,0,.08,0,.12-.01Z"/>
          <path class="cls-9" d="M6.73,23.69h-.36v-.36c0-.25-.07-.43-.22-.57s-.36-.2-.63-.2c-.07,0-.14,0-.21.01-.07,0-.14.02-.21.04-.07.02-.13.03-.18.05l.08.26c.08-.02.16-.03.23-.04.08,0,.14-.02.2-.02.19,0,.34.04.44.13.1.09.15.21.15.36v.33h-.27v-.28c0-.09-.02-.16-.06-.23s-.1-.11-.17-.14-.15-.05-.24-.05c-.1,0-.18.02-.26.06-.08.04-.14.09-.19.16-.05.07-.07.15-.07.24,0,.05,0,.09.03.14.02.04.04.07.07.1h-.21s-.07,0-.1-.01c-.03,0-.05-.02-.07-.03.01-.03.02-.06.03-.09s0-.07,0-.1c0-.09-.02-.17-.07-.24-.04-.07-.11-.13-.19-.17-.04-.02-.07-.03-.12-.04-.04,0-.08-.01-.13-.01-.06,0-.12.01-.19.03-.07.02-.13.05-.19.09-.04.05-.07.11-.09.17-.02.06-.02.11-.02.16,0,.05,0,.1.02.14.01.04.03.08.05.1h-.02c-.05,0-.1.02-.14.04-.04.02-.07.06-.1.1-.02.04-.04.09-.04.15v.58h.36v-.45c0-.05.01-.09.03-.12s.07-.03.13-.03h.12c.07,0,.14-.01.21-.03.07-.02.13-.05.18-.1.05.05.09.08.14.1.05.02.1.03.16.03,0,0,0,0,0,0h2.45v-.94h-.35v.66ZM4.13,23.6s-.04.05-.07.07c-.03.02-.06.02-.1.02h-.06s-.03-.07-.04-.1c0-.04-.01-.07-.01-.1,0-.03,0-.05,0-.08s.01-.05.02-.08c.02-.02.04-.03.06-.03.02,0,.04,0,.06,0,.04,0,.08.02.11.05s.04.08.04.14c0,.05,0,.09-.02.12ZM5.39,23.69h-.01c-.06,0-.11,0-.15-.03-.04-.02-.07-.04-.08-.08s-.03-.08-.03-.13c0-.05.01-.1.04-.13s.07-.05.11-.05c.04,0,.07.01.09.03.02.02.03.06.03.1v.28Z"/>
          <path class="cls-9" d="M8.9,22.88s.07-.01.1-.04c.03-.03.04-.06.04-.11s-.01-.08-.04-.11c-.02-.03-.06-.04-.1-.04s-.08.01-.1.04c-.03.03-.04.06-.04.11s.01.08.04.11c.02.03.06.04.1.04Z"/>
          <path class="cls-9" d="M8.43,23.08c-.09.04-.15.08-.2.15-.05.06-.07.13-.07.22,0,.03,0,.07.02.1.01.03.03.06.05.08.02.03.04.05.06.06h-.48v-1.14h-.35v1.42h1.69v-.94h-.39c-.12,0-.23.02-.32.05ZM8.78,23.31v.38h-.05s-.07,0-.11-.02c-.03-.01-.06-.04-.09-.07-.02-.03-.03-.07-.03-.11s.01-.08.03-.11c.02-.03.05-.05.09-.06.04-.01.08-.02.13-.02h.03Z"/>
          <path class="cls-9" d="M8.53,22.88s.07-.01.1-.04.04-.06.04-.11-.01-.08-.04-.11-.06-.04-.1-.04-.08.01-.1.04c-.02.03-.04.06-.04.11s.01.08.04.11c.02.03.06.04.1.04Z"/>
          <path class="cls-9" d="M11.68,23.01c-.08,0-.14.01-.2.03-.06.02-.12.05-.16.1-.05.04-.09.1-.13.17v-.32h-.36v.7h-.46c-.03-.13-.07-.25-.12-.36-.05-.11-.12-.2-.2-.29-.08-.08-.19-.15-.31-.19l-.18.3c.08.04.14.08.2.12.05.04.1.08.13.13.02.03.05.07.07.12.02.05.04.1.06.17h-.63v.28h2.79v-.45c0-.17-.04-.3-.12-.38-.08-.08-.2-.13-.37-.13ZM11.81,23.69h-.63v-.14c.04-.06.08-.11.12-.15.04-.04.09-.07.13-.09.05-.02.1-.03.15-.03.08,0,.13.02.17.05s.05.09.05.17v.18Z"/>
          <path class="cls-9" d="M12.65,22.5s.08,0,.12-.01.07,0,.09,0v-.14s-.03,0-.04,0c-.01,0-.03,0-.04,0s-.04,0-.07.01h-.02s-.03-.01-.05-.03-.02-.03-.02-.05c0-.02,0-.05.02-.06.01-.02.04-.02.06-.02.02,0,.03,0,.05,0s.04,0,.05.02l.04-.11s-.11-.04-.17-.04c-.06,0-.12.02-.16.05-.04.03-.06.08-.06.13,0,.03,0,.06.03.08.02.02.04.04.06.05l-.11.02v.12s.05,0,.09-.01.08-.01.12-.02Z"/>
          <polygon class="cls-9" points="13.28 23.69 13.07 23.69 13.06 23.69 12.85 23.69 12.85 22.66 12.5 22.66 12.5 23.97 13.06 23.97 13.07 23.97 13.63 23.97 13.63 22.55 13.28 22.55 13.28 23.69"/>
          <path class="cls-9" d="M15.6,22.89s.08-.01.11-.04c.03-.03.04-.07.04-.12s-.01-.09-.04-.12-.06-.04-.11-.04c-.05,0-.08.01-.11.04-.03.03-.04.07-.04.12s.01.09.04.11.06.04.11.04Z"/>
          <path class="cls-9" d="M16.38,24.14s-.08.01-.1.04c-.02.03-.03.06-.03.11s.01.08.04.11c.02.03.06.04.1.04s.07-.01.1-.04c.03-.03.04-.06.04-.11s-.01-.09-.04-.11-.06-.04-.1-.04Z"/>
          <polygon class="cls-9" points="16.22 23.69 16.02 23.69 16 23.69 15.77 23.69 15.77 23.03 15.42 23.03 15.42 23.69 15.22 23.69 15.2 23.69 14.99 23.69 14.99 22.55 14.64 22.55 14.64 23.97 15.2 23.97 15.22 23.97 16 23.97 16.02 23.97 16.58 23.97 16.58 23.03 16.22 23.03 16.22 23.69"/>
          <path class="cls-9" d="M18.39,23.84c0,.09-.02.16-.06.22-.04.05-.11.08-.2.08h-.03c-.07,0-.13-.03-.18-.08-.05-.05-.07-.12-.07-.2,0-.05,0-.12.02-.19.01-.08.03-.15.05-.23h-.31c-.03.06-.06.12-.08.2-.02.08-.03.15-.03.22,0,.12.03.22.08.32s.13.16.23.21c.08.03.18.05.29.05h.05c.2,0,.35-.05.45-.14s.15-.23.15-.42v-.83h-.35v.81Z"/>
          <path class="cls-9" d="M18.06,23.04s.08-.01.11-.04.04-.07.04-.12-.01-.09-.04-.12-.06-.04-.11-.04-.08.01-.11.04c-.03.03-.04.07-.04.12,0,.05.01.09.04.11s.06.04.11.04Z"/>
          <path class="cls-9" d="M21.33,23.01c-.08,0-.14.01-.2.03-.06.02-.12.05-.16.1-.05.04-.09.1-.13.17v-.32h-.36v.7h-.47v-.66h-.31c-.14,0-.27.02-.37.06-.1.04-.18.1-.23.18-.05.08-.08.16-.08.26,0,.09.02.16.06.23.04.07.1.12.18.16s.18.06.3.06h.09v.04s-.02.07-.06.11c-.04.03-.1.05-.18.05-.04,0-.08,0-.13-.02-.05-.01-.1-.03-.15-.06l-.13.25c.06.03.12.06.19.08.07.02.15.03.22.03.12,0,.23-.02.31-.06.09-.04.15-.09.19-.16.04-.07.07-.14.07-.22v-.04h1.81v-.45c0-.17-.04-.3-.12-.38-.08-.08-.2-.13-.37-.13ZM19.66,23.69h-.08c-.06,0-.11-.02-.14-.05s-.05-.08-.05-.13c0-.07.02-.12.06-.15.04-.04.1-.05.16-.05h.05v.38ZM21.46,23.69h-.63v-.14c.04-.06.08-.11.12-.15.04-.04.09-.07.13-.09.05-.02.1-.03.15-.03.08,0,.13.02.17.05s.05.09.05.17v.18Z"/>
          <path class="cls-9" d="M23.5,24.14s-.08.01-.1.04c-.02.03-.04.06-.04.11s.01.08.04.11.06.04.1.04c.04,0,.07-.01.1-.04.02-.03.04-.06.04-.11s-.01-.08-.04-.11c-.02-.03-.06-.04-.1-.04Z"/>
          <path class="cls-9" d="M23.87,24.14s-.08.01-.1.04c-.03.03-.04.06-.04.11s.01.08.04.11.06.04.1.04.07-.01.1-.04c.03-.03.04-.06.04-.11s-.01-.08-.04-.11-.06-.04-.1-.04Z"/>
          <path class="cls-9" d="M23.98,23.03h-.35v.66h-.56v-.66h-.31c-.14,0-.27.02-.37.06-.1.04-.18.1-.23.18-.05.08-.08.16-.08.26,0,.09.02.16.06.23.04.07.1.12.18.16s.18.06.3.06h.09v.04s-.02.07-.06.11c-.04.03-.1.05-.18.05-.04,0-.08,0-.13-.02-.05-.01-.1-.03-.15-.06l-.13.25c.06.03.12.06.19.08.07.02.15.03.22.03.12,0,.23-.02.31-.06.09-.04.15-.09.19-.16.04-.07.07-.14.07-.22v-.04h.91v-.94ZM22.72,23.69h-.08c-.06,0-.11-.02-.14-.05s-.05-.08-.05-.13c0-.07.02-.12.06-.15.04-.04.1-.05.16-.05h.05v.38Z"/>
          <path class="cls-9" d="M25.47,23.67s-.06,0-.07.01h-.03s-.05-.02-.07-.05c-.02-.02-.03-.05-.03-.08,0-.05.02-.09.05-.11.03-.02.07-.03.12-.03.04,0,.08,0,.11,0s.05.01.07.03l.07-.26s-.07-.03-.12-.04c-.05-.01-.11-.02-.17-.02-.09,0-.17.01-.23.04s-.12.06-.15.11c-.05.06-.08.13-.08.21,0,.05.01.1.04.14.02.04.06.08.1.1-.03,0-.05,0-.08.02-.03,0-.06.02-.1.03v.23s.09-.01.15-.02c.05,0,.11-.01.17-.02.06,0,.12-.01.18-.02.06,0,.12-.01.17-.02s.1,0,.15-.01v-.27s-.07,0-.11,0c-.04,0-.08,0-.12.01Z"/>
          <path class="cls-9" d="M27.48,22.89s.08-.01.11-.04.04-.07.04-.12-.01-.09-.04-.12-.06-.04-.11-.04-.08.01-.11.04c-.03.03-.04.07-.04.12s.01.09.04.11c.03.03.06.04.11.04Z"/>
          <path class="cls-9" d="M28.9,23.66s-.07-.05-.08-.08c-.02-.03-.03-.07-.03-.1,0-.04,0-.07.03-.1s.04-.05.07-.07c.03-.02.07-.02.11-.02s.08,0,.13.02c.04.01.08.03.13.05l.1-.27s-.09-.04-.16-.05-.13-.02-.19-.02c-.12,0-.22.02-.3.06-.08.04-.15.09-.19.15-.05.07-.07.14-.07.23,0,.04,0,.08.02.11.01.03.03.06.05.09.02.02.04.04.06.05h-.48v-.17c0-.17-.04-.3-.12-.38-.08-.08-.2-.13-.37-.13-.08,0-.14.01-.2.03-.06.02-.12.05-.16.1-.05.04-.09.1-.13.17v-.32h-.36v.7h-.42v-1.14h-.35v1.42h3.39v-.28h-.32c-.05,0-.1,0-.14-.03ZM27.73,23.69h-.63v-.14c.04-.06.08-.11.12-.15.04-.04.09-.07.13-.09.05-.02.1-.03.15-.03.08,0,.13.02.17.05s.05.09.05.17v.18Z"/>
          <path class="cls-9" d="M29.78,22.5s.08,0,.12-.01.07,0,.09,0v-.14s-.03,0-.04,0c-.01,0-.03,0-.04,0s-.04,0-.07.01h-.02s-.03-.01-.05-.03-.02-.03-.02-.05c0-.02,0-.05.02-.06.01-.02.04-.02.06-.02.02,0,.03,0,.05,0s.04,0,.05.02l.04-.11s-.11-.04-.17-.04c-.06,0-.12.02-.16.05-.04.03-.06.08-.06.13,0,.03,0,.06.03.08.02.02.04.04.06.05l-.11.02v.12s.05,0,.09-.01.08-.01.12-.02Z"/>
          <polygon class="cls-9" points="30.41 23.69 30.21 23.69 30.19 23.69 29.98 23.69 29.98 22.66 29.63 22.66 29.63 23.97 30.19 23.97 30.21 23.97 30.76 23.97 30.76 22.55 30.41 22.55 30.41 23.69"/>
          <rect class="cls-9" x="31.14" y="22.55" width=".35" height="1.42"/>
          <path class="cls-9" d="M33.02,23.04s.08-.01.11-.04.04-.07.04-.12-.01-.09-.04-.12-.06-.04-.11-.04c-.05,0-.08.01-.11.04-.03.03-.04.07-.04.12,0,.05.01.09.04.11s.06.04.11.04Z"/>
          <path class="cls-9" d="M34.83,23.06c-.08-.04-.16-.06-.26-.06-.07,0-.13,0-.2.03-.06.02-.13.05-.19.08-.04.05-.07.11-.08.17-.01.06-.02.12-.02.17s0,.09.02.13c.01.04.03.07.05.1h-.47v-.66h-.35v.81c0,.06,0,.11-.03.16-.02.04-.05.08-.09.1-.04.02-.09.04-.15.04h-.03c-.07,0-.13-.03-.18-.08-.05-.05-.07-.12-.07-.2,0-.05,0-.12.02-.19.01-.08.03-.15.05-.23h-.31c-.03.06-.06.12-.08.2-.02.08-.03.15-.03.22,0,.11.03.21.08.3s.12.16.22.21c.04.02.09.03.14.04.05,0,.1.02.16.02h.05c.18,0,.32-.04.42-.11.1-.07.16-.19.18-.34h.81c.11,0,.22-.02.3-.06s.15-.09.19-.16c.03-.05.05-.09.07-.14.01-.05.02-.1.02-.14,0-.09-.02-.17-.06-.24-.04-.07-.1-.13-.18-.16ZM34.7,23.6s-.04.05-.07.07c-.03.02-.06.02-.09.02h-.06s-.02-.06-.03-.1c0-.04-.01-.07-.01-.11,0-.02,0-.05,0-.07,0-.03.01-.05.02-.08.02-.01.04-.02.05-.03s.04,0,.06,0c.04,0,.08.02.11.05s.05.08.05.14c0,.05,0,.09-.03.12Z"/>
        </g>
      </g>
      <path class="cls-9" d="M37.77,24.22c-.11-.02-.22-.02-.31-.06-.31-.15-.35-.54-.09-.76.02-.01.03-.03.05-.05-.11-.09-.18-.21-.15-.34.02-.1.07-.21.14-.28.18-.18.53-.15.7.03.16.17.14.4-.04.59.05.07.12.12.16.2.14.27,0,.57-.31.66-.04.01-.09.01-.14.02M38.01,23.77c0-.12-.05-.21-.16-.25-.12-.05-.23-.03-.32.06-.08.08-.09.17-.05.27.04.1.15.16.27.16.14,0,.22-.07.27-.23M37.6,23.2c.16.07.32.02.35-.11.02-.1-.02-.19-.11-.23-.1-.05-.23-.02-.29.06-.06.08-.05.17.05.28Z"/>
      <path class="cls-7" d="M36.04,23.48c-.19-.26-.14-.6.1-.78.23-.17.57-.11.73.14.06.09.08.2.09.3.01.19,0,.38,0,.56,0,.2-.07.37-.26.46-.21.09-.42.08-.61-.06-.1-.07-.16-.18-.15-.32h.22c.08.17.21.24.38.18.14-.04.19-.15.17-.38-.25.11-.47.1-.67-.11M36.35,22.86s-.06.03-.08.05c-.11.08-.14.24-.08.36.06.12.18.17.32.15.12-.03.21-.13.21-.27,0-.21-.16-.34-.37-.29Z"/>
      <path class="cls-7" d="M39.64,22.63h.1s-.04.08-.06.11c-.26.44-.52.87-.77,1.32-.06.11-.13.16-.25.14-.03,0-.05,0-.1,0,.03-.04.04-.07.06-.1.26-.44.53-.89.78-1.33.06-.1.11-.15.24-.13Z"/>
      <path class="cls-2" d="M38.95,23.18c-.13.09-.26.1-.39.02-.11-.07-.16-.18-.14-.32.01-.14.09-.23.22-.28.14-.05.3,0,.38.12.1.14.07.31-.06.46M38.76,22.77s-.05,0-.07.01c-.08.04-.11.12-.07.2.03.07.12.11.19.08.08-.04.11-.11.08-.19-.02-.04-.07-.07-.12-.1Z"/>
      <path class="cls-6" d="M39.88,23.89c-.02.21-.14.33-.32.34-.16,0-.31-.11-.34-.26-.03-.17.05-.33.21-.39.22-.08.42.06.44.31M39.7,23.89c-.01-.08-.06-.14-.14-.14-.05,0-.11.04-.14.08-.05.07,0,.18.07.21.1.04.17-.01.21-.15Z"/>
    </g>
  </g>
</svg>