<?xml version="1.0" encoding="UTF-8"?>
<svg id="Layer_2" data-name="Layer 2" xmlns="http://www.w3.org/2000/svg" xmlns:xlink="http://www.w3.org/1999/xlink" viewBox="0 0 135 40">
  <defs>
    <style>
      .cls-1 {
        stroke: #fff;
        stroke-miterlimit: 10;
        stroke-width: .2px;
      }

      .cls-1, .cls-2 {
        fill: #fff;
      }

      .cls-3 {
        fill: #002838;
      }

      .cls-3, .cls-4, .cls-5, .cls-6, .cls-7, .cls-8, .cls-2 {
        stroke-width: 0px;
      }

      .cls-4 {
        fill: url(#linear-gradient);
      }

      .cls-5 {
        fill: #a7a6a6;
      }

      .cls-6 {
        fill: #5bc9f4;
      }

      .cls-7 {
        fill: url(#linear-gradient-2);
      }

      .cls-8 {
        fill: url(#linear-gradient-3);
      }
    </style>
    <linearGradient id="linear-gradient" x1="31.1" y1="132.99" x2="6.9" y2="132.99" gradientTransform="translate(0 -113.04)" gradientUnits="userSpaceOnUse">
      <stop offset="0" stop-color="#fee000"/>
      <stop offset=".2" stop-color="#fccf0b"/>
      <stop offset=".5" stop-color="#fab318"/>
      <stop offset=".8" stop-color="#f9a21b"/>
      <stop offset="1" stop-color="#f99b1c"/>
    </linearGradient>
    <linearGradient id="linear-gradient-2" x1="24.8" y1="135.34" x2="2.1" y2="158.04" gradientTransform="translate(0 -113.04)" gradientUnits="userSpaceOnUse">
      <stop offset="0" stop-color="#ef4547"/>
      <stop offset="1" stop-color="#c6186d"/>
    </linearGradient>
    <linearGradient id="linear-gradient-3" x1="2.01" y1="107.93" x2="20.61" y2="126.43" gradientTransform="translate(0 -113.04)" gradientUnits="userSpaceOnUse">
      <stop offset="0" stop-color="#279e6f"/>
      <stop offset=".3" stop-color="#4dab6d"/>
      <stop offset=".7" stop-color="#6aba6a"/>
      <stop offset="1" stop-color="#74c169"/>
    </linearGradient>
  </defs>
  <g id="artwork">
    <g>
      <g>
        <g>
          <path class="cls-3" d="M130,40H5c-2.8,0-5-2.2-5-5V5C0,2.2,2.2,0,5,0h125c2.8,0,5,2.2,5,5v30c0,2.7-2.2,5-5,5Z"/>
          <path class="cls-5" d="M130,.8c2.3,0,4.2,1.9,4.2,4.2v30c0,2.3-1.9,4.2-4.2,4.2H5c-2.3,0-4.2-1.9-4.2-4.2V5C.8,2.7,2.7.8,5,.8h125M130,0H5C2.2,0,0,2.2,0,5v30c0,2.8,2.2,5,5,5h125c2.8,0,5-2.2,5-5V5c0-2.8-2.2-5-5-5h0Z"/>
        </g>
        <path class="cls-2" d="M68.2,21.7c-2.4,0-4.3,1.8-4.3,4.3s1.9,4.3,4.3,4.3,4.3-1.8,4.3-4.3c-.1-2.5-2-4.3-4.3-4.3ZM68.2,28.5c-1.3,0-2.4-1.1-2.4-2.6s1.1-2.6,2.4-2.6,2.4,1,2.4,2.6-1.1,2.6-2.4,2.6ZM58.9,21.7c-2.4,0-4.3,1.8-4.3,4.3s1.9,4.3,4.3,4.3,4.3-1.8,4.3-4.3-2-4.3-4.3-4.3ZM58.9,28.5c-1.3,0-2.4-1.1-2.4-2.6s1.1-2.6,2.4-2.6,2.4,1,2.4,2.6-1.2,2.6-2.4,2.6ZM47.8,23v1.8h4.3c0,1-.5,1.8-1,2.3s-1.6,1.3-3.3,1.3c-2.7,0-4.7-2.1-4.7-4.8s2.1-4.8,4.7-4.8,2.5.6,3.3,1.3l1.3-1.3c-1.1-1-2.5-1.8-4.5-1.8-3.6,0-6.7,3-6.7,6.6s3.1,6.6,6.7,6.6,3.4-.6,4.6-1.9c1.2-1.2,1.6-2.9,1.6-4.2s0-.8,0-1.1h-6.3ZM93.1,24.4c-.4-1-1.4-2.7-3.6-2.7s-4,1.7-4,4.3,1.8,4.3,4.2,4.3,3.1-1.2,3.5-1.9l-1.4-1c-.5.7-1.1,1.2-2.1,1.2s-1.6-.4-2.1-1.3l5.7-2.4s-.2-.5-.2-.5ZM87.3,25.8c0-1.6,1.3-2.5,2.2-2.5s1.4.4,1.6.9c0,0-3.8,1.6-3.8,1.6ZM82.7,30h1.9v-12.5h-1.9v12.5ZM79.6,22.7h0c-.5-.5-1.3-1-2.3-1-2.1,0-4.1,1.9-4.1,4.3s1.9,4.2,4.1,4.2,1.8-.5,2.2-1h0v.6c0,1.6-.9,2.5-2.3,2.5s-1.9-.8-2.1-1.5l-1.6.7c.5,1.1,1.7,2.5,3.8,2.5s4-1.3,4-4.4v-7.6h-1.8v.7h.1ZM77.5,28.5c-1.3,0-2.4-1.1-2.4-2.6s1.1-2.6,2.4-2.6,2.3,1.1,2.3,2.6c-.1,1.6-1.1,2.6-2.3,2.6ZM101.8,17.5h-4.5v12.5h1.9v-4.7h2.6c2.1,0,4.1-1.5,4.1-3.9s-2-3.9-4.1-3.9ZM101.9,23.5h-2.7v-4.3h2.7c1.4,0,2.2,1.2,2.2,2.1s-.8,2.2-2.2,2.2ZM113.4,21.7c-1.4,0-2.8.6-3.3,1.9l1.7.7c.4-.7,1-.9,1.7-.9,1,0,1.9.6,2,1.6h0c-.3,0-1.1-.4-1.9-.4-1.8,0-3.6,1-3.6,2.8s1.5,2.8,3.1,2.8,1.9-.6,2.4-1.2h.1v1h1.8v-4.8c-.2-2.3-1.8-3.5-4-3.5ZM113.2,28.5c-.6,0-1.5-.3-1.5-1.1s1.1-1.3,2-1.3,1.2.2,1.7.4c0,1.2-1.1,2-2.2,2ZM123.8,22l-2.1,5.4h-.1l-2.2-5.4h-2l3.3,7.6-1.9,4.2h1.9l5.1-11.8h-2ZM107,30h1.9v-12.5h-1.9v12.5Z"/>
        <g>
          <path class="cls-6" d="M10.5,7.5c-.3.3-.5.8-.5,1.4v22.1c0,.6.2,1.1.5,1.4h0l12.4-12.3h0v-.3L10.4,7.5h.1Z"/>
          <path class="cls-4" d="M27,24.2l-4.1-4.1h0v-.3l4.1-4.1h0l4.9,2.9c1.4.8,1.4,2.1,0,2.9l-5,2.7h.1Z"/>
          <path class="cls-7" d="M27.1,24.2l-4.2-4.2-12.4,12.4c.5.5,1.2.5,2.1,0l14.5-8.3"/>
          <path class="cls-8" d="M27.1,15.7L12.5,7.4c-.9-.5-1.6-.4-2.1,0l12.5,12.5,4.2-4.3v.1Z"/>
        </g>
      </g>
      <g>
        <path class="cls-1" d="M70.5,14.5c-.6,0-1.1-.2-1.5-.5-.4-.4-.5-.9-.5-1.5v-.6c0-.2,0-.5.2-.8h.4v.9c0,.5,0,1,.4,1.3s.6.4,1.1.4,1.1,0,1.6-.4.9-.6,1.1-1c-.5-1-.7-1.7-.7-2.1s0-.4.2-.5.3-.3.6-.5c0,.3,0,.7.3,1.4h0c.2,0,.5.2.8.2s0,0,0,0v.7s0,0,0,0h-.7v.3c0,.5,0,.9-.4,1.3s-.7.7-1.2,1c-.6,0-1.1.3-1.6.3l-.1.1ZM71.3,8.5c-.2.2-.4.5-.7.8-.3-.3-.6-.5-.8-.7.4-.4.6-.6.8-.8.2.2.5.4.7.7Z"/>
        <path class="cls-1" d="M74.3,11.6h0v-.8h0c.3,0,.5,0,.7-.2.2,0,.4-.3.5-.6l.2-.4c.3-.6.6-1,.8-1.3s.6-.4.9-.4.4,0,.6.4.4.6.5,1,.2.8.2,1.2v.6c0,.2-.2.4-.4.5-.4,0-.9,0-1.4-.2s-.9-.3-1.2-.5c-.2.2-.4.4-.6.5-.2.2-.4.3-.7.3l-.1-.1ZM78,10.8c0-.5,0-.9-.3-1.3s-.3-.6-.5-.6h-.4c-.1,0-.2.2-.4.4s-.3.5-.5.9c.6.2,1.3.4,2.1.5v.1Z"/>
        <path class="cls-1" d="M84.99,10.77h-1.3c-.2,0-.3,0-.5-.2s-.3-.2-.4-.3,0-.2,0-.2v-.5c0-.2.2-.4.2-.5,0-.2.4-.4.7-.7.4-.3.8-.5,1.2-.7v-.3c.3-.2.5-.4.8-.6v3.6c.4.2.8.3,1.2.3s0,0,0,0v.7s0,0,0,0c-.4,0-.8,0-1.1-.2-.3-.2-.4-.4-.5-.7v-.2l-.3.5h0ZM83.19,9.17c.3.3.6.4,1,.5s.8,0,1.2,0l-.3-1.8h0c-.9.4-1.5.8-1.9,1.2v.1Z"/>
        <path class="cls-1" d="M89.8,9.35h.3c0,.3-.2.6-.3.8s-.2.3-.2.4c.2.2.5.3.7.3h.7c.3,0,0,0,0,0v.7h0c-.7,0-1.3-.2-1.7-.6l-.2.2s-.3.2-.8.3-.9,0-1.3,0,0,0,0,0v-.8h1.2c.3,0,.5,0,.7-.2s.3-.4.6-.9l.2-.4c-.2,0,0,0,.1,0v.2ZM88.8,13.25c0,.2-.3.5-.7.8-.3-.3-.6-.5-.7-.7.2-.2.4-.4.7-.7,0,0,.3.2.7.6ZM90.5,13.05c0,.2-.4.5-.7.7-.3-.3-.6-.5-.7-.7.2-.2.4-.4.7-.7,0,.1.3.4.7.7Z"/>
        <path class="cls-1" d="M91.1,11.6h0v-.7h0c.4,0,.8,0,1.2-.3,0-.8-.2-2.2-.3-4.2v-1.5c0-.2.4-.4.6-.6v6.2c.3.2.7.3,1.1.3s0,0,0,0v.7h0c-.5,0-1,0-1.3-.4-.3.2-.5.3-.7.3,0,.1-.4.1-.7.1l.1.1Z"/>
        <path class="cls-1" d="M93.9,11.6h0v-.7s0,0,0,0h1.4c-.2,0-.3-.3-.5-.5s0-.5,0-.7c0-.3,0-.6.3-1s.4-.6.7-.8c.3-.2.5-.3.8-.3s.5,0,.7.2c.2,0,.5.3.8.6l-.2.3c-.3,0-.5-.2-.6-.2h-.4c-.5,0-.9,0-1.4.4,0,.3,0,.6.2.9s.4.5.7.6c.3.2.6.2,1,.3.3,0,.5,0,.8-.2.3,0,.6-.2,1.1-.4,0,0,.2.2.2.4h0c0,.3-.2.5-.5.6-.9.2-1.5.4-2,.4-.4,0-.9,0-1.4.2s-1.1,0-1.6,0l-.1-.1Z"/>
        <path class="cls-1" d="M107.4,12.2l-.3-1.8c-.3-1.9-.5-3.2-.6-3.9s-.1-1.2-.1-1.4.1-.4.2-.6c.1,0,.3-.2.5-.3h0s.1.5.4,1.3l-.3.2v.2l.4,3.3c.1.5.1.9.1,1.4h0c.2,0,.5.2.8.2s.1,0,.1,0v.7h-.1c-.3,0-.5,0-.8-.2v.4c0,.5-.1.9-.4,1.3s-.7.7-1.2,1-1,.4-1.5.4-1.1-.2-1.5-.5c-.4-.4-.5-.9-.5-1.5v-.6c0-.2,0-.5.2-.8h.4v.9c0,.5,0,1,.4,1.3.3.3.6.4,1.1.4s.7,0,1.1-.2.7-.3,1-.5.6-.7.7-.9l-.1.2Z"/>
        <path class="cls-1" d="M117.2,11.6c-.3,0-.6,0-.9-.2-.3,0-.6-.3-.8-.5-.3.2-.7.4-1.2.5s-.9.2-1.4.2-1.1,0-1.6-.2-1-.3-1.3-.4l-.2.2c-.2.3-.6.4-1.2.4s-.1,0-.1,0v-.7h.1c.3,0,.6,0,.8-.2.2,0,.4-.4.6-.7l.2-.3c.1,0,.2-.2.3-.2h.3c-.2.4-.3.6-.3.8.2,0,.4.2.5.2,1.4-1.9,2.6-2.8,3.6-2.8s.5,0,.8.3.6.4.8.6.4.5.4.7c0,.4-.1.8-.4,1.2.3.2.7.3,1.2.3s.1,0,.1,0l-.3.8q.07,0,0,0h0ZM113,10.8c1,0,1.9-.3,2.9-.9-.2-.4-.5-.7-.8-.9s-.6-.3-.9-.3-.8.2-1.2.5c-.5.3-1,.8-1.6,1.5.6,0,1.2.1,1.6.1Z"/>
        <path class="cls-1" d="M117.3,11.6q-.07,0,0,0v-.7q-.07,0,0,0c1.1,0,1.9,0,2.5-.3l.6-.2c.4-.2.8-.3,1.1-.3-.3,0-.6-.3-.8-.5-.3-.2-.5-.4-.7-.5s-.4,0-.6,0c-.4,0-.7,0-.9.3l-.3.2c-.1,0-.2-.3-.2-.4,0-.3.1-.5.4-.7.2-.2.6-.3,1-.3s.5,0,.7.2.5.3.8.5c.4.3.7.5,1,.6s.5.2.8.3.7,0,1.2,0l-.4.8h-1.5c-.2,0-.6.2-1.1.5s-1,.5-1.5.6h-2.1v-.1Z"/>
        <path class="cls-1" d="M125.3,7.9v.7c0,.7,0,1.7-.1,2.9h-.5c0-2.5-.1-4.6-.3-6.3h0c0-.3.1-.5.2-.7.1,0,.3-.2.6-.3h0s.1.5.4,1.3l-.3.3h0v2.1h0Z"/>
      </g>
    </g>
  </g>
</svg>