<svg id="Group_2318" data-name="Group 2318" xmlns="http://www.w3.org/2000/svg" xmlns:xlink="http://www.w3.org/1999/xlink" width="181.801" height="166.932" viewBox="0 0 181.801 166.932">
  <defs>
    <clipPath id="clip-path">
      <rect id="Rectangle_1146" data-name="Rectangle 1146" width="181.801" height="166.932" fill="none"/>
    </clipPath>
  </defs>
  <g id="Group_2317" data-name="Group 2317" clip-path="url(#clip-path)">
    <path id="Path_8015" data-name="Path 8015" d="M12.86,189.986l-.035-3.685-4.333.035L8.527,190Zm19.463-5.164.081,5.43a1.693,1.693,0,0,1-1.814,1.906l-5.059.023h-.646a2.81,2.81,0,0,1-3.062-3.038l-.092-4.945-4.24.035.1,6.885c.035,3.95-3.559,6.526-6.816,6.526-3.073.035-6.607-2.934-6.642-6.342a11.943,11.943,0,0,1,.9-4.84L.6,186.486a13.54,13.54,0,0,0-.6,4.828,10.859,10.859,0,0,0,10.811,10.593c4.6-.012,9.15-2.623,10.5-6.908a5.522,5.522,0,0,0,3.87,1.387h.555l5.279-.035c5.315-.012,5.672-4.586,5.661-6.389l-.1-5.175ZM24.885,198.2l.046,3.638,4.3-.035-.046-3.638Zm6.26-.035.035,3.638,4.309-.034-.047-3.627Zm56.014-.346.058,3.627H91.5l-.035-3.662Zm10.351-18.69.15,10.7a1.693,1.693,0,0,1-1.813,1.906l-.938.023H94.47a2.844,2.844,0,0,1-3.073-3.038l-.057-3.95-4.286.023.081,4.482c.011,1.813-.855,2.53-2.507,2.553l-3.131.012-4.389.034c-.069-6.03-5.025-8.905-10.789-8.848-3.789,0-7.936,2.171-7.971,7.069l4.009-.035c.161-2.346,1.894-3.234,4.019-3.269,3.95-.023,6.412,1.179,6.434,5.107l-19.257.1-1.848.024a2.842,2.842,0,0,1-3.083-2.9l-.058-4.3-4.319.035.149,9.195a3.766,3.766,0,0,1-3.893,3.962,11.11,11.11,0,0,1-3.649-.693l.739,3.511a11.459,11.459,0,0,0,3.522.867,6.878,6.878,0,0,0,7.519-6.445,5.367,5.367,0,0,0,3.361.958l1.9-.011,28.854-.15,3.131-.034a4.872,4.872,0,0,0,4.332-2.23,5.376,5.376,0,0,0,4.562,2.172h.452v-.012l1.05-.023c5.325-.035,5.684-4.586,5.66-6.388l-.161-10.442Zm16.367-.035-4.251.035.243,16.749,4.24-.034Z" transform="translate(0 -48.514)" fill="#2a2a2a"/>
    <path id="Path_8016" data-name="Path 8016" d="M2.533,89.328a12.306,12.306,0,0,0-.45,2.368c-.013.232-.013.359-.013.428.058-.37.15-.866.254-1.375a6.091,6.091,0,0,0,.209-1.421m4.458-.161H6.923v.045h.068ZM95.314,64.632c0,.035.219-.127.5-.358,8.79-7.382,17.246-14.543,25.8-22.167a4.207,4.207,0,0,0,.5-.5c0-.058-.231.127-.5.381-8.558,7.624-16.969,14.728-25.782,22.1a3.562,3.562,0,0,0-.52.543M74.821,65.879l-.184.069.034.058.163-.093c.046-.034.035-.058-.012-.034M58.673,49.915a8.191,8.191,0,0,1,2.795-2.934c.045-.012,0,.093.1.035l.139-.047-.474.265c-.5.521-.6.728-.728.855l-.023.058-.15.208-.034.058-.209.2-.139.231-.1.092c-.3.427-.3.427-.622.913h.045c0,.012-.115.173-.208.358l-.266.658.139-.2-.115.161.092-.034-.116.081.024.116s0-.023-.3.335c0,.023-.034.1-.082.289v.1s.012,0,.023.185h.058l.092-.046.1-.1a2.369,2.369,0,0,1,.174-.358l.011.069c.081.093.081.081.44-.162a2.031,2.031,0,0,0,.3-.427,2.93,2.93,0,0,1,.392-.67s.058-.081.139-.219l.2-.127-.082.2c-.08.162-.034.2.082.115.046.243.242.209.507.082l.093.184a.824.824,0,0,0,.15.658l.116.092a1.476,1.476,0,0,0,.589-.346l.08-.069.046.139a4.4,4.4,0,0,1,1.513-.5h.279c.184.093.439-.1.519.023h.081l.035.034a1.248,1.248,0,0,0,.046.6c.3.427-.52,2.7-2.206,3.789l-.313.381a.7.7,0,0,0-.554.2l-.115-.081.069.128a.286.286,0,0,0-.081.092l.012.093.069.035.335.011c.023,0,.023,0,.035-.011a.62.62,0,0,0,0,.208.664.664,0,0,0-.279.542l.013.1.091.035.463-.128.057.07.024.023h-.07v.265l-.023.023-.011.034-.035-.034-.139.046.035.023-.035.058-.069.034.047.035L61.7,57.02l.047.058L61.7,57.02l.013.058-.116-.093-.012.035.012.034.035.093.034.035.034.057.047.035h.07l.011.035c.056.092.056.092.241.265l.117.069L62.3,57.6h.034l.081.046v.034l.08.128.289.381.1.139.2.451.092.115.267.184.046.012.057.115.752.52.15.069.324.046.1-.011.059-.035a.888.888,0,0,0,.254.566c.254.289.6.324.774.116.324-.324.635-.647.935-.994l2.23-1.155c.289-.139.6-.289.878-.416a.307.307,0,0,0,.313-.115,16.251,16.251,0,0,1,5.81-1.686c1.894-.2,2.16.231,2.749,1.791.3,1.109-.461,2.588-1.455,4.031v.058l.126-.1c2.183-2.126,2.311-4.632.97-6.076-.057-.219-.242-.3-.462-.335L78,55.437l-.485-.324.149.1c.139.069.255.069.289.023v-.093c.6.034.878.439,1.293.82a.871.871,0,0,1,.314.427c.08.716.392,1.374.067,2.056l-.045.162c-.057.231.023.462-.022.6l.011.093c-.531,1.732-2.368,3.211-3.962,4.424-.081.058-.128.116-.081.15l-.139.047-.682.45-.046.07.15-.07.728-.462.035-.035.242-.093a10.443,10.443,0,0,0,4.044-4.412,6.7,6.7,0,0,1-1.594,2.576,10.939,10.939,0,0,1-3.177,2.483l-.093.08.163-.046a9.572,9.572,0,0,0,5.013-5.822l.058-.288a4.326,4.326,0,0,1-.5,2.391,13.114,13.114,0,0,1-6.538,4.713c-.126.035-.207.093-.2.128s.115.034.243,0a12.824,12.824,0,0,0,4.354-1.941l-.252.208-.268.2a17.618,17.618,0,0,1-2.772,1.49c-.37.08-.646.265-.646.346.024.115.324.093.7-.012l-.161.069-.093.069.184-.012.589-.312a13.307,13.307,0,0,0,5.014-3.453,13.106,13.106,0,0,1-5.442,3.869c.034-.023.034-.034-.012-.034l-.184.058c-.045.035-.045.035.011.035h.013a10.281,10.281,0,0,1-3.686.669l-.139.058c0,.023.059.023.15.023a12.356,12.356,0,0,0,10.13-5.845l.324-.566a.939.939,0,0,0,.393-.277,11.375,11.375,0,0,1-2.553,3.43A17.918,17.918,0,0,1,75.93,65.5c-.161.08-.265.161-.241.2s.139.023.311-.069l.787-.358c-.2.15-.3.278-.267.358.012.069.15.093.37.058a17.263,17.263,0,0,1-3.546,1.7c-.068.034-.115.046-.081.069l.2-.034a14.631,14.631,0,0,0,4.932-2.541,9.592,9.592,0,0,0,3.43-3.119,4.991,4.991,0,0,0,.913-1.663,8.618,8.618,0,0,1-2.565,3.962,15.661,15.661,0,0,1-8.513,4.378c-.463.035-.785.139-.739.231a1.826,1.826,0,0,0,.97.07,14.9,14.9,0,0,0,8.271-4.055c1.49-1.7,3.1-3.338,3.223-6.192.1-2.853-1.305-6.341-4.632-7.161a1.552,1.552,0,0,0-.832-.219l-.831-.069a16.22,16.22,0,0,0-5.823.623,16.114,16.114,0,0,1,7.035-.89c.173,0,.335.069.311,0a.513.513,0,0,0-.381-.139c-3.511-.508-6.146.439-8.721,1.375a3.649,3.649,0,0,0,.416-1.686c-.681-3.57-1.259-3.443-3.477-5.048a6.106,6.106,0,0,0-6.214,1.178,1.4,1.4,0,0,0-.335.427c0,.058.161-.058.357-.23a6.716,6.716,0,0,1,3.085-1.271,5.516,5.516,0,0,1,5.625,2.98l.174.312a3.011,3.011,0,0,1,.266.981l-.035-.219a2.368,2.368,0,0,0-.416-.912l.057.115a6.248,6.248,0,0,0-1.686-2.009c-3.824-3.223-8.56,1.062-8.836,3.326-.082.219-.1.393-.047.37.069,0,.163-.2.232-.4m4.747,9.091-.174-.346.184.357ZM80.435,52.4v-.023a6.8,6.8,0,0,1,1.7,1.952,6.727,6.727,0,0,1,.613,5.7,7.026,7.026,0,0,0-.717-5.487c-.577-.728-1.016-1.744-1.859-2.125.149.023.23.023.265-.012M65.453,46.542a4.583,4.583,0,0,1,1.918,1.248c-.046,0-.069-.023-.046.023a4.357,4.357,0,0,0-2.3-1.225,1.83,1.83,0,0,0-.992-.046,7.911,7.911,0,0,0-1.293,0,4.917,4.917,0,0,1,2.714,0M61.827,50.7l-.128-.485.163.462Zm21.658.728a11.6,11.6,0,0,0,3.951,3.962,6.693,6.693,0,0,0,2.24,1.04,5.822,5.822,0,0,1-1.074-.5,16.351,16.351,0,0,0,3.072.913l.254.046c2.5.866,7.059-1.12,7.844-3.927l-.207.115a4.275,4.275,0,0,0,.67-1.167l-.209.358.023-.035a11.066,11.066,0,0,0,.578-1.7,17.316,17.316,0,0,0,.472-9.229.988.988,0,0,0-.137-.462c-.059,0-.082.162-.047.393.012.9.047,1.733.047,2.668a35.968,35.968,0,0,1-.486,5.418l-.1.358-.244.485.025-.08.206-.659-.057.128.324-2.461a19.711,19.711,0,0,0-1.143-9.276c-.07-.242-.174-.4-.219-.37a.931.931,0,0,0,.069.555,24.668,24.668,0,0,1,.5,4.066c0,.058-.092-.034-.1.069v.15l-.034-.5c-.185-.647-.255-.912-.311-1.1l-.024-.047-.091-.23-.035-.081-.058-.277-.07-.289V39.75c.209.381.4.612.463.52a2.042,2.042,0,0,0-.313-1.109,4.437,4.437,0,0,0-.276-.462c-.011-.093-.034-.139-.046-.254l-.023.046c0-.023-.058-.219-.127-.451s-.069-.219-.219-.774l.022.278-.022-.231-.047.081.034-.128-.091-.08.046-.52c-.023-.034-.057-.127-.15-.324l-.058-.093c-.022,0-.022,0-.161-.161l-.035.023-.057.1a.584.584,0,0,0,0,.163,2.06,2.06,0,0,0,.057.462l-.057-.07c-.093,0-.128,0-.2.151a17.418,17.418,0,0,0-7.2-5.545c-2.692-.994-5.419-1.675-8.769-.474-4.308,1.733-5.105,6.515-4.481,9.657l.3.959.335.97a29.169,29.169,0,0,0,3.49,6.284c-1.652-2.288-3.361-4.321-4.366-7.485-.069-.232-.15-.359-.174-.324-.046.047,0,.254.069.474a26.948,26.948,0,0,0,6.434,9.993m16.057-6.123-.07-.855a4.818,4.818,0,0,0,.244-1.132c.011.739-.023,1.582-.023,2.322a16.042,16.042,0,0,1-.231,2.564l.011-.312c0-.1.035-.3-.045-.2a10.444,10.444,0,0,0,.115-2.391m-1.213-3.569s-.035.093-.068.2Zm-5.175,8.017c.035,0,.047-.023.082-.058.057.058.012.093-.082.058m2.726-9.911-.16-.069c-.266.6-.289,1.675-.59,2.356l-.115.5a4.733,4.733,0,0,0-.115,1.56l-.047.623.023.428c-.209-.693.231-.948-.034-.786-.5.208-.254,2.53-.381,3.869-.035,1.179-1.4,1.1-1.514,1.41a10.953,10.953,0,0,1-3.037-1.676,20.08,20.08,0,0,1-5.938-7.046c-1.328-1.7-1.1-4.806-.359-5a6.836,6.836,0,0,1,5.407-.324l.046-.023-.185-.1c-3.616-1.283-6.838-.681-6.723,2.1a2.748,2.748,0,0,0-.058,1.074v.161c.012.266-.034.855.035.879-.092-.254-.057-.035-.057-.2-.012-.254-.081-.45-.163-.462l-.069.08a7.057,7.057,0,0,1-.091-2.529l.16-.554a2.857,2.857,0,0,1,1.872-1.236l.209-.035a1.294,1.294,0,0,0,.727-.174l.093-.116a12.719,12.719,0,0,1,7.162,2.311c.127.093.185.127.185.069l.126.128.844.589.1.012L93.1,37.52l-.879-.647-.069-.012-.22-.23a12.1,12.1,0,0,0-7.149-2.415,8.745,8.745,0,0,1,3.823.5A12.179,12.179,0,0,1,93,37.186l.15.069-.115-.161a11.55,11.55,0,0,0-9.322-2.889l-.335.1a6.063,6.063,0,0,1,3.027-.658,14.666,14.666,0,0,1,8.641,5.313c.115.151.207.231.242.2.023-.012-.023-.162-.127-.3a15.362,15.362,0,0,0-4.309-4.181l.382.162.381.254a14.27,14.27,0,0,1,2.957,2.588c.324.392.669.623.774.588.1-.093-.07-.427-.383-.809l.163.162.115.081-.115-.185-.623-.6a14.708,14.708,0,0,0-6.458-4.147,14.658,14.658,0,0,1,7.116,4.493c-.035-.034-.069-.011-.035.047l.162.2c.058.035.069.012.034-.058a11.748,11.748,0,0,1,1.064,1.444c-.035,0-.082-.058-.116-.058h-.185a1.813,1.813,0,0,0-.184.879ZM84.94,32.056a12.666,12.666,0,0,1,5.21,1.213,15.591,15.591,0,0,1,3.443,2.345,13.865,13.865,0,0,0-7.335-3.223l-.82-.046a1.192,1.192,0,0,0-.5-.289m11.067,7.855.022-.034.509.324Zm-17.663-4.62a8.662,8.662,0,0,0-.589,3.234c-.058-.161-.128-.23-.174-.23l-.035.012a9.817,9.817,0,0,1,.485-2.923c1.977-5.591,8.7-5.29,11.922-3.742a17.66,17.66,0,0,1,7.773,5.914,1.829,1.829,0,0,0,.035.323c.081.416.115.416.2.913a1.735,1.735,0,0,0,.035.289,1.831,1.831,0,0,1-.07.277l-.068-.242c-.093-.22-.174-.22-.174-.035-.244-.185-.394,0-.509.312a.253.253,0,0,0-.231-.046,1.35,1.35,0,0,0-.393-.382,14.577,14.577,0,0,0-2.622-3.107c.1.115.2.15.244.128.023-.035-.081-.174-.255-.335l-.82-.739c.3.127.474.219.565.127.07-.034.012-.208-.149-.427a18.335,18.335,0,0,1,3.6,3.465c.057.093.1.1.1.069l-.1-.208a17.662,17.662,0,0,0-5.28-4.736,13.921,13.921,0,0,0-5.36-2.287c-2.981-.716-7.243.935-8.133,4.378M9.175,89.144h0c-.023,0-.058,0-.069-.011.011.011.046.011.069.011M62.438,58.232l.034-.012-.022-.034-.034.012Zm118.7-56.5c-18.368,8.364-33.767,21.255-48.114,34.054l-2.378,2.09a10.61,10.61,0,0,0-1.687,1.075c5.105-4.539,10.235-9.022,15.49-13.376,4.449-3.535,8.941-7.059,13.632-10.3a5.273,5.273,0,0,0,1.19-.982,5.013,5.013,0,0,0-1.305.8l-3.431,2.437c.865-.774,1.444-1.271,1.42-1.433,0-.127-.542.128-1.374.624,4.956-3.708,9.98-7.266,15.134-10.442.287-.2.439-.324.311-.289-.116.058-.427.231-.728.427a192.011,192.011,0,0,0-21.242,14.982c-5.476,4.055-10.651,8.236-16.23,12.984C123.708,41.287,116.406,48.125,109,54.755l-8.167,6.815c.348-.335.532-.589.485-.635h-.092c2.379-1.987,4.771-3.985,7.174-6.076,22.317-19.141,41.931-39.576,67.736-53.333,1.688-.809,2.855-1.5,2.588-1.525a18.449,18.449,0,0,0-3.546,1.432c-12.451,6.481-22.64,14.243-33.245,23.161-7.532,6.376-13.919,12.175-21.209,18.783-8.489,7.855-16.506,14.531-25.157,22.005l-2.553,2.16-2.531,2.23C83.8,75.5,77.156,81,70.42,86.326c7.912-6.539,15.7-13.215,23.184-20,.567-.485.89-.831.8-.831a7.752,7.752,0,0,0-1.2.935C82.688,75.8,71.783,84.813,60.8,93.591c-3.35,1.986-9.946,6.665-15.814,10.962-2.449,1.837-4.238,3.535-6.122,5.233l2.714-2.253c-2.668,2.311-4.771,4.343-6.884,6.146l-.589.45c-.809.566-1.675,1.178-2.564,1.733l.622-3.847-.241.485c.241-1.351.45-2.137.658-3.674l-.278,1.225.023-.08a55.175,55.175,0,0,0,.716-5.661c.52-4.54,1.1-10.189-.485-16.611-.035-.162-.092-.335-.139-.52a18.672,18.672,0,0,0-1.259-3.835c-.324-.658-.7-1.4-.911-1.86a12.574,12.574,0,0,0-6.562-6.376,14.725,14.725,0,0,0-4.932-.947,1.916,1.916,0,0,0-1.433-.209,15.108,15.108,0,0,0-2.761.636c-.3.058-.589.127-.865.2.265-.069.554-.127.83-.2-.265.116-.531.2-.8.289a20.073,20.073,0,0,0-1.952.623l.715-.161C6.009,76.772-.148,85.055.05,89.93c-.035,4.609,0,2.749,1.974-3.119l1.34-2.448.184-.232C1.435,87.573.407,91.339,1.239,93.257c.15.8.265.08.392-.07.209.265.163-2.125,1.191-5.094a21.288,21.288,0,0,1,.96-2.345c.241-.4.5-.832.774-1.224-.023.139-.034.289-.058.439-.185.323-.474.843-.739,1.433a14.579,14.579,0,0,0-1.189,3.234c.034-.1.139-.381.357-.923-.046.115-.151.37-.323.865,0,.023,0,0,.172-.23a2.159,2.159,0,0,0-.23.427l.024.485s-.024-.023-.509,2.056c0,.174.011.555.069,1.536,0,0,.024.266.057.462.024.012.024.012.163.82,0,0,.022.023.069-.058.011-.265.011-.265.092-.335,0,0,.034-.265.058-.693.011-.381-.035-.508.057-1.953l.023.358c.185.3.08.289.716-1.444a12.853,12.853,0,0,1,.752-2.426c.3-.809.462-1.213.657-1.652a6.591,6.591,0,0,0-.08,1.259l.08.1-.022.069.115.555.058.058.034-.116-.1-.566-.035-.023.069-.115A8.824,8.824,0,0,1,5.5,85.736c.093-.126.185-.3.289-.462A10.011,10.011,0,0,0,5.2,88.74l.045.069.047-.092A8.068,8.068,0,0,1,6.345,84.57l.126-.116L6.286,85.9a5.013,5.013,0,0,0-.555,4c.024.069.093.1.128.092l.046-.162a3.536,3.536,0,0,1,.393-2.09l.022.161-.022.139a3.048,3.048,0,0,0-.128,1.293c-.046.14.128.266.289.243a.336.336,0,0,0,.231-.265l.023.058.058.012.046-.035-.1-.208a5.391,5.391,0,0,1,.5-1.721c.035-.035.07-.046.093-.093a5.009,5.009,0,0,0-.254,1.952H6.991v.07l.058-.012a1.18,1.18,0,0,0,.311.567l.035-.012.012-.08c-.2-.082-.278-.44-.265-.925l.1.069L7.36,88.9l.069-.242.279.162h.324c-.093.219.2.312.2.358.047,0,.1-.012.151-.012.126-.092-.231-.289-.024-.658.313-.312.543-.577.89-.936A16.972,16.972,0,0,0,10.3,85.829l.59-.485.092.174.047.034L10.55,86a4.981,4.981,0,0,0-1.375,2.345,1.094,1.094,0,0,0,0,.8c.115,0,.231.023.37.035.507.092-.058-.163.149-.473a3.969,3.969,0,0,1,.507-1.56,6.967,6.967,0,0,1,1.409-1.675l.2-.127.15-.185a8.7,8.7,0,0,1,1.514-.9A6.6,6.6,0,0,0,12.1,85.794l.011.115h.126a11.2,11.2,0,0,1,2.092-1.8,1.569,1.569,0,0,0,1.385.115l.382-.289-.2.035a1.537,1.537,0,0,0,.4-.486h.047a4.06,4.06,0,0,0,1.305-.058l-.059-.15.233.139-.1-.1h.022a.532.532,0,0,0,.313.082,3.019,3.019,0,0,0,.865.392.244.244,0,0,0,.139.127l.081.069a2.9,2.9,0,0,0,.532.612l-.093-.162.161.1-.011-.1c.163.289.4.219.613-.1a1.021,1.021,0,0,0,.069-1.075L20.38,83.2a.549.549,0,0,0,.2-.081,2.481,2.481,0,0,1,1.109.751,12.874,12.874,0,0,1,1.293,1.779l.693,1.247c-1.318-2.125-2.472-2.564-2.426-2.1a31.321,31.321,0,0,1,2.577,11.817,81.836,81.836,0,0,1-.959,14.151c-.335,2.426-.728,4.852-1.109,7.369l-.278,1.906-.138.994-.069.474c.289.289.416.45.485.507-.289-.311-2.137-2.218-.011,0-.058.082-.117.139-.163.2v.115l.1.058.4-.023.2.2a1.024,1.024,0,0,0-.531.774l.046.162.115.011.647-.173.081.093.045.012-.091.023-.013.243-.022.023v.069l-.047.023-.011.047-.034-.012-.2.046.046.058-.058.058-.117.034.082.047-.058-.035.058.07-.07-.07.035.07-.174-.1-.035.07.024.035.057.115.034.046.07.081.046.035h.093l.022.045c.069.128.069.128.324.347l.163.07.15-.035.046-.035.115.07-.011.058.1.15.416.473.1.2.288.554.1.15.359.243.057.034.082.117,1.016.612.2.1.474.082.15-.058.058-.058a1.124,1.124,0,0,0,.335.739.717.717,0,0,0,1.075.1c.5-.45.982-.889,1.433-1.374a14.28,14.28,0,0,0,3.476-1.329c5.591-2.922,9.322-6.55,13.2-9.853,1.907-1.676,3.777-3.281,5.383-4.413,2.529-1.894,4.251-3.246,6.434-4.921,12.37-9.414,22.988-18.643,34.6-28.417,10.707-9.726,21.2-18.771,31.489-28.555,8.64-8.063,14.982-14.5,22.745-21.44.219-.2.219-.254.092-.15a4.736,4.736,0,0,0-.727.589c-12.568,10.7-24.444,22.433-38.052,34.112-1.525,1.305-3.222,2.691-4.562,3.858l-.555.451-4.17,3.511,1.444-1.236a10.2,10.2,0,0,0,1.722-1.71c-.034-.035-.184.069-.428.219,3.407-3.142,6.781-5.984,10.141-9.126,1.017-.9,1.942-1.732,2.705-2.483l11.885-10.27.982-.855a34.792,34.792,0,0,0,3.072-2.876,2.171,2.171,0,0,0,.3-.416c8.826-8.017,17.962-15.906,26.81-22.78.451-.358.682-.554.567-.543l.6-.427c1.051-.82,2.229-1.732,3.522-2.656.279-.2.429-.324.266-.266a8.3,8.3,0,0,0-.739.462c-1.27.982-2.54,1.906-3.684,2.807a1.929,1.929,0,0,0-.209.2c-.265.174-.7.439-1.1.751-9.252,7-17.673,14.463-26.441,22.259,4.192-3.927,8.561-7.855,13.239-11.874,5.659-4.84,10.915-9.242,17.027-13.608.324-.208.519-.392.474-.392a3.814,3.814,0,0,0-.637.392c-12.544,8.953-22.295,18.345-34.249,28.856l-1.4,1.236c3.546-3.408,7-6.781,10.5-10.084C146.151,26.4,157.38,17.063,169.648,9.52a4.44,4.44,0,0,0,1.016-.728,3.89,3.89,0,0,0-1.155.6,191.773,191.773,0,0,0-20.342,13.9l1.305-1.121,1.363-1.04c4.216-3.246,8.526-6.354,12.983-9.252a18.68,18.68,0,0,0,3.037-2.206,9.312,9.312,0,0,0-3,1.525l.763-.508c.254-.185.451-.324.346-.289a6.91,6.91,0,0,0-.7.4l-2.738,1.929A242.61,242.61,0,0,0,138.367,31.2a235.735,235.735,0,0,1,26.245-20.25c-.2.139-.2.2.046.047a7.113,7.113,0,0,0,.785-.508c.209-.162.15-.162-.034-.058a124.7,124.7,0,0,1,15.837-8.64,4.683,4.683,0,0,0,.566-.3c-.024-.058-.324.082-.669.243M5.94,82.952a10.025,10.025,0,0,1,.659-.9,9.664,9.664,0,0,1,.959-.867l-.024.012a.219.219,0,0,0-.057.254,10.7,10.7,0,0,0-1.537,1.5M7.523,87.8a4.215,4.215,0,0,0-.381,1.017,7.215,7.215,0,0,1,.3-1.641c.161-.173.37-.427.6-.682a5.447,5.447,0,0,0-.52,1.305m11.61-4.62a1.7,1.7,0,0,0-.96-.323l-.069-.035-.115-.139H18l.139.046-.035-.046.509.046a2.773,2.773,0,0,0,.715.254.768.768,0,0,0-.2.2m4.111,40.43-.335-.162.184-.069a1.347,1.347,0,0,0,.174.2Zm1.224,2.981-.219-.428.244.428ZM22.2,76.195a10.472,10.472,0,0,1,2.288.832,12.761,12.761,0,0,1,4.459,4c4.042,6.422,3.927,13.064,3.788,19.464l-.058,1.213-.265,1.767.012-.254.2-2.333-.069.427a57.889,57.889,0,0,0-.185-9.149c-.865-4.84-1.732-13.33-10.165-15.964m9.137,19.4c-.035-.358-.092-1.109-.15-.716a28.632,28.632,0,0,0-1.848-9.357,18.9,18.9,0,0,0-1.709-3.339,13.656,13.656,0,0,0-2.426-3.212,16.213,16.213,0,0,1,4.806,7.821,35.726,35.726,0,0,1,1.374,9.945ZM61.226,55.356h0Zm22.34,3.778c.011.012.034-.081.058-.162.589-2.946-.924-6.862-4.425-8.017a.633.633,0,0,0-.219-.081c-.011.023.069.081.16.116,3.49,1.12,4.991,5.036,4.425,7.947-.024.1-.024.2,0,.2M7.754,89.306l.011-.035c-.127.058-.115.058-.011.035m.058-.093-.047.058h.012Zm-.058.093c.011,0,.023-.012.034-.012a.055.055,0,0,0-.034.012m47.58-13.781.035.116.058-.082a16.663,16.663,0,0,0-.219-6.341l-.081-.128-.012.128a16.249,16.249,0,0,1,.219,6.307M7.9,89.248l.045-.012H7.939ZM51.591,60.127l-.011.058.15.047.022-.047ZM10.434,87.446v.069h.081a9.349,9.349,0,0,1,1.57-1.42V86H12a9.36,9.36,0,0,0-1.571,1.444m-2.68,1.86h0c-.035,0-.035.023,0,0m38.223-8.352c4.436,2.265,8.641,1.814,12.348,1.051l.093-.023h.057c-2.333,1.964,3.189-2.714,2.623-2.23v-.035l.069-.2.128-.393.206-.82a7.333,7.333,0,0,0,.244-1.536,16.322,16.322,0,0,0,.1-2.876,23.89,23.89,0,0,0-.948-5.233,18.686,18.686,0,0,0-3.766-6.768c-.058-.047-.069-.047-.069,0l.115.2a21.1,21.1,0,0,1,3.755,11.679l-.081,1.5-.023.2-.265,1.374.069-.485c.046-.312.046-.6-.023-.635l-.1.115a17.547,17.547,0,0,0-.2-3.35l-.139-.879a23.66,23.66,0,0,0-.474-3.7l-.045-.3a2.81,2.81,0,0,0-.381-.935l-.128-.081c-.992-2.634-2.321-5.36-4.806-7.023-.137-.069-.207-.1-.207-.047l-.163-.116a5.356,5.356,0,0,0-1.027-.519c-.1-.035-.15-.035-.128,0l.2.127a5.676,5.676,0,0,1,1.063.555l.081.023.267.232a15.112,15.112,0,0,1,4.412,6.907A23.77,23.77,0,0,0,56.941,63a11.135,11.135,0,0,0-3.732-3.674c-.069-.058-.15-.058-.15-.046,0,.046.081.058.15.126C56.363,61.5,58,64.447,59.031,67.97l.08.427a21,21,0,0,0-1.49-3.038c-1.235-2.876-3.383-6.445-7.162-6.48-.172-.034-.311.035-.311.069.023.058.161.058.311.093a6.227,6.227,0,0,1,4.564,2.888l-.278-.266-.277-.254a6.143,6.143,0,0,0-2.852-1.941c-.44-.092-.8-.023-.844.1-.011.093.276.231.658.265h-.184l-.115.058.161.035a1.515,1.515,0,0,1,.635.162A9.137,9.137,0,0,1,56,64.713c-1.085-2.009-2.633-3.962-4.642-4.586.046,0,.057-.034.011-.034l-.174-.012-.012.046H51.2a3.467,3.467,0,0,0-2.02.139.537.537,0,0,0,.1-.231c.022-.139-.117-.173-.174-.242-.069-.15-.358-.069-.693.139a.6.6,0,0,0-.254.254,11.754,11.754,0,0,0-1.063.982l-.1.243c0,.058.046.058.127-.035a3.245,3.245,0,0,1,.785-.658l.035-.069c0,.023-.011.035-.011.069a.248.248,0,0,1,.081-.069.36.36,0,0,1-.035.069l-.057.035a.571.571,0,0,1-.058.162,10.707,10.707,0,0,0-1.133,1.328l-.115-.023-.091.069.206-.265c.152-.451.219-.612.267-.728l.012-.023.046-.174H47.04l.012-.058.139-.139.1-.15.1-.035.531-.532-.024-.034a.691.691,0,0,1,.174-.219,1.641,1.641,0,0,1,.416-.254l-.185.058.15-.069-.08-.023.115.023v-.093h.335l.128-.163L49,59.341c-.023-.012-.023-.012.035-.161L49,59.133l-.091-.046h-.1c-.047.046-.07.046-.254.127l.022-.047c-.046-.15-.033-.15-.437-.23a2.6,2.6,0,0,0-.428.138,1.9,1.9,0,0,0-.543.393s-.057.058-.15.162l-.23.093.126-.185c.082-.161.047-.208-.092-.161-.023-.266-.23-.324-.52-.243l-.08-.219a1.5,1.5,0,0,0,0-.82l-.093-.162a1.322,1.322,0,0,0-.82.324l-.1.069-.012-.174a7.16,7.16,0,0,0-2.276,1.374l-.44.37a4.184,4.184,0,0,0-1.016,1.479l-.346.716-.15.462c.057-.832.057-1.374-.267-1.317-.542.07-1.525,1.871-1.709,4.031-.763,5.43.993,12.153,6.988,15.687m6.873-4.666a10.249,10.249,0,0,0,2.426-.2l-.012.023-.046.2a9.539,9.539,0,0,1-2.368-.023m2.807.589c-.139.127-.289.254-.474.416l.013-.058A1.031,1.031,0,0,1,55.254,77c.128-.127.312-.289.508-.451Zm.185-.658-.462.069a.468.468,0,0,0,.046-.2v-.034a.531.531,0,0,0,.23-.058l.23-.035Zm1.143-.486h.035c-.289.254-.15.1,0,0,.149-.127.276-.231,0,0-.1.093-.254.2-.463.393h-.092l-.254.058c.151-.139.3-.254.429-.381l.091-.011.174-.035Zm-.394-9.645.255.647h-.023a1.319,1.319,0,0,0-.082.462,16.748,16.748,0,0,0-1.871-3.858,9,9,0,0,0-1.976-2.3,11.522,11.522,0,0,1,3.7,5.048M47.387,64.47l.115-.219c.452-.427.774-1.028,1.248-1.479l-.324.266.37-.462-.1.011A3.5,3.5,0,0,0,49.72,61.2c.093-.427-.161-.693-.8-.486l-.058.023a4.261,4.261,0,0,0,.3-.427,3.885,3.885,0,0,1,3.234.4h-.034c-.035.058.034.162.174.265l.612.486a.486.486,0,0,0-.451-.034c-.069.069-.045.2.035.335a3.117,3.117,0,0,0-2.518-.658l-.069.058h.126c1.052-.2,2.288.554,3.305,1.779A18.357,18.357,0,0,1,55.2,66.608a32.059,32.059,0,0,1,1.42,5.948,15.58,15.58,0,0,1-.069,2.1c-.035-.1-.092-.151-.161-.151h-.034a13.875,13.875,0,0,0,.022-1.824C56.49,67.2,52,59.954,49.513,62.241c-.209.1-.313.265-.23.346a.371.371,0,0,0,.45-.045c.959-.5,2.033-.151,3.662,2a16.331,16.331,0,0,1,2.149,4.9,15.19,15.19,0,0,1,.381,6.284l-1.455.265a12.471,12.471,0,0,1-3.581-.289c-.508-.554-1.433-1.236-2.16-1.906l-.8-.774.289.427a7.744,7.744,0,0,1-.959-1.028l-.046-.115a13.353,13.353,0,0,1-.787-3.5l-.127.093.1-.623-.08.2v-.012l.08-.935c.231-.762.474-1.7.774-2.588a1.692,1.692,0,0,0,.207-.462M46.141,65.5a16.962,16.962,0,0,1,.865-2.2,6.537,6.537,0,0,0-.127.785,9.584,9.584,0,0,0-.856,2.784l-.046.2-.126.289v-.035l.069-.4L45.886,67Zm-.648-4.206.081-.058c-.022.023-.057.035-.081.058m-.244-2.841.059.589-.081-.589Zm.139,5.637.163-.6.576-.612a6.316,6.316,0,0,0-.646,1.479A8.4,8.4,0,0,0,45,66.11l.022-.219c0-.069.013-.2-.057-.139.07-.566.311-1.086.427-1.664M8.193,89.2c.034,0,.034-.023.034-.023a1.123,1.123,0,0,1-.16.034c-.035,0-.059.023-.093.023h.058a.731.731,0,0,0-.244.058c.081-.023.209-.046.335-.081h.046l.024-.012M47.906,60.716l-.034.093.047-.058c.011,0,.011-.035.011-.035h-.011M8.332,89.179a1.8,1.8,0,0,1,.265-.035.666.666,0,0,0-.219.023.118.118,0,0,0-.035.012m.254-.035c.15-.011.324-.011.509-.011a1.255,1.255,0,0,0-.509.011M48.808,59.572h0ZM2.07,92.124a2.147,2.147,0,0,0-.046.577l.035-.393v-.115Zm.5-2.5a.359.359,0,0,0-.024.093.6.6,0,0,0,.024-.093m5.6-.416a1.355,1.355,0,0,1,.163-.034c-.058,0-.093.023-.139.023,0,0,0,.012-.024.012M48.5,59.792l.278-.15.035-.069-.174.069c-.139.035-.174.115-.139.15" transform="translate(-0.012 0)" fill="#e51e26"/>
    <path id="Path_8017" data-name="Path 8017" d="M.068,216.9H3.579a9.923,9.923,0,0,1,1.548.092,2.587,2.587,0,0,1,.914.359,2.5,2.5,0,0,1,.68.75A1.9,1.9,0,0,1,7,219.113a2.093,2.093,0,0,1-1.235,1.894A2.693,2.693,0,0,1,7,221.8a2.217,2.217,0,0,1,.417,1.34,2.525,2.525,0,0,1-.278,1.166,2.3,2.3,0,0,1-.75.913,2.723,2.723,0,0,1-1.189.392c-.3.035-1,.047-2.149.07H.068Zm1.778,1.467v2.021H3c.682,0,1.121,0,1.283-.023a1.311,1.311,0,0,0,.728-.3,1,1,0,0,0,.254-.693.878.878,0,0,0-.233-.658,1.012,1.012,0,0,0-.657-.312c-.184-.011-.693-.034-1.526-.034Zm0,3.5v2.345h1.64a7.941,7.941,0,0,0,1.213-.058,1.251,1.251,0,0,0,.647-.335,1.149,1.149,0,0,0,.242-.751,1.2,1.2,0,0,0-.185-.682,1.245,1.245,0,0,0-.554-.416,7.375,7.375,0,0,0-1.571-.1Z" transform="translate(-0.018 -58.754)" fill="#e51e26"/>
    <path id="Path_8018" data-name="Path 8018" d="M33.359,225.685h-1.94l-.752-2h-3.5l-.739,2H24.545l3.419-8.79h1.883ZM30.1,222.2l-1.224-3.257L27.7,222.2Z" transform="translate(-6.649 -58.754)" fill="#e51e26"/>
    <path id="Path_8019" data-name="Path 8019" d="M51.493,225.685v-8.791h1.779v3.465h3.455v-3.465h1.779v8.791H56.726V221.85H53.272v3.835Z" transform="translate(-13.949 -58.753)" fill="#e51e26"/>
    <path id="Path_8020" data-name="Path 8020" d="M77.209,225.685v-8.791h3.742a6.743,6.743,0,0,1,2.02.232,1.865,1.865,0,0,1,1.017.866,2.56,2.56,0,0,1-.184,3.015,2.833,2.833,0,0,1-1.733.8,4.324,4.324,0,0,1,.96.739,10.374,10.374,0,0,1,.993,1.433l1.074,1.71H82.971l-1.27-1.906a9.938,9.938,0,0,0-.935-1.294,1.445,1.445,0,0,0-.532-.369,2.967,2.967,0,0,0-.89-.116h-.37v3.685Zm1.766-5.071h1.318a7,7,0,0,0,1.594-.1,1.07,1.07,0,0,0,.5-.358,1.109,1.109,0,0,0,.185-.658,1.133,1.133,0,0,0-.233-.739,1.111,1.111,0,0,0-.692-.323,8.614,8.614,0,0,0-1.283-.047H78.975Z" transform="translate(-20.915 -58.753)" fill="#e51e26"/>
    <path id="Path_8021" data-name="Path 8021" d="M110.5,225.685h-1.929l-.774-2h-3.5l-.74,2H101.7l3.407-8.79h1.883Zm-3.27-3.489-1.2-3.257-1.19,3.257Z" transform="translate(-27.55 -58.754)" fill="#e51e26"/>
    <rect id="Rectangle_1145" data-name="Rectangle 1145" width="1.755" height="8.791" transform="translate(93.743 158.141)" fill="#e51e26"/>
    <path id="Path_8022" data-name="Path 8022" d="M146.9,225.685v-8.791h1.722l3.592,5.88v-5.88h1.652v8.791h-1.791l-3.522-5.718v5.718Z" transform="translate(-39.793 -58.753)" fill="#e51e26"/>
  </g>
</svg>
