<?xml version="1.0" encoding="UTF-8"?>
<svg id="Layer_2" data-name="Layer 2" xmlns="http://www.w3.org/2000/svg" viewBox="0 0 135 40">
  <defs>
    <style>
      .cls-1 {
        fill: #002838;
      }

      .cls-1, .cls-2, .cls-3 {
        stroke-width: 0px;
      }

      .cls-2 {
        fill: #a7a6a6;
      }

      .cls-3 {
        fill: #fff;
      }
    </style>
  </defs>
  <g id="artwork">
    <g>
      <g>
        <path class="cls-1" d="M130,40H5c-2.8,0-5-2.2-5-5V5C0,2.2,2.2,0,5,0h125c2.8,0,5,2.2,5,5v30c0,2.7-2.2,5-5,5Z"/>
        <path class="cls-2" d="M130,.8c2.3,0,4.2,1.9,4.2,4.2v30c0,2.3-1.9,4.2-4.2,4.2H5c-2.3,0-4.2-1.9-4.2-4.2V5C.8,2.7,2.7.8,5,.8h125M130,0H5C2.2,0,0,2.2,0,5v30c0,2.8,2.2,5,5,5h125c2.8,0,5-2.2,5-5V5c0-2.8-2.2-5-5-5h0Z"/>
      </g>
      <g>
        <path class="cls-3" d="M120.9,18.8c0-3.1,2.6-4.6,2.7-4.7-1.5-2.1-3.7-2.4-4.5-2.5-1.9-.2-3.8,1.1-4.7,1.1s-2.5-1.1-4.1-1.1c-2.1,0-4,1.2-5.1,3.1-2.2,3.8-.6,9.4,1.5,12.5,1.1,1.5,2.3,3.2,3.9,3.1,1.6,0,2.2-1,4.1-1s2.4,1,4.1,1,2.8-1.5,3.8-3c1.2-1.7,1.7-3.4,1.7-3.5,0,0-3.3-1.3-3.3-5h-.1Z"/>
        <path class="cls-3" d="M117.8,9.7c.8-1.1,1.4-2.5,1.3-4-1.2,0-2.8.8-3.6,1.9-.8.9-1.5,2.4-1.3,3.8,1.4.1,2.8-.7,3.7-1.7h-.1Z"/>
      </g>
      <g>
        <path class="cls-3" d="M18.6,26.6h-5.4l-1.3,3.8h-2.3l5.1-14.1h2.4l5.1,14.1h-2.3l-1.3-3.8ZM13.8,24.9h4.3l-2.1-6.2h0l-2.1,6.2h-.1Z"/>
        <path class="cls-3" d="M33.2,25.3c0,3.2-1.7,5.2-4.3,5.2s-2.6-.7-3.2-1.8h0v5.1h-2.1v-13.7h2v1.7h0c.6-1.1,1.8-1.8,3.3-1.8,2.6,0,4.3,2.1,4.3,5.3ZM31,25.3c0-2.1-1.1-3.5-2.7-3.5s-2.7,1.4-2.7,3.5,1.1,3.5,2.7,3.5,2.7-1.4,2.7-3.5Z"/>
        <path class="cls-3" d="M44.5,25.3c0,3.2-1.7,5.2-4.3,5.2s-2.6-.7-3.2-1.8h0v5.1h-2.1v-13.7h2v1.7h0c.6-1.1,1.8-1.8,3.3-1.8,2.6,0,4.3,2.1,4.3,5.3ZM42.4,25.3c0-2.1-1.1-3.5-2.7-3.5s-2.7,1.4-2.7,3.5,1.1,3.5,2.7,3.5,2.7-1.4,2.7-3.5Z"/>
        <path class="cls-3" d="M52,26.5c.2,1.4,1.5,2.3,3.4,2.3s3.1-.9,3.1-2.2-.8-1.8-2.6-2.2l-1.8-.4c-2.6-.6-3.8-1.8-3.8-3.8s2.1-4.1,5.1-4.1,5,1.7,5.1,4.1h-2.1c-.1-1.4-1.3-2.3-3-2.3s-2.9.9-2.9,2.1.7,1.6,2.6,2l1.6.4c2.9.7,4.1,1.8,4.1,3.9s-2.1,4.3-5.4,4.3-5.2-1.6-5.4-4.2h2.2l-.2.1Z"/>
        <path class="cls-3" d="M65.2,17.7v2.4h2v1.7h-2v5.7c0,.9.4,1.3,1.3,1.3s.6,0,.7,0v1.7h-1.2c-2.1,0-2.9-.8-2.9-2.8v-5.9h-1.5v-1.7h1.5v-2.4s2.1,0,2.1,0Z"/>
        <path class="cls-3" d="M68.3,25.3c0-3.2,1.9-5.3,4.9-5.3s4.9,2,4.9,5.3-1.9,5.3-4.9,5.3-4.9-2-4.9-5.3ZM75.9,25.3c0-2.2-1-3.5-2.7-3.5s-2.7,1.3-2.7,3.5,1,3.5,2.7,3.5,2.7-1.3,2.7-3.5Z"/>
        <path class="cls-3" d="M79.8,20.1h2v1.8h0c.3-1.2,1.3-1.9,2.5-1.9s.6,0,.7,0v2c-.2,0-.5-.1-.9-.1-1.4,0-2.2.9-2.2,2.4v6.1h-2.1v-10.3Z"/>
        <path class="cls-3" d="M94.8,27.4c-.3,1.9-2.1,3.1-4.4,3.1s-4.8-2-4.8-5.2,1.9-5.3,4.8-5.3,4.6,2,4.6,5.1v.7h-7.3c0,1.9,1.1,3,2.8,3s2.1-.6,2.4-1.4h2-.1ZM87.7,24.3h5.1c0-1.6-1.1-2.6-2.5-2.6s-2.5,1.1-2.6,2.6Z"/>
      </g>
      <g>
        <path class="cls-3" d="M60.2,14.2h-.7c-1.4,0-3-.3-3-2.3s.4-2.1.6-2.6l1,.3v.4c-.2.3-.5,1.4-.5,1.9,0,1.4,1.3,1.4,2.2,1.4h.6c.4,0,1.1-.2,1.1-.7v-3.9h1.1v2.9c.2,0,.5.1.7.1h.4v.9h-.4c-.2,0-.5,0-.7-.1h0c0,.7-.4,1.7-2.3,1.7h-.1ZM59.6,7.5c-.4,0-.6-.3-.6-.6s.3-.6.7-.6.7.3.7.6-.3.6-.7.6h-.1Z"/>
        <path class="cls-3" d="M64.7,11.6c-.1-.4-.2-.8-.2-1.3,0-1.2.7-2.3,2.1-2.3s2,1.1,2,2.5-.4,2.4-1.7,2.4-.8-.1-1.3-.3h-2.2v-.9h1.4l-.1-.1ZM65.8,11.6c.3.1.7.2,1.1.2.6,0,.8-.8.8-1.5s-.2-1.6-1-1.6-1,.7-1,1.5,0,.8.2,1.3l-.1.1Z"/>
        <path class="cls-3" d="M75.6,14.1h-.7c-1.4,0-3-.3-3-2.3s.4-2.1.6-2.6l1,.3v.4c-.2.3-.5,1.4-.5,1.9,0,1.4,1.3,1.4,2.2,1.4h.6c.4,0,1.1-.2,1.1-.7v-6.6h1.1v5.6c.2,0,.5.1.7.1h.4v.9h-.4c-.2,0-.5,0-.7-.1h0c0,.7-.4,1.7-2.3,1.7h-.1Z"/>
        <path class="cls-3" d="M82.6,7.9v2.8c0,1.2-.7,1.8-2.1,1.8h-1.6v-.9h1.6c.8,0,1.1-.4,1.1-1v-2.6h1.1l-.1-.1ZM79.9,14.7c-.4,0-.6-.3-.6-.6s.3-.6.7-.6.7.3.7.6-.3.6-.7.6h-.1ZM81.6,14.7c-.4,0-.6-.3-.6-.6s.3-.6.7-.6.7.3.7.6-.3.6-.7.6h-.1Z"/>
        <path class="cls-3" d="M83.3,14h.5c.9,0,1.3-.5,1.3-1.5v-4h1.1v3.1h1v.9h-1c0,.8-.3,1.5-.7,1.8-.4.4-1,.6-1.7.6h-.7l.3-.9h-.1ZM85.6,7.5c-.4,0-.6-.3-.6-.6s.3-.6.7-.6.7.3.7.6-.3.6-.7.6h-.1Z"/>
        <path class="cls-3" d="M90.7,12.5c-.3,0-.8,0-1.2-.3-.4.3-1,.3-1.7.3h-.8v-.9h.9c.8,0,1-.1,1-.7v-2.9h1.1v3.4c.2.1.5.2.8.2h.7v.9h-.8ZM89.3,6.9c-.4,0-.6-.3-.6-.6s.3-.6.7-.6.7.3.7.6-.3.6-.7.6h-.1Z"/>
        <path class="cls-3" d="M93.9,7.9v2.8c0,1.2-.7,1.8-2.1,1.8h-.6v-.9h.6c.8,0,1.1-.4,1.1-1v-2.6h1.1l-.1-.1ZM92.3,6.9c-.4,0-.6-.3-.6-.6s.3-.6.7-.6.7.3.7.6-.3.6-.7.6h-.1ZM94,6.9c-.4,0-.6-.3-.6-.6s.3-.6.7-.6.7.3.7.6-.3.6-.7.6h-.1Z"/>
      </g>
    </g>
  </g>
</svg>