<svg width="48" height="48" viewBox="0 0 48 48" fill="none" xmlns="http://www.w3.org/2000/svg">
<g clip-path="url(#clip0_1202_1083)">
<path d="M24.7886 4.71623C31.0909 4.71623 31.8376 4.7402 34.3249 4.85452C36.626 4.95961 37.8762 5.34313 38.7077 5.66765C39.8085 6.09541 40.5958 6.608 41.4218 7.43404C42.2479 8.26007 42.7586 9.04554 43.1864 10.1482C43.5091 10.9797 43.8944 12.2298 43.9995 14.5309C44.1138 17.0201 44.1378 17.7669 44.1378 24.0672C44.1378 30.3676 44.1138 31.1162 43.9995 33.6035C43.8944 35.9046 43.5109 37.1547 43.1864 37.9863C42.7586 39.0871 42.246 39.8744 41.4218 40.7004C40.5958 41.5265 39.8103 42.0372 38.7077 42.465C37.8762 42.7876 36.626 43.173 34.3249 43.2781C31.8358 43.3924 31.0909 43.4164 24.7886 43.4164C18.4864 43.4164 17.7397 43.3924 15.2523 43.2781C12.9512 43.173 11.7011 42.7895 10.8696 42.465C9.7688 42.0372 8.98148 41.5246 8.15545 40.7004C7.32941 39.8744 6.81867 39.0889 6.3909 37.9863C6.06823 37.1547 5.68287 35.9046 5.57777 33.6035C5.46345 31.1144 5.43948 30.3676 5.43948 24.0672C5.43948 17.7669 5.46345 17.0183 5.57777 14.5309C5.68287 12.2298 6.06638 10.9797 6.3909 10.1482C6.81867 9.04739 7.33125 8.26007 8.15545 7.43404C8.98148 6.608 9.76695 6.09726 10.8696 5.66765C11.7011 5.34498 12.9512 4.95961 15.2523 4.85452C17.7415 4.7402 18.4883 4.71623 24.7886 4.71623ZM24.7886 0.464355C18.3795 0.464355 17.5756 0.492013 15.0587 0.60633C12.5475 0.720648 10.8308 1.12076 9.32997 1.70341C7.77746 2.30634 6.46096 3.11394 5.15 4.4249C3.83719 5.73771 3.03144 7.05236 2.42851 8.60487C1.84586 10.1057 1.44575 11.8224 1.33143 14.3337C1.21711 16.8505 1.18945 17.6544 1.18945 24.0635C1.18945 30.4727 1.21711 31.2766 1.33143 33.7934C1.44575 36.3047 1.84586 38.0213 2.42851 39.5222C3.03144 41.0747 3.83904 42.3912 5.15 43.7022C6.46281 45.015 7.77746 45.8207 9.32997 46.4237C10.8308 47.0063 12.5475 47.4064 15.0587 47.5208C17.5756 47.6351 18.3795 47.6627 24.7886 47.6627C31.1978 47.6627 32.0017 47.6351 34.5185 47.5208C37.0298 47.4064 38.7464 47.0063 40.2473 46.4237C41.7998 45.8207 43.1163 45.0132 44.4273 43.7022C45.7401 42.3894 46.5458 41.0747 47.1488 39.5222C47.7314 38.0213 48.1315 36.3047 48.2459 33.7934C48.3602 31.2766 48.3878 30.4727 48.3878 24.0635C48.3878 17.6544 48.3602 16.8505 48.2459 14.3337C48.1315 11.8224 47.7314 10.1057 47.1488 8.60487C46.5458 7.05236 45.7382 5.73587 44.4273 4.4249C43.1145 3.1121 41.7998 2.30634 40.2473 1.70341C38.7464 1.12076 37.0298 0.720648 34.5185 0.60633C32.0017 0.492013 31.1978 0.464355 24.7886 0.464355ZM24.7886 11.9459C18.0955 11.9459 12.6691 17.3723 12.6691 24.0654C12.6691 30.7585 18.0955 36.1849 24.7886 36.1849C31.4817 36.1849 36.9081 30.7585 36.9081 24.0654C36.9081 17.3723 31.4817 11.9459 24.7886 11.9459ZM24.7886 31.933C20.4446 31.933 16.921 28.4113 16.921 24.0654C16.921 19.7195 20.4427 16.1978 24.7886 16.1978C29.1346 16.1978 32.6563 19.7195 32.6563 24.0654C32.6563 28.4113 29.1346 31.933 24.7886 31.933ZM40.2197 11.4665C40.2197 13.0301 38.9511 14.2986 37.3875 14.2986C35.824 14.2986 34.5554 13.0301 34.5554 11.4665C34.5554 9.90293 35.824 8.63437 37.3875 8.63437C38.9511 8.63437 40.2197 9.90293 40.2197 11.4665Z" fill="white"/>
</g>
<defs>
<clipPath id="clip0_1202_1083">
<rect width="47.2021" height="47.2021" fill="white" transform="translate(0.74707 0.464355)"/>
</clipPath>
</defs>
</svg>
