<svg width="40" height="39" viewBox="0 0 40 39" fill="none" xmlns="http://www.w3.org/2000/svg">
<path d="M5.41281 0.0952148C2.84039 0.0952148 0.758229 2.18112 0.757812 4.74771C0.757812 7.31681 2.83997 9.4023 5.41323 9.4023C7.9794 9.4023 10.0645 7.31681 10.0645 4.74771C10.0645 2.1807 7.97899 0.0952148 5.41281 0.0952148Z" fill="white"/>
<path d="M9.42534 12.9321H1.39844V38.7579H9.42534V12.9321Z" fill="white"/>
<path d="M29.8598 12.2905C25.9552 12.2905 23.337 14.4314 22.2653 16.4615H22.1579V12.9327H14.4594H14.459V38.758H22.4788V25.9821C22.4788 22.6139 23.1202 19.3515 27.2961 19.3515C31.4122 19.3515 31.4671 23.2037 31.4671 26.1981V38.7576H39.4882V24.5925C39.4882 17.6393 37.9878 12.2905 29.8598 12.2905Z" fill="white"/>
</svg>
