<?xml version="1.0" encoding="UTF-8"?>
<svg id="Layer_2" data-name="Layer 2" xmlns="http://www.w3.org/2000/svg" xmlns:xlink="http://www.w3.org/1999/xlink" viewBox="0 0 35.66 21.18">
  <defs>
    <style>
      .cls-1 {
        fill: none;
      }

      .cls-2 {
        fill: #fff;
        fill-rule: evenodd;
      }

      .cls-3 {
        fill: #dcdce6;
      }

      .cls-4 {
        fill: #1b1b21;
      }

      .cls-5 {
        fill: #005128;
      }

      .cls-6 {
        clip-path: url(#clippath);
      }

      .cls-7 {
        fill: #00b67a;
      }
    </style>
    <clipPath id="clippath">
      <rect class="cls-1" x=".09" width="28.21" height="6.87"/>
    </clipPath>
  </defs>
  <g id="Layer_1-2" data-name="Layer 1">
    <g>
      <path class="cls-7" d="M.09,8.52h6.13v6.13H.09v-6.13Z"/>
      <path class="cls-7" d="M.09,8.52h3.07v6.13H.09v-6.13Z"/>
      <path class="cls-2" d="M3.66,11.11h1.64l-1.32.94-.82.58-1.33.94.5-1.52-1.33-.94h1.64l.5-1.52.5,1.52ZM4.09,12.4l-.93.23,1.32.95-.39-1.18Z"/>
      <path class="cls-7" d="M7.45,8.52h6.13v6.13h-6.13v-6.13Z"/>
      <path class="cls-7" d="M7.45,8.52h3.07v6.13h-3.07v-6.13Z"/>
      <path class="cls-2" d="M11.02,11.11h1.64l-1.32.94-.82.58-1.33.94.5-1.52-1.33-.94h1.64l.5-1.52.5,1.52ZM11.45,12.4l-.93.23,1.32.95-.39-1.18Z"/>
      <path class="cls-7" d="M14.81,8.52h6.13v6.13h-6.13v-6.13Z"/>
      <path class="cls-7" d="M14.81,8.52h3.07v6.13h-3.07v-6.13Z"/>
      <path class="cls-2" d="M18.38,11.11h1.64l-1.32.94-.82.58-1.33.94.5-1.52-1.33-.94h1.64l.5-1.52.5,1.52ZM18.81,12.4l-.93.23,1.32.95-.39-1.18Z"/>
      <path class="cls-7" d="M22.17,8.52h6.13v6.13h-6.13v-6.13Z"/>
      <path class="cls-7" d="M22.17,8.52h3.07v6.13h-3.07v-6.13Z"/>
      <path class="cls-2" d="M25.74,11.11h1.64l-1.32.94-.82.58-1.33.94.5-1.52-1.33-.94h1.64l.5-1.52.5,1.52ZM26.17,12.4l-.93.23,1.32.95-.39-1.18Z"/>
      <path class="cls-3" d="M29.53,8.52h6.13v6.13h-6.13v-6.13Z"/>
      <path class="cls-7" d="M29.53,8.52h3.07v6.13h-3.07v-6.13Z"/>
      <path class="cls-2" d="M33.1,11.11h1.64l-1.32.94-.82.58-1.33.94.5-1.52-1.33-.94h1.64l.5-1.52.5,1.52ZM33.53,12.4l-.93.23,1.32.95-.39-1.18h0Z"/>
      <g class="cls-6">
        <g>
          <path class="cls-4" d="M7.51,2.44h2.86v.53h-1.12v2.97h-.62v-2.97h-1.12v-.53h0ZM10.24,3.4h.53v.49h.01c.02-.07.05-.14.1-.2.1-.14.24-.24.4-.31.08-.03.17-.05.25-.05.06,0,.11,0,.14,0s.05,0,.08,0v.54s-.08-.01-.12-.02c-.04,0-.08,0-.12,0-.09,0-.18.02-.27.06-.08.04-.16.09-.22.17-.06.07-.11.16-.15.27-.04.11-.05.23-.05.37v1.21h-.56v-2.53h0,0ZM14.32,5.94h-.55v-.35h0c-.07.13-.18.24-.31.31-.13.07-.27.11-.42.12-.34,0-.58-.08-.73-.25-.15-.17-.22-.42-.22-.75v-1.61h.56v1.55c0,.22.04.38.13.47.08.09.21.14.36.14.12,0,.22-.02.3-.05.08-.04.14-.08.19-.15.05-.06.08-.13.11-.22.02-.08.03-.18.03-.27v-1.47h.56v2.53h0ZM15.28,5.12c.02.16.08.28.19.34.11.06.24.1.39.1.05,0,.11,0,.18-.01s.13-.02.19-.05c.06-.02.11-.06.15-.1.04-.05.06-.11.05-.17,0-.07-.03-.13-.08-.18-.06-.05-.12-.09-.19-.11-.09-.03-.17-.05-.26-.07-.1-.02-.2-.04-.3-.06-.1-.02-.2-.05-.3-.08-.09-.03-.18-.08-.26-.13-.08-.05-.14-.13-.18-.21-.05-.09-.07-.19-.07-.32,0-.14.04-.25.1-.35.07-.09.15-.17.26-.22.11-.06.23-.1.35-.12.12-.02.24-.03.36-.03.13,0,.26.01.38.04.12.03.23.07.33.14.1.06.18.14.24.24.06.1.1.22.12.36h-.59c-.03-.13-.09-.22-.18-.27-.1-.05-.22-.07-.33-.07-.04,0-.09,0-.14,0-.05,0-.1.02-.15.04-.05.02-.09.04-.12.08-.03.04-.05.09-.05.14,0,.07.02.12.07.17s.11.08.19.11c.08.03.16.05.26.07.1.02.2.04.31.06.1.02.2.05.3.08.1.03.19.08.26.13.08.06.14.13.19.21.05.08.07.19.07.31,0,.15-.03.28-.1.38-.07.1-.16.19-.27.25-.11.07-.24.12-.37.14-.13.03-.27.04-.4.04-.16,0-.31-.02-.45-.05-.13-.03-.25-.09-.36-.16-.1-.07-.18-.17-.24-.27-.06-.11-.09-.24-.09-.39h.57s0,0,0,0ZM17.14,3.4h.43v-.76h.56v.76h.51v.42h-.51v1.35c0,.06,0,.11,0,.15,0,.04.02.08.03.11.02.03.05.05.08.07.04.01.08.02.15.02.04,0,.08,0,.12,0s.08,0,.12-.02v.43c-.06,0-.12.01-.18.02-.06,0-.12.01-.18,0-.15,0-.27-.01-.36-.04-.08-.02-.15-.06-.21-.12-.05-.06-.09-.13-.1-.2-.02-.09-.03-.19-.03-.28v-1.49h-.43v-.42h0,0ZM19.04,3.4h.53v.34h0c.08-.15.19-.25.33-.32.14-.06.3-.1.46-.1.2,0,.38.03.53.11.15.07.27.17.37.29.1.13.18.27.22.43.05.16.07.34.07.52,0,.17-.02.34-.07.49-.04.16-.11.3-.2.43-.09.12-.21.22-.34.29-.14.07-.3.11-.49.11-.08,0-.16,0-.25-.02-.08-.01-.16-.04-.24-.07-.15-.06-.28-.17-.37-.3h0v1.26h-.56v-3.47h0ZM21,4.67c0-.11-.01-.22-.04-.33-.03-.1-.07-.2-.13-.29-.06-.08-.13-.15-.22-.2-.09-.05-.2-.08-.31-.08-.24,0-.42.08-.54.24-.12.16-.18.38-.18.65,0,.13.02.25.05.36.03.11.08.2.14.28.06.08.14.14.22.19.09.05.19.07.3.07.13,0,.24-.03.33-.08.09-.05.16-.12.22-.2.06-.08.1-.18.12-.28.02-.11.03-.21.03-.33h0ZM22,2.44h.56v.53h-.56v-.53ZM22,3.4h.56v2.53h-.56v-2.53ZM23.06,2.44h.56v3.5h-.56v-3.5ZM25.35,6.01c-.19,0-.37-.03-.55-.1-.15-.06-.29-.16-.41-.28-.11-.12-.2-.27-.25-.42-.06-.17-.09-.36-.09-.54,0-.19.03-.37.09-.53.06-.16.14-.3.25-.42s.25-.21.41-.28c.17-.07.36-.1.55-.1.2,0,.39.03.55.1.16.07.29.16.41.28.11.12.19.26.25.42.06.16.09.34.09.53s-.03.38-.09.54c-.06.16-.14.3-.25.42-.11.12-.25.21-.41.28-.16.07-.34.1-.55.1ZM25.35,5.56c.12,0,.23-.03.33-.08.09-.05.17-.12.23-.21.06-.09.1-.18.13-.29.03-.11.04-.21.04-.33s-.01-.21-.04-.32c-.03-.11-.07-.2-.13-.29-.13-.18-.33-.29-.55-.28-.12,0-.23.03-.33.08-.09.05-.17.12-.23.2-.06.09-.11.18-.13.29-.03.11-.04.21-.04.32s.01.22.04.33c.03.11.07.2.13.29.06.08.13.15.23.21.09.05.2.08.33.08h0ZM26.81,3.4h.43v-.76h.56v.76h.51v.42h-.51v1.35c0,.06,0,.11,0,.15,0,.04.02.08.03.11.02.03.05.05.08.07.04.01.08.02.15.02.04,0,.08,0,.12,0s.08,0,.12-.02v.43c-.06,0-.12.01-.18.02-.06,0-.12.01-.18,0-.15,0-.27-.01-.36-.04-.08-.02-.15-.06-.21-.12-.05-.06-.09-.13-.1-.2-.02-.09-.03-.19-.03-.28v-1.49h-.43v-.42h0,0Z"/>
          <path class="cls-7" d="M6.85,2.44h-2.58l-.8-2.44-.8,2.44H.09s2.09,1.5,2.09,1.5l-.8,2.43,2.09-1.5,2.09,1.5-.8-2.43,2.09-1.5h0Z"/>
          <path class="cls-5" d="M4.94,4.49l-.18-.55-1.29.93,1.47-.38Z"/>
        </g>
      </g>
      <g>
        <path d="M1.47,17.5h-.17l.02-.33h1.29v-.85H.4l-.17,2.02h.97c.4,0,.5.1.5.24,0,.17-.19.26-.44.26-.28,0-.6-.08-.89-.24l-.38.83c.36.2.86.3,1.31.3,1.06,0,1.52-.58,1.52-1.17s-.38-1.06-1.36-1.06Z"/>
        <path d="M6.09,17.35c.09,0,.15-.03.2-.08.05-.05.07-.12.07-.21s-.02-.15-.07-.21c-.05-.05-.11-.08-.2-.08s-.15.02-.2.07c-.05.05-.07.12-.07.21s.02.16.07.21c.05.05.11.07.2.07Z"/>
        <path d="M9.77,17.53c-.15-.09-.33-.13-.52-.13-.16,0-.32.03-.47.09s-.28.14-.4.23c-.06.11-.1.23-.13.36s-.04.26-.04.4c0,.12.01.24.04.38.03.13.07.28.13.43h-1.06v-1.93h-.4v2.31c0,.17-.03.31-.09.42s-.14.2-.26.25c-.12.06-.27.08-.45.08h-.23c-.2,0-.35-.07-.46-.21-.11-.14-.16-.34-.16-.59,0-.21.01-.39.04-.56.03-.17.07-.32.12-.46h-.39c-.06.16-.11.33-.14.5s-.05.36-.05.55c0,.21.03.4.1.56.07.16.16.29.28.39.08.06.16.11.26.14.1.03.2.05.32.05h.34c.4,0,.7-.1.89-.29.19-.19.29-.48.29-.85h1.83c.21,0,.4-.05.57-.14s.29-.24.38-.42c.04-.09.08-.19.1-.3.02-.11.03-.22.03-.35,0-.2-.04-.38-.12-.55-.08-.16-.2-.29-.34-.38ZM9.73,18.9c-.05.13-.12.22-.22.28s-.22.1-.36.1h-.34c-.07-.17-.12-.32-.14-.46-.03-.14-.04-.29-.04-.43,0-.08,0-.16,0-.23s.02-.14.05-.2c.08-.06.16-.1.26-.14.1-.04.2-.05.3-.05.16,0,.29.06.4.19.11.13.16.29.16.49,0,.18-.03.33-.08.46Z"/>
        <polygon points="15.08 17.71 14.03 17.71 14.03 18.21 13.58 18.21 14.83 16.33 13.68 16.33 12.27 18.37 12.27 19.09 13.99 19.09 13.99 19.66 15.08 19.66 15.08 19.09 15.52 19.09 15.52 18.21 15.08 18.21 15.08 17.71"/>
        <path d="M16.36,18.48c-.36,0-.63.24-.63.61s.27.62.63.62.63-.26.63-.62-.27-.61-.63-.61Z"/>
        <path d="M19.78,17.9c.2-.16.33-.38.33-.66,0-.6-.57-.99-1.37-.99s-1.37.39-1.37.99c0,.28.12.49.33.66-.28.17-.45.43-.45.77,0,.65.61,1.06,1.49,1.06s1.49-.42,1.49-1.06c0-.33-.17-.59-.45-.77ZM18.74,17.01c.15,0,.27.1.27.29s-.11.28-.27.28-.27-.1-.27-.28.11-.29.27-.29ZM18.74,18.98c-.21,0-.37-.13-.37-.35s.15-.35.37-.35.37.13.37.35-.15.35-.37.35Z"/>
        <path d="M27.23,20.1c-.11,0-.19.03-.26.1-.06.07-.1.16-.1.28s.03.21.1.27c.06.07.15.1.26.1.1,0,.18-.03.25-.1.06-.07.1-.16.1-.28s-.03-.21-.09-.28c-.06-.07-.15-.1-.25-.1Z"/>
        <path d="M26.29,20.1c-.11,0-.2.04-.26.11-.06.07-.09.16-.09.27s.03.2.09.27c.06.07.15.11.26.11.1,0,.19-.03.25-.1.06-.07.09-.16.09-.28s-.03-.21-.09-.28c-.06-.07-.15-.1-.26-.1Z"/>
        <path d="M29.5,20.1c-.11,0-.19.03-.26.1-.06.07-.1.16-.1.28s.03.21.1.27c.06.07.15.1.26.1.1,0,.18-.03.25-.1.06-.07.1-.16.1-.28s-.03-.21-.09-.28c-.06-.07-.15-.1-.25-.1Z"/>
        <path d="M28.56,20.1c-.11,0-.2.04-.26.11-.06.07-.09.16-.09.27s.03.2.09.27c.06.07.15.11.26.11.1,0,.19-.03.25-.1.06-.07.09-.16.09-.28s-.03-.21-.09-.28c-.06-.07-.15-.1-.26-.1Z"/>
        <path d="M31.73,16.89c.1,0,.19-.03.25-.1s.1-.16.1-.28-.03-.21-.09-.28-.15-.1-.26-.1-.2.04-.26.11c-.06.07-.09.16-.09.27s.03.2.09.27c.06.07.15.11.26.11Z"/>
        <path d="M32.67,16.89c.1,0,.18-.03.25-.1s.1-.16.1-.28-.03-.21-.09-.28-.15-.1-.25-.1-.19.03-.26.1c-.06.07-.09.16-.09.28s.03.21.09.28c.06.07.15.1.26.1Z"/>
        <path d="M34.38,16.89c.1,0,.19-.03.25-.1.06-.07.09-.16.09-.28s-.03-.21-.09-.28c-.06-.07-.15-.1-.26-.1s-.2.04-.26.11c-.06.07-.09.16-.09.27s.03.2.09.27c.06.07.15.11.26.11Z"/>
        <path d="M34.47,18.95h-1.39v-1.69h-.99c-.32,0-.59.04-.81.13-.22.09-.39.21-.51.37-.12.16-.18.34-.18.56,0,.09.01.17.04.25s.07.15.12.22c.05.06.1.11.16.15h-.71s-.66,0-.66,0v-1.68h-.9v1.68h-1.38v-1.68h-.9v1.68h-.69c-.1,0-.19,0-.25-.03-.07-.02-.13-.05-.17-.08.03-.07.05-.14.06-.22.01-.08.02-.17.02-.26,0-.22-.06-.42-.17-.6s-.28-.32-.49-.42c-.09-.04-.19-.08-.29-.1-.1-.02-.22-.03-.34-.03-.15,0-.3.03-.48.08s-.33.12-.48.22c-.11.14-.18.28-.22.43s-.06.28-.06.4c0,.14.02.26.06.37.04.1.08.19.14.27h-.04c-.13.01-.25.05-.36.11-.1.06-.19.14-.25.25-.06.1-.09.23-.09.37v1.48h.91v-1.14c0-.14.03-.24.09-.29s.17-.09.33-.09h.3c.19,0,.37-.03.54-.09.17-.06.32-.14.45-.24.11.12.23.21.36.25.12.05.25.07.41.07,0,0,0,0,0,0h9.71v-2.38h-.9v1.68ZM24.38,18.72c-.04.08-.1.14-.17.18-.07.04-.15.06-.24.06h-.15c-.04-.09-.07-.17-.09-.26-.02-.09-.03-.17-.03-.25,0-.06,0-.13.01-.2,0-.07.03-.13.05-.19.05-.04.1-.07.15-.08.05-.01.1-.02.15-.02.11,0,.2.04.27.12.07.08.11.2.11.35,0,.12-.02.22-.06.3ZM32.18,18.95h-.12c-.09,0-.19-.02-.27-.06s-.16-.09-.22-.17-.09-.17-.09-.27.03-.2.08-.27c.05-.07.12-.12.22-.16s.2-.05.33-.05h.08v.98Z"/>
        <path d="M35.57,16.23c-.06-.07-.15-.1-.25-.1s-.19.03-.26.1-.1.16-.1.28.03.21.1.28c.06.07.15.1.26.1.1,0,.18-.03.25-.1.06-.07.1-.16.1-.28s-.03-.21-.09-.28Z"/>
      </g>
    </g>
  </g>
</svg>