<?xml version="1.0" encoding="UTF-8"?>
<svg id="Layer_2" data-name="Layer 2" xmlns="http://www.w3.org/2000/svg" xmlns:xlink="http://www.w3.org/1999/xlink" viewBox="0 0 35.57 18.67">
  <defs>
    <style>
      .cls-1 {
        fill: none;
      }

      .cls-2 {
        fill: #fff;
        fill-rule: evenodd;
      }

      .cls-3 {
        fill: #dcdce6;
      }

      .cls-4 {
        fill: #1b1b21;
      }

      .cls-5 {
        fill: #005128;
      }

      .cls-6 {
        clip-path: url(#clippath);
      }

      .cls-7 {
        fill: #00b67a;
      }
    </style>
    <clipPath id="clippath">
      <rect class="cls-1" width="28.21" height="6.87"/>
    </clipPath>
  </defs>
  <g id="Layer_1-2" data-name="Layer 1">
    <g>
      <path class="cls-7" d="M0,8.52h6.13v6.13H0v-6.13Z"/>
      <path class="cls-7" d="M0,8.52h3.07v6.13H0v-6.13Z"/>
      <path class="cls-2" d="M3.57,11.11h1.64l-1.32.94-.82.58-1.33.94.5-1.52-1.33-.94h1.64l.5-1.52.5,1.52ZM4,12.4l-.93.23,1.32.95-.39-1.18Z"/>
      <path class="cls-7" d="M7.36,8.52h6.13v6.13h-6.13v-6.13Z"/>
      <path class="cls-7" d="M7.36,8.52h3.07v6.13h-3.07v-6.13Z"/>
      <path class="cls-2" d="M10.93,11.11h1.64l-1.32.94-.82.58-1.33.94.5-1.52-1.33-.94h1.64l.5-1.52.5,1.52ZM11.36,12.4l-.93.23,1.32.95-.39-1.18Z"/>
      <path class="cls-7" d="M14.72,8.52h6.13v6.13h-6.13v-6.13Z"/>
      <path class="cls-7" d="M14.72,8.52h3.07v6.13h-3.07v-6.13Z"/>
      <path class="cls-2" d="M18.29,11.11h1.64l-1.32.94-.82.58-1.33.94.5-1.52-1.33-.94h1.64l.5-1.52.5,1.52ZM18.72,12.4l-.93.23,1.32.95-.39-1.18Z"/>
      <path class="cls-7" d="M22.08,8.52h6.13v6.13h-6.13v-6.13Z"/>
      <path class="cls-7" d="M22.08,8.52h3.07v6.13h-3.07v-6.13Z"/>
      <path class="cls-2" d="M25.65,11.11h1.64l-1.32.94-.82.58-1.33.94.5-1.52-1.33-.94h1.64l.5-1.52.5,1.52ZM26.08,12.4l-.93.23,1.32.95-.39-1.18Z"/>
      <path class="cls-3" d="M29.44,8.52h6.13v6.13h-6.13v-6.13Z"/>
      <path class="cls-7" d="M29.44,8.52h3.07v6.13h-3.07v-6.13Z"/>
      <path class="cls-2" d="M33.01,11.11h1.64l-1.32.94-.82.58-1.33.94.5-1.52-1.33-.94h1.64l.5-1.52.5,1.52ZM33.44,12.4l-.93.23,1.32.95-.39-1.18h0Z"/>
      <g class="cls-6">
        <g>
          <path class="cls-4" d="M7.41,2.44h2.86v.53h-1.12v2.97h-.62v-2.97h-1.12v-.53h0ZM10.15,3.4h.53v.49h.01c.02-.07.05-.14.1-.2.1-.14.24-.24.4-.31.08-.03.17-.05.25-.05.06,0,.11,0,.14,0s.05,0,.08,0v.54s-.08-.01-.12-.02c-.04,0-.08,0-.12,0-.09,0-.18.02-.27.06-.08.04-.16.09-.22.17-.06.07-.11.16-.15.27-.04.11-.05.23-.05.37v1.21h-.56v-2.53h0,0ZM14.23,5.94h-.55v-.35h0c-.07.13-.18.24-.31.31-.13.07-.27.11-.42.12-.34,0-.58-.08-.73-.25-.15-.17-.22-.42-.22-.75v-1.61h.56v1.55c0,.22.04.38.13.47.08.09.21.14.36.14.12,0,.22-.02.3-.05.08-.04.14-.08.19-.15.05-.06.08-.13.11-.22.02-.08.03-.18.03-.27v-1.47h.56v2.53h0ZM15.19,5.12c.02.16.08.28.19.34.11.06.24.1.39.1.05,0,.11,0,.18-.01s.13-.02.19-.05c.06-.02.11-.06.15-.1.04-.05.06-.11.05-.17,0-.07-.03-.13-.08-.18-.06-.05-.12-.09-.19-.11-.09-.03-.17-.05-.26-.07-.1-.02-.2-.04-.3-.06-.1-.02-.2-.05-.3-.08-.09-.03-.18-.08-.26-.13-.08-.05-.14-.13-.18-.21-.05-.09-.07-.19-.07-.32,0-.14.04-.25.1-.35.07-.09.15-.17.26-.22.11-.06.23-.1.35-.12.12-.02.24-.03.36-.03.13,0,.26.01.38.04.12.03.23.07.33.14.1.06.18.14.24.24.06.1.1.22.12.36h-.59c-.03-.13-.09-.22-.18-.27-.1-.05-.22-.07-.33-.07-.04,0-.09,0-.14,0-.05,0-.1.02-.15.04-.05.02-.09.04-.12.08-.03.04-.05.09-.05.14,0,.07.02.12.07.17s.11.08.19.11c.08.03.16.05.26.07.1.02.2.04.31.06.1.02.2.05.3.08.1.03.19.08.26.13.08.06.14.13.19.21.05.08.07.19.07.31,0,.15-.03.28-.1.38-.07.1-.16.19-.27.25-.11.07-.24.12-.37.14-.13.03-.27.04-.4.04-.16,0-.31-.02-.45-.05-.13-.03-.25-.09-.36-.16-.1-.07-.18-.17-.24-.27-.06-.11-.09-.24-.09-.39h.57s0,0,0,0ZM17.05,3.4h.43v-.76h.56v.76h.51v.42h-.51v1.35c0,.06,0,.11,0,.15,0,.04.02.08.03.11.02.03.05.05.08.07.04.01.08.02.15.02.04,0,.08,0,.12,0s.08,0,.12-.02v.43c-.06,0-.12.01-.18.02-.06,0-.12.01-.18,0-.15,0-.27-.01-.36-.04-.08-.02-.15-.06-.21-.12-.05-.06-.09-.13-.1-.2-.02-.09-.03-.19-.03-.28v-1.49h-.43v-.42h0,0ZM18.95,3.4h.53v.34h0c.08-.15.19-.25.33-.32.14-.06.3-.1.46-.1.2,0,.38.03.53.11.15.07.27.17.37.29.1.13.18.27.22.43.05.16.07.34.07.52,0,.17-.02.34-.07.49-.04.16-.11.3-.2.43-.09.12-.21.22-.34.29-.14.07-.3.11-.49.11-.08,0-.16,0-.25-.02-.08-.01-.16-.04-.24-.07-.15-.06-.28-.17-.37-.3h0v1.26h-.56v-3.47h0ZM20.91,4.67c0-.11-.01-.22-.04-.33-.03-.1-.07-.2-.13-.29-.06-.08-.13-.15-.22-.2-.09-.05-.2-.08-.31-.08-.24,0-.42.08-.54.24-.12.16-.18.38-.18.65,0,.13.02.25.05.36.03.11.08.2.14.28.06.08.14.14.22.19.09.05.19.07.3.07.13,0,.24-.03.33-.08.09-.05.16-.12.22-.2.06-.08.1-.18.12-.28.02-.11.03-.21.03-.33h0ZM21.91,2.44h.56v.53h-.56v-.53ZM21.91,3.4h.56v2.53h-.56v-2.53ZM22.97,2.44h.56v3.5h-.56v-3.5ZM25.26,6.01c-.19,0-.37-.03-.55-.1-.15-.06-.29-.16-.41-.28-.11-.12-.2-.27-.25-.42-.06-.17-.09-.36-.09-.54,0-.19.03-.37.09-.53.06-.16.14-.3.25-.42s.25-.21.41-.28c.17-.07.36-.1.55-.1.2,0,.39.03.55.1.16.07.29.16.41.28.11.12.19.26.25.42.06.16.09.34.09.53s-.03.38-.09.54c-.06.16-.14.3-.25.42-.11.12-.25.21-.41.28-.16.07-.34.1-.55.1ZM25.26,5.56c.12,0,.23-.03.33-.08.09-.05.17-.12.23-.21.06-.09.1-.18.13-.29.03-.11.04-.21.04-.33s-.01-.21-.04-.32c-.03-.11-.07-.2-.13-.29-.13-.18-.33-.29-.55-.28-.12,0-.23.03-.33.08-.09.05-.17.12-.23.2-.06.09-.11.18-.13.29-.03.11-.04.21-.04.32s.01.22.04.33c.03.11.07.2.13.29.06.08.13.15.23.21.09.05.2.08.33.08h0ZM26.72,3.4h.43v-.76h.56v.76h.51v.42h-.51v1.35c0,.06,0,.11,0,.15,0,.04.02.08.03.11.02.03.05.05.08.07.04.01.08.02.15.02.04,0,.08,0,.12,0s.08,0,.12-.02v.43c-.06,0-.12.01-.18.02-.06,0-.12.01-.18,0-.15,0-.27-.01-.36-.04-.08-.02-.15-.06-.21-.12-.05-.06-.09-.13-.1-.2-.02-.09-.03-.19-.03-.28v-1.49h-.43v-.42h0,0Z"/>
          <path class="cls-7" d="M6.76,2.44h-2.58l-.8-2.44-.8,2.44H0s2.09,1.5,2.09,1.5l-.8,2.43,2.09-1.5,2.09,1.5-.8-2.43,2.09-1.5h0Z"/>
          <path class="cls-5" d="M4.85,4.49l-.18-.55-1.29.93,1.47-.38Z"/>
        </g>
      </g>
      <path d="M0,15.99v2.64h2v-.49H.58v-.65h1.28v-.45H.58v-.56h1.39v-.49H0h0ZM2.83,17.62l-.69,1h.59l.4-.6.4.6h.6l-.71-1.02.63-.89h-.58l-.33.5-.34-.5h-.6s.63.9.63.9ZM5.62,17.39h.51c0-.11-.03-.22-.09-.32-.05-.09-.12-.17-.2-.23-.08-.06-.18-.11-.28-.14-.11-.03-.22-.04-.32-.04-.16,0-.29.03-.41.08-.12.05-.22.12-.31.22-.08.09-.15.2-.19.33-.04.13-.06.27-.06.41,0,.14.02.27.07.4.05.12.11.22.2.31.08.09.18.15.3.2.12.05.25.07.4.07.25,0,.46-.07.62-.2s.26-.33.3-.58h-.51c-.02.12-.06.21-.13.28-.07.07-.16.1-.29.1-.08,0-.15-.02-.21-.06-.06-.04-.1-.08-.14-.14-.03-.06-.06-.13-.07-.2-.03-.14-.03-.28,0-.42.01-.07.04-.14.07-.2.04-.06.08-.11.14-.15.06-.04.13-.06.21-.06.22,0,.35.11.39.33ZM7.73,17.46h-.85s0-.08.02-.13c.02-.05.04-.09.07-.13.03-.04.08-.08.13-.1.06-.03.13-.04.21-.04.13,0,.22.03.28.1.06.07.11.17.13.3ZM6.87,17.8h1.38c.01-.15,0-.29-.04-.42-.03-.13-.09-.25-.17-.36-.08-.11-.18-.19-.3-.25-.12-.06-.26-.1-.42-.1-.14,0-.28.03-.4.08-.12.05-.22.12-.31.21-.09.09-.15.19-.2.32-.05.12-.07.26-.07.4s.02.28.07.41c.05.12.11.23.2.32.08.09.19.16.31.21.12.05.26.07.41.07.22,0,.4-.05.55-.15.15-.1.27-.26.34-.49h-.46c-.02.06-.06.12-.14.17-.08.05-.18.08-.27.08-.15,0-.26-.04-.34-.11-.08-.08-.12-.2-.13-.37h0ZM8.58,15.99v2.64h.52v-2.64h-.52ZM9.53,15.99v2.64h.52v-2.64h-.52ZM11.75,17.46h-.85s0-.08.02-.13c.02-.05.04-.09.07-.13.03-.04.08-.08.13-.1.06-.03.13-.04.21-.04.13,0,.22.03.28.1.06.07.11.17.13.3ZM10.9,17.8h1.38c0-.15,0-.29-.04-.42-.03-.13-.09-.25-.17-.36-.08-.11-.18-.19-.3-.25-.12-.06-.26-.1-.42-.1-.15,0-.28.03-.4.08-.12.05-.22.12-.31.21-.09.09-.15.19-.2.32-.05.12-.07.26-.07.4s.02.28.07.41c.05.12.11.23.2.32.08.09.19.16.31.21.12.05.26.07.41.07.22,0,.4-.05.55-.15.15-.1.27-.26.34-.49h-.46c-.02.06-.06.12-.14.17-.08.05-.18.08-.27.08-.15,0-.26-.04-.34-.11-.08-.08-.12-.2-.13-.37ZM12.59,16.71v1.91h.52v-1c0-.19.03-.33.1-.42.06-.09.17-.13.31-.13.13,0,.21.04.26.12.05.08.07.19.07.35v1.08h.52v-1.17c0-.12-.01-.23-.03-.32-.02-.09-.05-.17-.11-.25-.06-.07-.13-.13-.21-.16-.09-.04-.2-.06-.34-.06-.11,0-.22.03-.32.08-.11.05-.2.14-.26.24h-.01v-.27h-.5,0ZM15.44,16.71v-.57h-.52v.57h-.32v.35h.32v1.13c0,.1.02.17.05.23.03.06.07.1.13.14.06.03.12.05.19.06.07.01.15.02.23.02.05,0,.1,0,.16,0,.05,0,.1,0,.15-.01v-.41s-.05,0-.08.01c-.03,0-.06,0-.08,0-.09,0-.15-.01-.18-.04-.03-.03-.04-.09-.04-.18v-.95h.38v-.35h-.38,0ZM18.05,16.7v.9h-.68l.67-.9h.01,0ZM18.05,18.03v.6h.5v-.6h.34v-.43h-.34v-1.55h-.47l-1.12,1.51v.48h1.09ZM19.17,18.05v.57h.58v-.57h-.58ZM20.61,16.74c0-.06.01-.11.03-.16.02-.04.05-.08.09-.11.04-.03.08-.05.13-.07.05-.02.1-.03.15-.03.08,0,.15.01.2.04.05.02.09.05.12.09.03.04.05.08.06.12.01.04.01.08.01.11,0,.11-.04.2-.11.25-.07.06-.17.08-.28.08s-.2-.03-.28-.08c-.08-.06-.12-.14-.12-.25ZM20.14,16.69c0,.13.03.24.1.34s.16.16.28.2h0c-.16.04-.28.12-.36.23-.08.11-.13.25-.13.41,0,.14.03.26.08.36.06.1.13.18.22.25.09.07.2.11.31.14.12.03.24.05.37.05s.24-.02.35-.05c.12-.03.22-.08.31-.15.09-.07.16-.15.22-.25.06-.1.08-.22.08-.36,0-.16-.04-.3-.13-.41-.08-.11-.2-.19-.36-.22h0c.13-.05.22-.12.28-.21.11-.16.13-.37.05-.55-.03-.09-.08-.16-.15-.23-.08-.08-.17-.14-.27-.18-.11-.05-.25-.07-.41-.07-.11,0-.21.01-.31.04-.1.03-.2.07-.28.13-.08.06-.15.13-.2.22-.05.09-.08.2-.08.31h0ZM20.55,17.84c0-.13.04-.23.13-.3.09-.07.2-.11.32-.11.06,0,.12.01.17.03.05.02.1.05.14.08.04.04.07.08.1.13.02.05.04.1.04.17s-.01.12-.03.18-.05.1-.1.14c-.04.04-.09.07-.14.09-.11.04-.24.04-.35,0-.05-.02-.1-.05-.15-.09-.04-.04-.07-.09-.1-.14-.03-.06-.04-.12-.04-.18ZM23.52,17.67c0-.12.01-.22.04-.31.03-.09.08-.17.13-.23.05-.06.12-.11.19-.14.15-.06.31-.06.46,0,.07.03.14.08.19.14.05.06.1.14.13.23.03.09.05.19.05.31s-.02.22-.05.31c-.03.08-.07.16-.13.23-.05.06-.12.11-.19.14-.15.06-.31.06-.46,0-.07-.03-.14-.08-.19-.14-.06-.07-.1-.14-.13-.23-.03-.1-.05-.21-.04-.31ZM23.19,17.67c0,.14.02.27.06.39.04.12.1.23.18.32.08.09.18.16.29.21.12.05.25.07.4.07s.29-.02.4-.07c.11-.05.21-.12.29-.21.08-.09.14-.2.18-.32.04-.12.06-.25.06-.39s-.02-.27-.06-.39c-.04-.12-.1-.23-.18-.32-.08-.09-.18-.17-.29-.21-.11-.05-.25-.08-.4-.08s-.28.03-.4.08c-.11.05-.21.12-.29.21-.08.09-.14.19-.18.32-.04.12-.06.25-.06.39ZM26.99,18.62v-1.91h-.31v1.08c0,.09-.01.17-.04.24-.02.07-.06.13-.1.19-.05.06-.11.1-.18.13-.08.03-.16.05-.25.04-.12,0-.22-.03-.28-.1-.07-.07-.1-.16-.1-.28v-1.29h-.31v1.26c0,.1.01.2.03.28.02.08.06.16.11.22s.12.11.2.14c.08.03.19.05.31.05.14,0,.26-.03.37-.08.11-.06.2-.15.25-.26h0v.3h.3ZM27.9,16.71v-.57h-.31v.57h-.32v.28h.32v1.21c0,.09,0,.16.03.21.01.05.04.09.08.13.04.03.08.05.14.06.06.01.13.01.21.01h.24v-.28h-.14s-.08,0-.12,0c-.03,0-.05-.01-.07-.03-.02-.01-.03-.03-.04-.05,0-.03,0-.06,0-.09v-1.19h.38v-.28h-.38ZM29.89,17.67c0-.12.01-.22.04-.31.03-.09.08-.17.13-.23.11-.12.26-.19.42-.19.08,0,.16.02.23.05.07.03.14.08.19.14.05.06.1.14.13.23.03.09.05.19.05.31s-.02.22-.05.31c-.03.08-.07.16-.13.23-.05.06-.12.11-.19.14-.15.06-.31.06-.46,0-.07-.03-.14-.08-.19-.14-.06-.07-.1-.14-.13-.23-.03-.1-.05-.21-.04-.31ZM29.55,17.67c0,.14.02.27.06.39.04.12.1.23.18.32.08.09.18.16.29.21.12.05.25.07.4.07s.29-.02.4-.07c.11-.05.21-.12.29-.21.08-.09.14-.2.18-.32.04-.12.06-.25.06-.39s-.02-.27-.06-.39c-.04-.12-.1-.23-.18-.32-.08-.09-.18-.17-.29-.21-.11-.05-.25-.08-.4-.08s-.28.03-.4.08c-.11.05-.21.12-.29.21-.08.09-.14.19-.18.32-.04.12-.06.25-.06.39ZM31.91,16.99v1.63h.31v-1.63h.37v-.28h-.37v-.27c0-.08.02-.14.06-.17.04-.03.1-.04.18-.04.03,0,.06,0,.09,0,.03,0,.06,0,.09.02v-.27c-.07-.02-.13-.03-.2-.03-.17,0-.3.04-.4.12-.09.08-.13.2-.13.35v.28h-.32v.28h.32ZM35.4,16.33v-.28h-1.29l-.24,1.36h.27c.06-.06.13-.12.21-.16.08-.05.17-.07.28-.07.09,0,.17.01.24.04.07.03.14.07.19.13.05.05.09.11.12.19.03.07.04.15.04.24,0,.1-.01.19-.04.27-.03.07-.07.14-.12.19-.05.05-.11.09-.18.12-.07.02-.14.04-.21.04-.07,0-.15-.01-.22-.03-.06-.02-.12-.06-.17-.1-.05-.04-.09-.09-.11-.15-.03-.06-.04-.12-.05-.19h-.31c0,.12.03.22.07.32.04.09.1.17.18.24.08.06.16.11.26.14.1.03.21.05.32.05.15,0,.29-.02.4-.07.12-.05.21-.11.29-.2.08-.08.13-.17.17-.28.04-.11.06-.21.06-.32,0-.15-.02-.28-.07-.39-.04-.11-.1-.2-.18-.28-.08-.08-.17-.13-.27-.17-.11-.04-.22-.06-.33-.06-.09,0-.18.02-.27.05-.08.03-.16.07-.22.14h0s.14-.76.14-.76h1.06Z"/>
    </g>
  </g>
</svg>