<svg width="70" height="70" viewBox="0 0 70 70" fill="none" xmlns="http://www.w3.org/2000/svg">
<path d="M63.9277 22.2012L46.9576 5.23102C43.3987 1.67217 38.4912 -0.238379 33.4714 0.023853L14.7406 0.922933C7.24822 1.26009 1.29182 7.21649 0.917206 14.6714L0.0181257 33.4022C-0.206644 38.422 1.66644 43.3295 5.2253 46.8884L22.1954 63.8585C29.1633 70.8264 40.4767 70.8264 47.482 63.8585L63.9277 47.4128C70.933 40.4824 70.933 29.169 63.9277 22.2012ZM25.2298 35.987C19.2734 35.987 14.4409 31.1545 14.4409 25.1981C14.4409 19.2417 19.2734 14.4091 25.2298 14.4091C31.1862 14.4091 36.0188 19.2417 36.0188 25.1981C36.0188 31.1545 31.1862 35.987 25.2298 35.987Z" fill="#022A3A"/>
</svg>
