<?xml version="1.0" encoding="UTF-8"?>
<svg id="Layer_2" data-name="Layer 2" xmlns="http://www.w3.org/2000/svg" viewBox="0 0 48 48">
  <defs>
    <style>
      .cls-1 {
        fill: #002838;
      }

      .cls-1, .cls-2 {
        stroke-width: 0px;
      }

      .cls-2 {
        fill: #f4ce12;
      }
    </style>
  </defs>
  <g id="Layer_1-2" data-name="Layer 1">
    <g>
      <circle class="cls-2" cx="24" cy="24" r="24"/>
      <path class="cls-1" d="M22.09,19.7h-8.6v8.6h8.6v-8.6ZM19.94,24.41l-3.34,1.91c-.23.13-.52.05-.65-.18-.04-.07-.06-.15-.06-.24v-3.82c0-.26.21-.48.48-.48.08,0,.17.02.24.06l3.34,1.91c.23.13.31.42.18.65-.04.07-.1.14-.18.18h0ZM33.08,32.12h-.96v-.96h.96v.96ZM16.83,22.91l1.9,1.09-1.9,1.09v-2.18ZM27.82,28.3h-.96v-.96h.96v.96ZM36.9,11.58H11.1c-.53,0-.95.43-.96.96v2.87h27.71v-2.87c0-.53-.43-.95-.96-.96ZM12.53,13.97c-.26,0-.48-.21-.48-.48s.21-.48.48-.48.48.21.48.48-.21.48-.48.48ZM14.44,13.97c-.26,0-.48-.21-.48-.48s.21-.48.48-.48.48.21.48.48-.21.48-.48.48ZM16.36,13.97c-.26,0-.48-.21-.48-.48s.21-.48.48-.48.48.21.48.48-.21.48-.48.48ZM29.26,20.66h-.96v-.96h.96v.96ZM32.12,24.48h-.96v-.96h.96v.96ZM10.14,35.47c0,.53.43.95.96.96h25.8c.53,0,.95-.43.96-.96v-19.11H10.14v19.11ZM25.43,19.7h1.91v-.48c0-.26.21-.48.48-.48h1.91c.26,0,.48.21.48.48h0v.48h4.78c.26,0,.48.21.48.48s-.21.48-.48.48h-4.78v.48c0,.26-.21.48-.48.48h-1.91c-.26,0-.48-.21-.48-.48h0v-.48h-1.91c-.26,0-.48-.21-.48-.48s.21-.48.48-.48ZM25.43,23.52h4.78v-.48c0-.26.21-.48.48-.48h1.91c.26,0,.48.21.48.48h0v.48h1.91c.26,0,.48.21.48.48s-.21.48-.48.48h-1.91v.48c0,.26-.21.48-.48.48h-1.91c-.26,0-.48-.21-.48-.48h0v-.48h-4.78c-.26,0-.48-.21-.48-.48s.21-.48.48-.48ZM25.43,27.34h.48v-.48c0-.26.21-.48.48-.48h1.91c.26,0,.48.21.48.48h0v.48h6.21c.26,0,.48.21.48.48s-.21.48-.48.48h-6.21v.48c0,.26-.21.48-.48.48h-1.91c-.26,0-.48-.21-.48-.48h0v-.48h-.48c-.26,0-.48-.21-.48-.48s.21-.48.48-.48ZM25.43,31.17h5.73v-.48c0-.26.21-.48.48-.48h1.91c.26,0,.48.21.48.48h0s.96,0,.96,0c.26,0,.48.21.48.48s-.21.48-.48.48h-.96v.96c0,.26-.21.48-.48.48h-1.91c-.26,0-.48-.21-.48-.48h0v-.48h-5.73c-.26,0-.48-.21-.48-.48s.21-.48.48-.48ZM12.53,19.7c0-.53.43-.95.96-.96h8.6c.53,0,.95.43.96.96v8.6c0,.53-.43.95-.96.96h-8.6c-.53,0-.95-.43-.96-.96v-8.6ZM13.01,30.69h4.78c.26,0,.48.21.48.48s-.21.48-.48.48h-4.78c-.26,0-.48-.21-.48-.48s.21-.48.48-.48ZM13.01,32.12h9.56c.26,0,.48.21.48.48s-.21.48-.48.48h-9.56c-.26,0-.48-.21-.48-.48s.21-.48.48-.48Z"/>
    </g>
  </g>
</svg>