<?xml version="1.0" encoding="UTF-8"?>
<svg id="Layer_2" data-name="Layer 2" xmlns="http://www.w3.org/2000/svg" viewBox="0 0 42.31 8.73">
  <defs>
    <style>
      .cls-1 {
        fill: #2f5241;
      }

      .cls-2 {
        fill: #c6b995;
      }
    </style>
  </defs>
  <g id="Layer_1-2" data-name="Layer 1">
    <g>
      <path class="cls-2" d="M8.43,7.09s0,.02-.02.03c0,.03-.03.06-.04.09-.02.04-.04.08-.06.12-.02.05-.05.09-.07.14s-.05.09-.07.14c-.03.06-.06.14-.13.18-.07.05-.16.05-.23.06h-.07c-.07,0-.14,0-.2-.02-.43-.1-.75-.48-.75-.93v-1.12s-.05.05-.07.07c-.06.06-.13.12-.18.17-.08.06-.15.13-.22.18-.07.06-.14.12-.21.17-.04.03-.09.06-.14.08-.12.06-.23.11-.35.16-.05.03-.1.05-.16.07-.05.02-.11.05-.15.09-.1.1-.03.23.11.24h.26c.38,0,1.05,0,1.1-.11v.2c-.15.46-.56.65-.75.72-.06.02-.12.03-.18.03h-.59c-.29,0-.53-.23-.53-.53,0-.05,0-.09.02-.14h0s0,0,0-.02c.04-.17.33-1.22.83-1.48.49-.24,1.11-.31,1.2-.57v-.99l.75-1.1v3.18c0,.49.4.89.89.91"/>
      <path class="cls-2" d="M12.49,6.9s0,.02-.02.03c0,.03-.03.06-.04.09-.02.04-.04.08-.06.12l-.07.14s-.05.09-.07.13c-.03.07-.06.15-.13.18-.07.05-.16.05-.23.06h-.07c-.07,0-.14,0-.2-.02-.43-.1-.75-.48-.75-.93v-2.78l.75-1.1v3.18c0,.5.39.89.88.91"/>
      <path class="cls-2" d="M18.12,6.9s0,.02-.02.03c0,.03-.03.06-.04.09-.02.04-.04.08-.06.12l-.07.14s-.05.09-.07.13c-.03.07-.06.15-.13.18-.07.05-.16.05-.23.06h-.07c-.07,0-.14,0-.2-.02-.43-.1-.75-.48-.75-.93v-2.78l.75-1.1v3.18c0,.5.39.89.88.91"/>
      <path class="cls-2" d="M37.75,7.07s0,.02-.02.03c0,.03-.03.06-.04.09-.02.04-.04.08-.06.12-.02.05-.05.09-.07.14-.02.04-.05.09-.07.13-.03.07-.06.14-.13.18-.07.05-.16.05-.23.06h-.07c-.07,0-.14,0-.2-.02-.43-.1-.75-.48-.75-.93V2.29l.75-1.1v4.95c0,.5.39.9.88.92"/>
      <path class="cls-2" d="M39.53,7.06s0,.02-.02.03c0,.03-.03.06-.04.09-.02.04-.04.08-.06.12-.02.05-.05.09-.07.14-.02.04-.05.09-.07.13-.03.07-.06.14-.13.18-.07.05-.16.05-.23.06h-.07c-.07,0-.14,0-.2-.02-.43-.1-.75-.48-.75-.93V1.65l.75-1.1v5.58c0,.5.39.9.88.92"/>
      <path class="cls-1" d="M1.44,2.33s-.75.04-.78.72c-.02.53,1.14.72,1.14.72,0,0,2.38.26,2.78.91.4.65.47,1.87-.88,2.7-1.34.83-3.17.23-3.55-.53-.34-.67.05-.95.05-.95.05,1.02,3.79,1.6,3.91.45.1-.81-.34-1.32-1.41-1.37-1.08-.05-3.3-.18-2.25-2.4.67-1.42,1.64-1.38,1.93-1.33.05,0,.07.06.05.1l-.14.29s0,.09.05.09l1.09.02s.06-.02.08-.05l.09-.16s.08-.03.09,0l.1.26s.05.06.08.06h.37s.09-.05.07-.1l-.1-.28c-.02-.06,0-.13.03-.17l.17-.25c.04-.06.13-.05.16,0,.14.28.34.96-.41,1.53l-.75.04s-.05,0-.06-.03l-.07-.08s-.13-.06-.17,0l-.12.1s-.03.02-.05.02l-1.16.04c-.06,0-.1-.04-.1-.1v-.2s-.02-.06-.05-.06h-.18Z"/>
      <path class="cls-2" d="M10.29,6.89c-.44-.07-.78-.45-.78-.9v-3.18l-.75,1.1v2.79c0,.36.2.68.5.84.05.03.12.07.23.09h.02s.08.02.12.02c1.24.2,1.31-.76,1.31-.76h-.65Z"/>
      <path class="cls-2" d="M15.6,5.99V1.84s0-.29.31-.46c.25-.14-.16-.35-.16-.35,0,0-.59-.31-.47-1.04,0,0-.78.42-.44.95v2.02h-.02c-.07-.02-.14-.02-.2-.02h-.07c-.6-.05-1.07.11-1.07.11-.67.73-.82,1.08-.82,1.08v2.58c0,.38.21.7.53.85.16.17,1.18.13,1.18.13l.46-.77h-.54c-.5-.02-.88-.43-.88-.92v-2.23s.53-.05.59-.04c.46.04.83.43.83.89v1.71l.02-.02v.41c0,.46.32.84.75.93.07.02.14.02.2.02h.07c.08,0,.17,0,.23-.06.06-.05.09-.12.13-.18.02-.04.05-.09.07-.14l.07-.14s.04-.08.06-.12c.02-.03.03-.06.04-.09,0,0,0-.02.02-.03-.5-.05-.89-.45-.89-.94"/>
      <path class="cls-2" d="M34.31,6.94s-.05,0-.04,0c-.02.05-.31-.07-.35-.09-.11-.05-.19-.13-.26-.21-.2-.26-.22-.54-.22-.86.75-.18,1.9-.89,1.89-2.02,0-1.13-1.16-.9-1.51-.6-.31.26-.54.59-.75.94-.21.37-.37.75-.38,1.17v1.18c0,.2,0,.42.07.61.09.22.26.4.46.51.49.3,1.1.34,1.65.25,0,0,.02,0,.03,0l.58-.87h-1.17ZM33.55,4.3c.03-.09.08-.17.16-.24.08-.07.18-.09.28-.12.11-.02.27-.08.38-.04.09.03.12.14.11.22,0,.17.03.35,0,.51-.02.1-.07.18-.15.23s-.17.05-.26.05h-.53s-.11,0-.16,0c0,0,.14-.51.15-.55,0-.03.02-.05.03-.07"/>
      <path class="cls-2" d="M41.14,6.94s-.04,0-.04,0c-.02.05-.31-.07-.35-.09-.11-.05-.19-.13-.26-.21-.2-.26-.22-.54-.22-.86.75-.18,1.9-.89,1.89-2.02,0-1.13-1.16-.9-1.51-.6-.31.26-.54.59-.75.94-.21.37-.37.75-.38,1.17v1.18c0,.2,0,.42.07.61.09.22.25.4.46.51.49.3,1.1.34,1.65.25,0,0,.02,0,.03,0l.58-.87h-1.17ZM40.39,4.3c.03-.09.08-.17.16-.24.08-.07.18-.09.28-.12.11-.02.27-.08.38-.04.09.03.12.14.11.22,0,.17.03.35,0,.51-.02.1-.07.18-.15.23s-.17.05-.26.05h-.53s-.11,0-.16,0c0,0,.14-.51.15-.55.02-.03.02-.05.03-.07"/>
      <path class="cls-2" d="M29.27,3.79l.64-.89s.95.73,2.89.17c0,0-.07.24-.07.26-.12.29-.32.56-.52.81-.36.42-.73.8-1.02,1.27-.28.47-.5.96-.65,1.49.72.05,1.44.1,2.16.15,0,0-.4.69-.69.78s-2.31-.27-2.44-.16c-.03.03,0-.28,0-.3.06-.3.16-.59.26-.87.38-.98,1.12-1.7,1.74-2.53,0,0-1.67.35-2.31-.17"/>
      <path class="cls-1" d="M21.23,1.71s.04-.16.04-.17c.05-.07.13-.12.2-.14.15-.05.31-.05.47-.05h.25s.23.03.25,0c0,0-1.35,1.2-1.63,3.14-.22,1.53.84,3.03,2.36,3.32.36.07.68.07.97-.17.31-.24.58-.53.88-.79l-.1,1.08.45-.4v-1.44c0-.4.02-.79-.11-1.17-.16-.48-.49-.88-.91-1.16-.2-.13-.43-.23-.66-.27-.08,0-.17-.02-.22.03-.09.06-.1.18-.08.28.04.27.17.53.29.78.02.03.29.47.28.48l.26-.28s.72.6.76,1.33v.47s-.29.1-.32.11c-.19.05-.39.1-.59.13-.8.1-1.69-.04-2.15-.78,0,0,0,0,0,0-.86-1.41-.48-2.51-.48-2.51,0,0,.29-1.35,2.12-1.76.35-.08.71-.15,1.07-.17.14,0,.23-.03.34-.12.09-.08.16-.17.22-.25.09-.12.16-.24.22-.38-.02.04-.2,0-.24,0-.46,0-.91,0-1.38-.02-.47-.03-.93-.09-1.39-.18-.3-.06-.6-.16-.91-.11-.3.05-.6.2-.76.48-.06.11-.08.23-.1.36,0,.02-.04.26-.06.26,0,.03.65.07.65.07"/>
      <path class="cls-2" d="M35.52,3.51s.49-.58.49-.58l3.63.04-.62.66h-3.54l.05-.12Z"/>
      <path class="cls-2" d="M11.16.5s-.08-.02-.11-.02c-.21,0-.43.13-.57.28-.32.35-.07.61-.07.61l.33.26c-.14.26-1.04.11-1.04.11l.05.24c.25.04.52.07.77,0,.09-.02.17-.06.24-.11.07-.05.13-.13.18-.19.08-.11.15-.2.21-.31.02-.03.05-.06.06-.09.09-.13.16-.26.15-.43,0-.1-.05-.19-.1-.27-.03-.04-.06-.07-.11-.09h0M10.86,1.23c-.11,0-.23-.11-.23-.21,0-.1.2-.25.31-.25.1,0,.13.1.13.19,0,.11-.11.27-.2.27"/>
      <polygon class="cls-2" points="16.18 2.12 16.72 1.51 17.3 2.03 16.8 2.65 16.18 2.12"/>
      <polygon class="cls-1" points="23.98 2.74 24.53 2.14 25.1 2.66 24.61 3.28 23.98 2.74"/>
      <path class="cls-2" d="M25.48,3.42l.25-.48s.93-.13,1.11-.22l-.27.5s-.95.14-1.09.19"/>
      <path class="cls-2" d="M31.28,8.65l.25-.48s.93-.12,1.11-.22l-.27.5s-.95.15-1.09.19"/>
      <path class="cls-2" d="M13.53,8.73l.25-.48s.93-.13,1.11-.22l-.27.5s-.95.14-1.09.19"/>
      <path class="cls-1" d="M2.94.69l.16-.31s.03-.03.05-.04c.14-.02.62-.09.9-.17.06-.02.11.05.08.1l-.17.31s-.03.03-.05.04c-.14.02-.63.11-.9.16-.05.03-.1-.03-.07-.09"/>
      <path class="cls-1" d="M40.39.96c-.32,0-.58.26-.58.58s.26.58.58.58.58-.26.58-.58-.26-.58-.58-.58M40.39,1.87c-.18,0-.33-.15-.33-.33s.15-.33.33-.33.33.15.33.33-.16.33-.33.33"/>
      <path class="cls-2" d="M29.4,7.09s0,.02-.02.03c0,.03-.03.06-.04.09-.02.04-.04.08-.06.12-.02.05-.05.09-.07.14s-.05.09-.07.14c-.03.06-.06.14-.13.18-.07.05-.16.05-.23.06h-.07c-.07,0-.14,0-.2-.02-.43-.1-.75-.48-.75-.93v-1.12s-.05.05-.07.07c-.06.06-.13.12-.18.17-.08.06-.15.13-.22.18-.07.06-.14.12-.21.17-.04.03-.09.06-.14.08-.12.06-.23.11-.35.16-.05.03-.1.05-.16.07-.05.02-.11.05-.15.09-.1.1-.03.23.11.24h.26c.39,0,1.05,0,1.1-.11v.2c-.15.46-.56.65-.75.72-.06.02-.12.03-.18.03h-.59c-.29,0-.53-.23-.53-.53,0-.05,0-.09.02-.14h0s0,0,0-.02c.04-.17.33-1.22.83-1.48.49-.24,1.11-.31,1.2-.57v-.99l.75-1.1v3.18c0,.49.41.89.89.91"/>
    </g>
  </g>
</svg>