<svg width="74" height="74" viewBox="0 0 74 74" fill="none" xmlns="http://www.w3.org/2000/svg">
<rect width="73.2108" height="73.2108" rx="36.6054" fill="#022A3A"/>
<path d="M38.4886 43.6565L31.1797 36.9142L28.9952 46.615L38.4886 43.6565ZM30.9275 41.9538L31.1558 41.1235C28.718 40.453 26.4042 39.6751 24.596 38.8273C23.6917 38.4033 22.9362 37.972 22.3615 37.5424C21.7773 37.1056 21.438 36.7134 21.2838 36.3871C21.1494 36.1027 21.1458 35.8583 21.2826 35.5788C21.4422 35.2529 21.8261 34.8208 22.6193 34.3189C24.2058 33.3151 27.0997 32.2357 31.7927 31.1475L31.5982 30.3086L31.4037 29.4697C26.6737 30.5665 23.5421 31.697 21.6984 32.8635C20.7765 33.4467 20.094 34.0899 19.7358 34.8213C19.3549 35.5991 19.3821 36.3941 19.7266 37.1231C20.0514 37.8101 20.6393 38.4052 21.3302 38.9218C22.0307 39.4455 22.8983 39.9335 23.8648 40.3867C25.7981 41.2932 28.2165 42.1013 30.6991 42.7841L30.9275 41.9538Z" fill="#F6F6F6"/>
<path d="M25.1406 26.0015C29.3029 21.5522 40.297 15.3232 50.9753 26.0015" stroke="#F6F6F6" stroke-width="1.72231" stroke-linecap="round"/>
<path d="M25.1406 47.6625C29.3029 52.1118 40.297 58.3409 50.9753 47.6625" stroke="#F6F6F6" stroke-width="1.72231" stroke-linecap="round"/>
<path d="M37.6313 29.0175L44.8445 35.8621L47.1655 26.193L37.6313 29.0175ZM45.1677 30.8265L44.9181 31.6507C47.3114 32.3756 49.5658 33.2255 51.3105 34.1486C52.1828 34.6101 52.9055 35.0783 53.4492 35.5427C53.9995 36.0126 54.3178 36.4373 54.4576 36.7995C54.5839 37.1268 54.5787 37.4316 54.4078 37.7716C54.2195 38.1466 53.8021 38.6132 52.9947 39.1381C51.3748 40.1911 48.4637 41.3018 43.7807 42.3877L43.9753 43.2266L44.1698 44.0655C48.8983 42.969 52.0522 41.805 53.9334 40.5821C54.8766 39.9689 55.5688 39.2972 55.9468 38.5448C56.3423 37.7576 56.3603 36.946 56.0644 36.1794C55.782 35.4476 55.2327 34.8008 54.5677 34.233C53.8962 33.6595 53.0561 33.1236 52.1159 32.6262C50.2354 31.6313 47.8653 30.7437 45.4174 30.0024L45.1677 30.8265Z" fill="#F6F6F6"/>
</svg>
