<svg width="45" height="51" viewBox="0 0 45 51" fill="none" xmlns="http://www.w3.org/2000/svg">
<path d="M38.9792 10.9153C38.6399 10.738 38.3096 10.5436 37.9895 10.3329C37.0587 9.71068 36.2053 8.97756 35.4477 8.14928C33.5522 5.95616 32.8442 3.73127 32.5834 2.17353H32.5939C32.3761 0.88053 32.4661 0.0439453 32.4797 0.0439453H23.846V33.8017C23.846 34.255 23.846 34.7029 23.8271 35.1455C23.8271 35.2006 23.8219 35.2514 23.8187 35.3107C23.8187 35.3351 23.8187 35.3605 23.8135 35.3859C23.8135 35.3923 23.8135 35.3986 23.8135 35.405C23.7225 36.6162 23.3385 37.7863 22.6953 38.8122C22.0522 39.8382 21.1695 40.6886 20.125 41.2886C19.0364 41.9148 17.8052 42.2433 16.5527 42.2417C12.5301 42.2417 9.26994 38.925 9.26994 34.8289C9.26994 30.7328 12.5301 27.4161 16.5527 27.4161C17.3142 27.4154 18.071 27.5366 18.7949 27.7751L18.8054 18.8862C16.6076 18.5991 14.3747 18.7757 12.2477 19.4049C10.1208 20.0341 8.14583 21.1021 6.44752 22.5417C4.9594 23.8491 3.70834 25.4091 2.75062 27.1514C2.38617 27.7868 1.01109 30.34 0.844574 34.4837C0.739846 36.8357 1.43838 39.2723 1.77142 40.2794V40.3006C1.98087 40.8936 2.79251 42.9173 4.11523 44.6233C5.18182 45.9918 6.44196 47.1939 7.85506 48.191V48.1698L7.87601 48.191C12.0557 51.0629 16.6899 50.8744 16.6899 50.8744C17.4921 50.8416 20.1795 50.8744 23.2312 49.412C26.616 47.7907 28.543 45.3752 28.543 45.3752C29.7741 43.9319 30.753 42.2871 31.4377 40.5113C32.219 38.4347 32.4797 35.944 32.4797 34.9486V17.0393C32.5845 17.1029 33.9795 18.0358 33.9795 18.0358C33.9795 18.0358 35.9892 19.3383 39.1247 20.1866C41.3743 20.7902 44.4051 20.9173 44.4051 20.9173V12.2507C43.3432 12.3672 41.1868 12.0283 38.9792 10.9153Z" fill="white"/>
</svg>
