<?xml version="1.0" encoding="UTF-8"?>
<svg id="Layer_2" data-name="Layer 2" xmlns="http://www.w3.org/2000/svg" viewBox="0 0 34.9 27.47">
  <defs>
    <style>
      .cls-1 {
        fill: #022a3a;
      }
    </style>
  </defs>
  <g id="Layer_1-2" data-name="Layer 1">
    <g>
      <g>
        <path class="cls-1" d="M28.44,0c-2.92,0-5.42,1.88-6.21,4.76,2.27,1.54,3.71,4.2,3.71,7.35,0,.98-.12,1.84-.41,2.69l2.47,4.34c.12.25.43.33.68.2.07-.05.15-.11.18-.2l5.09-8.95c.61-1.08.95-2.06.95-3.48,0-3.94-2.91-6.71-6.46-6.71ZM28.44,9.45c-1.65,0-2.99-1.34-2.99-2.99s1.34-2.99,2.99-2.99,2.99,1.34,2.99,2.99-1.34,2.99-2.99,2.99ZM22.03,5.78c-.04.3-.06.61-.06.93,0,1.41.33,2.4.95,3.48l1.97,3.45c.09-.47.14-.97.14-1.54,0-2.72-1.18-4.94-2.99-6.33Z"/>
        <path class="cls-1" d="M12.87,5.78c-1.81,1.39-2.99,3.61-2.99,6.33,0,.55.05,1.06.14,1.52l1.95-3.44c.63-1.08.96-2.06.96-3.48,0-.32-.02-.64-.06-.93ZM12.67,4.76C11.88,1.88,9.39,0,6.46,0,2.91,0,0,2.77,0,6.71c0,1.41.33,2.4.95,3.48l5.08,8.95c.14.25.44.33.68.2.09-.05.15-.11.2-.2l2.47-4.35c-.28-.85-.41-1.7-.41-2.68,0-3.15,1.44-5.81,3.71-7.35ZM6.46,9.45c-1.65,0-2.99-1.34-2.99-2.99s1.34-2.99,2.99-2.99,2.97,1.34,2.97,2.99-1.33,2.99-2.97,2.99Z"/>
      </g>
      <g>
        <path class="cls-1" d="M24.03,17.84l-.9,1.57c.54.23.92.77.92,1.4,0,.85-.69,1.54-1.54,1.54-.33,0-.65-.11-.9-.28l-1.16,2.04,1.83,3.23c.06.12.22.16.34.1.04-.02.07-.06.1-.1l2.62-4.61c.32-.57.49-1.07.49-1.79,0-1.43-.74-2.56-1.82-3.1ZM22.51,17.49c-1.83,0-3.33,1.43-3.33,3.45,0,.73.17,1.23.49,1.79l.26.44,1.11-1.95c-.04-.12-.06-.26-.06-.41,0-.71.48-1.3,1.13-1.47l1.03-1.81c-.21-.02-.42-.05-.63-.05Z"/>
        <path class="cls-1" d="M12.39,17.49c-.21,0-.42.02-.63.05l1.02,1.81c.66.16,1.14.76,1.14,1.47,0,.15-.02.28-.06.42l1.11,1.95.26-.45c.32-.57.49-1.07.49-1.79,0-2.03-1.51-3.45-3.33-3.45ZM12.39,22.35c-.85,0-1.54-.69-1.54-1.54,0-.63.38-1.17.92-1.4l-.9-1.57c-1.08.54-1.82,1.67-1.82,3.1,0,.73.17,1.23.49,1.79l2.62,4.61c.06.12.22.16.34.1.04-.02.07-.06.1-.1l1.83-3.22-1.17-2.05c-.25.18-.55.28-.88.28Z"/>
      </g>
      <path class="cls-1" d="M22.03,5.78c-1.28-.98-2.86-1.54-4.58-1.54s-3.31.55-4.58,1.54c-1.81,1.39-2.99,3.61-2.99,6.33,0,.55.05,1.06.14,1.52.16.91.49,1.7.97,2.54l.77,1.36,1.02,1.81,1.08,1.89,1.11,1.95,1.97,3.47c.11.18.31.29.52.29.1,0,.2-.02.28-.07.1-.05.17-.12.22-.22l1.98-3.48,1.11-1.95,1.07-1.88,1.03-1.81.77-1.36c.47-.84.8-1.62.97-2.53.09-.47.14-.97.14-1.54,0-2.72-1.18-4.94-2.99-6.33ZM17.45,15.3c-1.93,0-3.49-1.56-3.49-3.49s1.56-3.49,3.49-3.49,3.49,1.56,3.49,3.49-1.56,3.49-3.49,3.49Z"/>
    </g>
  </g>
</svg>