<?xml version="1.0" encoding="UTF-8"?>
<svg id="Layer_2" data-name="Layer 2" xmlns="http://www.w3.org/2000/svg" viewBox="0 0 40.87 18.73">
  <defs>
    <style>
      .cls-1 {
        fill: #68ca3a;
      }
    </style>
  </defs>
  <g id="Layer_1-2" data-name="Layer 1">
    <g>
      <path class="cls-1" d="M37.86.18c-.09,1.42-.38,2.83-.67,4.22-.26,1.28-.67,2.62-.74,3.93,0,.15-.03.65.06.74.13.11.32-.11.4-.21.63-.76.76-1.8.97-2.72.13-.56.28-1.11.4-1.67h1.1c-.22,1.14-.55,2.26-.72,3.41-.05.34-.18,1.17-.06,1.46.07.16.2.19.36.13.43-.17,1.02-1.73,1.18-2.18l.38.14c-.22.58-.41,1.2-.68,1.75-.21.44-.61,1.12-1.12,1.24-1.08.26-1.25-.8-1.25-1.61l-.42.7c-.25.42-1,1.3-1.52.8-.1-.09-.26-.48-.26-.61v-.59c-.16.2-.24.47-.39.7-.28.41-.72.79-1.26.7-.62-.11-.77-1.03-.75-1.55-.22.31-.35.7-.61,1.01-.7.83-1.77.58-1.84-.55-.31.58-.67,1.17-1.43,1.01-.38-.08-.6-.61-.64-.96l-.06-.62c-.26.56-.85,1.78-1.62,1.58-.46-.12-.45-.95-.47-1.31-.26.57-.67,1.34-1.37,1.41-.78.07-.94-.68-1.03-1.29-.35.48-.63,1.02-1.23,1.21-.78.24-1.63.02-1.91-.8l.78-.55c.36.55,1.03.52,1.09-.21.07-.83-.4-1.71-.63-2.49-.54,1.35-1.1,2.68-1.77,3.97l-.08.06-.33-.15c.74-1.47,1.39-2.99,2-4.52-.22-1.03-.18-2.07.13-3.08l1.07.19-.52,2.04c-.06.5.56,1.4.78,1.9.26.58.47,1.19.5,1.84.08-.03.12-.14.14-.22.09-.31.11-.74.18-1.07.2-.9.87-2.81,1.92-2.99.33-.06.7.1.85.41l.14.41.11-.68h.91c-.24,1.45-.64,2.89-.79,4.36-.02.23-.1.49.05.7.17.03.58-.65.66-.79.26-.44.45-.93.66-1.4l.61-2.87h1.1c-.23,1.31-.65,2.66-.79,3.98-.02.21-.15,1.36.34.99.53-.4.82-2.3.96-2.96s.31-1.33.44-2.01h1.14c-.26,1.34-.76,2.8-.84,4.16-.02.32-.06,1.19.49.76.26-.2.57-.87.72-1.18.45-.97.59-2.03,1.17-2.94.4-.62,1.08-1.32,1.82-.72l.29.6.88-4.98h1.03ZM26.05,5.28c-.09.02-.21.15-.27.22-.49.62-1.08,2.96-.84,3.68.03.08.08.18.16.22.3.09.64-.49.75-.71.36-.69.79-2.26.62-3.01-.05-.21-.17-.45-.42-.4ZM35.07,5.29c-.29.08-.61.92-.7,1.2-.21.62-.57,2.16-.35,2.76.09.24.23.22.41.08.69-.51,1.36-3.04,1.03-3.81-.07-.17-.19-.28-.4-.23Z"/>
      <path class="cls-1" d="M11.45,8.47c-.45.45-1.02.6-1.63.39-.19.34-.41.67-.65.96-.12.15-.46.57-.62.59s-.39-.01-.57,0l-.06-.06-.17-2.75-.06-.04c-.18.59-.66,1.05-1.18,1.35-.08.05-.2.06-.27.11-.07.06-.15.29-.21.39-.27.41-.6.8-1.07.98-1.39.54-1.9-.65-1.95-1.82l-.53,1.01c-.88,1.42-2.11,1.24-2.32-.5C-.06,7.27.67,3.27,1.38,1.54,1.64.9,2.19-.3,3.06.07s.42,2.16.24,2.86c-.4,1.47-1.13,2.8-2.03,4.01-.05.67-.25,1.64-.01,2.27.1.26.31.4.58.27.43-.19,1.1-1.63,1.25-2.1.05-.17.26-1.23.31-1.27l.49.07c.12-.71.49-1.6,1.26-1.8.97-.26,1.5.58,1.63,1.41s-.01,1.74-.26,2.56c.34-.12.6-.47.76-.78.1-.21.38-.86.41-1.07.1-.62-.08-1.39.05-2.02h.95c.13.57-.3,1.14-.34,1.65-.04.4.05,1.1.08,1.52.04.49.09.98.15,1.46.03.02.18-.23.21-.27.1-.16.45-.73.44-.89,0-.12-.11-.33-.13-.48-.19-1.02-.13-2.73.59-3.55.32-.36.82-.48,1.21-.15.79.66.06,2.81-.28,3.63-.13.31-.38.68-.48.96-.02.05-.04.09-.03.14.48.12.8.01,1.1-.36.43-.54.44-1.13.59-1.77s.31-1.26.44-1.9h1.1c-.17.99-.46,1.97-.63,2.96-.08.49-.26,1.41-.15,1.87.05.2.18.23.36.17.44-.15,1-1.71,1.19-2.15l.48-2.84h1.1l-.11.8c.35-.41.74-.88,1.32-.95,1.08-.12.94,1.04.8,1.75s-.42,1.33-.59,2c-.07.28-.42,1.66.25,1.39.46-.19,1-1.71,1.19-2.17.09-.01.38.08.37.2-.37.82-.97,2.78-2,2.94-.36.06-.68-.03-.9-.34-.73-1.04.52-3.19.62-4.32.09-1.02-.62-.33-.88.11-.74,1.26-.8,3.04-1.14,4.45l-.05.07h-1.08l.11-.8c-.13.11-.21.29-.32.42-.49.53-1.36.65-1.67-.11-.03-.07-.13-.42-.13-.47v-.97ZM2.93.87s-.08,0-.11.02c-.18.1-.47.98-.54,1.21-.41,1.28-.64,2.62-.9,3.94.06,0,.07-.07.1-.11.59-.99,1.66-3.7,1.54-4.81-.01-.09-.06-.16-.08-.24ZM9.55,7.33c.22-.67.48-1.32.63-2.01.06-.28.18-.78.13-1.05-.04-.23-.32-.06-.41.08-.44.65-.51,2.16-.43,2.92,0,.05.02.11.08.06ZM5.28,5.17c-.61.07-.78,1.45-.75,1.91.03.52.22,1.22.78,1.38.11-.02.35-1.01.39-1.17.09-.48.19-1.12.08-1.6-.05-.24-.19-.55-.49-.52ZM5.02,9c-.35-.11-.63-.43-.8-.74-.1-.17-.14-.37-.26-.52,0,.48-.08,1.22.23,1.62.39.5.89-.29.84-.36Z"/>
      <path class="cls-1" d="M19.29,15.81h.42c.02.29-.22,1.24.02,1.41.13.1.19-.07.23-.16.23-.55.07-1.21.21-1.78h.45s-.22,1.51-.22,1.51c-.02.39.3.61.63.37.45-.33.49-1.93.58-2.5.1-.6.23-1.4,1.04-1.28s.49,1.84.38,2.39c-.14.67-.37,1.33-.59,1.98h-.38c.13-.48.29-.93.4-1.4.15-.64.38-1.68.27-2.32-.09-.51-.44-.5-.59-.01-.28.89-.03,2.58-.74,3.25-.33.32-1.04.37-1.08-.19-.16.17-.23.41-.51.42-.26,0-.35-.14-.36-.38-.11.09-.13.24-.27.32-.35.22-.55-.08-.61-.4l-.31.32c-.38.26-1,.18-1.23-.24-.47.3-.99.39-1.54.39-.24.46-.38,1.02-.94,1.19-1.14.33-1.2-1.19-.16-1.17v.38c-.86.23-.22.99.32.3.16-.2.22-.44.33-.66-.08-.08-.21-.05-.32-.09-.69-.24-.37-1.74.08-2.12.32-.28.76-.26.92.17.21.56-.05,1.2-.14,1.76.46,0,.97-.1,1.33-.4-.12-.34-.18-.95-.4-1.23-.12-.15-.3,0-.47-.04l.04-.3c.16-.1.35,0,.5-.02.14,0,.34-.09.5-.1,1.53-.11.86,1.14.22,1.77.22.41.69.43.96.05.03-.04.17-.33.17-.36v-.82h.42c.06.4-.19.93-.03,1.3.2.46.48-.34.48-.52v-.78ZM15.29,15.47c-.21-.21-.4.4-.43.52-.06.25-.26,1.26.15,1.26.07,0,.07-.05.1-.09.11-.23.33-1.52.18-1.68ZM16.74,15.5c.28.29.28.71.44,1.06.53-.66.64-1.18-.44-1.06Z"/>
      <path class="cls-1" d="M28.12,17.52v.38c-.6.07-.5.83.1.51.3-.16.43-.57.54-.87.02-.1-.16-.04-.23-.06-.58-.16-.51-.94-.4-1.41s.54-1.14,1.08-.87c.57.28.21,1.58.09,2.06.36-.01.51-.29.6-.6.25-.86.17-2.14.7-2.91.28-.4.67-.3.68.18,0,.44-.26,1.18-.48,1.58-.1.19-.34.46-.41.62-.08.19-.1.46-.19.68-.19.46-.47.68-.98.69-.24.53-.45,1.16-1.13,1.23-1,.1-.87-1.26.02-1.21ZM31.05,13.83c-.11-.13-.3.54-.31.58-.13.43-.21.88-.29,1.32.08-.04.12-.16.16-.24.24-.5.45-1.1.45-1.66ZM29.02,15.47c-.2-.21-.39.41-.42.53-.09.32-.3,1.28.24,1.24.06-.32.39-1.55.18-1.78Z"/>
      <path class="cls-1" d="M24.92,15.88l-.04.29c-.7-.07-1.16.78-.92,1.37.16.38.66.48.99.26.6-.4.65-1.65.69-2.3h.45c.06.06-.15,1.06-.16,1.23,0,.64.93.68,1.15.15-.3-.09-.51-.17-.61-.5-.14-.49.03-1.4.58-1.59,1.16-.41.82,1.64.44,2.19s-1.25.72-1.65.14c-.21.47-.48.94-1.04,1.02-1.88.25-1.62-2.47.11-2.27ZM27.24,16.6c.05-.34.18-.7.19-1.04.04-.74-.33-.6-.48-.02-.07.29-.22,1.16.28,1.06Z"/>
      <path class="cls-1" d="M11.8,15.5h.46c-.05.52-.06,1.88-.75,1.97-.43.06-.79-.05-.99-.45-1.56.68-.95-2.69.21-2.23.6.24.22,1.32.19,1.79-.01.19-.04.54.17.63.71.32.64-1.35.71-1.71ZM10.57,15.09c-.18-.18-.35.29-.39.41-.12.37-.37,1.53.32,1.33-.12-.32.27-1.52.07-1.74Z"/>
      <path class="cls-1" d="M39.33,2.02c.95-.02.76,1.54-.13,1.69-1.14.19-.92-1.67.13-1.69Z"/>
      <path class="cls-1" d="M13.27,2.02c.97-.04.76,1.6-.17,1.7-1.1.11-.84-1.66.17-1.7Z"/>
      <path class="cls-1" d="M12.18,17.48v-.23h.93c.43,0,.81-1.62.32-1.84-.35-.16-.56.34-.42.63l-.32.11c-.39-.69.63-1.35,1.16-.81.36.37.16,1.55-.17,1.92-.05.06-.31.23-.38.23h-1.12Z"/>
      <rect class="cls-1" x="31.35" y="15.84" width="9.51" height=".15"/>
      <rect class="cls-1" y="15.84" width="8.64" height=".15"/>
      <path class="cls-1" d="M11.71,18.23c-.27.22-.52-.14-.27-.4.27-.29.54.18.27.4Z"/>
      <path class="cls-1" d="M27.27,13.46c.42-.09.3.53,0,.53s-.24-.48,0-.53Z"/>
      <path class="cls-1" d="M24.88,16.73c.15.15-.06.6-.33.47-.3-.2.11-.69.33-.47Z"/>
      <path class="cls-1" d="M10.74,18.23c-.17-.17.11-.57.33-.47.31.15-.08.72-.33.47Z"/>
      <path class="cls-1" d="M26.8,14.58c-.18-.18.1-.65.36-.45.22.18-.13.68-.36.45Z"/>
      <path class="cls-1" d="M10.72,13.95c.07-.01.13-.02.19.03.15.18,0,.51-.23.5-.29-.01-.21-.47.04-.52Z"/>
      <path class="cls-1" d="M27.81,14.03c.18.18-.1.65-.36.45-.22-.18.13-.68.36-.45Z"/>
      <path class="cls-1" d="M10.03,14.07c.42-.12.36.51.02.51-.29,0-.24-.45-.02-.51Z"/>
    </g>
  </g>
</svg>