<?xml version="1.0" encoding="UTF-8"?>
<svg id="Layer_2" data-name="Layer 2" xmlns="http://www.w3.org/2000/svg" viewBox="0 0 48 48">
  <defs>
    <style>
      .cls-1 {
        fill: #002838;
      }

      .cls-1, .cls-2 {
        stroke-width: 0px;
      }

      .cls-2 {
        fill: #f4ce12;
      }
    </style>
  </defs>
  <g id="Layer_1-2" data-name="Layer 1">
    <g>
      <circle class="cls-2" cx="24" cy="24" r="24"/>
      <g>
        <g>
          <path class="cls-1" d="M31.8,20.69c-.5,0-.9.41-.9.9v.86c-.05,3.83-3.11,6.94-6.89,6.94s-6.85-3.06-6.85-6.85v-.86c0-.5-.41-.9-.9-.9s-.9.41-.9.9v.86c0,4.51,3.42,8.2,7.8,8.65v2.57c-1.67.27-2.97,1.35-3.24,2.66-.05.27.18.54.45.54h7.43c.27,0,.5-.27.45-.54-.27-1.31-1.58-2.39-3.24-2.66v-2.57c4.37-.45,7.8-4.15,7.8-8.65v-.86c-.09-.59-.5-.99-.99-.99Z"/>
          <path class="cls-1" d="M24,27.72c2.88,0,5.23-2.34,5.23-5.23v-6.22c0-2.88-2.34-5.23-5.23-5.23s-5.23,2.34-5.23,5.23v6.22c0,2.88,2.34,5.23,5.23,5.23ZM24,14.02c.68,0,1.17.54,1.17,1.17,0,.68-.54,1.17-1.17,1.17-.68,0-1.17-.54-1.17-1.17s.5-1.17,1.17-1.17ZM24,18.21c.68,0,1.17.54,1.17,1.17,0,.68-.54,1.17-1.17,1.17-.68,0-1.17-.54-1.17-1.17,0-.68.5-1.17,1.17-1.17ZM24,22.36c.68,0,1.17.54,1.17,1.17s-.54,1.17-1.17,1.17c-.68,0-1.17-.54-1.17-1.17s.5-1.17,1.17-1.17Z"/>
        </g>
        <g>
          <g>
            <path class="cls-1" d="M10.47,18.58h0c-.33,0-.63-.27-.63-.63v-4.59c0-.33.27-.63.63-.63h0c.33,0,.63.27.63.63v4.59c-.03.33-.3.63-.63.63Z"/>
            <path class="cls-1" d="M13.15,20.07h0c-.33,0-.63-.27-.63-.63v-7.57c0-.33.27-.63.63-.63h0c.33,0,.63.27.63.63v7.57c-.03.33-.3.63-.63.63Z"/>
            <path class="cls-1" d="M15.8,18.58h0c-.33,0-.63-.27-.63-.63v-4.59c0-.33.27-.63.63-.63h0c.33,0,.63.27.63.63v4.59c0,.33-.27.63-.63.63Z"/>
          </g>
          <g>
            <path class="cls-1" d="M32.2,18.58h0c-.33,0-.63-.27-.63-.63v-4.59c0-.33.27-.63.63-.63h0c.33,0,.63.27.63.63v4.59c-.03.33-.3.63-.63.63Z"/>
            <path class="cls-1" d="M34.85,20.07h0c-.33,0-.63-.27-.63-.63v-7.57c0-.33.27-.63.63-.63h0c.33,0,.63.27.63.63v7.57c0,.33-.27.63-.63.63Z"/>
            <path class="cls-1" d="M37.53,18.58h0c-.33,0-.63-.27-.63-.63v-4.59c0-.33.27-.63.63-.63h0c.33,0,.63.27.63.63v4.59c0,.33-.27.63-.63.63Z"/>
          </g>
        </g>
      </g>
    </g>
  </g>
</svg>