<?xml version="1.0" encoding="UTF-8"?>
<svg id="Layer_2" data-name="Layer 2" xmlns="http://www.w3.org/2000/svg" viewBox="0 0 28.39 28.39">
  <defs>
    <style>
      .cls-1 {
        fill: #00293b;
      }
    </style>
  </defs>
  <g id="Layer_1-2" data-name="Layer 1">
    <g>
      <path class="cls-1" d="M21.92,15.47c-3.57,0-6.46,2.9-6.45,6.47,0,3.57,2.9,6.46,6.47,6.45,3.57,0,6.45-2.9,6.45-6.46,0-3.57-2.9-6.46-6.47-6.46ZM25.68,25.68c-2.07,2.07-5.43,2.07-7.5,0-2.07-2.07-2.07-5.43,0-7.5,2.07-2.07,5.43-2.07,7.5,0,2.07,2.06,2.08,5.41.02,7.48,0,0-.01.01-.02.02h0Z"/>
      <path class="cls-1" d="M0,8.48v13.95c0,1.36,1.11,2.47,2.47,2.47h12.54c-1.64-3.81.12-8.22,3.92-9.87.94-.41,1.96-.61,2.98-.61.31,0,.63.02.94.06v-6H0ZM9.66,10.99c0-.29.24-.53.53-.53h2.5c.29,0,.52.23.53.52,0,0,0,0,0,0v2.49c0,.29-.23.52-.52.53,0,0,0,0,0,0h-2.5c-.29,0-.53-.23-.53-.52h0v-2.5ZM5.96,20.93c0,.29-.24.52-.53.53h-2.5c-.29,0-.53-.24-.53-.53h0v-2.5c0-.29.23-.52.52-.53,0,0,0,0,0,0h2.5c.29,0,.53.24.53.53h0s0,2.5,0,2.5ZM5.96,13.48c0,.29-.24.53-.53.53h-2.5c-.29,0-.52-.23-.52-.52,0,0,0,0,0,0v-2.49c0-.29.23-.52.52-.53,0,0,0,0,0,0h2.5c.29,0,.53.24.53.53h0s0,2.5,0,2.5ZM13.5,19.38l-1.88,1.92c-.1.1-.23.16-.38.16h0c-.14,0-.28-.06-.38-.16l-1.33-1.38c-.2-.21-.19-.54.01-.74s.54-.19.74.01l.96.99,1.5-1.53c.21-.2.54-.2.74.01.19.2.2.52,0,.72h0ZM20.45,13.48c0,.29-.24.53-.53.53h-2.5c-.29,0-.53-.24-.53-.53h0v-2.5c0-.29.24-.53.53-.53h2.5c.29,0,.53.24.53.53h0v2.5Z"/>
      <rect class="cls-1" x="3.47" y="18.96" width="1.45" height="1.44"/>
      <rect class="cls-1" x="3.47" y="11.51" width="1.45" height="1.44"/>
      <rect class="cls-1" x="17.95" y="11.51" width="1.45" height="1.44"/>
      <rect class="cls-1" x="10.71" y="11.51" width="1.45" height="1.44"/>
      <rect class="cls-1" x="16.95" width=".95" height="4.94"/>
      <rect class="cls-1" x="4.97" width=".95" height="4.94"/>
      <path class="cls-1" d="M22.86,5.46v1.97H0v-1.97c0-1.36,1.11-2.47,2.47-2.47h1.44v1.99c0,.56.45,1.01,1.01,1.01h1.04c.56,0,1.01-.45,1.01-1.01v-1.99h8.94v1.99c0,.56.45,1.01,1.01,1.01h1.04c.56,0,1.01-.45,1.01-1.01h0v-1.99h1.44c1.36,0,2.47,1.1,2.47,2.47Z"/>
      <path class="cls-1" d="M24.93,18.92c-1.66-1.66-4.36-1.66-6.02,0-1.66,1.66-1.66,4.36,0,6.02,1.66,1.66,4.36,1.66,6.02,0,1.66-1.66,1.67-4.35.01-6.01,0,0,0,0-.01-.01ZM21.87,21.4h.11c.85-.03,1.57.63,1.61,1.49v.2c-.02.67-.48,1.25-1.14,1.42v.19c0,.29-.24.53-.53.53s-.53-.24-.53-.53v-.19c-.66-.16-1.12-.74-1.14-1.42,0-.29.24-.53.53-.53s.53.24.53.53h0c.04.27.29.46.56.43h.11c.27.03.52-.16.56-.43v-.2c-.04-.27-.29-.46-.56-.43h-.11c-.85.03-1.57-.63-1.61-1.49v-.19c.02-.67.48-1.25,1.14-1.42v-.19c0-.29.25-.52.54-.51.28,0,.51.23.51.51v.19c.66.16,1.12.74,1.14,1.42,0,.29-.24.53-.53.53-.29,0-.53-.24-.53-.53-.04-.27-.29-.46-.56-.43h-.11c-.27-.03-.52.16-.56.43v.19c.04.27.29.46.56.44Z"/>
    </g>
  </g>
</svg>