<?xml version="1.0" encoding="UTF-8"?>
<svg id="Layer_2" data-name="Layer 2" xmlns="http://www.w3.org/2000/svg" viewBox="0 0 41.63 11">
  <defs>
    <style>
      .cls-1 {
        fill: #8291bd;
      }

      .cls-2 {
        fill: #1d385e;
      }
    </style>
  </defs>
  <g id="Layer_1-2" data-name="Layer 1">
    <g>
      <polygon class="cls-2" points="3.07 0 3.07 1.71 1.71 1.71 1.71 9.19 3.07 9.19 3.07 10.9 0 10.9 0 0 3.07 0"/>
      <polygon class="cls-2" points="10.91 0 10.91 10.9 7.86 10.9 7.84 10.88 7.84 9.19 9.2 9.19 9.2 1.71 7.86 1.71 7.84 0 10.91 0"/>
      <path class="cls-2" d="M17.89,0l.02,1.79c.37-.49.97-.64,1.56-.51.68.15.85.72.88,1.34v2.49h-1.42v-2.25s-.03-.19-.05-.24c-.15-.38-.74-.32-.9.04-.02.04-.07.22-.07.25v2.2h-1.41V0h1.4Z"/>
      <polygon class="cls-1" points="7.16 0 7.16 5.43 3.77 2.05 3.76 0 7.16 0"/>
      <polygon class="cls-2" points="16.25 0 16.25 1.27 14.72 1.27 14.72 5.12 13.25 5.12 13.25 1.27 11.73 1.27 11.73 0 16.25 0"/>
      <rect class="cls-2" x="40.22" y="5.78" width="1.41" height="5.12"/>
      <polygon class="cls-2" points="15.04 5.78 16.62 9.02 16.62 5.78 17.97 5.78 17.97 10.9 16.15 10.9 14.59 7.67 14.59 10.9 13.22 10.9 13.22 5.78 15.04 5.78"/>
      <path class="cls-1" d="M3.76,10.9v-5.44l3.39,3.38c.02.27,0,.55,0,.82,0,.36.06.84.02,1.19,0,.02,0,.04-.03.06h-3.39Z"/>
      <path class="cls-2" d="M35.5,10.9h-1.41v-2.28s-.05-.21-.07-.26c-.14-.29-.62-.27-.81-.04-.06.08-.15.29-.15.39v2.18h-1.41v-3.8h1.39l.02.02v.46l.24-.27c.95-.66,2.24-.24,2.2,1.04v2.54Z"/>
      <path class="cls-2" d="M39.79,10.9h-1.32v-.49l-.22.24c-.74.63-2.38.38-2.43-.76-.06-1.2,1.66-1.34,2.52-1.4.02-.3-.08-.57-.41-.6-.28-.03-.62.01-.74.3-.03.06-.03.13-.07.19h-1.2c.07-.85.84-1.31,1.62-1.4,1.12-.12,2.12.22,2.19,1.48.04.65-.03,1.31.02,1.98.01.15.03.3.05.45ZM38.4,9.19c-.26.03-1.07.07-1.13.4-.09.44.42.51.74.41.35-.11.41-.49.4-.81Z"/>
      <path class="cls-2" d="M22.23,10.9h-1.3v-.49c-.05.04-.08.11-.13.15-.69.72-2.43.52-2.52-.62-.1-1.24,1.62-1.38,2.5-1.45v-.25s-.03-.1-.04-.11c-.07-.15-.22-.22-.38-.24-.38-.03-.73.07-.79.49h-1.2c.02-.61.5-1.07,1.05-1.27.69-.25,1.9-.22,2.41.37.33.38.33.8.33,1.27,0,.71-.01,1.43.07,2.14ZM20.83,9.19c-.31.04-1.24.06-1.13.57.08.37.75.34.97.11.06-.07.16-.27.16-.36v-.32Z"/>
      <path class="cls-2" d="M24.75,3.54h-2.73c.03.71,1.07.86,1.41.29h1.31c-.36,1.17-1.65,1.62-2.77,1.27-1.06-.33-1.51-1.44-1.26-2.47.27-1.1,1.39-1.61,2.45-1.4s1.68,1.25,1.59,2.32ZM23.5,2.76c-.07-.84-1.35-.8-1.46,0h1.46Z"/>
      <path class="cls-2" d="M29.32,6.99c1.35,0,2.2.9,2.1,2.25-.16,2.28-3.82,2.36-4.14.16-.2-1.38.63-2.39,2.04-2.4ZM29.27,8.05c-.63.06-.65,1.05-.48,1.5.2.54.91.54,1.11,0,.19-.5.13-1.57-.62-1.5Z"/>
      <path class="cls-2" d="M24.36,6.06v1.04h.96v.89h-.96v1.81s.1.14.14.14h.82v.96c-.54-.02-1.13.05-1.66-.03-.51-.08-.67-.36-.71-.85v-2.02h-.76v-.89h.76v-1.04h1.41Z"/>
      <polygon class="cls-2" points="27.03 7.1 27.03 10.9 25.61 10.9 25.61 7.12 25.64 7.1 27.03 7.1"/>
      <rect class="cls-2" x="25.61" y="5.78" width="1.41" height="1.01"/>
    </g>
  </g>
</svg>