<?xml version="1.0" encoding="UTF-8"?>
<svg id="Layer_2" data-name="Layer 2" xmlns="http://www.w3.org/2000/svg" viewBox="0 0 48 48">
  <defs>
    <style>
      .cls-1 {
        fill: #f4ce12;
      }

      .cls-1, .cls-2 {
        stroke-width: 0px;
      }

      .cls-2 {
        fill: #002838;
        fill-rule: evenodd;
      }
    </style>
  </defs>
  <g id="Layer_1-2" data-name="Layer 1">
    <g>
      <circle class="cls-1" cx="24" cy="24" r="24"/>
      <path class="cls-2" d="M27.52,10.55c-1.95-1.95-5.1-1.95-7.05,0-1.95,1.95-1.95,5.1,0,7.05,1.95,1.95,5.1,1.95,7.05,0,.93-.93,1.46-2.2,1.46-3.52,0-1.32-.52-2.59-1.46-3.52ZM22.31,16.96s-.02.01-.04.01c-.01,0-.02,0-.04-.01h-.01s-.01-.02-.02-.03h0s0-.02,0-.04v-5.65s0-.03,0-.04h0s.02-.02.02-.03c.01,0,.02-.01.04-.01.01,0,.03,0,.04.01l4.89,2.82h0s.02.01.03.03h0s0,.02,0,.04c0,.01,0,.03,0,.04h0s-.02.02-.02.03h-.02s-4.87,2.82-4.87,2.82h0ZM27.54,14.78l-4.87,2.81c-.25.15-.56.15-.8,0,0,0-.02-.01-.03-.02-.11-.07-.2-.16-.27-.28h0c-.07-.12-.11-.26-.11-.4v-5.65c0-.14.04-.28.11-.4,0,0,.01-.02.02-.03.23-.37.71-.49,1.08-.26l4.89,2.82h0c.12.07.22.17.29.29h0c.14.25.14.56,0,.81,0,0-.01.02-.02.03-.07.11-.17.2-.28.27,0,0-.01,0-.02.01h0ZM13.75,13.71v-2.28h-1.78c-.55,0-.99.44-.99.99v1.29h2.78ZM17.04,13.71v-2.28h-2.56v2.28h2.56ZM17.78,11.43v2.28h.52c.05-.8.27-1.57.64-2.28h-1.16ZM30.22,13.71v-2.28h-1.15c.37.71.59,1.49.64,2.28h.52ZM33.52,13.71v-2.28h-2.56v2.28h2.56ZM34.25,11.43v2.28h2.78v-1.29c0-.55-.44-.99-.99-.99h-1.79ZM13.75,26.04h-2.78v1.29c0,.55.44.99.99.99h1.79v-2.28ZM17.04,26.04h-2.56v2.28h2.56v-2.28h0ZM20.34,26.04h-2.56v2.28h2.56v-2.28ZM30.22,28.33v-2.28h-2.56v2.28h2.56ZM33.52,28.33v-2.28h-2.56v2.28h2.56ZM34.25,26.04v2.28h1.79c.55,0,.99-.44.99-.99v-1.29h-2.78ZM19.02,21.76s0-.01-.01-.02c-.45-.8-.25-1.81.46-2.39l8.12,14.06c.08.13.23.2.38.18.52-.06,1.05.02,1.52.26,1.32.65,1.86,2.26,1.21,3.58-.23.47-.6.86-1.06,1.13h-.02c-1.28.73-2.89.29-3.63-.98h0c-.54-.94-.46-2.1.19-2.96.09-.12.1-.28.02-.41l-7.18-12.44ZM21.07,26.78v1.55h.89l-.89-1.55ZM28.55,35.29c-.25-.07-.51-.04-.73.09h-.02c-.47.28-.64.88-.37,1.35.27.47.87.64,1.34.37.01,0,.02-.02.04-.02.45-.27.6-.85.35-1.31,0-.01-.02-.03-.03-.05-.13-.21-.34-.37-.58-.43h0ZM27.46,34.74h-.02c-.82.49-1.1,1.53-.63,2.36.47.82,1.52,1.1,2.34.63h0c.82-.47,1.1-1.52.63-2.34,0,0,0,0,0,0h0c-.47-.81-1.5-1.1-2.32-.64h0ZM26.93,26.78l-.89,1.55h.89v-1.55ZM24,25.75l-4.09-7.09c-.1-.17-.32-.23-.5-.13,0,0,0,0,0,0l-.06.04h0c-1.24.72-1.67,2.3-.97,3.55,0,0,0,.02.01.02l1.84,3.18h-9.25v-10.86h7.32c.2,3.15,2.92,5.54,6.07,5.34,2.87-.19,5.15-2.47,5.34-5.34h7.32v10.86h-9.25l1.84-3.19c.72-1.25.29-2.85-.96-3.57h-.02s-.04-.04-.04-.04c-.17-.1-.4-.04-.5.13l-4.1,7.09ZM25.34,28.07l-.92-1.59,4.11-7.12c.72.58.91,1.6.45,2.41l-3.64,6.3h0ZM23.58,31.12l-.92-1.59-2.24,3.88c-.08.13-.23.2-.38.18-.52-.06-1.05.02-1.52.26-.47.23-.87.6-1.13,1.06h0c-.74,1.28-.3,2.91.98,3.65h.02s0,.02,0,.02c1.27.71,2.89.27,3.62-.99h0c.54-.94.46-2.1-.19-2.96-.09-.12-.1-.28-.02-.41l1.78-3.08h0ZM19.26,34.58c-.44.12-.81.41-1.04.8h0c-.47.82-.19,1.87.63,2.34,0,0,0,0,0,0h0c.82.47,1.87.19,2.34-.63.47-.82.19-1.87-.63-2.34h-.02c-.39-.23-.85-.29-1.28-.17h0ZM20.18,35.37c-.46-.25-1.04-.1-1.31.34,0,.02-.02.03-.03.05-.25.46-.1,1.04.35,1.31.01,0,.03.01.04.02.48.26,1.08.08,1.33-.4.25-.46.09-1.04-.37-1.31,0,0-.02,0-.02,0ZM24,29.16h0c.2,0,.36-.18.36-.38,0-.19-.16-.35-.36-.36h0c-.2,0-.37.15-.38.36s.15.37.36.38c0,0,.01,0,.02,0Z"/>
    </g>
  </g>
</svg>