<?xml version="1.0" encoding="UTF-8"?>
<svg id="Layer_2" data-name="Layer 2" xmlns="http://www.w3.org/2000/svg" viewBox="0 0 40.01 11.29">
  <g id="Layer_1-2" data-name="Layer 1">
    <g>
      <g>
        <path d="M14.82.04v1.48c0,.28,0,.43.03.7.03.26.07.42.18.65.09-.25.13-.4.16-.67.03-.27.02-.4.03-.68V.04h.79v1.51c-.02.45-.04.74-.18,1.19-.11.35-.21.55-.41.86h-.69c-.07-.13-.1-.21-.16-.35-.06-.15-.09-.24-.14-.39-.05.16-.08.24-.14.39-.06.14-.09.22-.16.35h-.69c-.2-.31-.29-.5-.41-.86-.15-.45-.17-.74-.18-1.19V.04h.79v1.48c0,.28,0,.42.03.68.03.27.07.42.16.67.11-.23.15-.39.18-.65.03-.27.03-.42.03-.7V.04h.79Z"/>
        <polygon points="17.33 .04 18.11 .04 18.11 3.6 17.33 3.6 17.33 1.93 16.93 1.93 16.93 3.6 16.15 3.6 16.15 .04 16.93 .04 16.93 1.3 17.33 1.3 17.33 .04"/>
        <path d="M19.59.04c.27.4.4.7.51,1.2.14.61.13,1.02.14,1.58v.78h-.8v-.61h-.4v.61h-.8v-.78c.01-.56,0-.97.14-1.58.11-.5.24-.8.51-1.2h.68ZM19.45,2.34c0-.16,0-.28-.01-.47-.03-.41-.07-.64-.18-1.04-.11.4-.15.63-.18,1.04-.01.19-.01.31-.01.47h.39Z"/>
        <polygon points="20.04 .04 21.8 .04 21.8 .69 21.32 .69 21.32 3.6 20.52 3.6 20.52 .69 20.04 .69 20.04 .04"/>
        <path d="M23.61,1.21h.73v-.36c0-.48-.32-.84-.96-.84-.66,0-.99.36-1.02.88-.02.47.34.79.72,1.1.39.3.59.71.44.9-.15.19-.39.07-.38-.25v-.42h-.77v.54c-.01.47.2.86.95.9.81.04,1.06-.49,1.05-1.05,0-.53-.27-.82-.72-1.15-.32-.25-.53-.43-.47-.63.08-.25.42-.14.42.08v.31h0Z"/>
        <path d="M28.51.04h.78v3.56h-.78v-.74c-.01-.45-.05-.79-.19-1.18-.06-.16-.12-.28-.22-.41v2.33h-.78V.04h.74l.04.06c.08.14.15.26.23.42.09.18.13.28.18.47V.04h0Z"/>
        <polygon points="21.94 .69 22.06 .69 21.89 .93 22.03 1.07 22.54 .7 22.54 .7 22.54 .04 21.94 .04 21.94 .69"/>
        <path d="M25.17,2.66V.97c0-.54.24-.97,1-.97s1.01.43,1.01.97v1.69c0,.55-.24,1-1.01,1s-1-.45-1-1M25.98,2.67c0,.15,0,.33.2.32.19,0,.19-.16.19-.32V.98c0-.14,0-.31-.19-.31-.19,0-.21.17-.2.31v1.69Z"/>
      </g>
      <g>
        <path d="M33.94,8.19c0,.19.15.34.34.34h.89c.19,0,.34-.15.34-.34V1.71c0-.19-.15-.34-.34-.34h-.89c-.19,0-.34.15-.34.34v6.48Z"/>
        <circle cx="31.03" cy="2.88" r=".72"/>
        <circle cx="32.86" cy="2.88" r=".72"/>
        <g>
          <polygon points="11.7 1.7 10.97 1.15 11.58 .34 11.18 .04 10.27 1.26 10.51 1.43 9.87 1.63 9.94 2.12 11.39 2.11 11.7 1.7"/>
          <path d="M9.86,8.19c0,.19.15.34.34.34h.89c.19,0,.34-.15.34-.34V2.79c0-.19-.15-.34-.34-.34h-.89c-.19,0-.34.15-.34.34v5.4Z"/>
          <circle cx="2.4" cy="3.23" r=".72"/>
          <path d="M1.74,8.27c-.09,0-.17-.08-.17-.17v-3.33c0-.09-.08-.17-.17-.17H.17c-.09,0-.17.08-.17.17v4.32c0,.38.34.96.76.96h3.2c.39,0,.84-.47.84-.88v-4.23c0-.09-.08-.17-.17-.17h-1.27c-.09,0-.17.08-.17.17v3.16c0,.09-.08.17-.17.17h-1.27Z"/>
          <path d="M8.96,3.31h-1.51c-.87,0-1.93,1.09-1.93,2.37v2.53c0,.19.15.34.34.34h1.7s.09.04.09.09h0c-.01.47-.08.73-.2.85-.08.08-.22.12-.47.12-.13,0-.28,0-.46-.02-.23-.01-.46-.02-.46-.02h-.2c-.19,0-.34.14-.34.33v1.06c0,.19.15.34.34.34h1.72c.83,0,1.72-.85,1.72-2.22V3.65c0-.19-.15-.34-.34-.34ZM7.83,6.83s-.04.09-.09.09h-.44s-.09-.04-.09-.09v-.8c0-.39.3-.83.56-.83h.05v1.63h0Z"/>
        </g>
        <path d="M39.67,3.31h-1.51c-.87,0-1.93,1.09-1.93,2.37v2.53c0,.19.15.34.34.34h1.7s.09.04.09.09h0c-.01.47-.08.73-.2.85-.08.08-.22.12-.47.12-.13,0-.28,0-.46-.02-.23-.01-.46-.02-.46-.02h-.2c-.19,0-.34.14-.34.33v1.06c0,.19.15.34.34.34h1.72c.83,0,1.72-.85,1.72-2.22V3.65c0-.19-.15-.34-.34-.34ZM38.54,6.83s-.04.09-.09.09h-.44s-.08-.04-.08-.09v-.8c0-.39.3-.83.56-.83h.05v1.63h0Z"/>
        <path d="M33.42,7.92v-2.97c0-.19-.15-.34-.34-.34h-.92c-.19,0-.34.15-.34.34v1.65c0,.07-.06.13-.13.13h-8.34c-.07,0-.13-.06-.13-.13v-1.62c0-.19-.15-.34-.34-.34h-.89c-.19,0-.34.15-.34.34v1.65c0,.07-.06.13-.13.13h-.81c-.07,0-.13-.06-.13-.13v-1.65c0-.19-.15-.34-.34-.34h-.9c-.19,0-.34.15-.34.34v1.65c0,.07-.06.13-.13.13h-.72c-.07,0-.13-.06-.13-.13v-1.65c0-.19-.15-.34-.34-.34h-.89c-.19,0-.34.15-.34.34v2.98c0,.09-.08.17-.17.17h-1.66c-.09,0-.17-.08-.17-.17v-2.99c0-.19-.15-.34-.34-.34h-.92c-.19,0-.34.15-.34.34v3.88c0,.65.4,1.1.97,1.1h3.61c.48,0,.76-.51.76-1.01v-.4h14.59c.23,0,.63-.3.63-.61"/>
      </g>
    </g>
  </g>
</svg>