<?xml version="1.0" encoding="UTF-8"?>
<svg id="Layer_2" data-name="Layer 2" xmlns="http://www.w3.org/2000/svg" viewBox="0 0 605.32 131.71">
  <defs>
    <style>
      .cls-1 {
        fill: #fff;
      }

      .cls-2 {
        fill: #f1cc00;
      }
    </style>
  </defs>
  <g id="Layer_1-2" data-name="Layer 1">
    <g>
      <g>
        <path class="cls-2" d="M53.11,33l-1.49,10.48h28.71l-1.28,8.38h-40.48l3.75-23.61c.02-.14.08-.47.18-1.1l.21-1.3c1.05-5.88,3.7-8.35,9.84-8.36h41.56c4.83,0,8.74-3.92,8.74-8.75s-3.91-8.74-8.74-8.74c-.04,0-.08,0-.12,0-.02,0-.04,0-.05,0h-54.87c-5.52,0-10.12,3.87-11,9.26l-9.81,60.17h65.28c5.58,0,10.41-3.98,11.22-9.46l5.62-34.1h-39.01c-4.21,0-7.69,3-8.28,7.13"/>
        <g>
          <path class="cls-1" d="M10.43,90.31h2.3v5.17c-1.42,1.06-3.54,1.79-5.45,1.79-4.11,0-7.28-3.05-7.28-7s3.23-6.96,7.44-6.96c1.99,0,4.01.77,5.39,1.97l-1.5,1.93c-1.04-.96-2.5-1.55-3.9-1.55-2.66,0-4.74,2.03-4.74,4.62s2.11,4.64,4.76,4.64c.94,0,2.03-.34,2.97-.87v-3.74Z"/>
          <polygon class="cls-1" points="21.83 92.66 21.83 97.16 19.2 97.16 19.2 92.75 14.06 83.39 16.74 83.39 20.5 89.86 24.19 83.39 26.85 83.39 21.83 92.66"/>
          <polygon class="cls-1" points="31.59 83.39 35.92 92.22 40.22 83.39 43.26 83.39 43.26 97.16 40.85 97.16 40.84 87.32 36.76 95.74 35.05 95.74 30.98 87.32 30.98 97.16 28.54 97.16 28.54 83.39 31.59 83.39"/>
          <polygon class="cls-1" points="49.15 83.39 56.25 92.81 56.25 83.39 58.81 83.39 58.81 97.16 56.31 97.16 49.23 87.76 49.23 97.16 46.65 97.16 46.65 83.39 49.15 83.39"/>
          <path class="cls-1" d="M71.16,94.25h-6.73l-1.22,2.91h-2.74l6.04-13.77h2.74l5.96,13.77h-2.83l-1.22-2.91ZM70.22,91.99l-2.4-5.78-2.44,5.78h4.84Z"/>
          <polygon class="cls-1" points="85.19 83.39 85.19 85.73 80.9 85.73 80.9 97.16 78.24 97.16 78.24 85.73 73.95 85.73 73.95 83.39 85.19 83.39"/>
          <rect class="cls-1" x="87.05" y="83.39" width="2.64" height="13.77"/>
          <path class="cls-1" d="M106.67,90.28c0,3.95-3.19,7-7.34,7s-7.34-3.05-7.34-7,3.19-6.96,7.34-6.96,7.34,3.01,7.34,6.96M94.68,90.28c0,2.6,2.14,4.64,4.68,4.64s4.6-2.05,4.6-4.64-2.08-4.6-4.6-4.6-4.68,2.01-4.68,4.6"/>
          <polygon class="cls-1" points="111.48 83.39 118.58 92.81 118.58 83.39 121.14 83.39 121.14 97.16 118.64 97.16 111.56 87.76 111.56 97.16 108.98 97.16 108.98 83.39 111.48 83.39"/>
        </g>
        <g>
          <path class="cls-1" d="M6.53,109.16c.44,0,.78-.14,1.02-.41.24-.27.36-.64.36-1.09s-.12-.82-.36-1.1-.59-.41-1.02-.41-.79.13-1.04.4c-.25.27-.38.64-.38,1.11s.13.86.38,1.12c.25.26.6.39,1.04.39Z"/>
          <path class="cls-1" d="M27.87,105.51c0,.47.13.84.38,1.11.25.27.6.4,1.04.4s.78-.14,1.02-.41c.24-.27.37-.64.37-1.09s-.12-.84-.37-1.11-.59-.4-1.02-.4-.79.13-1.04.39c-.25.26-.38.63-.38,1.12Z"/>
          <path class="cls-1" d="M27.26,103.63c.34,0,.64-.11.88-.34s.36-.56.36-1-.12-.77-.36-1c-.24-.23-.54-.34-.88-.34-.36,0-.66.11-.91.32-.24.21-.36.55-.36,1.03s.12.81.36,1.02.55.32.91.32Z"/>
          <path class="cls-1" d="M25.23,107.02c.44,0,.78-.14,1.03-.41.24-.27.36-.64.36-1.09s-.12-.84-.36-1.11c-.24-.27-.59-.4-1.03-.4-.41,0-.75.12-1.01.36-.27.24-.4.62-.4,1.14s.13.88.4,1.13c.27.25.6.38,1.01.38Z"/>
          <path class="cls-1" d="M52.81,122.78c-.41,0-.75.12-1.01.36s-.4.62-.4,1.14.13.88.4,1.13c.27.25.61.38,1.01.38s.76-.13,1.01-.4.38-.64.38-1.11-.13-.86-.38-1.12c-.25-.26-.59-.39-1.01-.39Z"/>
          <path class="cls-1" d="M56.86,122.78c-.44,0-.79.13-1.04.39-.25.26-.38.63-.38,1.12s.13.84.38,1.11.6.4,1.04.4.78-.14,1.02-.41c.24-.28.36-.64.36-1.1s-.12-.82-.36-1.1c-.24-.27-.59-.41-1.02-.41Z"/>
          <path class="cls-1" d="M65.87,107.02c.44,0,.79-.14,1.04-.41.25-.27.38-.64.38-1.09s-.12-.84-.36-1.11-.59-.4-1.05-.4-.78.13-1.03.39c-.24.26-.36.63-.36,1.12s.13.84.38,1.11c.25.27.59.4,1.01.4Z"/>
          <path class="cls-1" d="M99.9,122.78c-.41,0-.75.12-1.01.36s-.4.62-.4,1.14.13.88.4,1.13.61.38,1.01.38.76-.13,1.01-.4.38-.64.38-1.11-.13-.86-.38-1.12c-.25-.26-.59-.39-1.01-.39Z"/>
          <path class="cls-1" d="M103.95,122.78c-.44,0-.79.13-1.04.39-.25.26-.38.63-.38,1.12s.13.84.38,1.11.6.4,1.04.4.78-.14,1.02-.41c.24-.28.36-.64.36-1.1s-.12-.82-.36-1.1c-.24-.27-.59-.41-1.02-.41Z"/>
          <path class="cls-1" d="M114.29,122.78c-.44,0-.79.13-1.04.39-.25.26-.38.63-.38,1.12s.13.84.38,1.11c.25.27.6.4,1.04.4s.78-.14,1.02-.41c.24-.28.37-.64.37-1.1s-.12-.84-.37-1.11-.59-.4-1.02-.4Z"/>
          <path class="cls-1" d="M120.46,117.58c-.2-.42-.39-.93-.56-1.56-.17-.62-.33-1.37-.47-2.25-.2-1.26-.52-2.22-.94-2.9-.42-.68-1-1.18-1.72-1.51-.31-.14-.67-.25-1.06-.32-.39-.07-.82-.11-1.3-.11-.83,0-1.62.09-2.36.26-.74.17-1.44.46-2.12.87l.9,1.96c.6-.31,1.17-.55,1.71-.7.54-.15,1.08-.22,1.61-.22.58,0,1.06.11,1.44.32s.68.57.92,1.07c.24.5.42,1.17.56,2,.2,1.05.42,1.91.66,2.57.24.66.5,1.14.8,1.44h-15.28v-9.33h-2.57v9.33h-15.84c-.64,0-1.17-.09-1.57-.27-.4-.18-.76-.49-1.07-.93.16-.41.27-.83.35-1.27.08-.44.12-.9.12-1.39,0-1.04-.22-1.96-.65-2.78-.43-.82-1.04-1.44-1.83-1.88-.39-.2-.81-.36-1.26-.48-.45-.12-.92-.18-1.43-.18-.75,0-1.52.13-2.31.4s-1.49.64-2.12,1.11c-.31.55-.55,1.17-.72,1.85s-.25,1.37-.25,2.06c0,.58.06,1.19.19,1.81.13.63.32,1.28.59,1.96h-5.65v-9.33h-2.57v9.33h-8.51v-9.33h-2.57v9.33h-18.3v-9.33h-2.5v9.33h-1.46c-.68,0-1.23-.13-1.67-.38-.44-.25-.86-.69-1.25-1.32.01-.14.03-.28.04-.42,0-.14.01-.29.01-.45v-4.92h-2.5v4.76c0,.86-.2,1.53-.61,2.01-.41.48-.99.72-1.74.72h-2.38v-7.49h-2.5v7.49h-5.72v-9.33h-2.52v11.21c0,.83-.13,1.53-.4,2.08-.27.56-.68.98-1.25,1.26-.57.28-1.29.42-2.17.42h-.99c-.97,0-1.73-.34-2.27-1.02-.54-.68-.81-1.65-.81-2.89,0-.94.07-1.85.2-2.72.13-.87.33-1.67.6-2.39H1.04c-.33.77-.59,1.6-.77,2.48-.18.89-.27,1.79-.27,2.72,0,1.13.19,2.13.58,3,.39.87.94,1.57,1.66,2.08.41.28.87.5,1.38.66.51.16,1.07.24,1.68.24h1.46c2.06,0,3.59-.48,4.6-1.43,1.01-.95,1.55-2.36,1.61-4.23h11.03c.82,0,1.53-.15,2.13-.46.6-.31,1.1-.72,1.47-1.24.6.61,1.2,1.05,1.8,1.31.6.26,1.25.39,1.94.39h20.62-1.92,26.89c.75,0,1.48-.13,2.18-.39.7-.26,1.31-.65,1.85-1.17.55.58,1.12.99,1.72,1.21.56.22,1.24.32,2.02.33,0,0,0,0,0,0h36.11-11.95,12.27v-2.14c-.25-.22-.48-.54-.68-.95ZM79.67,116.71c-.27.57-.64,1.02-1.13,1.33-.49.31-1.07.47-1.74.47h-1.41c-.3-.72-.5-1.39-.61-2.01-.11-.62-.16-1.24-.16-1.85,0-.42.02-.82.06-1.2.04-.38.12-.75.25-1.11.38-.25.79-.46,1.23-.61.44-.16.89-.24,1.34-.24.74,0,1.35.29,1.85.87s.74,1.34.74,2.28c0,.8-.13,1.49-.4,2.06Z"/>
        </g>
      </g>
      <rect class="cls-1" x="153.91" width="2.35" height="126.33"/>
      <g>
        <path class="cls-1" d="M237.23,57.27l-.63-.78c-.52.52-1.11.89-1.76,1.13-.66.24-1.29.35-1.9.35-1.36,0-2.35-.49-2.96-1.48-.61-.99-1.06-2.09-1.34-3.31-.19-.8-.32-1.79-.39-2.96-.07-1.17-.14-2.4-.21-3.67s-.17-2.5-.28-3.7c-.12-1.2-.32-2.27-.6-3.21-.47-1.6-1.27-2.9-2.4-3.91-1.13-1.01-2.36-1.82-3.7-2.43-1.34-.61-2.66-1.05-3.95-1.3-1.29-.26-2.32-.43-3.07-.53v-.14c2.73-.33,4.91-.98,6.56-1.94,1.64-.96,2.9-2.02,3.77-3.17.87-1.15,1.43-2.28,1.69-3.38.26-1.1.39-2.01.39-2.71,0-1.41-.34-2.91-1.02-4.51-.68-1.6-1.85-3.03-3.49-4.3-1.83-1.46-3.81-2.34-5.92-2.64-2.11-.31-4.56-.46-7.33-.46-.56,0-1.13.01-1.69.04-.56.02-1.13.04-1.69.04-.56.05-1.13.08-1.69.11-.56.02-1.13.04-1.69.04h-13.4v.99h7.83v48.22h-7.83v.99h22.7v-.99h-7.83v-25.45h7.05c.8,0,1.74.06,2.82.18,1.08.12,2.13.48,3.14,1.09,1.01.61,1.89,1.58,2.64,2.89.75,1.32,1.22,3.15,1.41,5.5l.49,6.42c.14,1.79.39,3.35.74,4.69s.9,2.47,1.66,3.38c.75.92,1.75,1.61,3,2.08,1.24.47,2.81.71,4.69.71.99,0,1.82-.06,2.5-.18.68-.12,1.26-.27,1.73-.46.47-.19.86-.39,1.16-.6.31-.21.57-.41.81-.6ZM209.88,31.18h-6.49V9.4c.61-.09,1.35-.15,2.22-.18.87-.02,1.73-.04,2.57-.04,1.22,0,2.46.12,3.7.35,1.24.24,2.37.73,3.38,1.48,1.01.75,1.83,1.87,2.47,3.35.63,1.48.95,3.44.95,5.89,0,2.16-.21,3.95-.63,5.36-.42,1.41-1.02,2.53-1.8,3.35-.78.82-1.7,1.4-2.79,1.73-1.08.33-2.28.49-3.6.49Z"/>
        <path class="cls-1" d="M282.42,43.17h-.78c-.14,1.08-.47,2.44-.99,4.09-.52,1.65-1.32,3.23-2.4,4.76-1.08,1.53-2.48,2.84-4.19,3.95-1.72,1.11-3.87,1.66-6.45,1.66h-13.32v-25.45h5.71c1.69,0,3.07.29,4.12.88,1.06.59,1.9,1.37,2.54,2.36s1.13,2.12,1.48,3.38.69,2.59,1.02,3.95h.78v-21.93h-.78c-.52,2.11-1.05,3.84-1.59,5.18-.54,1.34-1.2,2.4-1.97,3.17-.78.78-1.7,1.3-2.78,1.59-1.08.28-2.4.42-3.95.42h-4.58V9.4h11.7c1.93,0,3.57.24,4.94.7,1.36.47,2.54,1.19,3.53,2.15.99.96,1.83,2.14,2.54,3.53.7,1.39,1.36,3,1.97,4.83h.78v-12.2h-40.33v.99h7.83v48.22h-7.83v.99h43.01v-15.44Z"/>
        <path class="cls-1" d="M311.75,57.62h-7.83v-24.39h5.71c1.69,0,3.07.29,4.12.88,1.06.59,1.9,1.38,2.54,2.36s1.13,2.11,1.48,3.38.69,2.59,1.02,3.95h.78v-21.93h-.78c-.52,2.12-1.05,3.84-1.59,5.18-.54,1.34-1.2,2.4-1.97,3.17s-1.7,1.3-2.78,1.59c-1.08.28-2.4.42-3.95.42h-4.58V9.4h11.7c1.93,0,3.57.24,4.94.7,1.36.47,2.54,1.19,3.53,2.15.99.96,1.83,2.14,2.54,3.53.7,1.39,1.36,3,1.97,4.83h.78v-12.2h-40.33v.99h7.83v48.22h-7.83v.99h22.7v-.99Z"/>
        <path class="cls-1" d="M345.7,51.66c2.19,2.42,4.78,4.36,7.79,5.82,3.01,1.46,6.27,2.19,9.8,2.19s6.64-.75,9.62-2.26c2.98-1.5,5.58-3.48,7.79-5.92,2.21-2.44,3.95-5.24,5.22-8.39,1.27-3.15,1.9-6.37,1.9-9.66,0-3.76-.69-7.24-2.08-10.43-1.39-3.2-3.23-5.97-5.53-8.32-2.3-2.35-4.92-4.19-7.86-5.53-2.94-1.34-5.96-2.01-9.06-2.01-2.91,0-5.83.67-8.74,2.01-2.91,1.34-5.53,3.18-7.86,5.53-2.33,2.35-4.23,5.12-5.71,8.32-1.48,3.2-2.22,6.67-2.22,10.43,0,3.38.61,6.66,1.83,9.83,1.22,3.17,2.93,5.97,5.11,8.39ZM347.49,24.03c.42-3.03,1.23-5.73,2.43-8.11,1.2-2.37,2.87-4.27,5.01-5.68,2.14-1.41,4.92-2.12,8.35-2.12s6.22.7,8.35,2.12c2.14,1.41,3.81,3.3,5.01,5.68,1.2,2.37,2.01,5.08,2.43,8.11.42,3.03.63,6.17.63,9.41,0,4.23-.28,7.92-.85,11.07-.56,3.15-1.5,5.78-2.82,7.9-1.32,2.12-3.02,3.69-5.11,4.72-2.09,1.03-4.64,1.55-7.65,1.55s-5.62-.52-7.68-1.55c-2.07-1.03-3.76-2.61-5.08-4.72-1.32-2.11-2.26-4.75-2.82-7.9-.56-3.15-.85-6.84-.85-11.07,0-3.24.21-6.38.63-9.41Z"/>
        <path class="cls-1" d="M417.43,57.62h-7.83v-25.45h7.05c.8,0,1.74.06,2.82.18,1.08.12,2.13.48,3.14,1.09,1.01.61,1.89,1.58,2.64,2.89.75,1.32,1.22,3.15,1.41,5.5l.49,6.42c.14,1.79.39,3.35.74,4.69s.9,2.47,1.66,3.38c.75.92,1.75,1.61,3,2.08,1.24.47,2.81.71,4.69.71.99,0,1.82-.06,2.5-.18.68-.12,1.26-.27,1.73-.46.47-.19.86-.39,1.16-.6.31-.21.57-.41.81-.6l-.63-.78c-.52.52-1.11.89-1.76,1.13-.66.24-1.29.35-1.9.35-1.36,0-2.35-.49-2.96-1.48-.61-.99-1.06-2.09-1.34-3.31-.19-.8-.32-1.79-.39-2.96-.07-1.17-.14-2.4-.21-3.67s-.17-2.5-.28-3.7c-.12-1.2-.32-2.27-.6-3.21-.47-1.6-1.27-2.9-2.4-3.91-1.13-1.01-2.36-1.82-3.7-2.43-1.34-.61-2.66-1.05-3.95-1.3-1.29-.26-2.32-.43-3.07-.53v-.14c2.73-.33,4.91-.98,6.56-1.94,1.64-.96,2.9-2.02,3.77-3.17.87-1.15,1.43-2.28,1.69-3.38.26-1.1.39-2.01.39-2.71,0-1.41-.34-2.91-1.02-4.51-.68-1.6-1.85-3.03-3.49-4.3-1.83-1.46-3.81-2.34-5.92-2.64-2.11-.31-4.56-.46-7.33-.46-.56,0-1.13.01-1.69.04-.56.02-1.13.04-1.69.04-.56.05-1.13.08-1.69.11-.56.02-1.13.04-1.69.04h-13.4v.99h7.83v48.22h-7.83v.99h22.7v-.99ZM409.61,9.4c.61-.09,1.35-.15,2.22-.18.87-.02,1.73-.04,2.57-.04,1.22,0,2.46.12,3.7.35,1.24.24,2.37.73,3.38,1.48,1.01.75,1.83,1.87,2.47,3.35.63,1.48.95,3.44.95,5.89,0,2.16-.21,3.95-.63,5.36-.42,1.41-1.02,2.53-1.8,3.35-.78.82-1.7,1.4-2.79,1.73-1.08.33-2.28.49-3.6.49h-6.49V9.4Z"/>
        <polygon class="cls-1" points="454.23 10.32 454.37 10.32 471.15 58.68 488 9.82 488.14 9.82 488.14 57.62 480.32 57.62 480.32 58.61 503.02 58.61 503.02 57.62 495.19 57.62 495.19 9.4 503.02 9.4 503.02 8.41 487.44 8.41 474.4 46.34 474.26 46.34 461.21 8.41 445.35 8.41 445.35 9.4 453.18 9.4 453.18 57.62 445.35 57.62 445.35 58.61 462.06 58.61 462.06 57.62 454.23 57.62 454.23 10.32"/>
        <path class="cls-1" d="M549.97,43.17h-.78c-.14,1.08-.47,2.44-.99,4.09-.52,1.65-1.32,3.23-2.4,4.76-1.08,1.53-2.48,2.84-4.19,3.95-1.72,1.11-3.87,1.66-6.45,1.66h-13.32v-25.45h5.71c1.69,0,3.07.29,4.12.88,1.06.59,1.9,1.37,2.54,2.36s1.13,2.12,1.48,3.38c.35,1.27.69,2.59,1.02,3.95h.78v-21.93h-.78c-.52,2.11-1.05,3.84-1.59,5.18-.54,1.34-1.2,2.4-1.97,3.17-.78.78-1.7,1.3-2.78,1.59-1.08.28-2.4.42-3.95.42h-4.58V9.4h11.7c1.93,0,3.57.24,4.94.7,1.36.47,2.54,1.19,3.53,2.15.99.96,1.83,2.14,2.54,3.53.7,1.39,1.36,3,1.97,4.83h.78v-12.2h-40.33v.99h7.83v48.22h-7.83v.99h43.01v-15.44Z"/>
        <path class="cls-1" d="M604.68,56.49c-.52.52-1.11.89-1.76,1.13-.66.24-1.29.35-1.9.35-1.36,0-2.35-.49-2.96-1.48-.61-.99-1.06-2.09-1.34-3.31-.19-.8-.32-1.79-.39-2.96-.07-1.17-.14-2.4-.21-3.67s-.17-2.5-.28-3.7c-.12-1.2-.32-2.27-.6-3.21-.47-1.6-1.27-2.9-2.4-3.91-1.13-1.01-2.36-1.82-3.7-2.43-1.34-.61-2.66-1.05-3.95-1.3-1.29-.26-2.32-.43-3.07-.53v-.14c2.73-.33,4.91-.98,6.56-1.94,1.64-.96,2.9-2.02,3.77-3.17.87-1.15,1.43-2.28,1.69-3.38.26-1.1.39-2.01.39-2.71,0-1.41-.34-2.91-1.02-4.51-.68-1.6-1.85-3.03-3.49-4.3-1.83-1.46-3.81-2.34-5.92-2.64-2.11-.31-4.56-.46-7.33-.46-.56,0-1.13.01-1.69.04-.56.02-1.13.04-1.69.04-.56.05-1.13.08-1.69.11-.56.02-1.13.04-1.69.04h-13.4v.99h7.83v48.22h-7.83v.99h22.7v-.99h-7.83v-25.45h7.05c.8,0,1.74.06,2.82.18,1.08.12,2.13.48,3.14,1.09,1.01.61,1.89,1.58,2.64,2.89.75,1.32,1.22,3.15,1.41,5.5l.49,6.42c.14,1.79.39,3.35.74,4.69s.9,2.47,1.66,3.38c.75.92,1.75,1.61,3,2.08,1.24.47,2.81.71,4.69.71.99,0,1.82-.06,2.5-.18.68-.12,1.26-.27,1.73-.46.47-.19.86-.39,1.16-.6.31-.21.57-.41.81-.6l-.63-.78ZM577.96,31.18h-6.49V9.4c.61-.09,1.35-.15,2.22-.18.87-.02,1.73-.04,2.57-.04,1.22,0,2.46.12,3.7.35,1.24.24,2.37.73,3.38,1.48,1.01.75,1.83,1.87,2.47,3.35.63,1.48.95,3.44.95,5.89,0,2.16-.21,3.95-.63,5.36-.42,1.41-1.02,2.53-1.8,3.35-.78.82-1.7,1.4-2.79,1.73-1.08.33-2.28.49-3.6.49Z"/>
        <path class="cls-1" d="M270.22,82.81c-2.07-.96-4.32-1.62-6.77-1.97-2.44-.35-4.72-.53-6.84-.53-2.4,0-4.79.04-7.19.11-2.4.07-4.79.11-7.19.11h-6.49v.99h6.49v48.22h-6.49v.99h23.2v-.99h-6.49v-22.91h2.89c3.76,0,7.03-.35,9.8-1.06,2.77-.7,5.08-1.66,6.91-2.86,1.83-1.2,3.2-2.61,4.09-4.23.89-1.62,1.34-3.35,1.34-5.18,0-2.73-.69-4.95-2.08-6.66-1.39-1.72-3.11-3.05-5.18-4.02ZM263.32,103.12c-1.79,1.81-4.68,2.71-8.67,2.71h-2.19v-24.32c.38-.05.8-.09,1.27-.14.47-.05.96-.07,1.48-.07,4.09,0,6.91,1.08,8.46,3.24,1.55,2.16,2.33,5.29,2.33,9.38,0,4.32-.89,7.39-2.68,9.2Z"/>
        <polygon class="cls-1" points="281.79 81.51 288.27 81.51 288.27 129.73 281.79 129.73 281.79 130.72 304.98 130.72 304.98 129.73 298.5 129.73 298.5 81.51 304.98 81.51 304.98 80.52 281.79 80.52 281.79 81.51"/>
        <path class="cls-1" d="M352.18,121.73c-1.1,1.9-2.35,3.45-3.74,4.65-1.39,1.2-2.87,2.06-4.44,2.57-1.58.52-3.14.78-4.69.78h-11.63v-48.22h6.49v-.99h-23.19v.99h6.49v48.22h-6.49v.99h44.7v-15.93h-.92c-.61,2.73-1.47,5.04-2.57,6.94Z"/>
        <path class="cls-1" d="M385.71,78.55h-1.9l-21.01,51.18h-5.92v.99h13.32v-.99h-6.27l7.83-18.89h16.92l8.18,18.89h-6.56v.99h23.69v-.99h-6.06l-22.21-51.18ZM372.1,109.85l7.9-19.25,8.32,19.25h-16.22Z"/>
        <path class="cls-1" d="M414.89,93.42h.92c.7-2.4,1.48-4.37,2.33-5.92.85-1.55,1.81-2.76,2.89-3.63,1.08-.87,2.3-1.48,3.67-1.83,1.36-.35,2.91-.53,4.65-.53h2.54v48.22h-6.49v.99h23.2v-.99h-6.49v-48.22h2.54c1.74,0,3.29.18,4.65.53,1.36.35,2.58.96,3.67,1.83,1.08.87,2.04,2.08,2.89,3.63.85,1.55,1.62,3.53,2.33,5.92h.92v-12.9h-44.2v12.9Z"/>
        <path class="cls-1" d="M506.55,120.96c-.89,1.76-2.01,3.3-3.35,4.62-1.34,1.32-2.88,2.34-4.62,3.07-1.74.73-3.69,1.09-5.85,1.09h-11.56v-25.45h4.72c1.64,0,3.02.28,4.12.85,1.1.56,2.03,1.33,2.78,2.29.75.96,1.35,2.08,1.8,3.35.45,1.27.83,2.59,1.16,3.95h.92v-21.93h-.92c-.33,1.6-.75,3.04-1.27,4.34-.52,1.29-1.18,2.4-1.97,3.31-.8.92-1.8,1.62-3,2.11-1.2.49-2.67.74-4.41.74h-3.95v-21.79h11.21c2.3,0,4.25.44,5.85,1.3,1.6.87,2.9,1.89,3.91,3.07,1.01,1.18,1.8,2.39,2.36,3.63.56,1.25.96,2.27,1.2,3.07h.92v-12.06h-42.16v.99h6.49v48.22h-6.49v.99h45.05v-15.44h-.92c-.47,2.02-1.15,3.91-2.04,5.68Z"/>
        <path class="cls-1" d="M549.06,104.63c-1.41-1.13-3.02-2.06-4.83-2.79-1.81-.73-3.67-1.4-5.57-2.01-1.9-.61-3.76-1.2-5.57-1.76-1.81-.56-3.42-1.23-4.83-2.01-1.41-.78-2.55-1.7-3.42-2.79-.87-1.08-1.3-2.44-1.3-4.09,0-1.08.26-2.14.78-3.17.52-1.03,1.27-1.97,2.26-2.82.99-.85,2.2-1.53,3.63-2.04,1.43-.52,3.09-.78,4.97-.78,2.3,0,4.21.4,5.71,1.2,1.5.8,2.75,1.85,3.74,3.14.99,1.29,1.8,2.74,2.43,4.34.63,1.6,1.23,3.22,1.8,4.86h.92v-13.4h-1.13c-.24.56-.46.95-.67,1.16s-.65.32-1.3.32c-.56,0-1.19-.14-1.87-.42-.68-.28-1.47-.57-2.36-.88-.89-.31-1.93-.6-3.1-.88-1.18-.28-2.54-.42-4.09-.42-2.44,0-4.71.41-6.8,1.23-2.09.82-3.89,1.9-5.39,3.24-1.5,1.34-2.68,2.88-3.52,4.62-.85,1.74-1.27,3.55-1.27,5.43,0,2.54.41,4.65,1.23,6.35.82,1.69,1.91,3.11,3.28,4.27,1.36,1.15,2.91,2.09,4.65,2.82,1.74.73,3.52,1.36,5.36,1.9,1.83.54,3.62,1.07,5.36,1.59,1.74.52,3.29,1.15,4.65,1.9,1.36.75,2.46,1.69,3.28,2.82.82,1.13,1.23,2.56,1.23,4.3,0,.94-.19,2.03-.56,3.28-.38,1.25-1.02,2.43-1.94,3.56-.92,1.13-2.17,2.08-3.77,2.86-1.6.78-3.64,1.16-6.13,1.16-.7,0-1.47-.01-2.29-.04-.82-.02-1.69-.16-2.61-.42-.92-.26-1.88-.67-2.89-1.23-1.01-.56-2.06-1.39-3.14-2.47-.99-.94-1.82-1.96-2.5-3.07-.68-1.1-1.25-2.19-1.69-3.24-.45-1.06-.79-2.04-1.02-2.96-.24-.92-.4-1.66-.49-2.22h-1.06v15.65h1.13c.23-.66.49-1.09.78-1.3s.75-.32,1.41-.32c.47,0,1.19.14,2.15.42.96.28,2.07.58,3.31.88,1.24.31,2.58.6,4.02.88,1.43.28,2.88.42,4.34.42,2.91,0,5.56-.46,7.93-1.37,2.37-.92,4.42-2.15,6.13-3.7,1.72-1.55,3.04-3.36,3.98-5.43.94-2.07,1.41-4.25,1.41-6.56s-.44-4.32-1.3-5.92c-.87-1.6-2.01-2.96-3.42-4.09Z"/>
      </g>
    </g>
  </g>
</svg>