<svg width="206" height="62" viewBox="0 0 206 62" fill="none" xmlns="http://www.w3.org/2000/svg">
<path d="M198.371 61.037H7.63061C3.35801 61.037 0.000976562 57.68 0.000976562 53.4074V7.62962C0.000976562 3.35703 3.35801 0 7.63061 0H198.371C202.644 0 206.001 3.35703 206.001 7.62962V53.4074C206.001 57.5274 202.644 61.037 198.371 61.037Z" fill="#F4CD00"/>
<path d="M198.371 1.22074C201.881 1.22074 204.78 4.11999 204.78 7.62962V53.4074C204.78 56.917 201.881 59.8163 198.371 59.8163H7.63061C4.12098 59.8163 1.22172 56.917 1.22172 53.4074V7.62962C1.22172 4.11999 4.12098 1.22074 7.63061 1.22074H198.371ZM198.371 0H7.63061C3.35801 0 0.000976562 3.35703 0.000976562 7.62962V53.4074C0.000976562 57.68 3.35801 61.037 7.63061 61.037H198.371C202.644 61.037 206.001 57.68 206.001 53.4074V7.62962C206.001 3.35703 202.644 0 198.371 0Z" fill="#F4CD00"/>
<path d="M184.485 28.6875C184.485 23.9572 188.453 21.6683 188.605 21.5157C186.316 18.3112 182.959 17.8535 181.739 17.7009C178.839 17.3957 175.94 19.3794 174.567 19.3794C173.193 19.3794 170.752 17.7009 168.31 17.7009C165.106 17.7009 162.207 19.532 160.528 22.4312C157.171 28.2298 159.613 36.7749 162.817 41.5053C164.496 43.7942 166.327 46.3883 168.768 46.2357C171.21 46.2357 172.125 44.7097 175.024 44.7097C177.924 44.7097 178.687 46.2357 181.281 46.2357C183.875 46.2357 185.553 43.9468 187.079 41.6579C188.91 39.0638 189.673 36.4698 189.673 36.3172C189.673 36.3172 184.638 34.3335 184.638 28.6875H184.485Z" fill="#022A3A"/>
<path d="M179.755 14.8019C180.976 13.1234 181.892 10.9871 181.739 8.69824C179.908 8.69824 177.466 9.91899 176.246 11.5975C175.025 12.9708 173.957 15.2597 174.262 17.396C176.398 17.5486 178.534 16.3279 179.908 14.8019H179.755Z" fill="#022A3A"/>
<path d="M28.3835 40.5901H20.1435L18.1598 46.3886H14.6501L22.4324 24.873H26.0946L33.8768 46.3886H30.3672L28.3835 40.5901ZM21.059 37.996H27.6205L24.4161 28.5353L21.2116 37.996H21.059Z" fill="#022A3A"/>
<path d="M50.6618 38.6069C50.6618 43.4899 48.0678 46.5418 44.1003 46.5418C40.1329 46.5418 40.1329 45.4736 39.2174 43.7951V51.5773H36.0129V30.6721H39.0648V33.2662C39.9803 31.5877 41.8115 30.5195 44.1003 30.5195C48.0678 30.5195 50.6618 33.724 50.6618 38.6069ZM47.3048 38.6069C47.3048 35.4025 45.6263 33.2662 43.1848 33.2662C40.7433 33.2662 39.0648 35.4025 39.0648 38.6069C39.0648 41.8114 40.7433 43.9477 43.1848 43.9477C45.6263 43.9477 47.3048 41.8114 47.3048 38.6069Z" fill="#022A3A"/>
<path d="M67.9045 38.6069C67.9045 43.4899 65.3104 46.5418 61.343 46.5418C57.3756 46.5418 57.3756 45.4736 56.4601 43.7951V51.5773H53.2556V30.6721H56.3075V33.2662C57.223 31.5877 59.0541 30.5195 61.343 30.5195C65.3104 30.5195 67.9045 33.724 67.9045 38.6069ZM64.7001 38.6069C64.7001 35.4025 63.0215 33.2662 60.5801 33.2662C58.1386 33.2662 56.4601 35.4025 56.4601 38.6069C56.4601 41.8114 58.1386 43.9477 60.5801 43.9477C63.0215 43.9477 64.7001 41.8114 64.7001 38.6069Z" fill="#022A3A"/>
<path d="M79.3492 40.437C79.6544 42.5733 81.6381 43.9466 84.5374 43.9466C87.4366 43.9466 89.2677 42.5733 89.2677 40.5896C89.2677 38.6059 88.047 37.8429 85.3003 37.2326L82.5537 36.6222C78.5863 35.7066 76.7551 33.8755 76.7551 30.8237C76.7551 27.7718 79.9596 24.5674 84.5374 24.5674C89.1151 24.5674 92.167 27.1615 92.3196 30.8237H89.1151C88.9625 28.6874 87.1314 27.314 84.5374 27.314C81.9433 27.314 80.1122 28.6874 80.1122 30.5185C80.1122 32.3496 81.1803 32.96 84.0796 33.5703L86.5211 34.1807C90.9462 35.2489 92.7774 36.9274 92.7774 40.1318C92.7774 43.3363 89.5729 46.6933 84.5374 46.6933C79.5018 46.6933 76.6025 44.2518 76.2974 40.2844H79.6544L79.3492 40.437Z" fill="#022A3A"/>
<path d="M99.4916 27.0078V30.67H102.543V33.2641H99.4916V41.9619C99.4916 43.3352 100.102 43.9456 101.475 43.9456C102.849 43.9456 102.391 43.9456 102.543 43.9456V46.5397C102.238 46.5397 101.475 46.5397 100.712 46.5397C97.5079 46.5397 96.2872 45.3189 96.2872 42.2671V33.2641H93.9983V30.67H96.2872V27.0078H99.4916Z" fill="#022A3A"/>
<path d="M104.222 38.6069C104.222 33.724 107.122 30.5195 111.699 30.5195C116.277 30.5195 119.176 33.5714 119.176 38.6069C119.176 43.6425 116.277 46.6944 111.699 46.6944C107.122 46.6944 104.222 43.6425 104.222 38.6069ZM115.819 38.6069C115.819 35.2499 114.294 33.2662 111.699 33.2662C109.105 33.2662 107.579 35.2499 107.579 38.6069C107.579 41.964 109.105 43.9477 111.699 43.9477C114.294 43.9477 115.819 41.964 115.819 38.6069Z" fill="#022A3A"/>
<path d="M121.77 30.6721H124.822V33.4188C125.28 31.5877 126.806 30.5195 128.637 30.5195C130.468 30.5195 129.552 30.5195 129.705 30.5195V33.5714C129.4 33.5714 128.942 33.4188 128.332 33.4188C126.195 33.4188 124.975 34.7921 124.975 37.081V46.3892H121.77V30.6721Z" fill="#022A3A"/>
<path d="M144.659 41.8114C144.201 44.7106 141.454 46.5418 137.945 46.5418C134.435 46.5418 130.62 43.4899 130.62 38.6069C130.62 33.724 133.52 30.5195 137.945 30.5195C142.37 30.5195 144.964 33.5714 144.964 38.3018V39.3699H133.825C133.825 42.2692 135.503 43.9477 138.097 43.9477C140.691 43.9477 141.302 43.0321 141.76 41.8114H144.811H144.659ZM133.825 37.081H141.607C141.607 34.6395 139.929 33.1136 137.792 33.1136C135.656 33.1136 133.977 34.7921 133.825 37.081Z" fill="#022A3A"/>
<path d="M91.8617 21.5158H90.7936C88.6573 21.5158 86.2158 21.058 86.2158 18.0061C86.2158 14.9543 86.8262 14.8017 87.1314 14.0387L88.6573 14.4965V15.1069C88.3521 15.5646 87.8943 17.2432 87.8943 18.0061C87.8943 20.1424 89.878 20.1424 91.2514 20.1424H92.1669C92.7773 20.1424 93.8454 19.8372 93.8454 19.0743V13.1232H95.524V17.5483C95.8292 17.5483 96.2869 17.7009 96.5921 17.7009H97.2025V19.0743H96.5921C96.2869 19.0743 95.8292 19.0743 95.524 18.9217C95.524 19.9898 94.9136 21.5158 92.0143 21.5158H91.8617ZM90.9462 11.292C90.3358 11.292 90.0306 10.8343 90.0306 10.3765C90.0306 9.91871 90.4884 9.46094 91.0988 9.46094C91.7091 9.46094 92.1669 9.91871 92.1669 10.3765C92.1669 10.8343 91.7091 11.292 91.0988 11.292H90.9462Z" fill="#022A3A"/>
<path d="M98.7283 17.7004C98.5757 17.09 98.4232 16.4796 98.4232 15.7167C98.4232 13.8856 99.4913 12.207 101.628 12.207C103.764 12.207 104.679 13.8855 104.679 16.0218C104.679 18.1581 104.069 19.6841 102.085 19.6841C100.102 19.6841 100.865 19.5315 100.102 19.2263H96.7446V17.853H98.8809L98.7283 17.7004ZM100.407 17.7004C100.865 17.853 101.475 18.0056 102.085 18.0056C103.001 18.0056 103.306 16.7848 103.306 15.7167C103.306 14.6485 103.001 13.2752 101.78 13.2752C100.559 13.2752 100.254 14.3433 100.254 15.5641C100.254 16.7848 100.254 16.7848 100.559 17.5478L100.407 17.7004Z" fill="#022A3A"/>
<path d="M115.361 21.5165H114.293C112.156 21.5165 109.715 21.0587 109.715 18.0069C109.715 14.955 110.325 14.8024 110.63 14.0395L112.156 14.4972V15.1076C111.851 15.5654 111.393 17.2439 111.393 18.0069C111.393 20.1432 113.377 20.1432 114.75 20.1432H115.666C116.276 20.1432 117.344 19.838 117.344 19.075V9.00391H119.023V17.5491C119.328 17.5491 119.786 17.7017 120.091 17.7017H120.702V19.075H120.091C119.786 19.075 119.328 19.075 119.023 18.9224C119.023 19.9906 118.413 21.5165 115.513 21.5165H115.361Z" fill="#022A3A"/>
<path d="M126.042 12.0557V16.3283C126.042 18.1594 124.974 19.0749 122.838 19.0749H120.396V17.7016H122.838C124.059 17.7016 124.516 17.0912 124.516 16.1757V12.2083H126.195L126.042 12.0557ZM121.922 22.432C121.312 22.432 121.007 21.9742 121.007 21.5164C121.007 21.0586 121.465 20.6008 122.075 20.6008C122.685 20.6008 123.143 21.0586 123.143 21.5164C123.143 21.9742 122.685 22.432 122.075 22.432H121.922ZM124.516 22.432C123.906 22.432 123.601 21.9742 123.601 21.5164C123.601 21.0586 124.059 20.6008 124.669 20.6008C125.279 20.6008 125.737 21.0586 125.737 21.5164C125.737 21.9742 125.279 22.432 124.669 22.432H124.516Z" fill="#022A3A"/>
<path d="M127.111 21.3629C127.416 21.3629 127.569 21.3629 127.874 21.3629C129.247 21.3629 129.858 20.5999 129.858 19.074V12.9703H131.536V17.7007H133.062V19.074H131.536C131.536 20.2948 131.078 21.3629 130.468 21.8207C129.858 22.4311 128.942 22.7362 127.874 22.7362C126.806 22.7362 127.263 22.7362 126.806 22.7362L127.263 21.3629H127.111ZM130.62 11.4444C130.01 11.4444 129.705 10.9866 129.705 10.5288C129.705 10.0711 130.163 9.61328 130.773 9.61328C131.383 9.61328 131.841 10.0711 131.841 10.5288C131.841 10.9866 131.383 11.4444 130.773 11.4444H130.62Z" fill="#022A3A"/>
<path d="M138.403 19.0745C137.945 19.0745 137.182 19.0745 136.571 18.6168C135.961 19.0745 135.045 19.0745 133.977 19.0745H132.757V17.7012H134.13C135.351 17.7012 135.656 17.5486 135.656 16.6331V12.2079H137.334V17.396C137.64 17.5486 138.097 17.7012 138.555 17.7012H139.623V19.0745H138.555H138.403ZM136.266 10.5293C135.656 10.5293 135.351 10.0716 135.351 9.6138C135.351 9.15602 135.808 8.69824 136.419 8.69824C137.029 8.69824 137.487 9.15602 137.487 9.6138C137.487 10.0716 137.029 10.5293 136.419 10.5293H136.266Z" fill="#022A3A"/>
<path d="M143.286 12.0553V16.3279C143.286 18.159 142.218 19.0745 140.081 19.0745H139.166V17.7012H140.081C141.302 17.7012 141.76 17.0908 141.76 16.1753V12.2079H143.438L143.286 12.0553ZM140.844 10.5293C140.234 10.5293 139.929 10.0716 139.929 9.6138C139.929 9.15602 140.387 8.69824 140.997 8.69824C141.607 8.69824 142.065 9.15602 142.065 9.6138C142.065 10.0716 141.607 10.5293 140.997 10.5293H140.844ZM143.438 10.5293C142.828 10.5293 142.523 10.0716 142.523 9.6138C142.523 9.15602 142.981 8.69824 143.591 8.69824C144.201 8.69824 144.659 9.15602 144.659 9.6138C144.659 10.0716 144.201 10.5293 143.591 10.5293H143.438Z" fill="#022A3A"/>
</svg>
