<?xml version="1.0" encoding="UTF-8"?>
<svg id="Layer_2" data-name="Layer 2" xmlns="http://www.w3.org/2000/svg" viewBox="0 0 42.71 16.18">
  <g id="Layer_1-2" data-name="Layer 1">
    <g>
      <path d="M37.9,14.85c-.16,1.39-1.94,1.81-2.7.68-.31.23-.56.46-.95.56-1.48.37-2.2-.62-2.42-1.94-.12-.69-.05-1.35-.07-2.04,0-.04.02-.12-.03-.11-.28,1.63-1.23,3.87-3.08,4.15s-3.04-1.53-3.52-3.06c-.84-2.66-.83-7.5.17-10.11.59-1.53,1.87-3.03,3.7-2.49s2.62,3.08,2.84,4.8l.33-.5c.96-.82,2.4-.33,2.5.99.15,1.88-.11,3.96,0,5.86.08.26-.05.59.14.8.16,0,.1-.76.11-.9.07-1.8.02-3.61.03-5.42,0-.37-.02-.61.16-.97.46-.92,1.76-1,2.42-.26.04.04.13.24.19.2.11-.25.35-.38.56-.52v-2.45c.16-1.78,2.72-1.8,2.93-.05v2.4c1.61.26,1.61,2.6.04,2.88l-.03.04v4.94c.04.28.06.59.25.82.28.34.72.14,1.01.72.46.91.11,1.96-.91,2.22-2.02.51-3.25-1.44-3.29-3.22v-5.61c-.01-.08-.33-.23-.41-.3v7.89ZM28,.98c-1.91.22-2.59,3.29-2.76,4.83-.26,2.3-.24,6.14.89,8.2.97,1.77,2.71,2.24,4.01.48,1.48-1.98,1.49-6.41,1.2-8.78-.21-1.75-1-5-3.34-4.74ZM41.64,5.27c-.33-.33-.93-.13-.97-.56-.07-.78.06-1.67,0-2.46-.05-.58-.42-.95-1.02-.89-.49.05-.74.43-.78.89-.07.84.06,1.76,0,2.61-.06.21-.24.2-.38.28-.5.27-.55,1.12-.11,1.46.23.18.45.12.5.51.09,1.86-.11,3.82,0,5.67.07,1.27.66,2.83,2.16,2.81.79,0,1.18-.4,1.04-1.19-.09-.53-.32-.39-.68-.58-.47-.26-.69-.84-.73-1.35-.12-1.68.09-3.5,0-5.2.07-.64.47-.35.86-.62s.45-1.02.1-1.37ZM33.01,4.98c-.44.07-.65.48-.69.89.11,2.49-.14,5.09,0,7.56.03.61.23,1.7.81,2.02.52.29,1.17.08,1.6-.28.15-.12.36-.44.54-.44.34-.02.29.33.46.55.52.68,1.67.21,1.6-.65V5.93c0-1.21-1.68-1.34-1.8-.13v6.4c-.1,1.06-1.32,1.07-1.42-.03-.11-2.05.14-4.24,0-6.27-.05-.66-.44-1.03-1.11-.92Z"/>
      <path d="M17.99,14.82c-.18,1.78-2.83,1.92-2.96-.22-.11-1.81.11-3.74,0-5.55,0-.08-.1-.83-.14-.83-.04.09-.06.2-.07.3-.04.25-.06.56-.07.81-.07,1.82.06,3.69,0,5.51-.16,1.75-2.67,1.86-2.81-.22-.12-1.84.12-3.76,0-5.61-.02-.26-.07-.52-.13-.77l-.09.3c-.18,2.01,0,4.06-.04,6.07s-2.84,2.06-2.96.1V5.78c.13-1.41,1.83-1.92,2.6-.71.9-.76,2.17-.96,2.81.22.23-.18.42-.39.68-.55,1.99-1.2,3.36,1.12,3.18,2.88l.44-1.19c1.15-2.69,3.89-3,4.99-.03.41,1.1.85,3.34.05,4.32-.65.81-1.59.43-2.48.61-.26.3-.24,1.42.08,1.62s.65-.3.92-.43c.66-.31,1.37.08,1.57.75.32,1.05-.62,2.33-1.58,2.71-1.67.66-2.88-.49-3.58-1.87l-.42-1.07c-.04.57.06,1.22,0,1.78ZM20.75,4.89c-.66.09-1.26.78-1.57,1.33-1.21,2.11-1.31,5.92-.04,8.02.68,1.11,1.77,1.86,3.02,1.01.53-.36,1.27-1.51.7-2.08-.49-.49-.9.27-1.37.4-.42.12-.84-.09-1.05-.47-.28-.53-.33-2.06.35-2.3.59-.22,1.71.08,2.14-.32.55-.51.41-1.75.31-2.42-.19-1.28-.82-3.39-2.49-3.16ZM13.91,15.39c.16-.16.25-.45.26-.66.14-1.8-.09-3.79,0-5.61.02-.41.1-1.37.49-1.59.33-.19.57.04.7.33.23.52.2,1.11.26,1.66.11,1.69-.15,3.56,0,5.23.1,1.22,1.82,1.07,1.8-.13-.1-2.44.12-4.98,0-7.41-.07-1.44-1.1-3.06-2.6-1.78-.13.11-.56.62-.64.65-.39.12-.45-.36-.59-.61-.38-.63-.97-.54-1.53-.22-.24.13-.62.5-.88.49s-.29-.32-.42-.49c-.52-.68-1.51-.11-1.46.67.03,2.99-.05,5.99.04,8.97.23,1.01,1.7.89,1.76-.15.11-1.95-.17-4.09.03-6.02.03-.33.14-1.04.48-1.19.71-.33.87.91.91,1.35.18,1.9-.12,3.97.03,5.86.04.56.4.91.99.83.13-.02.3-.1.39-.19Z"/>
      <path d="M.99,0h5.22c.61.11.95.56,1,1.17.03.34.04,1.47-.05,1.75-.14.42-.65.71-1.03.89-.47.21-.85.19-.98.78-.11,3.37-.02,6.75-.05,10.13-.07,1.76-2.58,2.01-2.92.24-.12-3.44.04-6.91-.08-10.35-.1-.64-.81-.69-1.28-.95-.3-.17-.63-.43-.74-.77C-.02,2.61,0,1.52.02,1.18.07.58.39.13.99,0ZM1.12.57c-.25.04-.42.18-.48.43-.07.26-.09,1.44-.02,1.69.15.52,1.15.67,1.56.99.52.4.53,1.11.55,1.71.12,3.06-.11,6.15-.03,9.2.04,1.3,1.64,1.31,1.79.22.1-3.15-.13-6.38,0-9.51.02-.58.06-1.24.55-1.62.36-.28,1.55-.53,1.58-1.03-.09-.5.05-1.14-.03-1.63-.04-.25-.27-.43-.51-.46H1.12Z"/>
      <path d="M6.6,4.42c.97-.13,1.66.39,1.77,1.36v9.07c-.21,1.78-2.77,1.76-2.93-.03V5.71c.07-.62.51-1.21,1.16-1.3ZM6.69,4.98c-.42.07-.63.43-.68.83v8.92c.08,1.19,1.75,1.15,1.8-.03V5.9c-.05-.65-.44-1.03-1.11-.92Z"/>
      <path d="M28.19,3.53c.82-.11.97,1.06,1.07,1.65.3,1.79.31,4.43,0,6.21-.11.63-.29,1.75-1.18,1.52-.42-.11-.57-.77-.66-1.14-.4-1.72-.37-4.28-.16-6.03.07-.59.22-2.12.93-2.22ZM28.25,4.13c-.06.02-.2.53-.22.63-.42,1.71-.45,5.4.03,7.1.05.16.17.73.36.41.3-.5.43-2.2.45-2.83.05-1.41.05-3.46-.33-4.81-.03-.12-.12-.55-.29-.49Z"/>
      <path d="M21.35,8.74c-.19.19-.55.24-.78.09-.64-.42-.35-2.05.43-1.85.65.16.74,1.36.34,1.76ZM20.9,7.56c-.13,0-.13.59-.08.71.06.15.15.08.17-.04.02-.1.03-.66-.1-.66Z"/>
    </g>
  </g>
</svg>