<svg width="143" height="34" viewBox="0 0 143 34" fill="none" xmlns="http://www.w3.org/2000/svg">
<path d="M16.9607 16.1588L16.2363 21.2937H30.2146L29.5921 25.3953H9.88949L11.7146 13.8333C11.7259 13.7622 11.7514 13.6028 11.8023 13.2925L11.907 12.6549C12.4163 9.77438 13.7066 8.56467 16.7004 8.56183H36.9321C39.2835 8.56183 41.1878 6.64337 41.1878 4.27802C41.1878 1.91268 39.2835 -0.00292969 36.9321 -0.00292969C36.9123 -0.00292969 36.8925 -0.00292969 36.8726 -0.00292969C36.8642 -0.00292969 36.8528 -0.00292969 36.8472 -0.00292969H10.13C7.4447 -0.00292969 5.20365 1.89276 4.77638 4.53135L0 33.9999H31.7822C34.4958 33.9999 36.8528 32.053 37.2462 29.366L39.9852 12.6663H20.9929C18.9442 12.6663 17.2493 14.1379 16.9635 16.1588" fill="#F1CC00"/>
<path d="M57.7267 5.68708H59.4981V9.69478C58.4058 10.5174 56.7703 11.0838 55.3017 11.0838C52.1354 11.0838 49.6963 8.72132 49.6963 5.65577C49.6963 2.59022 52.1779 0.259033 55.4206 0.259033C56.9514 0.259033 58.5134 0.853927 59.5745 1.78185L58.4228 3.2762C57.6192 2.53044 56.4987 2.07218 55.4206 2.07218C53.3748 2.07218 51.7676 3.64338 51.7676 5.65577C51.7676 7.66816 53.3889 9.25359 55.4347 9.25359C56.1619 9.25359 56.9967 8.99457 57.7239 8.58185V5.68423L57.7267 5.68708Z" fill="white"/>
<path d="M66.51 7.5001V10.9898H64.4812V7.57695L60.5254 0.321533H62.5853L65.48 5.33685L68.3295 0.321533H70.3753L66.51 7.5001Z" fill="white"/>
<path d="M74.0252 0.321533L77.3585 7.16423L80.6748 0.321533H83.0092V10.9926H81.1615L81.1474 3.37001L78.0093 9.89391H76.6907L73.5555 3.37001V10.9926H71.6738V0.321533H74.0252Z" fill="white"/>
<path d="M87.5506 0.321533L93.0231 7.6225V0.321533H94.9925V10.9926H93.0683L87.6129 3.70588V10.9926H85.6265V0.321533H87.5506Z" fill="white"/>
<path d="M104.506 8.73543H99.322L98.3826 10.9926H96.2773L100.929 0.321533H103.034L107.627 10.9898H105.445L104.506 8.73258V8.73543ZM103.779 6.98206L101.931 2.50186L100.052 6.98206H103.779Z" fill="white"/>
<path d="M115.306 0.321533V2.13468H112.001V10.9926H109.958V2.13468H106.653V0.321533H115.306Z" fill="white"/>
<path d="M118.776 0.321533H116.744V10.9926H118.776V0.321533Z" fill="white"/>
<path d="M131.851 5.65577C131.851 8.71847 129.395 11.0838 126.2 11.0838C123.006 11.0838 120.547 8.72132 120.547 5.65577C120.547 2.59022 123 0.259033 126.198 0.259033C129.395 0.259033 131.848 2.59022 131.848 5.65577M122.621 5.65577C122.621 7.66816 124.273 9.25359 126.229 9.25359C128.184 9.25359 129.774 7.66816 129.774 5.65577C129.774 3.64338 128.17 2.08926 126.229 2.08926C124.288 2.08926 122.621 3.64338 122.621 5.65577Z" fill="white"/>
<path d="M135.558 0.321533L141.03 7.6225V0.321533H143V10.9926H141.076L135.62 3.70588V10.9926H133.634V0.321533H135.558Z" fill="white"/>
<path d="M54.7218 20.2889C55.0614 20.2889 55.3245 20.1835 55.5113 19.9701C55.698 19.7566 55.7914 19.4748 55.7914 19.1218C55.7914 18.7689 55.698 18.4843 55.5113 18.2736C55.3245 18.0601 55.0614 17.9548 54.7218 17.9548C54.3823 17.9548 54.1163 18.0573 53.9239 18.2651C53.7315 18.4729 53.6353 18.7575 53.6353 19.1218C53.6353 19.4862 53.7315 19.7879 53.9239 19.99C54.1163 20.1892 54.3823 20.2917 54.7218 20.2917V20.2889Z" fill="white"/>
<path d="M71.1592 17.4595C71.1592 17.8238 71.2554 18.1085 71.4506 18.3163C71.643 18.524 71.909 18.6265 72.2486 18.6265C72.5881 18.6265 72.8513 18.5212 73.038 18.3077C73.2248 18.0942 73.321 17.8124 73.321 17.4595C73.321 17.1065 73.2276 16.8077 73.038 16.6027C72.8513 16.395 72.5881 16.2925 72.2486 16.2925C71.909 16.2925 71.643 16.3921 71.4506 16.5942C71.2554 16.7934 71.1592 17.0838 71.1592 17.4623V17.4595Z" fill="white"/>
<path d="M70.6866 15.9994C70.9525 15.9994 71.1789 15.9112 71.3657 15.7347C71.5524 15.5582 71.6458 15.2992 71.6458 14.9605C71.6458 14.6218 71.5524 14.3627 71.3657 14.1834C71.1789 14.0069 70.9497 13.9187 70.6866 13.9187C70.4093 13.9187 70.1744 14.0012 69.9876 14.1663C69.8009 14.3314 69.7075 14.5961 69.7075 14.9605C69.7075 15.3248 69.8009 15.5895 69.9876 15.7546C70.1744 15.9197 70.4093 16.0023 70.6866 16.0023V15.9994Z" fill="white"/>
<path d="M69.1275 18.6294C69.467 18.6294 69.7302 18.5241 69.9169 18.3106C70.1037 18.0972 70.1971 17.8154 70.1971 17.4624C70.1971 17.1095 70.1037 16.8106 69.9169 16.6057C69.7274 16.3979 69.4642 16.2954 69.1275 16.2954C68.8134 16.2954 68.5531 16.3893 68.3465 16.5772C68.14 16.7679 68.0381 17.0611 68.0381 17.4624C68.0381 17.8638 68.14 18.1427 68.3465 18.3363C68.5531 18.5327 68.8106 18.6294 69.1275 18.6294Z" fill="white"/>
<path d="M90.3721 30.8376C90.058 30.8376 89.7977 30.9315 89.5911 31.1194C89.3846 31.3072 89.2827 31.6032 89.2827 32.0046C89.2827 32.4059 89.3846 32.6849 89.5911 32.8813C89.7977 33.0748 90.058 33.1716 90.3721 33.1716C90.6862 33.1716 90.9578 33.0691 91.1531 32.8613C91.3455 32.6536 91.4417 32.3689 91.4417 32.0046C91.4417 31.6402 91.3455 31.3385 91.1531 31.1364C90.9607 30.9372 90.7004 30.8347 90.3721 30.8347V30.8376Z" fill="white"/>
<path d="M93.4933 30.8376C93.1538 30.8376 92.8878 30.9373 92.6954 31.1394C92.5029 31.3415 92.4067 31.6289 92.4067 32.0075C92.4067 32.3861 92.5029 32.6593 92.6954 32.8643C92.8878 33.0721 93.1538 33.1745 93.4933 33.1745C93.8329 33.1745 94.096 33.0692 94.2828 32.8557C94.4695 32.6423 94.5629 32.3605 94.5629 32.0075C94.5629 31.6546 94.4695 31.3728 94.2828 31.1593C94.096 30.9458 93.8329 30.8405 93.4933 30.8405V30.8376Z" fill="white"/>
<path d="M100.431 18.6294C100.771 18.6294 101.037 18.5241 101.229 18.3106C101.422 18.0972 101.518 17.8154 101.518 17.4624C101.518 17.1095 101.425 16.8106 101.238 16.6057C101.051 16.3979 100.782 16.2954 100.431 16.2954C100.081 16.2954 99.8287 16.395 99.642 16.5971C99.4552 16.7964 99.3618 17.0867 99.3618 17.4653C99.3618 17.8438 99.458 18.1142 99.6504 18.322C99.8429 18.5298 100.103 18.6323 100.431 18.6323V18.6294Z" fill="white"/>
<path d="M126.636 30.8376C126.322 30.8376 126.062 30.9315 125.855 31.1194C125.649 31.3072 125.547 31.6032 125.547 32.0046C125.547 32.4059 125.649 32.6849 125.855 32.8813C126.062 33.0777 126.322 33.1716 126.636 33.1716C126.95 33.1716 127.222 33.0691 127.417 32.8613C127.612 32.6536 127.706 32.3689 127.706 32.0046C127.706 31.6402 127.61 31.3385 127.417 31.1364C127.225 30.9372 126.965 30.8347 126.636 30.8347V30.8376Z" fill="white"/>
<path d="M129.757 30.8376C129.418 30.8376 129.152 30.9373 128.96 31.1394C128.767 31.3415 128.671 31.6289 128.671 32.0075C128.671 32.3861 128.767 32.6593 128.96 32.8643C129.152 33.0692 129.418 33.1745 129.757 33.1745C130.097 33.1745 130.36 33.0692 130.547 32.8557C130.734 32.6423 130.827 32.3605 130.827 32.0075C130.827 31.6546 130.734 31.3728 130.547 31.1593C130.36 30.9458 130.097 30.8405 129.757 30.8405V30.8376Z" fill="white"/>
<path d="M137.72 30.8376C137.38 30.8376 137.114 30.9373 136.922 31.1394C136.727 31.3415 136.63 31.6289 136.63 32.0075C136.63 32.3861 136.727 32.6593 136.922 32.8643C137.114 33.0721 137.38 33.1745 137.72 33.1745C138.059 33.1745 138.322 33.0692 138.509 32.8557C138.696 32.6423 138.792 32.3605 138.792 32.0075C138.792 31.6546 138.699 31.3557 138.509 31.1507C138.32 30.9458 138.059 30.8405 137.72 30.8405V30.8376Z" fill="white"/>
<path d="M142.474 26.8128C142.315 26.4911 142.171 26.0898 142.038 25.6088C141.905 25.1277 141.783 24.5471 141.676 23.8668C141.517 22.8933 141.277 22.1447 140.949 21.6238C140.62 21.1001 140.179 20.7101 139.624 20.454C139.384 20.343 139.109 20.2633 138.809 20.2063C138.507 20.1522 138.176 20.1238 137.811 20.1238C137.168 20.1238 136.565 20.1892 135.997 20.323C135.428 20.4568 134.885 20.6817 134.364 20.9976L135.054 22.5119C135.513 22.2699 135.951 22.0878 136.37 21.9739C136.789 21.8572 137.202 21.8003 137.612 21.8003C138.06 21.8003 138.43 21.8828 138.719 22.0479C139.007 22.213 139.245 22.4891 139.426 22.8791C139.607 23.269 139.752 23.7842 139.862 24.4304C140.02 25.2444 140.19 25.9076 140.371 26.42C140.552 26.9323 140.759 27.3023 140.988 27.5329H129.214V20.3059H127.236V27.5329H115.035C114.54 27.5329 114.138 27.4617 113.83 27.3223C113.521 27.1828 113.247 26.9437 113.003 26.6021C113.125 26.2862 113.216 25.9589 113.275 25.6173C113.334 25.2757 113.366 24.9171 113.366 24.5414C113.366 23.7387 113.199 23.0214 112.868 22.3867C112.534 21.7548 112.067 21.268 111.461 20.9265C111.158 20.7671 110.836 20.6447 110.491 20.5536C110.145 20.4625 109.78 20.417 109.393 20.417C108.813 20.417 108.218 20.5194 107.616 20.7272C107.01 20.935 106.467 21.2196 105.983 21.584C105.74 22.0109 105.556 22.4891 105.428 23.0185C105.301 23.548 105.239 24.0802 105.239 24.6154C105.239 25.0651 105.287 25.5347 105.383 26.0215C105.479 26.5082 105.629 27.012 105.836 27.5358H101.481V20.3088H99.5033V27.5358H92.9471V20.3088H90.9692V27.5358H76.8721V20.3088H74.9479V27.5358H73.8217C73.3011 27.5358 72.871 27.439 72.5343 27.2426C72.1947 27.049 71.875 26.7075 71.5722 26.2207C71.5835 26.1097 71.592 26.0016 71.6005 25.8934C71.6061 25.7824 71.609 25.6685 71.609 25.5461V21.732H69.6848V25.418C69.6848 26.0869 69.5264 26.6078 69.2123 26.9779C68.8982 27.3507 68.4511 27.5358 67.8682 27.5358H66.0375V21.732H64.1133V27.5358H59.7048V20.3088H57.7637V28.9959C57.7637 29.6421 57.6618 30.18 57.4553 30.6098C57.2487 31.0425 56.929 31.367 56.4932 31.5862C56.0574 31.8053 55.5 31.9135 54.8237 31.9135H54.0597C53.3099 31.9135 52.727 31.6488 52.3082 31.1193C51.8923 30.5899 51.6829 29.8442 51.6829 28.8821C51.6829 28.1534 51.7338 27.4504 51.8385 26.7758C51.9404 26.1012 52.096 25.4835 52.2997 24.9228H50.4859C50.2313 25.5177 50.036 26.161 49.8974 26.8469C49.7587 27.5329 49.688 28.236 49.688 28.9561C49.688 29.8328 49.8351 30.607 50.1322 31.2816C50.4293 31.9562 50.8538 32.4941 51.4112 32.8955C51.7253 33.1147 52.079 33.2854 52.4723 33.4078C52.8656 33.5302 53.2986 33.59 53.7683 33.59H54.8945C56.4791 33.59 57.6618 33.2228 58.44 32.4856C59.2209 31.7484 59.6341 30.6582 59.6822 29.2094H68.1738C68.802 29.2094 69.3481 29.0899 69.815 28.8536C70.2791 28.6174 70.6582 28.2986 70.9497 27.8972C71.4081 28.3697 71.8721 28.7085 72.3362 28.9106C72.8002 29.1098 73.3011 29.2123 73.833 29.2123H89.7156H88.2386H108.949C109.529 29.2123 110.089 29.1126 110.626 28.9106C111.164 28.7085 111.639 28.4096 112.05 28.0054C112.474 28.4551 112.916 28.7682 113.374 28.9447C113.81 29.1126 114.33 29.1923 114.927 29.2009C114.933 29.2009 114.927 29.2094 114.936 29.2094H142.745H133.538H142.989V27.55C142.796 27.3792 142.621 27.1316 142.462 26.8099L142.474 26.8128ZM111.062 26.1382C110.856 26.5822 110.567 26.9266 110.194 27.1686C109.817 27.4105 109.37 27.5329 108.849 27.5329H107.76C107.531 26.9722 107.372 26.4541 107.288 25.9731C107.203 25.4921 107.16 25.0167 107.16 24.5414C107.16 24.2112 107.177 23.9038 107.205 23.6106C107.234 23.3203 107.299 23.0328 107.395 22.7538C107.684 22.5603 108.001 22.4009 108.34 22.2785C108.68 22.1561 109.022 22.0963 109.373 22.0963C109.942 22.0963 110.417 22.3212 110.796 22.7709C111.178 23.2206 111.368 23.8098 111.368 24.5414C111.368 25.1619 111.266 25.6941 111.059 26.1382H111.062Z" fill="white"/>
</svg>
