<svg width="8" height="12" viewBox="0 0 8 12" fill="none" xmlns="http://www.w3.org/2000/svg">
<path d="M3.63281 9.3C3.71016 9.41953 3.84609 9.49922 4.00078 9.49922C4.15547 9.49922 4.29141 9.41953 4.37109 9.3L6.95391 5.31094C7.30078 4.77422 7.50234 4.18359 7.50234 3.49922C7.5 1.52109 5.94609 0 4.00078 0C2.05547 0 0.501562 1.52109 0.501562 3.49922C0.501562 4.18359 0.703125 4.77422 1.05 5.31094L3.63281 9.3ZM4.00078 1.5C5.10469 1.5 6 2.39531 6 3.49922C6 4.60313 5.10469 5.49844 4.00078 5.49844C2.89687 5.49844 2.00156 4.60313 2.00156 3.49922C2.00156 2.39531 2.89687 1.5 4.00078 1.5ZM6.56484 7.58203L4.00078 10.9992L1.43672 7.58203C0.560156 8.04141 0 8.72812 0 9.49922C0 10.8797 1.79062 12 4.00078 12C6.21094 12 8.00156 10.8797 8.00156 9.49922C8.00156 8.72812 7.44141 8.04141 6.56484 7.58203Z" fill="#EAEAEA"/>
</svg>
