<svg xmlns="http://www.w3.org/2000/svg" viewBox="0 0 29 29" width="32" height="32">
	<style>
		tspan { white-space:pre }
		.shp0 { fill: #022a3a } 
	</style>
	<path id="Layer" fill-rule="evenodd" class="shp0" d="M27 14.5C27 21.4 21.4 27 14.5 27C7.6 27 2 21.4 2 14.5C2 7.6 7.6 2 14.5 2C21.4 2 27 7.6 27 14.5ZM21.71 15.21C21.89 15.02 22 14.77 22 14.5C22 14.23 21.89 13.98 21.71 13.79C21.52 13.61 21.27 13.5 21 13.5L15.5 13.5L15.5 8C15.5 7.73 15.39 7.48 15.21 7.29C15.02 7.11 14.77 7 14.5 7C14.23 7 13.98 7.11 13.79 7.29C13.61 7.48 13.5 7.73 13.5 8L13.5 13.5L8 13.5C7.73 13.5 7.48 13.61 7.29 13.79C7.11 13.98 7 14.23 7 14.5C7 14.77 7.11 15.02 7.29 15.21C7.48 15.39 7.73 15.5 8 15.5L13.5 15.5L13.5 21C13.5 21.27 13.61 21.52 13.79 21.71C13.98 21.89 14.23 22 14.5 22C14.77 22 15.02 21.89 15.21 21.71C15.39 21.52 15.5 21.27 15.5 21L15.5 15.5L21 15.5C21.27 15.5 21.52 15.39 21.71 15.21Z" />
</svg>