<svg width="8" height="11" viewBox="0 0 8 11" fill="none" xmlns="http://www.w3.org/2000/svg">
<path d="M3.192 6.906C3.192 6.542 3.25267 6.22467 3.374 5.954C3.49533 5.68333 3.64467 5.44067 3.822 5.226C4.00867 5.01133 4.20933 4.81533 4.424 4.638C4.63867 4.45133 4.83933 4.26933 5.026 4.092C5.21267 3.90533 5.362 3.70933 5.474 3.504C5.59533 3.29867 5.656 3.06067 5.656 2.79C5.656 2.342 5.47867 1.978 5.124 1.698C4.76933 1.418 4.27933 1.278 3.654 1.278C3.094 1.278 2.60867 1.37133 2.198 1.558C1.78733 1.74467 1.43733 2.02 1.148 2.384L0.126 1.656C0.518 1.16133 1.01733 0.778666 1.624 0.508C2.23067 0.228 2.94 0.0879999 3.752 0.0879999C4.424 0.0879999 5.00733 0.190666 5.502 0.395999C5.99667 0.592 6.37933 0.876666 6.65 1.25C6.93 1.614 7.07 2.05733 7.07 2.58C7.07 2.972 7.00933 3.308 6.888 3.588C6.76667 3.868 6.61267 4.11533 6.426 4.33C6.23933 4.54467 6.03867 4.74533 5.824 4.932C5.61867 5.11867 5.42267 5.30533 5.236 5.492C5.04933 5.67867 4.89533 5.884 4.774 6.108C4.65267 6.332 4.592 6.598 4.592 6.906H3.192ZM3.906 10.084C3.64467 10.084 3.42533 9.99533 3.248 9.818C3.08 9.64067 2.996 9.43067 2.996 9.188C2.996 8.92667 3.08 8.712 3.248 8.544C3.42533 8.376 3.64467 8.292 3.906 8.292C4.16733 8.292 4.382 8.376 4.55 8.544C4.718 8.712 4.802 8.92667 4.802 9.188C4.802 9.43067 4.718 9.64067 4.55 9.818C4.382 9.99533 4.16733 10.084 3.906 10.084Z" fill="#022A3A"/>
</svg>
