<?xml version="1.0" encoding="UTF-8"?>
<svg id="Layer_2" data-name="Layer 2" xmlns="http://www.w3.org/2000/svg" viewBox="0 0 40.11 33.99">
  <defs>
    <style>
      .cls-1 {
        fill: #dbdfe2;
      }

      .cls-2 {
        fill: #23282f;
      }

      .cls-3 {
        fill: #282c33;
      }

      .cls-4 {
        fill: #292e34;
      }

      .cls-5 {
        fill: #4aa16a;
      }

      .cls-6 {
        fill: #4aa16b;
      }

      .cls-7 {
        fill: #fff;
      }

      .cls-8 {
        fill: #21262d;
      }

      .cls-9 {
        fill: #272c33;
      }

      .cls-10 {
        fill: #262b32;
      }

      .cls-11 {
        fill: #242930;
      }

      .cls-12 {
        fill: #49a06a;
      }

      .cls-13 {
        fill: #252a31;
      }

      .cls-14 {
        fill: #2a2f36;
      }

      .cls-15 {
        fill: #49a16a;
      }
    </style>
  </defs>
  <g id="Layer_1-2" data-name="Layer 1">
    <g>
      <rect class="cls-7" x="0" width="40.11" height="6.77"/>
      <rect class="cls-7" x="0" y="27.22" width="40.11" height="6.77"/>
      <g>
        <path class="cls-5" d="M8.92,13.41c.51-.03.97.09,1.38.4.51.39.71,1.14.46,1.74-.11.26-.28.48-.51.65.13.12.28.22.4.35.34.36.48.8.44,1.29-.06.79-.62,1.34-1.33,1.54-.66.18-1.3.13-1.89-.22-.49-.29-.76-.73-.81-1.3-.06-.7.22-1.24.8-1.63.01-.01.03-.02.05-.04-.22-.17-.4-.37-.51-.64-.17-.43-.16-.87.06-1.27.31-.56.82-.81,1.45-.87M8.04,17.88c.04.19.13.36.28.49.42.35,1.06.35,1.49.01.3-.24.41-.75.22-1.09-.19-.35-.49-.53-.88-.55-.35-.02-.65.08-.9.35-.21.23-.26.49-.21.8M8.58,15.64c.2.11.41.13.63.11.56-.05.89-.62.62-1.11-.17-.3-.59-.47-.96-.38-.21.05-.39.15-.51.33-.21.31-.17.79.23,1.05Z"/>
        <path class="cls-15" d="M3.78,18.7v.67h-.95v-1.23H.13v-.3c0-.17,0-.33,0-.5,0-.11.03-.19.09-.28.64-.9,1.27-1.81,1.91-2.72.19-.27.38-.54.57-.81.02-.03.06-.05.1-.05.33,0,.65,0,.99,0v3.8h.59v.84h-.58v.57M2.83,17v-2.12h-.02c-.57.8-1.13,1.6-1.7,2.41h1.72c0-.09,0-.18,0-.29Z"/>
        <path class="cls-6" d="M29.18,15.91c-.09.06-.18.11-.26.18-.31.23-.62.47-.93.71-.06.05-.07.09-.05.16.15.47.29.93.43,1.4,0,.03.02.06.03.12-.05-.03-.09-.04-.12-.06-.38-.29-.77-.58-1.15-.88-.05-.04-.07-.04-.12,0-.38.3-.77.59-1.16.88-.03.02-.06.03-.12.06.12-.39.23-.75.34-1.11.04-.13.08-.27.13-.4.03-.09,0-.13-.06-.18-.36-.27-.72-.55-1.08-.83-.03-.02-.05-.06-.09-.12h.15c.44,0,.88,0,1.32,0,.07,0,.11-.02.13-.09.14-.45.28-.9.42-1.35,0-.03.04-.05.07-.08.02.03.06.05.07.08.14.45.28.9.42,1.35.02.07.05.09.13.09.45,0,.9,0,1.36,0,.04,0,.08,0,.13.02,0,.02.01.04.01.05Z"/>
        <path class="cls-6" d="M22.71,14.77c.04-.13.08-.26.12-.38.01-.03.04-.05.07-.08.02.03.06.05.07.08.13.42.26.83.39,1.25.06.2.06.2.27.2h1.36s.01.02.02.02c-.03.03-.05.07-.08.09-.37.28-.73.56-1.1.84-.06.05-.08.08-.05.16.15.47.29.94.44,1.41,0,.03.01.05,0,.1-.45-.3-.87-.64-1.31-.96-.44.32-.85.67-1.3.98,0,0-.02-.02-.02-.03.1-.33.2-.65.3-.98.05-.17.1-.35.16-.52.03-.08,0-.12-.06-.16-.36-.28-.73-.55-1.09-.83-.03-.02-.05-.07-.09-.12h.32c.39,0,.78,0,1.17,0,.06,0,.09-.02.11-.08.1-.33.2-.65.3-.98Z"/>
        <path class="cls-6" d="M17.83,16.81c-.38-.29-.75-.57-1.11-.85-.03-.02-.04-.06-.08-.11.07,0,.11,0,.15,0,.45,0,.89,0,1.34,0,.06,0,.09-.02.11-.08.14-.45.28-.9.42-1.36.01-.03.05-.06.07-.09.02.03.05.05.06.08.14.44.28.88.41,1.32.03.09.06.12.16.12.44,0,.88,0,1.33,0h.12s.01.02.02.03c-.03.03-.05.07-.08.09-.36.28-.71.55-1.08.82-.09.06-.1.12-.07.22.15.48.3.97.46,1.48-.05-.02-.09-.03-.11-.05-.39-.3-.79-.6-1.18-.9-.01,0-.02-.02-.04-.03-.43.33-.86.66-1.29.98,0,0-.02-.02-.03-.03.04-.14.08-.27.13-.41.11-.37.22-.74.34-1.11.02-.06,0-.1-.05-.13Z"/>
        <path class="cls-6" d="M15.6,16.7q-.21.16-.13.41c.13.43.26.85.4,1.28,0,.02.01.04,0,.07-.24-.13-.44-.31-.66-.47-.22-.16-.43-.33-.65-.49-.44.32-.86.67-1.3.98,0,0-.02-.02-.02-.03.1-.33.2-.65.3-.98.05-.17.1-.35.16-.52.03-.08,0-.12-.06-.16-.36-.28-.73-.55-1.09-.83-.03-.02-.05-.06-.09-.12h.15c.44,0,.88,0,1.32,0,.07,0,.11-.01.13-.09.14-.45.28-.9.42-1.35,0-.03.04-.05.07-.08.02.03.06.05.07.08.14.45.28.89.41,1.34.02.08.06.11.14.11.44,0,.89,0,1.34,0h.12l.02.02s-.05.07-.08.09c-.32.25-.65.5-.98.75Z"/>
        <path class="cls-5" d="M29.18,15.92s0-.04,0-.06c.04-.01.07-.02.11-.02.44,0,.88,0,1.32,0,.08,0,.12-.02.14-.1.13-.45.28-.9.42-1.34.01-.03.04-.06.06-.08.02.03.06.05.07.09.14.45.28.9.42,1.35.02.07.05.09.12.09.21,0,.42,0,.64,0,.02.06.02.11.03.17,0,.1,0,.19,0,.29,0,.07,0,.14,0,.21-.11.09-.23.19-.35.28-.08.05-.09.1-.06.19.13.41.26.83.38,1.25.02.07.02.15.04.26-.44-.34-.86-.66-1.28-.98-.44.32-.86.67-1.3.98,0,0-.02-.02-.03-.03.08-.27.16-.53.25-.8.07-.24.14-.48.22-.71.02-.06,0-.09-.04-.13-.39-.29-.77-.59-1.16-.89Z"/>
        <path class="cls-13" d="M18.69,23.15s.06,0,.08-.01c.14-.15.31-.19.5-.12.17.06.27.2.27.4,0,.23,0,.47,0,.71h-.26c0-.13,0-.26,0-.39,0-.09,0-.17,0-.26,0-.16-.08-.24-.21-.25-.13,0-.26.09-.27.23-.01.15,0,.3-.01.44,0,.08,0,.15,0,.23h-.25c0-.17,0-.35,0-.52,0-.05,0-.11,0-.16-.02-.15-.1-.22-.23-.22-.13,0-.25.1-.26.23-.01.18,0,.36,0,.54,0,.04,0,.08,0,.13h-.25v-1.12h.23s0,.06,0,.1c.23-.17.45-.2.67.04Z"/>
        <path class="cls-13" d="M15.73,23.5v-.49h.24s.01.06.02.1c.27-.19.49-.17.69.08.04-.04.07-.08.11-.11.14-.11.3-.12.46-.05.15.07.23.19.24.36,0,.22,0,.45,0,.67,0,.02,0,.04,0,.07h-.25c0-.15,0-.31,0-.46,0-.07,0-.14,0-.21-.02-.16-.09-.24-.23-.24-.13,0-.25.11-.26.25,0,.19,0,.38,0,.57,0,.02,0,.05,0,.08h-.26c0-.17,0-.34,0-.51,0-.05,0-.09,0-.14-.01-.17-.09-.26-.23-.26-.14,0-.26.11-.26.27,0,.21,0,.42,0,.64h-.26v-.62Z"/>
        <path class="cls-12" d="M6.17,19.01c0,.13,0,.24,0,.36h-1.04v-1.01h1.04v.64Z"/>
        <path class="cls-13" d="M1.85,24.15c-.11-.02-.22-.02-.31-.06-.31-.15-.35-.54-.09-.76.02-.01.03-.03.05-.05-.11-.09-.18-.21-.15-.34.02-.1.07-.21.14-.28.18-.18.53-.15.7.03.16.17.14.4-.04.59.05.07.12.12.16.2.14.27,0,.57-.31.66-.04.01-.09.01-.14.02M2.09,23.7c0-.12-.05-.21-.16-.25-.12-.05-.23-.03-.32.06-.08.08-.09.17-.05.27.04.1.15.16.27.16.14,0,.22-.07.27-.23M1.68,23.13c.16.07.32.02.35-.11.02-.1-.02-.19-.11-.23-.1-.05-.23-.02-.29.06-.06.08-.05.17.05.28Z"/>
        <path class="cls-10" d="M4.65,23.52c-.05-.17-.1-.34-.16-.51h.26c.07.23.14.46.21.69,0,0,.01,0,.02,0,.07-.23.14-.46.21-.69h.22c.07.23.14.46.21.69,0,0,.02,0,.02,0,.07-.23.14-.46.21-.69h.26c-.12.38-.23.75-.35,1.12h-.25c-.07-.22-.14-.44-.21-.66,0,0-.01,0-.02,0-.07.22-.14.44-.21.66q-.24.02-.31-.2c-.04-.13-.08-.26-.13-.4Z"/>
        <path class="cls-10" d="M.12,23.41c-.19-.26-.14-.6.1-.78.23-.17.57-.11.73.14.06.09.08.2.09.3.01.19,0,.38,0,.56,0,.2-.07.37-.26.46-.21.09-.42.08-.61-.06-.1-.07-.16-.18-.15-.32h.22c.08.17.21.24.38.18.14-.04.19-.15.17-.38-.25.11-.47.1-.67-.11M.43,22.8s-.06.03-.08.05c-.11.08-.14.24-.08.36.06.12.18.17.32.15.12-.03.21-.13.21-.27,0-.21-.16-.34-.37-.29Z"/>
        <path class="cls-11" d="M23.37,24.1c-.08.02-.16.03-.25.04,0-.05,0-.09-.01-.13-.02,0-.03.01-.04.02-.28.22-.62.12-.72-.22-.06-.19-.06-.37.02-.55.13-.3.45-.37.76-.14v-.56h.26c0,.51,0,1.01,0,1.53M23.09,23.46s-.02-.06-.03-.08c-.05-.1-.13-.16-.25-.16-.12,0-.19.07-.23.18-.06.14-.04.29.05.41.1.15.32.15.4-.01.05-.09.05-.21.06-.34Z"/>
        <path class="cls-10" d="M9.42,23.88c-.07-.19-.09-.37-.03-.56.12-.36.49-.45.78-.19v-.57h.26v1.55h-.25s0-.07,0-.12c-.14.12-.29.19-.47.13-.13-.04-.21-.13-.28-.25M10.09,23.8c.07-.1.07-.22.05-.33-.02-.14-.13-.24-.25-.24-.13,0-.24.07-.27.22-.02.09-.01.2.02.29.08.22.28.25.45.07Z"/>
        <path class="cls-11" d="M33.02,23.44c.03-.19.11-.33.28-.41.18-.09.36-.05.53.11v-.57h.26v1.56h-.25s0-.07,0-.1c-.09.04-.19.1-.29.12-.26.05-.49-.17-.51-.46,0-.08,0-.16,0-.25M33.27,23.5c-.01.24.1.41.26.42.16,0,.28-.13.28-.34,0-.07-.01-.15-.04-.21-.08-.17-.29-.21-.41-.07-.04.05-.06.12-.09.2Z"/>
        <path class="cls-10" d="M27.61,23.76c0,.07,0,.12.06.17.04.03.02.13.03.2-.15.06-.23.03-.32-.1-.16.12-.33.17-.53.11-.15-.04-.23-.15-.24-.29,0-.14.06-.24.2-.3.11-.04.23-.07.34-.11.04-.01.08-.02.11-.04.03-.02.07-.06.07-.09,0-.03-.05-.07-.09-.08-.14-.03-.27-.02-.37.12-.07-.02-.15-.05-.23-.08.08-.19.23-.26.41-.28.09-.01.2,0,.29.02.17.04.26.16.27.35,0,.13,0,.26,0,.4M27.23,23.89c.15-.08.15-.09.12-.3-.13.04-.26.08-.39.13-.04.02-.09.09-.08.12.01.04.08.09.12.09.07,0,.14-.02.22-.04Z"/>
        <path class="cls-9" d="M31.16,24.14c-.31.05-.55-.08-.65-.33-.11-.26-.02-.57.2-.74.21-.15.55-.11.72.09.11.14.15.3.14.48h-.83c0,.13.06.21.17.26.14.06.27.02.42-.14.06.03.13.06.2.09-.08.15-.2.24-.36.28M31.22,23.29c-.1-.1-.22-.11-.34-.06-.08.04-.14.1-.14.2h.55s-.04-.09-.07-.14Z"/>
        <path class="cls-9" d="M12.96,23.3c.03.11.05.22.08.34h-.85c0,.13.06.21.17.26.14.06.28.02.42-.14.06.03.13.06.19.09-.1.22-.35.34-.59.29-.26-.05-.45-.28-.46-.54,0-.3.15-.54.41-.6.27-.07.51.04.64.31M12.53,23.43h.2c-.03-.16-.13-.24-.28-.23-.14,0-.24.09-.26.23h.33Z"/>
        <path class="cls-10" d="M20.03,23.76c.15.23.35.23.58.01.06.03.12.06.18.08-.09.23-.38.36-.65.28-.29-.09-.46-.4-.38-.72.06-.29.33-.47.62-.42.31.05.49.3.47.66h-.83s.02.07.02.11M20.3,23.2c-.19.02-.26.08-.28.23h.53c0-.14-.07-.19-.25-.23Z"/>
        <path class="cls-13" d="M25.44,22.98c.34.04.55.28.54.6,0,.31-.23.56-.52.57-.35.02-.62-.21-.63-.55-.01-.37.23-.61.61-.62M25.72,23.63c-.01-.08-.01-.17-.04-.24-.04-.11-.14-.16-.26-.17-.12,0-.22.04-.28.15-.08.14-.08.28,0,.41.07.11.18.16.31.14.15-.02.23-.13.26-.28Z"/>
        <path class="cls-13" d="M15.5,23.45c.05.45-.27.78-.68.69-.29-.06-.48-.32-.45-.63.02-.28.24-.51.52-.53.31-.02.55.16.61.47M14.9,23.22c-.19.04-.29.17-.28.38,0,.17.12.3.27.32.19.02.34-.11.36-.3.02-.24-.11-.39-.35-.4Z"/>
        <path class="cls-13" d="M7.12,23.1c.27.22.3.6.08.87-.19.23-.56.26-.81.06-.23-.19-.27-.57-.08-.82.18-.24.54-.29.8-.1M6.46,23.5s0,.09,0,.13c.02.16.14.27.28.29.16.01.28-.07.33-.23.06-.19-.03-.39-.2-.45-.18-.06-.33.04-.41.27Z"/>
        <path class="cls-10" d="M32.81,24.02v.11h-.26c0-.12,0-.24,0-.36,0-.1,0-.21,0-.31,0-.14-.1-.23-.23-.23-.13,0-.26.1-.27.23,0,.22,0,.44,0,.67h-.26v-1.11h.24s0,.07.01.12c.11-.1.22-.16.36-.15.22,0,.4.17.41.4,0,.21,0,.42,0,.64Z"/>
        <path class="cls-11" d="M21.05,23.22v-.21h.25s0,.07.02.12c.15-.13.3-.18.49-.12.16.06.27.18.28.35.01.25,0,.51,0,.76h-.25c0-.14,0-.27,0-.41,0-.09,0-.17,0-.26-.02-.15-.11-.23-.25-.23-.14,0-.25.11-.26.26,0,.2,0,.39,0,.59,0,.02,0,.04,0,.06h-.26v-.91Z"/>
        <path class="cls-13" d="M8.59,23.94v.19h-.25s-.01-.07-.02-.11c-.16.14-.33.18-.52.1-.14-.06-.22-.17-.23-.32-.01-.26,0-.52,0-.79h.24c0,.11,0,.22,0,.34,0,.1,0,.2,0,.3.01.18.1.27.25.26.15,0,.26-.12.26-.29,0-.17,0-.33,0-.5,0-.04,0-.07,0-.12h.26v.92Z"/>
        <path class="cls-13" d="M14.11,23.74s.08.02.12.03c-.07.27-.29.41-.59.38-.27-.02-.47-.23-.49-.53-.02-.31.15-.56.42-.63.28-.06.54.06.65.32-.08.02-.15.05-.23.07-.11-.15-.25-.2-.38-.15-.13.05-.2.19-.19.36.01.17.1.27.25.3.12.02.23-.01.29-.12.04-.07.08-.08.16-.05Z"/>
        <path class="cls-4" d="M28.83,23s.09,0,.14,0v.24h-.21v.89h-.26v-.88c-.06,0-.12,0-.18,0v-.23c.06,0,.11,0,.18-.01,0-.07,0-.14,0-.21.02-.2.28-.33.45-.24.02.01.03.05.03.07,0,.05,0,.09,0,.14-.19,0-.24.04-.22.18,0,.02.04.04.07.06Z"/>
        <path class="cls-10" d="M24.48,22.73c0,.1,0,.18,0,.27h.21v.24h-.2c0,.2,0,.4,0,.59,0,.1.09.08.16.08v.2c-.23.1-.41-.01-.42-.26,0-.2,0-.4,0-.61h-.18v-.24c.06,0,.11,0,.18,0v-.35c.07,0,.13,0,.19,0,.02,0,.04.04.06.07Z"/>
        <path class="cls-10" d="M3.72,22.56h.1s-.04.08-.06.11c-.26.44-.52.87-.77,1.32-.06.11-.13.16-.25.14-.03,0-.05,0-.1,0,.03-.04.04-.07.06-.1.26-.44.53-.89.78-1.33.06-.1.11-.15.24-.13Z"/>
        <path class="cls-8" d="M9.13,22.76v1.36h-.26v-1.55h.26v.19Z"/>
        <path class="cls-3" d="M29.57,23.02c.07,0,.13-.02.2-.03v.24s-.09.01-.13.02c-.17.03-.23.1-.23.27,0,.16,0,.33,0,.49,0,.04,0,.07,0,.11h-.25v-1.12h.25s0,.06.01.1c.05-.03.1-.06.15-.08Z"/>
        <path class="cls-2" d="M11.51,23.08c.1-.04.2-.07.31-.11v.26s-.08.01-.12.02c-.17.03-.24.1-.24.28,0,.19,0,.39,0,.59h-.24v-1.12h.23q.02.09.07.08Z"/>
        <path class="cls-8" d="M30.24,23.07c0,.36,0,.7,0,1.05h-.26v-1.12c.07,0,.14,0,.2,0,.02,0,.04.04.05.07Z"/>
        <path class="cls-3" d="M3.03,23.12c-.13.09-.26.1-.39.02-.11-.07-.16-.18-.14-.32.01-.14.09-.23.22-.28.14-.05.3,0,.38.12.1.14.07.31-.06.46M2.83,22.7s-.05,0-.07.01c-.08.04-.11.12-.07.2.03.07.12.11.19.08.08-.04.11-.11.08-.19-.02-.04-.07-.07-.12-.1Z"/>
        <path class="cls-9" d="M3.96,23.83c-.02.21-.14.33-.32.34-.16,0-.31-.11-.34-.26-.03-.17.05-.33.21-.39.22-.08.42.06.44.31M3.78,23.82c-.01-.08-.06-.14-.14-.14-.05,0-.11.04-.14.08-.05.07,0,.18.07.21.1.04.17-.01.21-.15Z"/>
        <path class="cls-1" d="M32.52,16.01c0-.05-.01-.1-.02-.16.25,0,.49-.01.74,0,.03,0,.05.01.08.02-.01.02-.01.06-.03.07-.25.19-.51.39-.77.58,0-.06,0-.13,0-.21.12-.1.23-.18.34-.27,0,0,0-.02-.01-.02h-.33Z"/>
        <path class="cls-14" d="M30.25,22.62c0,.07,0,.12,0,.19h-.27v-.25c.08,0,.16,0,.24,0,.01,0,.02.03.04.06Z"/>
        <g>
          <path class="cls-5" d="M31.41,6.77c.4.06.82.46.9.85.04.21.04.89,0,1.1-.06.28-.27.5-.53.6l.33.25c.06.08.18.4.18.48v1.77h-1.01v-1.77c0-.05-.24-.29-.29-.29h-.68v2.06h-.97v-5.1s.05.04.06.04c.58,0,1.49-.08,2.03,0ZM31.02,7.63c-.19-.03-.46.02-.66,0l-.06.06v1.23h.84s.19-.2.21-.26c.04-.17.03-.77-.08-.9-.02-.03-.21-.12-.24-.13Z"/>
          <path class="cls-5" d="M18.49,11.84v-4.93s-.06-.08-.04-.14h1.81c.51,0,1.07.54,1.21,1.01.16.57.17,2.5-.02,3.06-.17.51-.72.99-1.27.99h-1.7ZM19.46,10.94h.57c.26,0,.48-.42.52-.65.05-.4.06-1.57,0-1.97-.08-.59-.56-.74-1.09-.68v3.31Z"/>
          <path class="cls-5" d="M23.43,6.67c.99-.07,1.68.45,1.76,1.45.05.61.07,2.36-.12,2.88-.45,1.28-2.57,1.25-2.99-.05-.16-.48-.13-2.26-.09-2.83.07-.85.58-1.38,1.44-1.45ZM23.51,7.52c-.29.04-.46.33-.49.6-.06.52-.06,1.8,0,2.33.08.82,1.07.82,1.16.04.06-.51.06-1.85,0-2.37-.04-.35-.3-.65-.67-.6Z"/>
          <path class="cls-5" d="M27.1,6.67c1.05-.07,1.68.49,1.76,1.53.05.65.07,2.36-.16,2.91-.47,1.08-2.31,1.1-2.84.09-.29-.55-.26-2.04-.23-2.7.05-1.01.34-1.76,1.48-1.84ZM27.21,7.52c-.29.02-.46.22-.53.49-.1.4-.1,2.22,0,2.62.16.63,1.04.59,1.14-.15.07-.51.06-1.73.01-2.25-.03-.38-.19-.74-.64-.71Z"/>
          <path class="cls-5" d="M5,8.41h-.97c.18-.88-.95-1.29-1.16-.36-.09.42-.1,2.14,0,2.54.13.46.7.67,1,.29.03-.04.16-.32.16-.35v-.76h-.58v-.82s.08-.04.1-.04h1.36s.11.02.14.06v1.56c0,1.67-2.69,1.92-3.13.36-.13-.47-.12-2.35-.06-2.89.12-1.16,1.22-1.57,2.25-1.24.4.13.91.65.91,1.08v.56Z"/>
          <path class="cls-5" d="M18.06,8.45h-1.01v-.6s-.2-.26-.26-.28c-.37-.17-.75.1-.7.51.06.53,1.07.93,1.45,1.28.49.45.67,1.14.45,1.77-.42,1.25-2.89,1.02-2.89-.39v-.64h.97v.56c0,.09.17.32.26.37.51.26.95-.27.67-.75-.36-.61-1.41-.71-1.78-1.61-.55-1.33.48-2.23,1.8-1.95.91.19,1.07.91,1.04,1.74Z"/>
          <path class="cls-5" d="M14.75,8.45h-.97v-.56s-.1-.17-.12-.19c-.43-.52-1.26.14-.66.77.76.81,2.12.88,1.74,2.52-.22.96-1.45,1.14-2.24.78-.3-.14-.67-.59-.67-.92v-.76h.97v.6c0,.08.18.29.26.33.57.3,1.03-.41.5-.93-.58-.57-1.61-.76-1.73-1.78-.15-1.26.73-1.86,1.92-1.6.44.1,1,.53,1,1.02v.72Z"/>
          <path class="cls-5" d="M8.24,11.84l1.27-5.07h.99s1.21,5.07,1.21,5.07h-1.01l-.16-.86-1.17.02-.15.83h-.97ZM9.56,10.16h.78l-.37-1.83-.41,1.83Z"/>
          <path class="cls-5" d="M6.48,6.77v4.17h1.48v.9h-2.49v-5.04l.06-.05s.03.03.04.03h.92Z"/>
          <path class="cls-5" d="M34.08,7.98h-1.36v-1.21h.78c0-.39-.28-.5-.62-.55v-.46c.38.04.83.12,1.07.47.04.06.14.28.14.33v1.42Z"/>
          <path class="cls-5" d="M1.45,6.77v1.46s-.11.25-.14.29c-.22.32-.69.44-1.07.43v-.47c.31.03.66-.16.62-.51H.13v-1.21h1.33Z"/>
        </g>
      </g>
    </g>
  </g>
</svg>