<svg width="26" height="26" viewBox="0 0 26 26" fill="none" xmlns="http://www.w3.org/2000/svg">
<path d="M1.0425 25.0644L2.72625 18.9175C1.6875 17.1187 1.14125 15.0775 1.14188 12.9869C1.145 6.44625 6.4675 1.125 13.0088 1.125C16.1831 1.12625 19.1619 2.36188 21.4025 4.60375C23.6425 6.84625 24.8763 9.82625 24.875 12.9963C24.8725 19.5369 19.5488 24.8587 13.0088 24.8587H13.0038C11.0181 24.8581 9.06625 24.36 7.33313 23.4144L1.0425 25.0644Z" fill="white"/>
<path d="M1.0425 25.3769C0.960001 25.3769 0.880001 25.3444 0.820626 25.2844C0.742501 25.205 0.711876 25.0894 0.741251 24.9825L2.39063 18.96C1.36813 17.1438 0.828751 15.0813 0.830001 12.9875C0.832501 6.27375 6.29563 0.8125 13.0088 0.8125C16.265 0.81375 19.3244 2.08188 21.6237 4.38313C23.9231 6.685 25.1887 9.74375 25.1875 12.9963C25.185 19.7094 19.7213 25.1712 13.0088 25.1712C11.0156 25.1706 9.04375 24.6787 7.29375 23.7481L1.12188 25.3663C1.09563 25.3738 1.06938 25.3769 1.0425 25.3769Z" fill="white"/>
<path d="M13.0087 1.125C16.1831 1.12625 19.1619 2.36188 21.4025 4.60375C23.6425 6.84625 24.8762 9.82625 24.875 12.9963C24.8725 19.5369 19.5487 24.8587 13.0087 24.8587H13.0038C11.0181 24.8581 9.06625 24.36 7.33312 23.4144L1.0425 25.0644L2.72625 18.9175C1.6875 17.1187 1.14125 15.0775 1.14188 12.9869C1.145 6.44625 6.4675 1.125 13.0087 1.125ZM13.0087 0.5C6.12375 0.5 0.520001 6.10125 0.516876 12.9869C0.516251 15.0913 1.0475 17.165 2.055 19.0006L0.439376 24.9C0.380626 25.1156 0.440626 25.3456 0.598126 25.5044C0.716876 25.6244 0.877501 25.69 1.0425 25.69C1.09563 25.69 1.14875 25.6831 1.20125 25.6694L7.25562 24.0819C9.02312 24.9994 11.0044 25.4837 13.0038 25.4844C19.8937 25.4844 25.4975 19.8825 25.5006 12.9969C25.5019 9.66 24.2037 6.5225 21.8456 4.1625C19.4862 1.80188 16.3481 0.50125 13.0087 0.5Z" fill="#CFD8DC"/>
<path d="M19.985 6.02C18.1225 4.15625 15.6469 3.12938 13.0119 3.12875C7.57187 3.12875 3.1475 7.55125 3.145 12.9875C3.14438 14.8506 3.66563 16.6644 4.65313 18.235L4.88813 18.6081L3.89125 22.2462L7.62438 21.2675L7.985 21.4812C9.49875 22.38 11.235 22.855 13.005 22.8556H13.0088C18.445 22.8556 22.8694 18.4325 22.8712 12.9956C22.8719 10.3613 21.8475 7.88375 19.985 6.02Z" fill="#40C351"/>
<path fill-rule="evenodd" clip-rule="evenodd" d="M10.0425 8.02813C9.82063 7.53438 9.58688 7.52438 9.375 7.51563C9.20188 7.50813 9.00438 7.50875 8.80688 7.50875C8.60938 7.50875 8.28813 7.58313 8.01625 7.88C7.74438 8.17688 6.97813 8.89375 6.97813 10.3525C6.97813 11.8113 8.04063 13.2213 8.18875 13.4188C8.33688 13.6163 10.24 16.7056 13.2538 17.8944C15.7581 18.8819 16.2681 18.6856 16.8119 18.6363C17.3556 18.5869 18.5662 17.9194 18.8131 17.2269C19.06 16.5344 19.06 15.9412 18.9863 15.8175C18.9119 15.6937 18.7144 15.62 18.4181 15.4713C18.1219 15.3225 16.6638 14.6056 16.3919 14.5069C16.12 14.4081 15.9225 14.3588 15.7244 14.6556C15.5269 14.9519 14.9588 15.62 14.7856 15.8175C14.6125 16.0156 14.4394 16.0406 14.1431 15.8919C13.8469 15.7431 12.8919 15.4306 11.7588 14.4206C10.8775 13.635 10.2825 12.6644 10.1094 12.3675C9.93625 12.0713 10.0906 11.9106 10.2394 11.7625C10.3725 11.6294 10.5356 11.4163 10.6844 11.2431C10.8325 11.07 10.8819 10.9463 10.9806 10.7488C11.0794 10.5506 11.03 10.3775 10.9556 10.2294C10.8825 10.0806 10.3063 8.61438 10.0425 8.02813Z" fill="white"/>
</svg>
