<svg width="90" height="90" viewBox="0 0 90 90" fill="none" xmlns="http://www.w3.org/2000/svg">
<path d="M43.0808 7.49219C23.4509 7.49219 7.49219 23.4509 7.49219 43.0808C7.49219 62.7107 23.4509 78.6693 43.0808 78.6693C62.7107 78.6693 78.6693 62.7107 78.6693 43.0808C78.6693 23.4509 62.7107 7.49219 43.0808 7.49219ZM43.0808 51.5096H31.8423C30.3063 51.5096 29.0326 50.2359 29.0326 48.7C29.0326 47.1641 30.3063 45.8904 31.8423 45.8904H43.0808C44.6167 45.8904 45.8904 47.1641 45.8904 48.7C45.8904 50.2359 44.6167 51.5096 43.0808 51.5096ZM54.3193 40.2711H31.8423C30.3063 40.2711 29.0326 38.9974 29.0326 37.4615C29.0326 35.9256 30.3063 34.6519 31.8423 34.6519H54.3193C55.8552 34.6519 57.1289 35.9256 57.1289 37.4615C57.1289 38.9974 55.8552 40.2711 54.3193 40.2711Z" fill="#022A3A"/>
<path d="M79.7965 82.41C79.1221 82.41 78.4478 82.1478 77.9608 81.6608L70.993 74.6929C69.9815 73.6814 69.9815 72.0331 70.993 70.9842C72.0044 69.9727 73.6528 69.9727 74.7017 70.9842L81.6695 77.952C82.681 78.9635 82.681 80.6118 81.6695 81.6608C81.1451 82.1478 80.4708 82.41 79.7965 82.41Z" fill="#022A3A"/>
</svg>
