<?xml version="1.0" encoding="UTF-8"?>
<svg id="Layer_2" data-name="Layer 2" xmlns="http://www.w3.org/2000/svg" viewBox="0 0 39.66 13.28">
  <g id="Layer_1-2" data-name="Layer 1">
    <g>
      <path d="M0,7.21c.59-2.09,3.09-1.99,4.87-2.08.06-.45-.39-.55-.74-.59-.93-.1-1.85.14-2.7.48l-.18-.08-.61-1.88c2.28-1.15,7-1.6,7.68,1.65l.12.87v3.95c-.07.1-.09.11-.2.11-1.06,0-2.14-.13-3.21-.05l-.21-.5c-1.25,1.15-3.83.97-4.57-.69l-.25-.79v-.4ZM4.95,7.49l-.08-.93-1.2.22c-.42,1.03.57,1.11,1.28.71Z"/>
      <path d="M12.81,0l-.1,3.16c1.34-1.53,4.08-1.24,4.62.88.03.11.14.69.14.75v4.79h-3.67v-4.1c0-.47-.99-.47-.99,0v4.1h-3.67V0h3.67Z"/>
      <path d="M39.62,9.59h-3.57v-3.9c0-.74-1.09-.64-1.09-.1v4h-3.43s-.11.18-.25-.05V2.52l.15-.15h3.43v.79c.92-1.18,3.31-1.31,4.21-.09.14.19.55,1.14.55,1.33v5.19Z"/>
      <path d="M30.58,9.59h-3.48l-.05-.49c-1.36,1.18-4.16.97-4.69-.97-.77-2.82,2.82-2.98,4.74-2.99.08-.47-.58-.57-.94-.6-.97-.08-1.83.24-2.73.5l-.59-2.07c.5-.1.96-.35,1.46-.47,1.78-.44,4.81-.59,5.83,1.25.11.2.44.97.44,1.14v4.69ZM27.11,6.52c-.52.22-1.26-.12-1.38.64.08.39.23.54.64.55.93.04.75-.47.75-1.2Z"/>
      <rect x="18.17" width="3.57" height="9.59"/>
      <path d="M34.46,10.08h.4s0,1.28,0,1.28c2.42-1.46,2.37,3.03,0,1.58-.03.25-.14.34-.4.3v-3.16ZM35.52,11.3c-.88.05-.99,1.7.08,1.66s.9-1.71-.08-1.66Z"/>
      <path d="M31.48,10.08v3.16h-.3s0-.3,0-.3c-.24,0-.33.22-.57.28-2.07.48-1.54-3.33.57-1.86v-1.29s.3,0,.3,0ZM30.35,11.3c-.88.05-.99,1.7.08,1.66s.87-1.71-.08-1.66Z"/>
      <path d="M38.73,13.24c-.19.07-.4-.25-.45-.16-.04.07-.87.46-1.23-.1-.55-.86.61-1.16,1.28-1.03.04-.74-.58-.77-1.13-.5l-.16-.29c.38-.05.85-.19,1.22-.08.13.04.47.43.47.52v1.63ZM38.33,12.16c-.32.04-1.05.02-1.06.44.28.72,1.29.36,1.06-.44Z"/>
      <path d="M32.47,11.07v1.63c0,.25.23.25.35.25.99,0,.71-1.27.74-1.88h.3v2.17h-.3s0-.3,0-.3c-.3.24-.62.4-1.02.28-.13-.04-.47-.11-.47-.52v-1.63h.4Z"/>
      <rect x="39.32" y="11.07" width=".3" height="2.17"/>
      <circle cx="39.47" cy="10.56" r=".19"/>
    </g>
  </g>
</svg>