<?xml version="1.0" encoding="UTF-8"?>
<svg id="Layer_2" data-name="Layer 2" xmlns="http://www.w3.org/2000/svg" viewBox="0 0 40.65 7.2">
  <g id="Layer_1-2" data-name="Layer 1">
    <path d="M27.19,0h-1.32v2.47c-.19-1.85-.88-2.47-1.88-2.47-.75,0-1.32.38-1.66,1.35-.25-.97-.97-1.35-2.16-1.35h-1.32v2.47h-.03c-.19-1.85-.88-2.47-1.88-2.47s-1.66.63-1.88,2.47h-.03V0h-1.69l-.63,3.7h-.03l-.53-3.7h-1.75v1.41c-.16-.85-.66-1.41-1.6-1.41-1.03,0-1.6.72-1.69,1.63-.28-1.22-.91-1.63-1.72-1.63-.91,0-1.57.53-1.82,2.07-.06-1.1-.38-2.07-1.69-2.07C.85,0,0,.94,0,3.6c0,2.29.47,3.6,1.88,3.6,1.25,0,1.6-1,1.69-2,.25,1.5.91,2,1.82,2s1.5-.5,1.79-1.91c.06.91.41,1.91,1.69,1.91.72,0,1.25-.31,1.53-.85v.81h.97V1.91h.03l.88,5.26h.72l.88-5.26h.03v5.26h1.16v-2.47h.03c.19,1.85.88,2.47,1.88,2.47s1.66-.63,1.88-2.47h.03v2.47h1.32v-2.88h.53c.66,0,1.1-.25,1.38-.66,0,2.69.75,3.54,1.91,3.54.97,0,1.66-.63,1.88-2.47v2.47h2.98v-1.1h-1.66V0h-.03ZM2.51,4.45c-.03,1-.13,1.63-.56,1.63-.41,0-.53-.25-.53-2.54s.28-2.47.56-2.47c.31,0,.47.44.47,1.57l1.1-.03c-.03.31-.03.63-.03,1,0,.34,0,.66.03.94l-1.03-.09ZM5.89,4.32c0,1.5-.19,1.79-.47,1.79-.31,0-.47-.31-.47-1.79v-1.47c0-1.5.19-1.79.47-1.79.31,0,.47.31.47,1.79v1.47ZM8.93,6.11c-.56,0-.56-.69-.56-1.07h-1.13c.06-.41.09-.91.09-1.47,0-.28,0-.56-.03-.81.56,1.28,2.19,1.66,2.19,2.69,0,.25-.13.66-.56.66ZM8.3,1.69c0-.38.19-.63.5-.63.53,0,.53.66.53,1.03h1.1v2.1c-.63-1.13-2.13-1.57-2.13-2.51ZM17.45,4.32c0,1.5-.19,1.82-.47,1.82-.31,0-.47-.31-.47-1.82v-1.47c0-1.5.19-1.82.47-1.82.31,0,.47.31.47,1.82v1.47ZM20.3,3.26h-.13V1.1h.09c.44,0,.85.03.85,1.06,0,.88-.28,1.1-.81,1.1ZM24.46,4.32c0,1.5-.19,1.82-.47,1.82-.31,0-.47-.31-.47-1.82v-1.47c0-1.5.19-1.82.47-1.82.31,0,.47.31.47,1.82v1.47ZM29.06,0h1.32v7.17h-1.32V0ZM34.14,0h-3.57v1.1h1.13v6.08h1.32V1.1h1.13V0ZM39.56,0v3.79h-.03l-1.19-3.79h-1.28v6.26l-.78-6.26h-1.91l-1,7.17h1.1l.19-1.6h1.06l.19,1.6h2.29V2.82h.03l1.41,4.35h1.03V0h-1.1ZM34.8,4.54l.41-3.45h.03l.38,3.45h-.81Z"/>
  </g>
</svg>