<?xml version="1.0" encoding="UTF-8"?>
<svg id="Layer_2" data-name="Layer 2" xmlns="http://www.w3.org/2000/svg" viewBox="0 0 484.49 126.33">
  <defs>
    <style>
      .cls-1 {
        fill: #fff;
      }

      .cls-2 {
        fill: #f1cc00;
      }
    </style>
  </defs>
  <g id="Layer_1-2" data-name="Layer 1">
    <g>
      <g>
        <path class="cls-2" d="M53.11,33l-1.49,10.48h28.71l-1.28,8.38h-40.48l3.75-23.61c.02-.14.08-.47.18-1.1l.21-1.3c1.05-5.88,3.7-8.35,9.84-8.36h41.56c4.83,0,8.74-3.92,8.74-8.75s-3.91-8.74-8.74-8.74c-.04,0-.08,0-.12,0-.02,0-.04,0-.05,0h-54.87c-5.52,0-10.12,3.87-11,9.26l-9.81,60.17h65.28c5.58,0,10.41-3.98,11.22-9.46l5.62-34.1h-39.01c-4.21,0-7.69,3-8.28,7.13"/>
        <g>
          <path class="cls-1" d="M10.43,90.31h2.3v5.17c-1.42,1.06-3.54,1.79-5.45,1.79-4.11,0-7.28-3.05-7.28-7s3.23-6.96,7.44-6.96c1.99,0,4.01.77,5.39,1.97l-1.5,1.93c-1.04-.96-2.5-1.55-3.9-1.55-2.66,0-4.74,2.03-4.74,4.62s2.11,4.64,4.76,4.64c.94,0,2.03-.34,2.97-.87v-3.74Z"/>
          <polygon class="cls-1" points="21.83 92.66 21.83 97.16 19.2 97.16 19.2 92.75 14.06 83.39 16.74 83.39 20.5 89.86 24.19 83.39 26.85 83.39 21.83 92.66"/>
          <polygon class="cls-1" points="31.59 83.39 35.92 92.22 40.22 83.39 43.26 83.39 43.26 97.16 40.85 97.16 40.84 87.32 36.76 95.74 35.05 95.74 30.98 87.32 30.98 97.16 28.54 97.16 28.54 83.39 31.59 83.39"/>
          <polygon class="cls-1" points="49.15 83.39 56.25 92.81 56.25 83.39 58.81 83.39 58.81 97.16 56.31 97.16 49.23 87.76 49.23 97.16 46.65 97.16 46.65 83.39 49.15 83.39"/>
          <path class="cls-1" d="M71.16,94.25h-6.73l-1.22,2.91h-2.74l6.04-13.77h2.74l5.96,13.77h-2.83l-1.22-2.91ZM70.22,91.99l-2.4-5.78-2.44,5.78h4.84Z"/>
          <polygon class="cls-1" points="85.19 83.39 85.19 85.73 80.9 85.73 80.9 97.16 78.24 97.16 78.24 85.73 73.95 85.73 73.95 83.39 85.19 83.39"/>
          <rect class="cls-1" x="87.05" y="83.39" width="2.64" height="13.77"/>
          <path class="cls-1" d="M106.67,90.28c0,3.95-3.19,7-7.34,7s-7.34-3.05-7.34-7,3.19-6.96,7.34-6.96,7.34,3.01,7.34,6.96M94.68,90.28c0,2.6,2.14,4.64,4.68,4.64s4.6-2.05,4.6-4.64-2.08-4.6-4.6-4.6-4.68,2.01-4.68,4.6"/>
          <polygon class="cls-1" points="111.48 83.39 118.58 92.81 118.58 83.39 121.14 83.39 121.14 97.16 118.64 97.16 111.56 87.76 111.56 97.16 108.98 97.16 108.98 83.39 111.48 83.39"/>
        </g>
        <g>
          <path class="cls-1" d="M6.53,109.16c.44,0,.78-.14,1.02-.41.24-.27.36-.64.36-1.09s-.12-.82-.36-1.1-.59-.41-1.02-.41-.79.13-1.04.4c-.25.27-.38.64-.38,1.11s.13.86.38,1.12c.25.26.6.39,1.04.39Z"/>
          <path class="cls-1" d="M27.87,105.51c0,.47.13.84.38,1.11.25.27.6.4,1.04.4s.78-.14,1.02-.41c.24-.27.37-.64.37-1.09s-.12-.84-.37-1.11-.59-.4-1.02-.4-.79.13-1.04.39c-.25.26-.38.63-.38,1.12Z"/>
          <path class="cls-1" d="M27.26,103.63c.34,0,.64-.11.88-.34s.36-.56.36-1-.12-.77-.36-1c-.24-.23-.54-.34-.88-.34-.36,0-.66.11-.91.32-.24.21-.36.55-.36,1.03s.12.81.36,1.02.55.32.91.32Z"/>
          <path class="cls-1" d="M25.23,107.02c.44,0,.78-.14,1.03-.41.24-.27.36-.64.36-1.09s-.12-.84-.36-1.11c-.24-.27-.59-.4-1.03-.4-.41,0-.75.12-1.01.36-.27.24-.4.62-.4,1.14s.13.88.4,1.13c.27.25.6.38,1.01.38Z"/>
          <path class="cls-1" d="M52.81,122.78c-.41,0-.75.12-1.01.36s-.4.62-.4,1.14.13.88.4,1.13c.27.25.61.38,1.01.38s.76-.13,1.01-.4.38-.64.38-1.11-.13-.86-.38-1.12c-.25-.26-.59-.39-1.01-.39Z"/>
          <path class="cls-1" d="M56.86,122.78c-.44,0-.79.13-1.04.39-.25.26-.38.63-.38,1.12s.13.84.38,1.11.6.4,1.04.4.78-.14,1.02-.41c.24-.28.36-.64.36-1.1s-.12-.82-.36-1.1c-.24-.27-.59-.41-1.02-.41Z"/>
          <path class="cls-1" d="M65.87,107.02c.44,0,.79-.14,1.04-.41.25-.27.38-.64.38-1.09s-.12-.84-.36-1.11-.59-.4-1.05-.4-.78.13-1.03.39c-.24.26-.36.63-.36,1.12s.13.84.38,1.11c.25.27.59.4,1.01.4Z"/>
          <path class="cls-1" d="M99.9,122.78c-.41,0-.75.12-1.01.36s-.4.62-.4,1.14.13.88.4,1.13.61.38,1.01.38.76-.13,1.01-.4.38-.64.38-1.11-.13-.86-.38-1.12c-.25-.26-.59-.39-1.01-.39Z"/>
          <path class="cls-1" d="M103.95,122.78c-.44,0-.79.13-1.04.39-.25.26-.38.63-.38,1.12s.13.84.38,1.11.6.4,1.04.4.78-.14,1.02-.41c.24-.28.36-.64.36-1.1s-.12-.82-.36-1.1c-.24-.27-.59-.41-1.02-.41Z"/>
          <path class="cls-1" d="M114.29,122.78c-.44,0-.79.13-1.04.39-.25.26-.38.63-.38,1.12s.13.84.38,1.11c.25.27.6.4,1.04.4s.78-.14,1.02-.41c.24-.28.37-.64.37-1.1s-.12-.84-.37-1.11-.59-.4-1.02-.4Z"/>
          <path class="cls-1" d="M120.46,117.58c-.2-.42-.39-.93-.56-1.56-.17-.62-.33-1.37-.47-2.25-.2-1.26-.52-2.22-.94-2.9-.42-.68-1-1.18-1.72-1.51-.31-.14-.67-.25-1.06-.32-.39-.07-.82-.11-1.3-.11-.83,0-1.62.09-2.36.26-.74.17-1.44.46-2.12.87l.9,1.96c.6-.31,1.17-.55,1.71-.7.54-.15,1.08-.22,1.61-.22.58,0,1.06.11,1.44.32s.68.57.92,1.07c.24.5.42,1.17.56,2,.2,1.05.42,1.91.66,2.57.24.66.5,1.14.8,1.44h-15.28v-9.33h-2.57v9.33h-15.84c-.64,0-1.17-.09-1.57-.27-.4-.18-.76-.49-1.07-.93.16-.41.27-.83.35-1.27.08-.44.12-.9.12-1.39,0-1.04-.22-1.96-.65-2.78-.43-.82-1.04-1.44-1.83-1.88-.39-.2-.81-.36-1.26-.48-.45-.12-.92-.18-1.43-.18-.75,0-1.52.13-2.31.4s-1.49.64-2.12,1.11c-.31.55-.55,1.17-.72,1.85s-.25,1.37-.25,2.06c0,.58.06,1.19.19,1.81.13.63.32,1.28.59,1.96h-5.65v-9.33h-2.57v9.33h-8.51v-9.33h-2.57v9.33h-18.3v-9.33h-2.5v9.33h-1.46c-.68,0-1.23-.13-1.67-.38-.44-.25-.86-.69-1.25-1.32.01-.14.03-.28.04-.42,0-.14.01-.29.01-.45v-4.92h-2.5v4.76c0,.86-.2,1.53-.61,2.01-.41.48-.99.72-1.74.72h-2.38v-7.49h-2.5v7.49h-5.72v-9.33h-2.52v11.21c0,.83-.13,1.53-.4,2.08-.27.56-.68.98-1.25,1.26-.57.28-1.29.42-2.17.42h-.99c-.97,0-1.73-.34-2.27-1.02-.54-.68-.81-1.65-.81-2.89,0-.94.07-1.85.2-2.72.13-.87.33-1.67.6-2.39H1.04c-.33.77-.59,1.6-.77,2.48-.18.89-.27,1.79-.27,2.72,0,1.13.19,2.13.58,3,.39.87.94,1.57,1.66,2.08.41.28.87.5,1.38.66.51.16,1.07.24,1.68.24h1.46c2.06,0,3.59-.48,4.6-1.43,1.01-.95,1.55-2.36,1.61-4.23h11.03c.82,0,1.53-.15,2.13-.46.6-.31,1.1-.72,1.47-1.24.6.61,1.2,1.05,1.8,1.31.6.26,1.25.39,1.94.39h20.62-1.92,26.89c.75,0,1.48-.13,2.18-.39.7-.26,1.31-.65,1.85-1.17.55.58,1.12.99,1.72,1.21.56.22,1.24.32,2.02.33,0,0,0,0,0,0h36.11-11.95,12.27v-2.14c-.25-.22-.48-.54-.68-.95ZM79.67,116.71c-.27.57-.64,1.02-1.13,1.33-.49.31-1.07.47-1.74.47h-1.41c-.3-.72-.5-1.39-.61-2.01-.11-.62-.16-1.24-.16-1.85,0-.42.02-.82.06-1.2.04-.38.12-.75.25-1.11.38-.25.79-.46,1.23-.61.44-.16.89-.24,1.34-.24.74,0,1.35.29,1.85.87s.74,1.34.74,2.28c0,.8-.13,1.49-.4,2.06Z"/>
        </g>
      </g>
      <rect class="cls-1" x="153.91" width="2.35" height="126.33"/>
      <g>
        <path class="cls-1" d="M257.75,89.59s-.08-.07-.23-.22c.36-.27.63-.5.93-.69,1.66-1.11,2.66-2.69,3.18-4.57.78-2.82.79-5.68.25-8.53-.68-3.61-2.78-6.07-6.23-7.41-2.72-1.05-5.54-1.46-8.43-1.46-12.87-.01-25.74,0-38.61,0-.67,0-1.33,0-2,.02-1.44.06-1.7.33-1.77,1.72,0,.2-.01.41-.01.62,0,13.76,0,27.51.02,41.27,0,2.61.07,2.65,2.69,2.65,14.25,0,28.51.02,42.76-.02,1.73,0,3.48-.21,5.18-.52,4.4-.8,7.08-3.53,7.98-7.87.45-2.19.38-4.39.22-6.59-.3-3.97-2.04-6.94-5.91-8.39ZM219.49,79.56c.04-.88.36-1.08,1.5-1.09,2.2-.02,4.41-.01,6.61-.01,1.64,0,3.28,0,4.92,0,3.59,0,7.18,0,10.76,0,.46,0,.93,0,1.38.07,2,.35,2.9,1.6,2.66,3.61-.14,1.2-.77,2.01-1.94,2.31-.69.17-1.41.28-2.12.28-7.23.02-14.45.01-21.68,0-.31,0-.61,0-.92-.02-.74-.03-1.15-.44-1.17-1.16-.04-1.33-.07-2.67,0-4ZM248.42,99.35c-.09.46-.63,1.02-1.09,1.18-1,.35-2.07.64-3.11.66-3.79.07-7.59.03-11.38.03h0c-3.84,0-7.69,0-11.53,0-1.57,0-1.8-.2-1.84-1.74-.03-1.13.09-2.25.11-3.38.01-.86.47-1.19,1.26-1.19.36,0,.72-.01,1.08-.01,7.02,0,14.05-.02,21.07.01,1.07,0,2.17.1,3.2.36,2.46.62,2.65,2.04,2.25,4.1Z"/>
        <path class="cls-1" d="M240.65,57.2c1.73,0,3.48-.21,5.18-.52,4.4-.8,7.08-3.53,7.98-7.87.45-2.19.38-4.39.22-6.59-.3-3.97-2.04-6.94-5.91-8.39-.04-.02-.07-.07-.23-.22.36-.27.63-.5.93-.69,1.66-1.11,2.66-2.69,3.18-4.57.78-2.82.79-5.68.25-8.53-.68-3.61-2.78-6.07-6.23-7.41-2.72-1.05-5.54-1.46-8.43-1.46-12.87-.01-25.74,0-38.61,0-.67,0-1.33,0-2,.02-1.44.06-1.7.33-1.77,1.72,0,.2-.01.41-.01.62,0,13.76,0,27.51.02,41.27,0,2.61.07,2.65,2.69,2.65,14.25,0,28.51.02,42.76-.02ZM209.86,23.81c.04-.88.36-1.08,1.5-1.09,2.2-.02,4.41-.01,6.61-.01,1.64,0,3.28,0,4.92,0,3.59,0,7.18,0,10.76,0,.46,0,.93,0,1.38.07,2,.35,2.9,1.6,2.66,3.61-.14,1.2-.77,2.01-1.94,2.31-.69.17-1.41.28-2.12.28-7.23.02-14.45.01-21.68,0-.31,0-.61,0-.92-.02-.74-.03-1.15-.44-1.17-1.16-.04-1.33-.07-2.67,0-4ZM209.83,43.71c-.03-1.13.09-2.25.11-3.38.01-.86.47-1.19,1.26-1.19.36,0,.72-.01,1.08-.01,7.02,0,14.05-.02,21.07.01,1.07,0,2.17.1,3.2.36,2.46.62,2.65,2.04,2.25,4.1-.09.46-.63,1.02-1.09,1.18-1,.35-2.07.64-3.11.66-3.79.08-7.59.03-11.38.03h0c-3.84,0-7.69,0-11.53,0-1.57,0-1.8-.2-1.84-1.74Z"/>
        <path class="cls-1" d="M292.42,57.82h0c4.05,0,8.1.06,12.15-.02,3.74-.08,7.49-.33,11-1.81,3.3-1.39,5.81-3.6,7.04-7.07.93-2.64,1.32-5.36,1.3-8.15-.02-3.8.07-7.6-.01-11.39-.05-2.45-.12-4.93-.53-7.34-.95-5.47-4.23-8.94-9.59-10.48-2.78-.8-5.65-1.12-8.5-1.13-9.58-.04-19.16.08-28.74.21-2.36.03-4.69.49-6.91,1.33-3.81,1.44-6.52,3.92-7.8,7.91-.69,2.17-1.05,4.39-1.08,6.64-.06,4.72-.11,9.44-.03,14.16.03,2.04.21,4.11.65,6.1,1.01,4.57,3.69,7.77,8.18,9.41,3.28,1.2,6.68,1.54,10.11,1.62,4.25.1,8.51.02,12.76.02ZM276.15,40.23c-.44-3.68-.5-7.37-.08-11.06.47-4.18,2.7-5.93,6.44-6.09,5.73-.25,11.47-.22,17.21-.2,1.52,0,3.06.28,4.55.62,2.41.56,3.82,2.26,4.17,4.61.62,4.18.56,8.4-.02,12.58-.3,2.14-1.61,3.66-3.83,4.11-1.15.24-2.33.4-3.49.43-2.97.06-5.95.02-8.92.02-2.92,0-5.85.06-8.77-.03-1.26-.04-2.53-.3-3.77-.6-2.26-.55-3.23-2.27-3.48-4.39Z"/>
        <path class="cls-1" d="M467.82,67.6c-3.79-.08-7.59-.09-11.38-.07-1.11,0-1.46.41-1.55,1.49-.05.56-.03,1.13-.03,1.69-.03,8.88-.06,17.76-.1,26.64,0,.49-.07.98-.12,1.71-.52-.5-.88-.78-1.17-1.12-2.19-2.71-4.39-5.42-6.56-8.15-5.45-6.87-10.9-13.74-16.31-20.65-.95-1.21-2.05-1.68-3.56-1.66-5.18.06-10.36.02-15.54.02-.87,0-1.75-.03-2.61.03-1.24.08-1.52.37-1.62,1.58-.02.31-.01.62-.01.92,0,13.76,0,27.51,0,41.27,0,.36-.02.72.02,1.08.12.99.37,1.24,1.34,1.35.25.03.51.02.77.02,3.33,0,6.67,0,10,0,.41,0,.82-.03,1.23-.07.64-.06,1.05-.4,1.1-1.07.06-.82.15-1.64.16-2.45.02-7.44.02-14.89.04-22.33,0-1.78.08-3.56.13-5.33.11-.03.21-.06.32-.09.2.22.42.43.61.66,4.1,5.12,8.21,10.24,12.3,15.38,3.61,4.53,7.21,9.07,10.77,13.65.93,1.19,1.98,1.71,3.53,1.69,5.54-.08,11.08-.03,16.61-.03,3.39,0,3.44-.04,3.44-3.44,0-12.83,0-25.66,0-38.5,0-.77.03-1.54-.01-2.31-.07-1.52-.32-1.87-1.8-1.9Z"/>
        <path class="cls-1" d="M484.46,12.75c-.13-1.4-.36-1.67-1.81-1.72-2.1-.07-4.2-.05-6.31-.07-1.54,0-3.08-.01-4.61,0-1.67.02-1.91.27-2,1.99-.02.41-.03.82-.03,1.23-.04,8.88-.08,17.76-.12,26.64,0,.48-.07.95-.1,1.43l-.41.19c-.27-.37-.52-.76-.8-1.12-4.88-6.15-9.76-12.29-14.64-18.43-2.77-3.49-5.56-6.98-8.31-10.49-.79-1.01-1.72-1.47-3.03-1.46-6,.05-12,.01-18,.03-.59,0-1.61-.11-1.85.2,0,.02-.05.36-.09,1.5,0,14.27,0,28.54,0,42.81,0,1.55.12,1.68,1.65,1.7,2.72.02,5.44,0,8.15,0,.92,0,1.85.03,2.77-.02,1.33-.07,1.62-.34,1.72-1.65.06-.82.06-1.64.06-2.46.02-7.39.02-14.78.06-22.17,0-1.67.12-3.34.18-5l.42-.29c.17.31.29.65.51.92,4.09,5.13,8.2,10.25,12.28,15.39,3.61,4.54,7.2,9.08,10.76,13.65.89,1.13,1.88,1.69,3.39,1.67,5.79-.08,11.59-.03,17.38-.03.26,0,.51,0,.77,0,1.5-.06,1.86-.41,1.98-1.94.04-.56.04-1.13.04-1.69,0-13.14,0-26.28,0-39.42,0-.46,0-.93-.03-1.38Z"/>
        <path class="cls-1" d="M397.54,111.85c-4.84-3.55-9.69-7.07-14.53-10.61-.56-.41-1.07-.89-1.88-1.56,1.41-.18,2.46-.38,3.51-.43,2.7-.11,5.3-.7,7.77-1.71,3.39-1.39,5.78-3.72,5.92-7.67.11-3.02.23-6.05.18-9.07-.03-1.73-.24-3.48-.62-5.17-.71-3.08-2.6-5.29-5.47-6.64-2.17-1.02-4.45-1.49-6.85-1.49-13.28,0-26.56,0-39.84,0-.46,0-.92,0-1.38.02-1.75.08-1.91.23-1.92,2.01-.01,4.11-.01,8.21-.01,12.32,0,9.91,0,19.81,0,29.72,0,2.05.13,2.16,2.19,2.17,3.13,0,6.26,0,9.38,0,2.91,0,3.02-.11,3.02-3.03,0-4,0-8.01.02-12.01,0-.59.08-1.18.13-1.94.52.25.85.36,1.13.54,1.41.94,2.81,1.88,4.19,2.86,5.9,4.18,11.79,8.37,17.67,12.57,1,.72,2.06,1.04,3.3,1.02,3.44-.04,6.87,0,10.31-.02,1.33,0,2.67-.05,4-.12.32-.02.63-.19,1.23-.39-.6-.58-.98-1.04-1.44-1.38ZM379.54,89.84c-6.86,0-13.72,0-20.59,0-.55,0-1.1,0-1.91,0-.03-3.5.02-10.16.02-10.16,0,0,1.09,0,1.53,0,6.76,0,13.52-.02,20.28,0,.86,0,1.73.18,2.58.34,1.54.3,2.47,1.27,2.64,2.81.13,1.22.16,2.46.04,3.68-.18,1.75-1.45,2.96-3.21,3.25-.45.08-.92.06-1.38.06Z"/>
        <path class="cls-1" d="M328.36,57.15c.61.01.99.05,1.42.05,5.07.03,10.15,0,15.22.02.93,0,1.69-.29,2.32-.98,1.56-1.7,3.15-3.36,4.71-5.07,2.73-2.99,5.43-6,8.16-8.99.42-.46.69-.7.94-.74v-.02c.25.04.52.28.94.74,2.73,2.98,5.43,6,8.16,8.99,1.55,1.7,3.15,3.37,4.71,5.07.63.69,1.39.98,2.32.98,5.07-.02,10.15,0,15.22-.02.43,0,.81-.04,1.42-.05.27,0,.75.03.75-.28,0-.36-.08-.39-.18-.53-.24-.35-.34-.43-.62-.81-1.74-1.88-3.49-3.76-5.28-5.59-4.19-4.29-8.41-8.56-12.61-12.84-.72-.73-1.37-1.52-2.07-2.28-.49-.53-.59-1.04-.07-1.62.93-1.03,1.81-2.09,2.74-3.11,5.18-5.68,15.33-17.15,15.33-17.15,0,0,1.07-1.18,1.25-1.6-.05-.41-.43-.33-.91-.34-5.13-.03-11.05-.03-16.17-.05-.85,0-1.46.38-2,.98-1.91,2.14-3.83,4.27-5.75,6.41-2.09,2.33-4.17,4.66-6.27,6.98-.42.47-.69.72-.94.79v.02c-.25-.07-.52-.33-.94-.79-2.09-2.32-4.18-4.65-6.26-6.98-1.92-2.14-3.83-4.27-5.75-6.41-.54-.6-1.15-.98-2-.98-5.13.02-11.05.02-16.17.05-.48,0-.86-.08-.91.34.18.41,1.25,1.6,1.25,1.6,0,0,10.16,11.46,15.33,17.15.93,1.02,1.81,2.09,2.74,3.11.52.58.42,1.09-.07,1.62-.7.75-1.35,1.54-2.07,2.28-4.2,4.29-8.42,8.55-12.61,12.84-1.79,1.83-3.54,3.71-5.28,5.59-.28.38-.38.46-.62.81-.1.14-.18.18-.18.53,0,.31.49.27.75.28Z"/>
        <path class="cls-1" d="M333.65,68.91c-.05-.7-.46-1.13-1.12-1.29-.34-.09-.71-.1-1.07-.1-3.33,0-6.67,0-10,0-.36,0-.72.03-1.07.08-1.15.16-1.41.43-1.47,1.56-.02.41,0,.82,0,1.23,0,8.06.01,16.12-.02,24.18,0,1.01-.14,2.05-.38,3.04-.47,1.94-1.65,3.31-3.68,3.71-1.35.26-2.73.48-4.11.5-4.2.06-8.41.05-12.61-.02-1.22-.02-2.44-.27-3.64-.5-1.46-.28-2.45-1.2-3.08-2.54-.86-1.81-1.03-3.76-1.04-5.7-.05-7.65-.02-15.3-.03-22.95,0-.46-.01-.92-.04-1.38-.04-.66-.43-1.03-1.06-1.12-.4-.06-.82-.08-1.22-.08-3.18,0-6.36,0-9.54,0-.46,0-.92.06-1.38.1-.81.08-1.16.57-1.18,1.34-.01.36,0,.72,0,1.08,0,4.88,0,9.75,0,14.63h0c0,4.93-.13,9.86.03,14.78.22,6.8,3.47,11.85,10.32,13.82,2.78.8,5.63,1.12,8.5,1.14,6.77.04,13.54.03,20.31,0,3.04-.01,6.03-.46,8.92-1.4,3.75-1.22,6.58-3.54,8.14-7.21.97-2.27,1.54-4.69,1.55-7.17.04-9.55.01-19.1.01-28.64,0-.36,0-.72-.02-1.08Z"/>
        <path class="cls-1" d="M411.86,28.98c2.66-.03,5.24-.07,5.37-.12v-10.6h-4.58c1.12-2.45,2.3-4.57,3.41-7.02-1.78-.02-3.31-.11-4.92-.02-.39.02-.76.87-1.01,1.2-1.28,1.73-2.51,3.49-3.73,5.26-.22.32-.43.74-.43,1.11-.03,3.37-.02,6.75-.02,10.19.29.04,3.15.03,5.91,0Z"/>
      </g>
    </g>
  </g>
</svg>