<?xml version="1.0" encoding="UTF-8"?>
<svg id="Layer_2" data-name="Layer 2" xmlns="http://www.w3.org/2000/svg" viewBox="0 0 580.17 144.82">
  <defs>
    <style>
      .cls-1 {
        fill: #fff;
      }

      .cls-2 {
        fill: #f1cc00;
      }
    </style>
  </defs>
  <g id="Layer_1-2" data-name="Layer 1">
    <g>
      <g>
        <g>
          <path class="cls-1" d="M20.73,28.57h4.58v10.29c-2.82,2.11-7.04,3.56-10.84,3.56-8.18,0-14.47-6.07-14.47-13.93s6.42-13.85,14.79-13.85c3.95,0,7.98,1.52,10.72,3.91l-2.97,3.83c-2.07-1.92-4.97-3.09-7.75-3.09-5.28,0-9.43,4.03-9.43,9.19s4.19,9.23,9.47,9.23c1.88,0,4.03-.67,5.91-1.72v-7.43Z"/>
          <polygon class="cls-1" points="43.41 33.23 43.41 42.18 38.17 42.18 38.17 33.42 27.96 14.8 33.28 14.8 40.75 27.67 48.11 14.8 53.39 14.8 43.41 33.23"/>
          <polygon class="cls-1" points="62.81 14.8 71.42 32.37 79.98 14.8 86.01 14.8 86.01 42.18 81.23 42.18 81.2 22.62 73.1 39.37 69.69 39.37 61.6 22.62 61.6 42.18 56.74 42.18 56.74 14.8 62.81 14.8"/>
          <polygon class="cls-1" points="97.73 14.8 111.85 33.54 111.85 14.8 116.94 14.8 116.94 42.18 111.97 42.18 97.89 23.49 97.89 42.18 92.76 42.18 92.76 14.8 97.73 14.8"/>
          <path class="cls-1" d="M141.5,36.39h-13.38l-2.42,5.79h-5.44l12.01-27.38h5.44l11.85,27.38h-5.63l-2.42-5.79ZM139.62,31.9l-4.77-11.5-4.85,11.5h9.62Z"/>
          <polygon class="cls-1" points="169.38 14.8 169.38 19.45 160.85 19.45 160.85 42.18 155.57 42.18 155.57 19.45 147.04 19.45 147.04 14.8 169.38 14.8"/>
          <rect class="cls-1" x="173.09" y="14.8" width="5.24" height="27.38"/>
          <path class="cls-1" d="M212.09,28.49c0,7.86-6.34,13.93-14.59,13.93s-14.59-6.07-14.59-13.93,6.34-13.85,14.59-13.85,14.59,5.98,14.59,13.85M188.26,28.49c0,5.16,4.26,9.23,9.31,9.23s9.15-4.07,9.15-9.23-4.15-9.15-9.15-9.15-9.31,3.99-9.31,9.15"/>
          <polygon class="cls-1" points="221.66 14.8 235.79 33.54 235.79 14.8 240.87 14.8 240.87 42.18 235.9 42.18 221.82 23.49 221.82 42.18 216.69 42.18 216.69 14.8 221.66 14.8"/>
        </g>
        <g>
          <path class="cls-1" d="M352.53,16.33c.87,0,1.55-.27,2.03-.82.48-.55.72-1.27.72-2.17s-.24-1.63-.72-2.18-1.16-.82-2.03-.82-1.56.27-2.06.8c-.5.53-.75,1.26-.75,2.2s.25,1.71.75,2.22c.5.51,1.19.77,2.06.77Z"/>
          <path class="cls-1" d="M394.91,9.08c0,.93.25,1.67.75,2.2.5.53,1.19.8,2.06.8s1.55-.27,2.03-.82c.48-.55.73-1.27.73-2.17s-.24-1.67-.73-2.2c-.48-.53-1.16-.8-2.03-.8s-1.56.26-2.06.77c-.5.51-.75,1.25-.75,2.22Z"/>
          <path class="cls-1" d="M393.7,5.33c.68,0,1.27-.23,1.75-.68s.72-1.12.72-1.99-.24-1.54-.72-1.99c-.48-.45-1.07-.68-1.75-.68-.72,0-1.32.21-1.8.63-.48.42-.72,1.1-.72,2.04s.24,1.61.72,2.03,1.08.63,1.8.63Z"/>
          <path class="cls-1" d="M389.67,12.07c.87,0,1.55-.27,2.04-.82.48-.55.72-1.27.72-2.17s-.24-1.67-.72-2.2c-.49-.53-1.16-.8-2.04-.8-.81,0-1.48.24-2.01.72-.53.49-.79,1.24-.79,2.27s.26,1.75.79,2.24c.53.5,1.2.75,2.01.75Z"/>
          <path class="cls-1" d="M444.46,43.37c-.81,0-1.48.24-2.01.72s-.79,1.24-.79,2.27.26,1.75.79,2.25c.53.5,1.2.75,2.01.75s1.51-.26,2.01-.79c.5-.53.75-1.26.75-2.2s-.25-1.71-.75-2.22c-.5-.51-1.17-.77-2.01-.77Z"/>
          <path class="cls-1" d="M452.5,43.37c-.87,0-1.56.26-2.06.77-.5.52-.75,1.25-.75,2.22s.25,1.67.75,2.2c.5.53,1.19.79,2.06.79s1.55-.27,2.03-.82c.48-.55.72-1.27.72-2.18s-.24-1.63-.72-2.18c-.48-.55-1.16-.82-2.03-.82Z"/>
          <path class="cls-1" d="M470.39,12.07c.87,0,1.56-.27,2.06-.82.5-.55.75-1.27.75-2.17s-.24-1.67-.72-2.2c-.48-.53-1.18-.8-2.08-.8s-1.55.26-2.04.77c-.48.51-.72,1.25-.72,2.22s.25,1.67.75,2.2c.5.53,1.17.8,2.01.8Z"/>
          <path class="cls-1" d="M537.97,43.37c-.81,0-1.48.24-2.01.72s-.79,1.24-.79,2.27.26,1.75.79,2.25,1.2.75,2.01.75,1.51-.26,2.01-.79.75-1.26.75-2.2-.25-1.71-.75-2.22c-.5-.51-1.17-.77-2.01-.77Z"/>
          <path class="cls-1" d="M546.02,43.37c-.87,0-1.56.26-2.06.77-.5.52-.75,1.25-.75,2.22s.25,1.67.75,2.2,1.19.79,2.06.79,1.55-.27,2.03-.82c.48-.55.72-1.27.72-2.18s-.24-1.63-.72-2.18c-.48-.55-1.16-.82-2.03-.82Z"/>
          <path class="cls-1" d="M566.55,43.37c-.87,0-1.56.26-2.06.77-.5.52-.75,1.25-.75,2.22s.25,1.67.75,2.2c.5.53,1.19.79,2.06.79s1.55-.27,2.03-.82c.48-.55.73-1.27.73-2.18s-.24-1.67-.73-2.2c-.48-.53-1.16-.79-2.03-.79Z"/>
          <path class="cls-1" d="M578.81,33.05c-.41-.83-.78-1.85-1.12-3.09-.34-1.23-.65-2.72-.94-4.47-.41-2.49-1.03-4.41-1.87-5.75-.84-1.34-1.98-2.34-3.42-3-.62-.28-1.32-.49-2.1-.63-.78-.14-1.64-.21-2.57-.21-1.65,0-3.21.17-4.68.51-1.47.34-2.87.92-4.21,1.73l1.78,3.88c1.19-.62,2.32-1.08,3.39-1.38,1.08-.3,2.14-.44,3.2-.44,1.15,0,2.11.21,2.85.63.75.42,1.36,1.13,1.83,2.13.47,1,.84,2.32,1.12,3.98.41,2.09.84,3.79,1.31,5.1.47,1.31,1,2.26,1.59,2.85h-30.36v-18.53h-5.1v18.53h-31.46c-1.28,0-2.32-.18-3.11-.54-.8-.36-1.51-.97-2.13-1.85.31-.81.55-1.65.7-2.53.16-.87.23-1.79.23-2.76,0-2.06-.43-3.9-1.29-5.52-.86-1.62-2.07-2.87-3.63-3.74-.78-.41-1.61-.72-2.5-.96s-1.83-.35-2.83-.35c-1.5,0-3.03.27-4.58.8-1.56.53-2.96,1.26-4.21,2.2-.63,1.09-1.1,2.32-1.43,3.67-.33,1.36-.49,2.72-.49,4.09,0,1.16.12,2.36.37,3.6.25,1.25.64,2.54,1.17,3.88h-11.23v-18.53h-5.1v18.53h-16.91v-18.53h-5.1v18.53h-36.35v-18.53h-4.96v18.53h-2.9c-1.34,0-2.45-.25-3.32-.75-.87-.5-1.7-1.37-2.48-2.62.03-.28.05-.56.07-.84.01-.28.02-.58.02-.89v-9.78h-4.96v9.45c0,1.72-.41,3.05-1.22,4-.81.95-1.96,1.43-3.46,1.43h-4.72v-14.88h-4.96v14.88h-11.37v-18.53h-5.01v22.27c0,1.65-.27,3.03-.79,4.14-.53,1.11-1.36,1.94-2.48,2.5-1.12.56-2.56.84-4.3.84h-1.97c-1.93,0-3.44-.68-4.51-2.03-1.08-1.36-1.61-3.27-1.61-5.73,0-1.87.13-3.67.4-5.4.26-1.73.66-3.31,1.19-4.75h-4.68c-.65,1.53-1.16,3.17-1.52,4.94-.36,1.76-.54,3.56-.54,5.4,0,2.25.38,4.23,1.15,5.96.76,1.73,1.86,3.11,3.3,4.14.81.56,1.72,1,2.74,1.31,1.01.31,2.13.47,3.34.47h2.9c4.09,0,7.13-.94,9.15-2.83,2.01-1.89,3.08-4.69,3.2-8.4h21.9c1.62,0,3.03-.3,4.23-.91,1.2-.61,2.18-1.43,2.92-2.45,1.19,1.21,2.38,2.08,3.58,2.6,1.2.51,2.49.77,3.86.77h40.95-3.81,53.4c1.5,0,2.94-.26,4.33-.77,1.39-.52,2.61-1.29,3.67-2.32,1.09,1.16,2.23,1.96,3.42,2.41,1.12.43,2.47.64,4,.66.01,0,0,.02.02.02h71.71-23.74,24.37v-4.26c-.5-.44-.95-1.07-1.36-1.9ZM497.81,31.32c-.53,1.14-1.28,2.02-2.24,2.64-.97.62-2.12.94-3.46.94h-2.81c-.59-1.43-1-2.77-1.22-4-.22-1.23-.33-2.45-.33-3.67,0-.84.04-1.64.12-2.39.08-.75.24-1.48.49-2.2.75-.5,1.56-.9,2.43-1.22.87-.31,1.76-.47,2.67-.47,1.47,0,2.69.58,3.67,1.73.98,1.15,1.47,2.67,1.47,4.54,0,1.59-.27,2.96-.8,4.09Z"/>
        </g>
        <path class="cls-2" d="M285.49,27.14l-1.21,8.52h23.34l-1.04,6.81h-32.9l3.05-19.19c.02-.12.06-.38.15-.9l.17-1.06c.85-4.78,3-6.79,8-6.79h33.77c3.92,0,7.1-3.18,7.1-7.11s-3.18-7.1-7.1-7.1c-.03,0-.07,0-.1,0-.01,0-.03,0-.04,0h-44.59c-4.48,0-8.22,3.15-8.94,7.52l-7.97,48.9h53.06c4.53,0,8.46-3.23,9.12-7.69l4.57-27.72h-31.71c-3.42,0-6.25,2.44-6.73,5.8"/>
      </g>
      <g>
        <g>
          <polygon class="cls-1" points="14.76 111.22 14.76 119.14 7.23 119.14 7.23 111.22 4.12 111.22 4.12 129.88 7.23 129.88 7.23 121.94 14.76 121.94 14.76 129.88 17.88 129.88 17.88 111.22 14.76 111.22"/>
          <polygon class="cls-1" points="41.22 122.49 35.07 112.28 35.07 111.22 38.13 111.22 42.81 119.48 47.64 111.22 50.49 111.22 50.49 112.28 44.34 122.36 44.34 129.88 41.22 129.88 41.22 122.49"/>
          <path class="cls-1" d="M74.35,119.99c1.82,0,2.88-.91,2.88-2.99s-1.06-2.99-2.88-2.99h-4.13v5.97h4.13ZM67.11,111.22h7.82c3.58,0,5.48,2.16,5.48,5.73,0,2.43-1.04,4.45-3.19,5.39l3.4,6.48v1.07h-3.06l-3.74-7.17h-3.58v7.17h-3.12v-18.66Z"/>
          <path class="cls-1" d="M108.01,123.72v-6.34c0-2-1.32-3.63-4.03-3.63s-4.02,1.63-4.02,3.63v6.34c0,2,1.32,3.63,4.02,3.63s4.03-1.63,4.03-3.63M96.84,123.56v-6.02c0-4.24,2.78-6.72,7.14-6.72s7.14,2.48,7.14,6.72v6.02c0,4.24-2.78,6.72-7.14,6.72s-7.14-2.48-7.14-6.72"/>
          <polygon class="cls-1" points="126.23 128.81 131.92 120.23 126.67 112.28 126.67 111.22 129.84 111.22 133.87 117.72 138.07 111.22 141.06 111.22 141.06 112.28 135.76 120.2 141.5 128.81 141.5 129.88 138.33 129.88 133.79 122.79 129.22 129.88 126.23 129.88 126.23 128.81"/>
        </g>
        <rect class="cls-1" x="155.27" y="96.28" width="1.35" height="48.54"/>
        <rect class="cls-1" x="316.55" y="96.28" width="1.35" height="48.54"/>
        <rect class="cls-1" x="451.18" y="96.28" width="1.35" height="48.54"/>
        <g>
          <path class="cls-1" d="M183.9,116.54l-.21-.26c-.17.17-.36.29-.58.37-.22.08-.43.12-.63.12-.45,0-.77-.16-.98-.49-.2-.33-.35-.69-.44-1.09-.06-.26-.1-.59-.13-.98-.02-.39-.05-.79-.07-1.21s-.05-.82-.09-1.22c-.04-.4-.1-.75-.2-1.06-.16-.53-.42-.96-.79-1.29-.37-.33-.78-.6-1.22-.8-.44-.2-.88-.34-1.3-.43-.43-.08-.76-.14-1.01-.17v-.05c.9-.11,1.62-.32,2.16-.64.54-.32.96-.67,1.24-1.05.29-.38.47-.75.56-1.12.08-.36.13-.66.13-.89,0-.46-.11-.96-.34-1.49-.22-.53-.61-1-1.15-1.42-.6-.48-1.25-.77-1.95-.87-.7-.1-1.5-.15-2.42-.15-.19,0-.37,0-.56.01-.19,0-.37.01-.56.01-.19.02-.37.03-.56.03-.19,0-.37.01-.56.01h-4.42v.33h2.58v15.9h-2.58v.33h7.48v-.33h-2.58v-8.39h2.32c.26,0,.57.02.93.06.36.04.7.16,1.03.36.33.2.62.52.87.95.25.43.4,1.04.46,1.81l.16,2.11c.05.59.13,1.1.24,1.55s.3.81.55,1.12c.25.3.58.53.99.69.41.15.93.23,1.55.23.33,0,.6-.02.82-.06.22-.04.41-.09.57-.15.15-.06.28-.13.38-.2.1-.07.19-.14.27-.2ZM174.88,107.94h-2.14v-7.18c.2-.03.45-.05.73-.06.29,0,.57-.01.85-.01.4,0,.81.04,1.22.12.41.08.78.24,1.12.49.33.25.6.62.81,1.1.21.49.31,1.14.31,1.94,0,.71-.07,1.3-.21,1.77-.14.46-.34.83-.59,1.1-.26.27-.56.46-.92.57-.36.11-.75.16-1.19.16Z"/>
          <path class="cls-1" d="M198.8,111.89h-.26c-.05.36-.16.81-.33,1.35-.17.54-.43,1.07-.79,1.57-.36.5-.82.94-1.38,1.3-.57.36-1.27.55-2.13.55h-4.39v-8.39h1.88c.56,0,1.01.1,1.36.29.35.19.63.45.84.78s.37.7.49,1.12.23.85.34,1.3h.26v-7.23h-.26c-.17.7-.34,1.27-.52,1.71-.18.44-.39.79-.65,1.05-.26.26-.56.43-.92.52-.36.09-.79.14-1.3.14h-1.51v-7.18h3.86c.64,0,1.18.08,1.63.23.45.16.84.39,1.16.71.33.32.6.71.84,1.16.23.46.45.99.65,1.59h.26v-4.02h-13.29v.33h2.58v15.9h-2.58v.33h14.18v-5.09Z"/>
          <path class="cls-1" d="M208.46,116.66h-2.58v-8.04h1.88c.56,0,1.01.1,1.36.29.35.19.63.45.84.78s.37.7.49,1.12.23.85.34,1.3h.26v-7.23h-.26c-.17.7-.34,1.27-.52,1.71-.18.44-.39.79-.65,1.05s-.56.43-.92.52c-.36.09-.79.14-1.3.14h-1.51v-7.53h3.86c.64,0,1.18.08,1.63.23.45.16.84.39,1.16.71.33.32.6.71.84,1.16.23.46.45.99.65,1.59h.26v-4.02h-13.29v.33h2.58v15.9h-2.58v.33h7.48v-.33Z"/>
          <path class="cls-1" d="M219.65,114.69c.72.8,1.58,1.44,2.57,1.92.99.48,2.07.72,3.23.72s2.19-.25,3.17-.74c.98-.5,1.84-1.15,2.57-1.95.73-.81,1.3-1.73,1.72-2.77.42-1.04.63-2.1.63-3.18,0-1.24-.23-2.39-.69-3.44-.46-1.05-1.07-1.97-1.82-2.74-.76-.77-1.62-1.38-2.59-1.82-.97-.44-1.96-.66-2.99-.66-.96,0-1.92.22-2.88.66-.96.44-1.82,1.05-2.59,1.82-.77.77-1.39,1.69-1.88,2.74-.49,1.05-.73,2.2-.73,3.44,0,1.12.2,2.2.6,3.24.4,1.05.96,1.97,1.68,2.77ZM220.24,105.59c.14-1,.41-1.89.8-2.67.39-.78.94-1.41,1.65-1.87.7-.46,1.62-.7,2.75-.7s2.05.23,2.75.7c.7.46,1.25,1.09,1.65,1.87.4.78.66,1.67.8,2.67.14,1,.21,2.03.21,3.1,0,1.39-.09,2.61-.28,3.65-.19,1.04-.5,1.91-.93,2.6-.43.7-1,1.22-1.68,1.56-.69.34-1.53.51-2.52.51s-1.85-.17-2.53-.51c-.68-.34-1.24-.86-1.67-1.56-.43-.7-.74-1.56-.93-2.6-.19-1.04-.28-2.25-.28-3.65,0-1.07.07-2.1.21-3.1Z"/>
          <path class="cls-1" d="M243.3,116.66h-2.58v-8.39h2.32c.26,0,.57.02.93.06.36.04.7.16,1.03.36.33.2.62.52.87.95.25.43.4,1.04.46,1.81l.16,2.11c.05.59.13,1.1.24,1.55s.3.81.55,1.12c.25.3.58.53.99.69.41.15.93.23,1.55.23.33,0,.6-.02.82-.06.22-.04.41-.09.57-.15.15-.06.28-.13.38-.2.1-.07.19-.14.27-.2l-.21-.26c-.17.17-.36.29-.58.37-.22.08-.43.12-.63.12-.45,0-.77-.16-.98-.49-.2-.33-.35-.69-.44-1.09-.06-.26-.1-.59-.13-.98-.02-.39-.05-.79-.07-1.21s-.05-.82-.09-1.22c-.04-.4-.1-.75-.2-1.06-.16-.53-.42-.96-.79-1.29-.37-.33-.78-.6-1.22-.8-.44-.2-.88-.34-1.3-.43-.43-.08-.76-.14-1.01-.17v-.05c.9-.11,1.62-.32,2.16-.64.54-.32.96-.67,1.24-1.05.29-.38.47-.75.56-1.12.08-.36.13-.66.13-.89,0-.46-.11-.96-.34-1.49-.22-.53-.61-1-1.15-1.42-.6-.48-1.25-.77-1.95-.87-.7-.1-1.5-.15-2.42-.15-.19,0-.37,0-.56.01-.19,0-.37.01-.56.01-.19.02-.37.03-.56.03-.19,0-.37.01-.56.01h-4.42v.33h2.58v15.9h-2.58v.33h7.48v-.33ZM240.72,100.76c.2-.03.45-.05.73-.06.29,0,.57-.01.85-.01.4,0,.81.04,1.22.12.41.08.78.24,1.12.49.33.25.6.62.81,1.1.21.49.31,1.14.31,1.94,0,.71-.07,1.3-.21,1.77-.14.46-.34.83-.59,1.1-.26.27-.56.46-.92.57-.36.11-.75.16-1.19.16h-2.14v-7.18Z"/>
          <polygon class="cls-1" points="255.43 101.07 255.47 101.07 261 117.01 266.56 100.9 266.61 100.9 266.61 116.66 264.03 116.66 264.03 116.98 271.51 116.98 271.51 116.66 268.93 116.66 268.93 100.76 271.51 100.76 271.51 100.44 266.37 100.44 262.07 112.94 262.03 112.94 257.73 100.44 252.5 100.44 252.5 100.76 255.08 100.76 255.08 116.66 252.5 116.66 252.5 116.98 258.01 116.98 258.01 116.66 255.43 116.66 255.43 101.07"/>
          <path class="cls-1" d="M286.99,111.89h-.26c-.05.36-.16.81-.33,1.35-.17.54-.43,1.07-.79,1.57-.36.5-.82.94-1.38,1.3-.57.36-1.27.55-2.13.55h-4.39v-8.39h1.88c.56,0,1.01.1,1.36.29.35.19.63.45.84.78s.37.7.49,1.12.23.85.34,1.3h.26v-7.23h-.26c-.17.7-.34,1.27-.52,1.71-.18.44-.39.79-.65,1.05-.26.26-.56.43-.92.52-.36.09-.79.14-1.3.14h-1.51v-7.18h3.86c.64,0,1.18.08,1.63.23.45.16.84.39,1.16.71.33.32.6.71.84,1.16.23.46.45.99.65,1.59h.26v-4.02h-13.29v.33h2.58v15.9h-2.58v.33h14.18v-5.09Z"/>
          <path class="cls-1" d="M305.02,116.29c-.17.17-.36.29-.58.37-.22.08-.43.12-.63.12-.45,0-.77-.16-.98-.49-.2-.33-.35-.69-.44-1.09-.06-.26-.1-.59-.13-.98-.02-.39-.05-.79-.07-1.21s-.05-.82-.09-1.22c-.04-.4-.1-.75-.2-1.06-.16-.53-.42-.96-.79-1.29-.37-.33-.78-.6-1.22-.8-.44-.2-.88-.34-1.3-.43-.43-.08-.76-.14-1.01-.17v-.05c.9-.11,1.62-.32,2.16-.64.54-.32.96-.67,1.24-1.05.29-.38.47-.75.56-1.12.08-.36.13-.66.13-.89,0-.46-.11-.96-.34-1.49-.22-.53-.61-1-1.15-1.42-.6-.48-1.25-.77-1.95-.87-.7-.1-1.5-.15-2.42-.15-.19,0-.37,0-.56.01-.19,0-.37.01-.56.01-.19.02-.37.03-.56.03-.19,0-.37.01-.56.01h-4.42v.33h2.58v15.9h-2.58v.33h7.48v-.33h-2.58v-8.39h2.32c.26,0,.57.02.93.06.36.04.7.16,1.03.36.33.2.62.52.87.95.25.43.4,1.04.46,1.81l.16,2.11c.05.59.13,1.1.24,1.55s.3.81.55,1.12c.25.3.58.53.99.69.41.15.93.23,1.55.23.33,0,.6-.02.82-.06.22-.04.41-.09.57-.15.15-.06.28-.13.38-.2.1-.07.19-.14.27-.2l-.21-.26ZM296.21,107.94h-2.14v-7.18c.2-.03.45-.05.73-.06.29,0,.57-.01.85-.01.4,0,.81.04,1.22.12.41.08.78.24,1.12.49.33.25.6.62.81,1.1.21.49.31,1.14.31,1.94,0,.71-.07,1.3-.21,1.77-.14.46-.34.83-.59,1.1-.26.27-.56.46-.92.57-.36.11-.75.16-1.19.16Z"/>
          <path class="cls-1" d="M194.78,124.96c-.68-.32-1.43-.53-2.23-.65-.81-.12-1.56-.17-2.25-.17-.79,0-1.58.01-2.37.03s-1.58.03-2.37.03h-2.14v.33h2.14v15.9h-2.14v.33h7.65v-.33h-2.14v-7.55h.95c1.24,0,2.32-.12,3.23-.35.91-.23,1.67-.55,2.28-.94.6-.39,1.05-.86,1.35-1.39.29-.53.44-1.1.44-1.71,0-.9-.23-1.63-.69-2.2-.46-.57-1.03-1.01-1.71-1.32ZM192.5,131.65c-.59.6-1.54.89-2.86.89h-.72v-8.02c.12-.02.26-.03.42-.05.15-.02.32-.02.49-.02,1.35,0,2.28.36,2.79,1.07.51.71.77,1.74.77,3.09,0,1.43-.29,2.44-.88,3.03Z"/>
          <polygon class="cls-1" points="198.59 124.53 200.72 124.53 200.72 140.43 198.59 140.43 198.59 140.75 206.23 140.75 206.23 140.43 204.09 140.43 204.09 124.53 206.23 124.53 206.23 124.21 198.59 124.21 198.59 124.53"/>
          <path class="cls-1" d="M221.79,137.79c-.36.63-.77,1.14-1.23,1.53-.46.39-.95.68-1.46.85-.52.17-1.03.26-1.55.26h-3.83v-15.9h2.14v-.33h-7.65v.33h2.14v15.9h-2.14v.33h14.73v-5.25h-.3c-.2.9-.48,1.66-.85,2.29Z"/>
          <path class="cls-1" d="M232.84,123.56h-.63l-6.93,16.87h-1.95v.33h4.39v-.33h-2.07l2.58-6.23h5.58l2.7,6.23h-2.16v.33h7.81v-.33h-2l-7.32-16.87ZM228.35,133.87l2.6-6.34,2.74,6.34h-5.34Z"/>
          <path class="cls-1" d="M242.46,128.46h.3c.23-.79.49-1.44.77-1.95.28-.51.6-.91.95-1.2.36-.29.76-.49,1.21-.6.45-.12.96-.17,1.53-.17h.84v15.9h-2.14v.33h7.65v-.33h-2.14v-15.9h.84c.57,0,1.08.06,1.53.17.45.12.85.32,1.21.6.36.29.67.69.95,1.2.28.51.53,1.16.77,1.95h.3v-4.25h-14.57v4.25Z"/>
          <path class="cls-1" d="M272.67,137.53c-.29.58-.66,1.09-1.1,1.52-.44.43-.95.77-1.52,1.01-.57.24-1.22.36-1.93.36h-3.81v-8.39h1.56c.54,0,1,.09,1.36.28.36.19.67.44.92.76.25.32.45.69.59,1.1.15.42.27.85.38,1.3h.3v-7.23h-.3c-.11.53-.25,1-.42,1.43-.17.43-.39.79-.65,1.09-.26.3-.59.53-.99.7-.39.16-.88.24-1.45.24h-1.3v-7.18h3.69c.76,0,1.4.14,1.93.43.53.29.96.62,1.29,1.01.33.39.59.79.78,1.2.19.41.32.75.4,1.01h.3v-3.97h-13.9v.33h2.14v15.9h-2.14v.33h14.85v-5.09h-.3c-.15.67-.38,1.29-.67,1.87Z"/>
          <path class="cls-1" d="M286.68,132.15c-.46-.37-1-.68-1.59-.92-.6-.24-1.21-.46-1.84-.66-.63-.2-1.24-.4-1.84-.58-.6-.19-1.13-.41-1.59-.66-.46-.26-.84-.56-1.13-.92-.29-.36-.43-.81-.43-1.35,0-.36.08-.7.26-1.05.17-.34.42-.65.74-.93.33-.28.72-.5,1.2-.67.47-.17,1.02-.26,1.64-.26.76,0,1.39.13,1.88.39.5.26.91.61,1.23,1.03.33.43.59.9.8,1.43.21.53.41,1.06.59,1.6h.3v-4.42h-.37c-.08.19-.15.31-.22.38s-.21.1-.43.1c-.19,0-.39-.05-.62-.14-.22-.09-.48-.19-.78-.29-.29-.1-.64-.2-1.02-.29-.39-.09-.84-.14-1.35-.14-.81,0-1.55.14-2.24.41-.69.27-1.28.63-1.78,1.07-.5.44-.88.95-1.16,1.52-.28.57-.42,1.17-.42,1.79,0,.84.14,1.53.41,2.09.27.56.63,1.03,1.08,1.41.45.38.96.69,1.53.93.57.24,1.16.45,1.77.63.6.18,1.19.35,1.77.52.57.17,1.08.38,1.53.63.45.25.81.56,1.08.93.27.37.41.84.41,1.42,0,.31-.06.67-.19,1.08-.12.41-.34.8-.64,1.17-.3.37-.72.69-1.24.94-.53.26-1.2.38-2.02.38-.23,0-.48,0-.76-.01-.27,0-.56-.05-.86-.14-.3-.09-.62-.22-.95-.41-.33-.19-.68-.46-1.03-.81-.33-.31-.6-.65-.82-1.01-.22-.36-.41-.72-.56-1.07-.15-.35-.26-.67-.34-.98-.08-.3-.13-.55-.16-.73h-.35v5.16h.37c.08-.22.16-.36.26-.43s.25-.1.46-.1c.15,0,.39.05.71.14.32.09.68.19,1.09.29.41.1.85.2,1.32.29.47.09.95.14,1.43.14.96,0,1.83-.15,2.61-.45.78-.3,1.46-.71,2.02-1.22.57-.51,1-1.11,1.31-1.79.31-.68.46-1.4.46-2.16s-.14-1.43-.43-1.95c-.29-.53-.66-.98-1.13-1.35Z"/>
        </g>
        <g>
          <path class="cls-1" d="M357.93,113.71c0-2.11-1.98-4.15-3.97-5.11l7.01-11.18-10.34,10.78h-11.51l-4.95,23.77h5.36l-6.76,10.58,10.71-10.58h3.88c2.46,0,4.76-.7,6.48-1.98,1.86-1.38,2.88-3.35,2.88-5.54,0-1.91-.92-3.65-2.47-4.75,2.3-1.36,3.69-3.59,3.69-6ZM353.39,114.46l-6.91,8.94,4.28.21-13.31,13.14,6.94-10.87-4.22.64,6.31-8.77-4.55.7,14.03-14.63-7.41,11.82,4.83-1.19Z"/>
          <path class="cls-1" d="M376.52,131.98h-17.66l4.95-23.77h6.75l-3.59,17.61h10.85l-1.29,6.16Z"/>
          <path class="cls-1" d="M386.84,131.98h-6.78l4.95-23.77h6.78l-4.95,23.77Z"/>
          <path class="cls-1" d="M404.05,131.98h-6.78l3.66-17.61h-6.85l1.25-6.16h20.53l-1.25,6.16h-6.89l-3.66,17.61Z"/>
          <path class="cls-1" d="M434.12,131.98h-20.28l.91-5.06,13.23-12.55h-10.3l1.29-6.16h19.93l-.99,5.06-13.13,12.54h10.63l-1.29,6.16Z"/>
        </g>
        <g>
          <path class="cls-1" d="M492.86,127.3s-.03-.03-.09-.08c.13-.1.23-.18.34-.25.61-.41.97-.99,1.17-1.68.29-1.03.29-2.08.09-3.13-.25-1.32-1.02-2.23-2.29-2.72-1-.39-2.03-.54-3.09-.54-4.72,0-9.44,0-14.17,0-.24,0-.49,0-.73,0-.53.02-.63.12-.65.63,0,.08,0,.15,0,.23,0,5.05,0,10.09,0,15.14,0,.96.02.97.99.97,5.23,0,10.46,0,15.69,0,.63,0,1.28-.08,1.9-.19,1.61-.29,2.6-1.29,2.93-2.89.17-.8.14-1.61.08-2.42-.11-1.45-.75-2.54-2.17-3.08ZM478.83,123.62c.02-.32.13-.4.55-.4.81,0,1.62,0,2.43,0,.6,0,1.2,0,1.81,0,1.32,0,2.63,0,3.95,0,.17,0,.34,0,.51.03.73.13,1.06.59.98,1.33-.05.44-.28.74-.71.85-.25.06-.52.1-.78.1-2.65,0-5.3,0-7.95,0-.11,0-.23,0-.34,0-.27-.01-.42-.16-.43-.42-.01-.49-.03-.98,0-1.47ZM489.44,130.88c-.03.17-.23.37-.4.43-.37.13-.76.23-1.14.24-1.39.03-2.78.01-4.18.01h0c-1.41,0-2.82,0-4.23,0-.57,0-.66-.07-.67-.64,0-.41.03-.83.04-1.24,0-.31.17-.44.46-.44.13,0,.26,0,.39,0,2.58,0,5.15,0,7.73,0,.39,0,.79.04,1.17.13.9.23.97.75.82,1.51Z"/>
          <path class="cls-1" d="M486.59,115.42c.63,0,1.28-.08,1.9-.19,1.61-.29,2.6-1.29,2.93-2.89.17-.8.14-1.61.08-2.42-.11-1.45-.75-2.54-2.17-3.08-.02,0-.03-.03-.09-.08.13-.1.23-.18.34-.25.61-.41.97-.99,1.17-1.68.29-1.03.29-2.08.09-3.13-.25-1.32-1.02-2.23-2.29-2.72-1-.39-2.03-.54-3.09-.54-4.72,0-9.44,0-14.16,0-.24,0-.49,0-.73,0-.53.02-.63.12-.65.63,0,.08,0,.15,0,.23,0,5.05,0,10.09,0,15.14,0,.96.02.97.99.97,5.23,0,10.46,0,15.69,0ZM475.29,103.16c.02-.32.13-.4.55-.4.81,0,1.62,0,2.43,0,.6,0,1.2,0,1.81,0,1.32,0,2.63,0,3.95,0,.17,0,.34,0,.51.03.73.13,1.06.59.98,1.33-.05.44-.28.74-.71.85-.25.06-.52.1-.78.1-2.65,0-5.3,0-7.95,0-.11,0-.23,0-.34,0-.27-.01-.42-.16-.43-.42-.01-.49-.03-.98,0-1.47ZM475.28,110.47c0-.41.03-.83.04-1.24,0-.31.17-.44.46-.44.13,0,.26,0,.39,0,2.58,0,5.15,0,7.73,0,.39,0,.79.04,1.17.13.9.23.97.75.82,1.51-.03.17-.23.37-.4.43-.37.13-.76.23-1.14.24-1.39.03-2.78.01-4.18.01h0c-1.41,0-2.82,0-4.23,0-.57,0-.66-.07-.67-.64Z"/>
          <path class="cls-1" d="M505.58,115.64h0c1.49,0,2.97.02,4.46,0,1.37-.03,2.75-.12,4.04-.66,1.21-.51,2.13-1.32,2.58-2.59.34-.97.48-1.97.48-2.99,0-1.39.02-2.79,0-4.18-.02-.9-.04-1.81-.2-2.69-.35-2.01-1.55-3.28-3.52-3.84-1.02-.29-2.07-.41-3.12-.42-3.51-.01-7.03.03-10.54.08-.87.01-1.72.18-2.54.49-1.4.53-2.39,1.44-2.86,2.9-.25.8-.39,1.61-.4,2.44-.02,1.73-.04,3.46-.01,5.2.01.75.08,1.51.24,2.24.37,1.68,1.36,2.85,3,3.45,1.2.44,2.45.57,3.71.59,1.56.04,3.12,0,4.68,0ZM499.61,109.19c-.16-1.35-.18-2.7-.03-4.06.17-1.53.99-2.18,2.36-2.24,2.1-.09,4.21-.08,6.31-.07.56,0,1.12.1,1.67.23.88.2,1.4.83,1.53,1.69.23,1.53.21,3.08,0,4.61-.11.79-.59,1.34-1.4,1.51-.42.09-.85.15-1.28.16-1.09.02-2.18,0-3.27,0-1.07,0-2.14.02-3.22-.01-.46-.01-.93-.11-1.38-.22-.83-.2-1.19-.83-1.28-1.61Z"/>
          <path class="cls-1" d="M569.93,119.23c-1.39-.03-2.78-.03-4.18-.03-.41,0-.54.15-.57.55-.02.21-.01.41-.01.62-.01,3.26-.02,6.52-.04,9.77,0,.18-.03.36-.05.63-.19-.18-.32-.28-.43-.41-.81-.99-1.61-1.99-2.4-2.99-2-2.52-4-5.04-5.98-7.57-.35-.44-.75-.62-1.31-.61-1.9.02-3.8,0-5.7,0-.32,0-.64,0-.96.01-.46.03-.56.14-.59.58,0,.11,0,.23,0,.34,0,5.05,0,10.09,0,15.14,0,.13,0,.26,0,.4.04.36.14.46.49.49.09.01.19,0,.28,0,1.22,0,2.45,0,3.67,0,.15,0,.3-.01.45-.02.24-.02.38-.15.4-.39.02-.3.06-.6.06-.9,0-2.73,0-5.46.01-8.19,0-.65.03-1.3.05-1.96.04-.01.08-.02.12-.03.07.08.15.16.22.24,1.51,1.88,3.01,3.76,4.51,5.64,1.32,1.66,2.65,3.33,3.95,5.01.34.44.73.63,1.3.62,2.03-.03,4.06-.01,6.1-.01,1.25,0,1.26-.02,1.26-1.26,0-4.71,0-9.42,0-14.12,0-.28,0-.57,0-.85-.03-.56-.12-.68-.66-.7Z"/>
          <path class="cls-1" d="M576.04,99.11c-.05-.52-.13-.61-.66-.63-.77-.02-1.54-.02-2.31-.02-.56,0-1.13,0-1.69,0-.61,0-.7.1-.73.73,0,.15,0,.3-.01.45-.01,3.26-.03,6.51-.04,9.77,0,.17-.02.35-.04.52l-.15.07c-.1-.14-.19-.28-.29-.41-1.79-2.25-3.58-4.51-5.37-6.76-1.02-1.28-2.04-2.56-3.05-3.85-.29-.37-.63-.54-1.11-.54-2.2.02-4.4,0-6.6.01-.22,0-.59-.04-.68.07,0,0-.02.13-.03.55,0,5.23,0,10.47,0,15.7,0,.57.05.62.61.62,1,0,1.99,0,2.99,0,.34,0,.68.01,1.02,0,.49-.02.59-.13.63-.6.02-.3.02-.6.02-.9,0-2.71,0-5.42.02-8.13,0-.61.04-1.22.07-1.84l.16-.11c.06.11.11.24.19.34,1.5,1.88,3.01,3.76,4.51,5.64,1.32,1.66,2.64,3.33,3.95,5.01.32.42.69.62,1.24.61,2.13-.03,4.25-.01,6.38-.01.09,0,.19,0,.28,0,.55-.02.68-.15.73-.71.02-.21.01-.41.01-.62,0-4.82,0-9.64,0-14.46,0-.17,0-.34-.01-.51Z"/>
          <path class="cls-1" d="M544.15,135.46c-1.77-1.3-3.56-2.59-5.33-3.89-.21-.15-.39-.33-.69-.57.52-.06.9-.14,1.29-.16.99-.04,1.95-.26,2.85-.63,1.25-.51,2.12-1.37,2.17-2.81.04-1.11.08-2.22.07-3.33-.01-.63-.09-1.28-.23-1.9-.26-1.13-.95-1.94-2.01-2.44-.8-.37-1.63-.55-2.51-.54-4.87,0-9.74,0-14.62,0-.17,0-.34,0-.51,0-.64.03-.7.09-.7.74,0,1.51,0,3.01,0,4.52,0,3.63,0,7.27,0,10.9,0,.75.05.79.8.8,1.15,0,2.3,0,3.44,0,1.07,0,1.11-.04,1.11-1.11,0-1.47,0-2.94,0-4.41,0-.22.03-.43.05-.71.19.09.31.13.41.2.52.35,1.03.69,1.54,1.05,2.16,1.53,4.33,3.07,6.48,4.61.37.26.76.38,1.21.38,1.26-.02,2.52,0,3.78,0,.49,0,.98-.02,1.47-.04.12,0,.23-.07.45-.14-.22-.21-.36-.38-.53-.51ZM537.55,127.39c-2.52,0-5.04,0-7.55,0-.2,0-.4,0-.7,0,0-1.28,0-3.73,0-3.73,0,0,.4,0,.56,0,2.48,0,4.96,0,7.44,0,.32,0,.63.06.95.13.56.11.91.46.97,1.03.05.45.06.9.01,1.35-.07.64-.53,1.08-1.18,1.19-.17.03-.34.02-.51.02Z"/>
          <path class="cls-1" d="M518.77,115.4c.22,0,.36.02.52.02,1.86,0,3.72,0,5.59,0,.34,0,.62-.11.85-.36.57-.62,1.16-1.23,1.73-1.86,1-1.1,1.99-2.2,2.99-3.3.15-.17.25-.26.34-.27h0c.09,0,.19.1.34.26,1,1.1,1.99,2.2,2.99,3.3.57.62,1.15,1.24,1.73,1.86.23.25.51.36.85.36,1.86,0,3.72,0,5.59,0,.16,0,.3-.01.52-.02.1,0,.28.01.28-.1,0-.13-.03-.14-.07-.2-.09-.13-.12-.16-.23-.3-.64-.69-1.28-1.38-1.94-2.05-1.54-1.57-3.09-3.14-4.63-4.71-.26-.27-.5-.56-.76-.84-.18-.19-.22-.38-.02-.59.34-.38.66-.77,1.01-1.14,1.9-2.09,5.62-6.29,5.62-6.29,0,0,.39-.43.46-.59-.02-.15-.16-.12-.33-.12-1.88-.01-4.05-.01-5.93-.02-.31,0-.54.14-.73.36-.7.78-1.41,1.57-2.11,2.35-.77.85-1.53,1.71-2.3,2.56-.15.17-.25.27-.34.29h0c-.09-.02-.19-.11-.34-.28-.77-.85-1.53-1.71-2.3-2.56-.7-.78-1.41-1.57-2.11-2.35-.2-.22-.42-.36-.73-.36-1.88,0-4.05,0-5.93.02-.18,0-.32-.03-.33.12.07.15.46.59.46.59,0,0,3.73,4.2,5.62,6.29.34.37.67.77,1.01,1.14.19.21.16.4-.02.59-.26.28-.5.57-.76.84-1.54,1.57-3.09,3.14-4.63,4.71-.66.67-1.3,1.36-1.94,2.05-.1.14-.14.17-.23.3-.04.05-.07.06-.07.2,0,.11.18.1.28.1Z"/>
          <path class="cls-1" d="M520.71,119.71c-.02-.26-.17-.42-.41-.47-.13-.03-.26-.04-.39-.04-1.22,0-2.45,0-3.67,0-.13,0-.26,0-.39.03-.42.06-.52.16-.54.57,0,.15,0,.3,0,.45,0,2.96,0,5.91,0,8.87,0,.37-.05.75-.14,1.11-.17.71-.6,1.22-1.35,1.36-.5.1-1,.18-1.51.18-1.54.02-3.09.02-4.63,0-.45,0-.89-.1-1.34-.18-.54-.1-.9-.44-1.13-.93-.32-.66-.38-1.38-.38-2.09-.02-2.81,0-5.61-.01-8.42,0-.17,0-.34-.01-.51-.02-.24-.16-.38-.39-.41-.15-.02-.3-.03-.45-.03-1.17,0-2.33,0-3.5,0-.17,0-.34.02-.51.04-.3.03-.42.21-.43.49,0,.13,0,.26,0,.4,0,1.79,0,3.58,0,5.37h0c0,1.81-.05,3.62.01,5.42.08,2.49,1.27,4.35,3.79,5.07,1.02.29,2.07.41,3.12.42,2.48.01,4.97.01,7.45,0,1.12,0,2.21-.17,3.27-.51,1.38-.45,2.41-1.3,2.99-2.64.36-.83.57-1.72.57-2.63.01-3.5,0-7.01,0-10.51,0-.13,0-.26,0-.4Z"/>
          <path class="cls-1" d="M549.4,105.06c.98,0,1.92-.03,1.97-.04v-3.89h-1.68c.41-.9.85-1.68,1.25-2.58-.65,0-1.22-.04-1.8,0-.14,0-.28.32-.37.44-.47.63-.92,1.28-1.37,1.93-.08.12-.16.27-.16.41-.01,1.24,0,2.48,0,3.74.11.01,1.15.01,2.17,0Z"/>
        </g>
      </g>
      <rect class="cls-1" x="289.59" y="-123.36" width=".99" height="405.58" transform="translate(210.66 369.51) rotate(-90)"/>
    </g>
  </g>
</svg>