<?xml version="1.0" encoding="UTF-8"?>
<svg id="Layer_2" data-name="Layer 2" xmlns="http://www.w3.org/2000/svg" viewBox="0 0 42.52 31.69">
  <defs>
    <style>
      .cls-1 {
        fill: #ed1c24;
      }

      .cls-2 {
        fill: #fff;
      }

      .cls-3 {
        fill: #002839;
      }
    </style>
  </defs>
  <g id="Layer_1-2" data-name="Layer 1">
    <g>
      <g>
        <path class="cls-1" d="M14.55,16.17c1.17,0,2.35,0,3.52,0,.36,0,.47-.08.58-.42.74-2.27,1.49-4.53,2.23-6.8.04-.13.11-.24.26-.24.15,0,.22.1.26.23.75,2.28,1.5,4.56,2.25,6.84.1.3.22.38.54.38,2.36,0,4.73,0,7.09,0,.07,0,.15,0,.22.03.2.07.26.29.12.45-.04.05-.09.08-.14.12-1.94,1.42-3.87,2.84-5.81,4.25-.3.22-.33.31-.21.67.71,2.13,1.43,4.26,2.14,6.39.05.15.09.3.13.44.03.11.02.24-.09.28-.09.04-.21.02-.32,0-.05,0-.09-.06-.14-.09-1.9-1.38-3.8-2.76-5.7-4.14-.3-.22-.4-.22-.7,0-1.91,1.39-3.83,2.78-5.74,4.17-.06.05-.14.09-.21.1-.22.03-.35-.11-.29-.32.16-.52.33-1.05.5-1.57.58-1.75,1.17-3.49,1.76-5.24.01-.04.03-.09.04-.13.07-.24.03-.36-.17-.51-.62-.46-1.24-.91-1.86-1.37-1.34-.98-2.68-1.96-4.02-2.95-.03-.02-.06-.04-.09-.07-.1-.09-.14-.2-.09-.33.04-.13.15-.17.27-.19.05,0,.09,0,.14,0,1.17,0,2.35,0,3.52,0ZM22.82,20.47q.03.19-.13.31c-.85.61-1.67,1.24-2.46,1.93-.3.26-.58.55-.85.84-.11.12-.1.28,0,.38.11.1.3.11.41,0,.09-.08.17-.17.26-.26.36-.36.7-.75,1.08-1.08.48-.43.99-.81,1.5-1.22.05-.04.11-.08.17-.11.01.02.02.03.02.03,0,.66-.02,1.32-.02,1.98,0,.27,0,.53.03.8.02.16.19.24.35.21.15-.02.28-.19.27-.33-.01-.15-.09-.29-.06-.45,0-.02-.01-.04-.02-.07-.03-.15-.07-.3-.08-.44-.01-.28,0-.56,0-.83,0-.38,0-.77.02-1.15,0-.06.04-.14.09-.17.23-.17.47-.34.72-.49.94-.55,1.86-1.15,2.92-1.47.16-.05.28-.16.35-.32.06-.13-.02-.28-.15-.28-.12,0-.25.02-.36.06-.14.05-.26.13-.39.19-.1.05-.17.02-.19-.09-.02-.13-.03-.26-.03-.38,0-.25,0-.5,0-.76,0-.23-.1-.46-.39-.34-.13.05-.25.16-.36.25-.08.07-.15.11-.27.1-.28-.02-.53.08-.54.47,0,.07-.01.15-.01.22-.01.33-.03.66-.04.98,0,.16.08.23.23.19.17-.04.3-.19.31-.37.01-.23.01-.46.04-.69.03-.23.09-.46.3-.6.05-.03.12-.04.17-.03.03.01.06.09.05.14,0,.26-.02.51-.03.77,0,.16-.04.32.12.45-.85.5-1.69.98-2.52,1.46,0-.18,0-.37,0-.57.03-.47.06-.93.09-1.4,0-.12-.06-.17-.17-.18-.19-.02-.31.09-.33.28-.04.45-.09.9-.14,1.36-.01.08-.07.17-.14.23-.14.12-.28.06-.28-.12,0-.21,0-.42.04-.62.05-.19.17-.36.26-.53.03-.06.06-.12.07-.18.02-.13-.04-.2-.16-.15-.15.06-.3.15-.4.27-.39.5-.35,1.1-.29,1.68.02.16.21.27.38.23.17-.03.34-.09.51-.14ZM17.75,19.66s.03,0,.04,0c.01.04.03.09.04.13.04.23.09.47.12.7.1.63.2,1.25.3,1.88.04.27.09.54.15.8.02.07.09.16.15.17.07.02.17-.02.24-.07.05-.04.07-.12.08-.19.03-.16.05-.32.07-.49.06-.4.14-.8.19-1.2.03-.21.02-.43.06-.64.06-.36.13-.71.2-1.07.08-.37.16-.73.33-1.07.09-.19.13-.42.17-.63.13-.59.37-1.14.62-1.68.08-.17.21-.32.32-.47.07-.1.17-.19.23-.29.1-.16.05-.4-.09-.51-.17-.13-.37-.13-.52.02-.09.09-.17.19-.22.31-.24.62-.48,1.25-.7,1.88-.15.43-.27.87-.38,1.31-.15.64-.28,1.29-.41,1.94-.05.25-.08.5-.12.75-.04-.11-.06-.21-.07-.32-.02-.14-.02-.27-.05-.41-.04-.23-.11-.45-.15-.68-.08-.43-.14-.86-.22-1.29-.03-.17-.12-.25-.25-.26-.13,0-.24.07-.29.22-.21.63-.42,1.26-.63,1.89-.04.13,0,.23.12.27.11.04.24,0,.29-.12.07-.17.13-.34.2-.51.05-.13.11-.26.16-.4ZM20.67,20.58s0,0,0,0c0,.12,0,.24,0,.37,0,.11.07.17.19.15.19-.03.34-.19.35-.39.01-.18.03-.37.03-.55,0-.32.09-.59.38-.77.03-.02.06-.05.08-.07.08-.1.07-.21,0-.31-.07-.1-.15-.05-.24-.02-.12.04-.23.09-.36.12-.21.05-.33.14-.35.36-.04.37-.06.74-.09,1.1ZM20.19,21.43s-.01-.07,0-.1c.05-.45.11-.91.16-1.36,0-.09,0-.17,0-.26-.02-.15-.1-.19-.24-.14-.22.09-.31.28-.33.5-.02.23-.04.46-.05.69-.01.22-.03.45-.03.67,0,.06.03.16.07.18.06.02.15,0,.22-.03.08-.03.14-.09.21-.15ZM23.74,19.41c0,.11,0,.21.14.22.16.02.4-.2.4-.37,0-.17,0-.34.02-.51.02-.28.05-.56.06-.83,0-.06-.03-.16-.07-.18-.05-.03-.16-.01-.2.03-.08.08-.17.19-.19.3-.06.44-.1.89-.15,1.34ZM20.57,18.59c0-.13-.06-.21-.16-.19-.16.02-.37.24-.37.39,0,.1.04.16.15.17.15,0,.39-.22.39-.37ZM24.58,16.88s-.07-.08-.12-.09c-.17-.04-.38.12-.4.29-.02.14.06.23.2.21.13-.02.32-.23.32-.4Z"/>
        <path class="cls-3" d="M27.02,12.03v-.42s.02-.02.03-.02c.46,0,.93-.01,1.39,0,.28,0,.47.17.63.45v-.44c.06,0,.1,0,.14,0,.4,0,.8,0,1.2,0,.46,0,.77.31.77.77,0,.4,0,.8,0,1.2,0,.05,0,.09,0,.15h-.18c-.36,0-.71,0-1.07,0-.34,0-.62-.1-.82-.41,0,.1,0,.21,0,.31,0,.03-.05.09-.08.09-.44,0-.88,0-1.32,0-.26,0-.46-.14-.6-.36-.01-.02-.03-.03-.06-.07v.42s-.04.02-.06.02c-.43,0-.86.01-1.3,0-.47-.02-.74-.3-.75-.76,0-.41,0-.83,0-1.24,0-.1.04-.12.13-.12.41,0,.83,0,1.24,0,.27,0,.48.11.63.34.02.03.04.05.08.11ZM27.42,11.96v1.32h.33v-.38c.16.12.29.23.43.33.16.11.34.03.51.04-.07-.07-.14-.13-.21-.19-.07-.06-.15-.11-.24-.18.06-.01.1-.02.14-.03.21-.06.36-.27.34-.48-.02-.21-.18-.41-.39-.42-.31-.02-.62,0-.93,0ZM25.33,11.96c0,.36,0,.7,0,1.04q0,.31.31.28s.02,0,.04-.03v-.36h.63c0,.13.01.26.02.38h.33c0-.33.01-.64,0-.96,0-.18-.2-.35-.38-.35-.3-.01-.61,0-.93,0ZM30.8,13.28c0-.29,0-.57,0-.85,0-.28-.19-.46-.47-.47-.24,0-.49,0-.73,0-.04,0-.08,0-.12.01v1.31h.34v-.97c.15,0,.28,0,.42,0,.18,0,.22.04.22.23,0,.25,0,.49,0,.75h.34Z"/>
        <path class="cls-3" d="M25.62,28.6c0,.53-.41.95-.94.95-.52,0-.95-.43-.95-.95,0-.52.42-.94.94-.94.53,0,.95.41.95.94ZM24.22,28.61c0,.27.21.48.47.48.26,0,.46-.22.45-.49,0-.27-.21-.48-.47-.48-.26,0-.46.21-.45.49Z"/>
        <path class="cls-3" d="M20.97,28.61c0-.26,0-.53,0-.79,0-.11.03-.14.14-.13.19,0,.38,0,.58,0,.5.01.89.42.89.92,0,.5-.39.89-.88.91-.2,0-.4,0-.61,0-.1,0-.12-.04-.12-.12,0-.26,0-.53,0-.79ZM21.46,28.15v.92c.23.02.44-.02.57-.22.1-.17.1-.34-.01-.5-.13-.2-.33-.23-.55-.2Z"/>
        <path class="cls-3" d="M17.66,28.93c0,.16,0,.31,0,.47,0,.09-.02.13-.12.13-.36,0-.36.01-.36-.36,0-.44,0-.87,0-1.31v-.16c.34,0,.66-.02.98,0,.23.02.4.19.45.43.06.24,0,.45-.2.61-.02.02-.05.04-.08.07.12.23.24.45.37.71-.2,0-.35,0-.5,0-.03,0-.06-.05-.08-.08-.07-.13-.15-.26-.21-.4-.05-.11-.12-.15-.26-.11ZM17.67,28.52c.16-.02.34.06.43-.12.03-.06.02-.18-.02-.24-.1-.15-.27-.08-.42-.08v.44Z"/>
        <path class="cls-3" d="M20.71,29.52c-.15,0-.29.01-.42,0-.04,0-.07-.08-.12-.12-.04-.03-.09-.08-.13-.09-.16-.01-.33,0-.49,0-.08,0-.13.02-.14.1-.02.1-.09.13-.19.12-.11,0-.21,0-.34,0,.02-.07.03-.11.05-.15.24-.52.49-1.05.73-1.57.02-.05.08-.1.12-.11.04,0,.11.04.13.07.27.55.53,1.11.79,1.67,0,.02,0,.04,0,.08ZM20.03,28.9c-.08-.16-.15-.31-.23-.48-.08.18-.14.32-.21.48h.44Z"/>
        <path class="cls-3" d="M18,30.17c.2,0,.4-.02.59,0,.37.04.63.35.64.72,0,.39-.25.7-.63.74-.19.02-.39,0-.6,0v-1.47ZM18.29,30.43v.96c.21.02.4,0,.53-.19.12-.17.13-.35.03-.53-.12-.22-.32-.26-.56-.25Z"/>
        <path class="cls-3" d="M21.12,31.64v-1.47c.19,0,.36,0,.54,0,.14,0,.25.09.29.23.05.16.04.31-.07.42.08.1.19.19.22.3.08.25-.07.48-.34.51-.21.02-.42,0-.64,0ZM21.42,31.42c.14-.01.28.03.36-.1.03-.05.03-.15,0-.21-.08-.13-.23-.09-.36-.09v.4ZM21.43,30.41v.37c.21,0,.29-.07.28-.21,0-.13-.1-.18-.28-.17Z"/>
        <path class="cls-3" d="M19.53,30.17h.3c0,.17,0,.33,0,.49,0,.15,0,.3,0,.45,0,.19.12.3.3.3.18,0,.29-.12.3-.3,0-.26,0-.52,0-.77,0-.05,0-.1,0-.16h.32c-.01.38,0,.76-.05,1.13-.03.26-.32.41-.62.39-.31-.02-.51-.21-.54-.51,0-.05,0-.1,0-.15,0-.28,0-.56,0-.86Z"/>
        <path class="cls-3" d="M23.73,31.66c-.05,0-.09,0-.12,0-.14.02-.23-.02-.26-.17-.02-.12-.1-.17-.22-.15-.05,0-.1,0-.15,0-.2-.03-.34.02-.39.24,0,.03-.07.07-.11.07-.07.01-.14,0-.23,0,.02-.06.04-.1.05-.14.18-.43.37-.85.54-1.28.03-.08.08-.11.17-.11.09,0,.12.03.15.11.18.44.36.88.54,1.31.01.03.02.06.03.11ZM23.2,31.1c-.07-.17-.13-.33-.2-.52-.08.19-.14.35-.21.52h.41Z"/>
        <path class="cls-3" d="M22.9,27.69c.14,0,.26,0,.39,0,.03,0,.09.06.09.09,0,.55,0,1.1,0,1.65,0,.03-.05.06-.08.09,0,0-.02,0-.03,0-.46-.01-.37.08-.38-.36,0-.43,0-.86,0-1.29,0-.06,0-.11.01-.18Z"/>
        <path class="cls-3" d="M24.24,31.65h-.28v-1.47h.28v1.47Z"/>
        <path class="cls-2" d="M22.82,20.47c-.18.05-.34.1-.51.14-.17.03-.36-.07-.38-.23-.06-.59-.11-1.18.29-1.68.09-.12.25-.2.4-.27.12-.05.19.02.16.15-.01.06-.04.12-.07.18-.09.18-.21.35-.26.53-.05.2-.05.41-.04.62,0,.18.15.23.28.12.07-.06.13-.15.14-.23.06-.45.1-.9.14-1.36.02-.2.14-.3.33-.28.11.01.17.06.17.18-.03.47-.07.93-.09,1.4-.01.19,0,.38,0,.57.83-.48,1.67-.97,2.52-1.46-.16-.12-.12-.29-.12-.45,0-.26.02-.51.03-.77,0-.05-.02-.13-.05-.14-.05-.02-.12,0-.17.03-.21.14-.28.37-.3.6-.03.23-.03.46-.04.69-.01.18-.14.33-.31.37-.15.04-.23-.03-.23-.19,0-.33.03-.66.04-.98,0-.07.01-.15.01-.22.01-.39.26-.49.54-.47.12,0,.19-.03.27-.1.11-.1.23-.2.36-.25.29-.11.39.12.39.34,0,.25-.01.51,0,.76,0,.13,0,.26.03.38.02.11.09.14.19.09.13-.07.25-.14.39-.19.11-.04.24-.06.36-.06.14,0,.21.15.15.28-.07.16-.19.27-.35.32-1.06.32-1.98.92-2.92,1.47-.25.15-.48.32-.72.49-.05.04-.09.11-.09.17-.01.38-.02.77-.02,1.15,0,.28,0,.56,0,.83,0,.15.05.3.08.44,0,.02.02.05.02.07-.03.16.04.3.06.45.01.15-.12.31-.27.33-.16.03-.33-.05-.35-.21-.03-.26-.03-.53-.03-.8,0-.66.01-1.32.02-1.98,0,0,0-.01-.02-.03-.06.04-.12.07-.17.11-.5.4-1.01.79-1.5,1.22-.38.34-.72.72-1.08,1.08-.09.09-.17.17-.26.26-.11.1-.3.1-.41,0-.1-.1-.12-.26,0-.38.28-.29.56-.57.85-.84.78-.69,1.61-1.32,2.46-1.93q.16-.11.13-.31Z"/>
        <path class="cls-2" d="M17.75,19.66c-.05.13-.11.26-.16.4-.07.17-.13.34-.2.51-.05.12-.18.16-.29.12-.12-.05-.16-.14-.12-.27.21-.63.42-1.26.63-1.89.05-.15.16-.23.29-.22.14,0,.22.08.25.26.08.43.14.86.22,1.29.04.23.11.45.15.68.03.13.03.27.05.41.01.11.02.21.07.32.04-.25.07-.5.12-.75.13-.65.26-1.29.41-1.94.1-.44.23-.88.38-1.31.22-.63.46-1.26.7-1.88.04-.11.13-.22.22-.31.15-.15.36-.15.52-.02.14.11.19.35.09.51-.07.1-.16.19-.23.29-.11.15-.24.3-.32.47-.25.54-.49,1.09-.62,1.68-.05.21-.08.44-.17.63-.16.34-.25.7-.33,1.07-.08.35-.14.71-.2,1.07-.03.21-.03.43-.06.64-.06.4-.13.8-.19,1.2-.03.16-.04.33-.07.49-.01.07-.03.15-.08.19-.06.05-.17.09-.24.07-.06-.01-.14-.1-.15-.17-.06-.26-.11-.53-.15-.8-.1-.63-.2-1.25-.3-1.88-.04-.23-.08-.47-.12-.7,0-.04-.02-.09-.04-.13-.01,0-.03,0-.04,0Z"/>
        <path class="cls-2" d="M20.67,20.58c.03-.37.05-.74.09-1.1.02-.22.14-.31.35-.36.12-.03.24-.08.36-.12.09-.03.17-.07.24.02.07.1.08.21,0,.31-.02.03-.05.06-.08.07-.29.17-.37.45-.38.77,0,.18-.02.37-.03.55-.01.2-.16.35-.35.39-.12.02-.18-.04-.19-.15,0-.12,0-.24,0-.37,0,0,0,0,0,0Z"/>
        <path class="cls-2" d="M20.19,21.43c-.07.05-.14.12-.21.15-.07.03-.16.05-.22.03-.04-.02-.07-.12-.07-.18,0-.22.01-.45.03-.67.01-.23.03-.46.05-.69.02-.22.11-.41.33-.5.14-.06.22-.01.24.14.01.09.01.18,0,.26-.05.45-.11.91-.16,1.36,0,.03,0,.06,0,.1Z"/>
        <path class="cls-2" d="M23.74,19.41c.05-.45.09-.89.15-1.34.02-.11.11-.21.19-.3.04-.04.15-.05.2-.03.04.02.08.12.07.18-.01.28-.04.56-.06.83-.01.17-.01.34-.02.51,0,.17-.24.39-.4.37-.13-.02-.14-.12-.14-.22Z"/>
        <path class="cls-2" d="M20.57,18.59c0,.15-.25.38-.39.37-.11,0-.15-.07-.15-.17,0-.16.22-.37.37-.39.1-.02.17.06.16.19Z"/>
        <path class="cls-2" d="M24.58,16.88c0,.18-.19.38-.32.4-.14.02-.23-.06-.2-.21.03-.17.24-.33.4-.29.05.01.1.07.12.09Z"/>
        <path class="cls-3" d="M27.77,12.31c.16,0,.31,0,.47,0,.09,0,.15.06.16.15,0,.09-.06.15-.15.15-.15,0-.31,0-.47,0v-.3Z"/>
        <path class="cls-3" d="M26.31,12.6h-.62v-.3c.17,0,.34,0,.5,0,.12,0,.14.09.12.29Z"/>
      </g>
      <g>
        <path class="cls-1" d="M1.11,2.6L0,.04h.64l.97,2.27h-.38L2.21.04h.59l-1.11,2.56h-.59Z"/>
        <path class="cls-1" d="M4.23,2.65c-.2,0-.39-.03-.56-.1-.17-.07-.32-.16-.45-.28-.12-.12-.22-.26-.29-.42-.07-.16-.11-.34-.11-.53s.03-.37.11-.53c.07-.16.17-.3.29-.42.13-.12.27-.21.45-.28.17-.07.36-.1.56-.1s.39.03.56.1c.17.07.32.16.44.28.12.12.22.26.29.42.07.16.11.34.11.53s-.03.37-.11.53c-.07.16-.17.3-.29.42-.13.12-.27.21-.44.28-.17.07-.36.1-.55.1ZM4.22,2.14c.12,0,.22-.02.32-.06.1-.04.18-.1.25-.17s.13-.16.17-.26c.04-.1.06-.21.06-.33s-.02-.23-.06-.33c-.04-.1-.1-.19-.17-.26-.07-.07-.16-.13-.25-.17-.1-.04-.2-.06-.32-.06s-.22.02-.32.06c-.1.04-.18.1-.25.17-.07.07-.13.16-.17.26-.04.1-.06.21-.06.33s.02.23.06.33c.04.1.1.19.17.26s.16.13.25.17c.1.04.2.06.32.06Z"/>
        <path class="cls-1" d="M6.56,2.6V.53h-.82V.04h2.23v.48h-.82v2.08h-.59Z"/>
        <path class="cls-1" d="M8.89,2.13h1.39v.48h-1.98V.04h1.94v.48h-1.35v1.61ZM8.84,1.08h1.23v.46h-1.23v-.46Z"/>
        <path class="cls-1" d="M10.75,2.6V.04h1.16c.28,0,.52.05.74.16.21.11.38.25.5.44.12.19.18.42.18.68s-.06.48-.18.68c-.12.19-.28.34-.5.45-.21.11-.46.16-.74.16h-1.16ZM11.34,2.12h.54c.17,0,.32-.03.44-.1.13-.06.22-.16.29-.28.07-.12.1-.26.1-.42s-.03-.3-.1-.42c-.07-.12-.17-.21-.29-.27-.12-.06-.27-.1-.44-.1h-.54v1.59Z"/>
        <path class="cls-1" d="M15.34,2.6V.53h-.82V.04h2.23v.48h-.82v2.08h-.59Z"/>
        <path class="cls-1" d="M17.66,2.6h-.59V.04h.59v2.56ZM18.87,1.55h-1.25v-.5h1.25v.5ZM18.83.04h.59v2.56h-.59V.04Z"/>
        <path class="cls-1" d="M20.62,2.13h1.39v.48h-1.98V.04h1.94v.48h-1.35v1.61ZM20.57,1.08h1.23v.46h-1.23v-.46Z"/>
        <path class="cls-1" d="M23.52,2.6V.04h1.25c.32,0,.56.06.73.18.16.12.24.28.24.48,0,.13-.03.25-.1.35-.07.1-.16.17-.27.23-.12.05-.25.08-.4.08l.07-.15c.16,0,.3.03.43.08.12.05.22.13.29.23.07.1.1.23.1.38,0,.22-.09.39-.26.51-.17.12-.43.18-.76.18h-1.33ZM24.11,2.16h.69c.15,0,.27-.02.35-.07.08-.05.12-.13.12-.24s-.04-.19-.12-.24c-.08-.05-.2-.08-.35-.08h-.74v-.43h.63c.14,0,.25-.02.33-.08.08-.05.12-.13.12-.23s-.04-.17-.12-.22c-.08-.05-.19-.08-.33-.08h-.59v1.67Z"/>
        <path class="cls-1" d="M26.91,2.13h1.39v.48h-1.98V.04h1.94v.48h-1.35v1.61ZM26.86,1.08h1.23v.46h-1.23v-.46Z"/>
        <path class="cls-1" d="M29.62,2.65c-.21,0-.4-.03-.59-.08-.19-.05-.34-.13-.45-.21l.2-.45c.11.08.24.14.39.19.15.05.3.08.46.08.12,0,.21-.01.28-.03s.12-.06.16-.1c.03-.04.05-.09.05-.14,0-.07-.03-.12-.08-.16-.05-.04-.12-.07-.21-.1s-.18-.05-.29-.07-.21-.05-.32-.09c-.11-.03-.2-.08-.29-.13s-.16-.12-.21-.21c-.06-.09-.08-.2-.08-.34,0-.15.04-.28.12-.4.08-.12.2-.22.36-.29s.36-.11.6-.11c.16,0,.32.02.48.06.16.04.29.09.41.17l-.18.45c-.12-.07-.24-.12-.36-.15-.12-.03-.24-.05-.35-.05s-.21.01-.28.04c-.07.03-.13.06-.16.1-.03.04-.05.09-.05.15,0,.07.03.12.08.16.05.04.12.07.21.1.09.02.18.05.29.07s.21.05.32.08c.11.03.2.07.29.13.09.05.16.12.21.21.06.09.08.2.08.33,0,.14-.04.28-.12.39-.08.12-.2.22-.36.29s-.36.11-.61.11Z"/>
        <path class="cls-1" d="M31.6,2.6V.53h-.82V.04h2.23v.48h-.82v2.08h-.59Z"/>
        <path class="cls-1" d="M35.6,2.65c-.2,0-.39-.03-.56-.1s-.32-.16-.44-.28c-.12-.12-.22-.26-.29-.42-.07-.16-.11-.34-.11-.53s.03-.37.11-.53c.07-.16.17-.3.29-.42.13-.12.27-.21.45-.28s.36-.1.56-.1c.23,0,.43.04.61.11.18.08.34.19.46.33l-.38.35c-.09-.1-.19-.17-.3-.22-.11-.05-.23-.07-.36-.07s-.24.02-.34.06c-.1.04-.19.1-.26.17s-.13.16-.17.26c-.04.1-.06.21-.06.33s.02.23.06.33c.04.1.1.19.17.26s.16.13.26.17c.1.04.21.06.34.06s.23-.02.34-.06c.11-.04.22-.1.32-.19l.34.43c-.14.11-.3.19-.49.24-.18.06-.37.08-.55.08ZM36.1,2.25v-.96h.54v1.04l-.54-.08Z"/>
        <path class="cls-1" d="M37.83,2.6v-1.05l.13.36-1.13-1.87h.63l.86,1.44h-.36l.87-1.44h.58l-1.13,1.87.13-.36v1.05h-.59Z"/>
        <path class="cls-1" d="M39.64,2.6V.04h.49l1.09,1.81h-.26l1.07-1.81h.49v2.56s-.55,0-.55,0V.9s.1,0,.1,0l-.86,1.44h-.27l-.87-1.44h.12v1.71h-.56Z"/>
        <path class="cls-1" d="M0,5.9v-2.02h.47v2.02h-.47Z"/>
        <path class="cls-1" d="M.95,5.9v-2.02h.39l1.19,1.46h-.19v-1.46h.46v2.02h-.38l-1.2-1.46h.19v1.46h-.46Z"/>
        <path class="cls-1" d="M4.52,5.9v-1.64h-.65v-.38h1.76v.38h-.65v1.64h-.47Z"/>
        <path class="cls-1" d="M6.35,5.9h-.47v-2.02h.47v2.02ZM7.3,5.07h-.99v-.4h.99v.4ZM7.27,3.88h.47v2.02h-.47v-2.02Z"/>
        <path class="cls-1" d="M8.68,5.52h1.1v.38h-1.57v-2.02h1.53v.38h-1.06v1.27ZM8.65,4.69h.97v.36h-.97v-.36Z"/>
        <path class="cls-1" d="M11.87,5.93c-.29,0-.51-.08-.67-.24s-.24-.39-.24-.68v-1.13h.47v1.12c0,.19.04.33.12.42.08.08.19.13.33.13s.25-.04.33-.13c.08-.08.12-.22.12-.42v-1.12h.46v1.13c0,.3-.08.52-.24.68s-.39.24-.67.24Z"/>
        <path class="cls-1" d="M12.94,5.9l.9-2.02h.46l.9,2.02h-.49l-.74-1.78h.18l-.74,1.78h-.48ZM13.39,5.46l.12-.35h1.04l.13.35h-1.29Z"/>
        <path class="cls-1" d="M15.88,5.52h1.1v.38h-1.57v-2.02h1.53v.38h-1.06v1.27ZM15.84,4.69h.97v.36h-.97v-.36Z"/>
        <path class="cls-1" d="M18.03,5.9v-.3l.78-.74c.06-.06.11-.11.14-.15.03-.04.05-.08.06-.12,0-.04.02-.07.02-.1,0-.08-.03-.14-.08-.19-.06-.04-.14-.06-.24-.06-.08,0-.16.02-.24.05-.07.03-.13.08-.18.15l-.34-.22c.08-.12.18-.21.32-.27s.3-.1.48-.1c.15,0,.28.02.39.07.11.05.2.12.26.21.06.09.09.19.09.32,0,.07,0,.13-.02.19-.02.06-.05.13-.1.2s-.12.15-.21.24l-.65.61-.09-.17h1.14v.38h-1.53Z"/>
        <path class="cls-1" d="M20.61,5.93c-.17,0-.31-.04-.44-.12s-.23-.2-.31-.36c-.08-.16-.11-.34-.11-.57s.04-.41.11-.57c.08-.16.18-.28.31-.36.13-.08.28-.12.44-.12s.32.04.45.12c.13.08.23.2.31.36.08.16.11.34.11.57s-.04.41-.11.57c-.08.16-.18.27-.31.36s-.28.12-.45.12ZM20.61,5.54c.08,0,.15-.02.21-.07.06-.04.1-.11.14-.21.03-.1.05-.22.05-.37s-.02-.28-.05-.37c-.03-.1-.08-.17-.14-.21s-.13-.07-.21-.07-.14.02-.2.07-.11.11-.14.21c-.03.1-.05.22-.05.37s.02.28.05.37c.03.1.08.17.14.21.06.04.13.07.2.07Z"/>
        <path class="cls-1" d="M21.68,5.9v-.3l.78-.74c.06-.06.11-.11.14-.15.03-.04.05-.08.06-.12,0-.04.02-.07.02-.1,0-.08-.03-.14-.08-.19-.06-.04-.14-.06-.24-.06-.08,0-.16.02-.24.05-.07.03-.13.08-.18.15l-.34-.22c.08-.12.18-.21.32-.27s.3-.1.48-.1c.15,0,.28.02.39.07.11.05.2.12.26.21.06.09.09.19.09.32,0,.07,0,.13-.02.19-.02.06-.05.13-.1.2s-.12.15-.21.24l-.65.61-.09-.17h1.14v.38h-1.53Z"/>
        <path class="cls-1" d="M23.38,5.9v-.3l.78-.74c.06-.06.11-.11.14-.15.03-.04.05-.08.06-.12,0-.04.02-.07.02-.1,0-.08-.03-.14-.08-.19-.06-.04-.14-.06-.24-.06-.08,0-.16.02-.24.05-.07.03-.13.08-.18.15l-.34-.22c.08-.12.18-.21.32-.27s.3-.1.48-.1c.15,0,.28.02.39.07.11.05.2.12.26.21.06.09.09.19.09.32,0,.07,0,.13-.02.19-.02.06-.05.13-.1.2s-.12.15-.21.24l-.65.61-.09-.17h1.14v.38h-1.53Z"/>
        <path class="cls-1" d="M25.15,6.34l.19-.69.06.26c-.08,0-.15-.02-.2-.07s-.08-.11-.08-.2.03-.15.08-.2.12-.08.2-.08.15.03.2.08c.05.05.08.12.08.2,0,.03,0,.05,0,.07,0,.02-.01.05-.02.09-.01.03-.03.08-.05.13l-.16.42h-.29Z"/>
        <path class="cls-1" d="M26.69,5.9v-.3l.78-.74c.06-.06.11-.11.14-.15.03-.04.05-.08.06-.12,0-.04.02-.07.02-.1,0-.08-.03-.14-.08-.19-.06-.04-.14-.06-.24-.06-.08,0-.16.02-.24.05-.07.03-.13.08-.18.15l-.34-.22c.08-.12.18-.21.32-.27s.3-.1.48-.1c.15,0,.28.02.39.07.11.05.2.12.26.21.06.09.09.19.09.32,0,.07,0,.13-.02.19-.02.06-.05.13-.1.2s-.12.15-.21.24l-.65.61-.09-.17h1.14v.38h-1.53Z"/>
        <path class="cls-1" d="M29.28,5.93c-.17,0-.31-.04-.44-.12s-.23-.2-.31-.36c-.08-.16-.11-.34-.11-.57s.04-.41.11-.57c.08-.16.18-.28.31-.36.13-.08.28-.12.44-.12s.32.04.45.12c.13.08.23.2.31.36.08.16.11.34.11.57s-.04.41-.11.57c-.08.16-.18.27-.31.36s-.28.12-.45.12ZM29.28,5.54c.08,0,.15-.02.21-.07.06-.04.1-.11.14-.21.03-.1.05-.22.05-.37s-.02-.28-.05-.37c-.03-.1-.08-.17-.14-.21s-.13-.07-.21-.07-.14.02-.2.07-.11.11-.14.21c-.03.1-.05.22-.05.37s.02.28.05.37c.03.1.08.17.14.21.06.04.13.07.2.07Z"/>
        <path class="cls-1" d="M30.34,5.9v-.3l.78-.74c.06-.06.11-.11.14-.15.03-.04.05-.08.06-.12,0-.04.02-.07.02-.1,0-.08-.03-.14-.08-.19-.06-.04-.14-.06-.24-.06-.08,0-.16.02-.24.05-.07.03-.13.08-.18.15l-.34-.22c.08-.12.18-.21.32-.27s.3-.1.48-.1c.15,0,.28.02.39.07.11.05.2.12.26.21.06.09.09.19.09.32,0,.07,0,.13-.02.19-.02.06-.05.13-.1.2s-.12.15-.21.24l-.65.61-.09-.17h1.14v.38h-1.53Z"/>
        <path class="cls-1" d="M32.72,5.93c-.14,0-.28-.02-.42-.06-.14-.04-.26-.09-.35-.16l.18-.36c.08.06.17.1.27.13.1.03.21.05.31.05.12,0,.21-.02.28-.07.07-.05.1-.11.1-.19s-.03-.14-.09-.18c-.06-.04-.16-.07-.29-.07h-.21v-.31l.56-.64.05.17h-1.06v-.38h1.41v.3l-.56.64-.24-.14h.14c.25,0,.44.06.56.17.13.11.19.25.19.43,0,.11-.03.22-.09.32-.06.1-.15.18-.27.24-.12.06-.28.09-.47.09Z"/>
        <path class="cls-1" d="M33.79,6.34l.19-.69.06.26c-.08,0-.15-.02-.2-.07s-.08-.11-.08-.2.03-.15.08-.2.12-.08.2-.08.15.03.2.08c.05.05.08.12.08.2,0,.03,0,.05,0,.07,0,.02-.01.05-.02.09-.01.03-.03.08-.05.13l-.16.42h-.29Z"/>
        <path class="cls-1" d="M35.33,5.9v-.3l.78-.74c.06-.06.11-.11.14-.15.03-.04.05-.08.06-.12,0-.04.02-.07.02-.1,0-.08-.03-.14-.08-.19-.06-.04-.14-.06-.24-.06-.08,0-.16.02-.24.05-.07.03-.13.08-.18.15l-.34-.22c.08-.12.18-.21.32-.27s.3-.1.48-.1c.15,0,.28.02.39.07.11.05.2.12.26.21.06.09.09.19.09.32,0,.07,0,.13-.02.19-.02.06-.05.13-.1.2s-.12.15-.21.24l-.65.61-.09-.17h1.14v.38h-1.53Z"/>
        <path class="cls-1" d="M37.92,5.93c-.17,0-.31-.04-.44-.12s-.23-.2-.31-.36c-.08-.16-.11-.34-.11-.57s.04-.41.11-.57c.08-.16.18-.28.31-.36.13-.08.28-.12.44-.12s.32.04.45.12c.13.08.23.2.31.36.08.16.11.34.11.57s-.04.41-.11.57c-.08.16-.18.27-.31.36s-.28.12-.45.12ZM37.92,5.54c.08,0,.15-.02.21-.07.06-.04.1-.11.14-.21.03-.1.05-.22.05-.37s-.02-.28-.05-.37c-.03-.1-.08-.17-.14-.21s-.13-.07-.21-.07-.14.02-.2.07-.11.11-.14.21c-.03.1-.05.22-.05.37s.02.28.05.37c.03.1.08.17.14.21.06.04.13.07.2.07Z"/>
        <path class="cls-1" d="M38.98,5.9v-.3l.78-.74c.06-.06.11-.11.14-.15.03-.04.05-.08.06-.12,0-.04.02-.07.02-.1,0-.08-.03-.14-.08-.19-.06-.04-.14-.06-.24-.06-.08,0-.16.02-.24.05-.07.03-.13.08-.18.15l-.34-.22c.08-.12.18-.21.32-.27s.3-.1.48-.1c.15,0,.28.02.39.07.11.05.2.12.26.21.06.09.09.19.09.32,0,.07,0,.13-.02.19-.02.06-.05.13-.1.2s-.12.15-.21.24l-.65.61-.09-.17h1.14v.38h-1.53Z"/>
        <path class="cls-1" d="M40.65,5.47v-.31l.95-1.28h.49l-.93,1.28-.23-.07h1.59v.38h-1.87ZM41.74,5.9v-.81s.01-.38.01-.38h.44v1.18h-.46Z"/>
      </g>
    </g>
  </g>
</svg>