<?xml version="1.0" encoding="UTF-8"?>
<svg id="Layer_2" data-name="Layer 2" xmlns="http://www.w3.org/2000/svg" viewBox="0 0 41.19 21.81">
  <defs>
    <style>
      .cls-1 {
        fill: #ef213a;
      }
    </style>
  </defs>
  <g id="Layer_1-2" data-name="Layer 1">
    <g>
      <path class="cls-1" d="M31.14,4.88c2.04-1.33,2.22,1.1,2.11,2.59-.02.27-.14.51-.19.76-.02.11-.08.33.14.24.96-.4,1.13-4.61,3.15-4,.33.1.26.51.49.61l.12-.51h.83c.17.16-.79,4.06-.74,4.8,0,.12-.06.35.16.26s.97-1.67,1.09-1.98c.22-.61.52-2.74.71-2.99.16-.21.84-.06,1.11-.1-.07.7-1.06,4.76-.74,5.08.92-.15,1.1-1.49,1.49-2.21h.3c-.05.8-.79,2.83-1.59,3.1-1.15.4-1.23-.59-1.42-1.42-.42.63-.83,1.85-1.8,1.38l-.37-1.06c-.19.52-.55,1.13-1.14,1.24-1.37.27-1.02-1.99-1.24-1.99-.24.18-.64.35-.85.53-.44.38-.88,1.27-1.49,1.37-1.15.18-1.4-.76-1.53-1.69-.38.28-.45.85-.74,1.22-.64.81-1.78.66-1.8-.48-.33.23-.35.7-.77.87-1.13.46-1.41-.59-1.35-1.5l-.89,1.27c-.84.76-1.43.14-1.33-.85-.46.71-1.63,2.08-2.24.71-.55-1.23.29-5.05,1.64-5.6.73-.3.97.02,1.35.55l.84-4.82,1.06-.04c-.15.77-.22,1.57-.35,2.34-.31,1.84-1.15,4.39-1.14,6.17,0,1.27.89-.46,1.04-.87.4-1.06.48-2.21.78-3.29h1.15c-.25,1.3-.76,2.85-.84,4.17-.02.29-.11.86.26.9.67-.14,1.26-4.25,1.48-4.97l1.06-.1c.23.03-.78,4.01-.77,4.5,0,.14.12.55.25.58,1.5-1.13,1.44-3.3,1.78-4.99.22-1.09.64-4.57,2.04-4.63s.64,1.75.31,2.43c-.2.41-1.58,2.23-1.43,2.43ZM31.57,3.08c.38-.41.76-1.18.86-1.74.02-.13.14-.3-.07-.37s-.34.59-.45.71l-.34,1.4ZM22.99,5.41c-.06-.04-.26-.02-.34.01-.49.18-.99,2.35-1.03,2.88-.16,2.37.91.75,1.24-.34.13-.44.5-2.29.13-2.55ZM31.53,5.42c-.94.28-.97,3.08.29,3.26.3-.06.72-3.06.09-3.26-.12-.04-.26-.03-.38,0ZM34.95,9.53c.16.03.25-.01.38-.1.64-.43,1.56-3.73.82-4.01-.48-.15-.83.93-.96,1.34-.26.84-.48,1.91-.24,2.77ZM30.72,8.47c-.04.48.09,1.6.74,1,.1-.09.18-.14.06-.26l-.79-.74Z"/>
      <path class="cls-1" d="M1.23,9.62c.58.16.81-.35,1.06-.76.5-.83.75-1.77.93-2.71l.53.11c.1-2.07,2.6-2.69,2.85-.26.09.84-.07,1.67-.21,2.48,1.28-1.01,1.01-2.47,1.16-3.91h.95c.09.58-.27,1.08-.32,1.63-.07.69.06,1.72.11,2.44.01.19-.03.34.16.47.89-.82.26-1.78.26-2.69,0-.81.63-3.39,1.84-2.69s-.05,3.82-.63,4.74l.13.21c1.63.45,1.7-4.04,2.01-4.12h1.1c-.2,1.34-.78,2.97-.85,4.29-.01.29.02.52.11.79.39.27,1.03-1.1,1.14-1.35.5-1.18.63-2.47.77-3.73h1.16s-.1.74-.1.74c.36-.53,1.54-1.39,2.06-.63.58.85-.57,3.17-.67,4.18-.02.19-.08.71.15.78.55.17,1.15-1.82,1.42-2.17l.32.11c-.19.89-1.47,3.94-2.75,2.85-1.01-.87.48-3.59.52-4.67,0-.19-.03-.35-.26-.36-.55,0-1.06,1.65-1.18,2.1-.18.69-.33,2.43-.58,2.91-.04.07-.05.15-.15.17h-.99s.11-.73.11-.73c-1.23,1.56-2.31.54-2.11-1.16-.27.12-.51.35-.82.4-.27.04-.65-.1-.77-.04-.49.25-.85,1.87-1.9,1.54l-.27-2.85c-.18.85-.96,1-1.4,1.41s-.39,1-1.23,1.36c-1.39.61-1.77-.26-1.98-1.45-.02-.14-.03-.33-.21-.16-.31.73-.93,2.06-1.91,1.75-.34-.1-.68-.63-.73-.97C-.24,7.73.56,1.83,1.91.34c.42-.47,1.06-.47,1.36.11.61,1.16-.59,4.03-1.19,5.14-.19.36-.89,1.23-.95,1.48-.1.42-.24,2.34.1,2.55ZM2.81.96c-.21-.25-.57.82-.6.93-.44,1.22-.69,2.65-.88,3.93l.55-.99c.49-1.24.99-2.52.93-3.88ZM10.1,4.24c-.38,0-.49.45-.58.74-.23.74-.29,1.56-.26,2.33.3.05.17-.07.24-.23.15-.38.79-2.62.61-2.83ZM5.24,8.58c.06-.9.68-2.21.26-3.07-.07-.15-.25-.23-.42-.22-.8.07-1.1,3.24.15,3.28ZM4.09,9.62c.24.15.7-.18.73-.46l-1.06-1.11c-.01.27.16,1.47.33,1.57Z"/>
      <path class="cls-1" d="M26.7,18.41c.25.8-.87.58-.62,1.31s1.62-.69,1.57-1.26c-.19-.22-.49-.15-.73-.32-.93-.65,0-4.2,1.41-3.42.92.51.34,2.33.17,3.16.51.09.67-.3.82-.72.37-1.04.54-4.6,1.51-5.05,1.2-.55.4,2.14.19,2.63-.23.54-.64,1.01-.85,1.47-.27.59-.33,1.71-1.06,2-.24.1-.55.04-.71.13-.29.17-.48,1.42-1.19,1.77-1.86.91-2.39-1.72-.5-1.71ZM30.4,15.45c.28-.94.85-1.82.74-2.85-.18.03-.18.21-.24.34-.24.55-.5,1.57-.58,2.17-.01.11-.12.36.08.34ZM27.76,17.88c.11-.45.7-2.62.16-2.75-.26.02-.34.43-.42.64-.18.53-.63,2.12.26,2.11Z"/>
      <path class="cls-1" d="M23.11,17.78c-.68,3-5.07,1.34-3.17-1.22.27-.37,1.64-1.14,1.8-.63.12.39-.54.41-.81.56-1.27.71-.85,2.81.47,2.49,1.23-.3,1.48-2.7,1.4-3.74h.74c.13.13-.3,1.79-.16,2.23.22.7,1.53.65,1.64-.11-1.49-.09-1.05-2.91,0-3.23,1.93-.61,1.3,2.9.47,3.75-.63.65-1.8.6-2.37-.1ZM25.33,16.93c0-.69.3-1.37.22-2.07s-.45-.24-.59.16c-.19.57-.28,1.22-.11,1.8l.48.1Z"/>
      <path class="cls-1" d="M16.02,15.24c-.3,1.15-.34,2.84-1.8,3.07.75.94.12,1.73-.87,2.04-2,.63-4.89-.27-4.13-2.86.4-1.37,2.49-1.6,2.09.08-.12.49-.33.61-.8.41.09-.39.38-.74.21-1.16-.83-.11-.93,1.37-.84,1.95.25,1.56,3.92,1.66,3.98.2.05-.99-2.17-.4-1.66-1.62.55-.01.93.54,1.47.59,1.28.13,1.41-1.83,1.6-2.69h.73Z"/>
      <path class="cls-1" d="M15.81,18.3v-.32c.51-.04,1.5.16,1.84-.32s.68-2.45-.02-2.62c-.75-.19-.38,1.01-.84,1.13l-.3-.09c-.29-.94.75-1.82,1.63-1.32,1.15.66.27,3.53-.47,3.53h-1.85Z"/>
      <rect class="cls-1" x="31.04" y="16.72" width="9.3" height=".32"/>
      <rect class="cls-1" x=".27" y="16.72" width="7.72" height=".32"/>
      <path class="cls-1" d="M13.04,2.04c1.11-.1.76,1.92-.32,1.76-.88-.14-.52-1.69.32-1.76Z"/>
      <path class="cls-1" d="M40.1,2.05c1.08-.05.64,1.96-.42,1.75-.91-.17-.44-1.72.42-1.75Z"/>
      <path class="cls-1" d="M21.38,17.05c.34-.03.51.59.14.78-.66.33-.74-.73-.14-.78Z"/>
      <path class="cls-1" d="M11.24,21.66l-.6.12c-.35-.88.94-1.25.6-.12Z"/>
      <path class="cls-1" d="M25.74,12.08c.07.29.02.59-.27.71-.8.23-.42-1.14.27-.71Z"/>
      <path class="cls-1" d="M25.93,12.82c.53-.04.39,1.02-.22.82-.32-.11-.22-.78.22-.82Z"/>
      <path class="cls-1" d="M11.97,20.97c.53-.04.39,1.02-.22.82-.32-.11-.22-.78.22-.82Z"/>
      <path class="cls-1" d="M24.61,13.15c.26-.31.75-.12.59.43-.18.63-1.02.09-.59-.43Z"/>
      <path class="cls-1" d="M14.97,19.46l.11-.72c1.03-.22.61,1.01-.11.72Z"/>
    </g>
  </g>
</svg>