<?xml version="1.0" encoding="UTF-8"?>
<svg id="Layer_2" data-name="Layer 2" xmlns="http://www.w3.org/2000/svg" viewBox="0 0 20.82 26.5">
  <defs>
    <style>
      .cls-1 {
        fill: #00293b;
      }
    </style>
  </defs>
  <g id="Layer_1-2" data-name="Layer 1">
    <g>
      <path class="cls-1" d="M16.56,11.52c1.54-.04,1.54-2.29,0-2.34-1.54.04-1.54,2.29,0,2.34Z"/>
      <path class="cls-1" d="M2.04,26.5h2.12v-5.5h-2.12v5.5Z"/>
      <path class="cls-1" d="M16.56,14.1c-.78,0-1.42.64-1.42,1.42v1.04h2.84v-1.04c.02-.76-.65-1.44-1.42-1.42Z"/>
      <path class="cls-1" d="M13.81,26.5h2.12v-5.5h-2.12v5.5Z"/>
      <rect class="cls-1" x="16.88" y="22.87" width="1.1" height="1.74"/>
      <rect class="cls-1" x="9.46" width="5.68" height="1.33"/>
      <rect class="cls-1" x="13.25" y="4.73" width="4.73" height="1.42"/>
      <path class="cls-1" d="M15.62,2.27s-6.62.01-6.65,0H3.78v17.77h.86c.26,0,.47.22.47.48v1.4h7.75v-1.4c0-.26.21-.48.47-.48h3.08c.26,0,.47.22.47.48v1.4h1.57c.26,0,.47.21.47.48v1.25h1.9V2.27h-5.2ZM10.27,15.47l-2.53,2.52c-.09.1-.21.14-.33.14s-.24-.04-.34-.14l-1.26-1.26c-.43-.44.23-1.1.67-.67l.93.93,2.19-2.19c.44-.43,1.1.23.67.67ZM10.27,11.06l-2.53,2.52c-.09.09-.21.14-.33.14-.13,0-.25-.05-.34-.14l-1.26-1.26c-.43-.44.23-1.11.67-.67l.93.93,2.19-2.19c.44-.44,1.1.23.67.67ZM10.27,6.64l-2.53,2.52c-.17.19-.49.19-.67,0l-1.26-1.26c-.43-.44.23-1.1.67-.67l.93.93,2.19-2.19c.44-.44,1.1.23.67.67ZM18.92,17.03c0,.26-.21.47-.47.47h-3.79c-.26,0-.47-.21-.47-.47v-1.51c0-1.31,1.06-2.37,2.37-2.37,1.27-.03,2.39,1.1,2.36,2.37v1.51ZM16.56,8.23c2.79.09,2.79,4.14,0,4.23-2.79-.09-2.8-4.14,0-4.23ZM18.92,6.62c0,.26-.21.47-.47.47h-5.68c-.26,0-.47-.21-.47-.47v-2.37c0-.26.21-.47.47-.47h5.68c.26,0,.47.21.47.47v2.37ZM15.62,2.27s-6.62.01-6.65,0H3.78v17.77h.86c.26,0,.47.22.47.48v1.4h7.75v-1.4c0-.26.21-.48.47-.48h3.08c.26,0,.47.22.47.48v1.4h1.57c.26,0,.47.21.47.48v1.25h1.9V2.27h-5.2ZM10.27,15.47l-2.53,2.52c-.09.1-.21.14-.33.14s-.24-.04-.34-.14l-1.26-1.26c-.43-.44.23-1.1.67-.67l.93.93,2.19-2.19c.44-.43,1.1.23.67.67ZM10.27,11.06l-2.53,2.52c-.09.09-.21.14-.33.14-.13,0-.25-.05-.34-.14l-1.26-1.26c-.43-.44.23-1.11.67-.67l.93.93,2.19-2.19c.44-.44,1.1.23.67.67ZM10.27,6.64l-2.53,2.52c-.17.19-.49.19-.67,0l-1.26-1.26c-.43-.44.23-1.1.67-.67l.93.93,2.19-2.19c.44-.44,1.1.23.67.67ZM18.92,17.03c0,.26-.21.47-.47.47h-3.79c-.26,0-.47-.21-.47-.47v-1.51c0-1.31,1.06-2.37,2.37-2.37,1.27-.03,2.39,1.1,2.36,2.37v1.51ZM16.56,8.23c2.79.09,2.79,4.14,0,4.23-2.79-.09-2.8-4.14,0-4.23ZM18.92,6.62c0,.26-.21.47-.47.47h-5.68c-.26,0-.47-.21-.47-.47v-2.37c0-.26.21-.47.47-.47h5.68c.26,0,.47.21.47.47v2.37ZM15.62,2.27s-6.62.01-6.65,0H3.78v17.77h.86c.26,0,.47.22.47.48v1.4h7.75v-1.4c0-.26.21-.48.47-.48h3.08c.26,0,.47.22.47.48v1.4h1.57c.26,0,.47.21.47.48v1.25h1.9V2.27h-5.2ZM10.27,15.47l-2.53,2.52c-.09.1-.21.14-.33.14s-.24-.04-.34-.14l-1.26-1.26c-.43-.44.23-1.1.67-.67l.93.93,2.19-2.19c.44-.43,1.1.23.67.67ZM10.27,11.06l-2.53,2.52c-.09.09-.21.14-.33.14-.13,0-.25-.05-.34-.14l-1.26-1.26c-.43-.44.23-1.11.67-.67l.93.93,2.19-2.19c.44-.44,1.1.23.67.67ZM10.27,6.64l-2.53,2.52c-.17.19-.49.19-.67,0l-1.26-1.26c-.43-.44.23-1.1.67-.67l.93.93,2.19-2.19c.44-.44,1.1.23.67.67ZM18.92,17.03c0,.26-.21.47-.47.47h-3.79c-.26,0-.47-.21-.47-.47v-1.51c0-1.31,1.06-2.37,2.37-2.37,1.27-.03,2.39,1.1,2.36,2.37v1.51ZM16.56,8.23c2.79.09,2.79,4.14,0,4.23-2.79-.09-2.8-4.14,0-4.23ZM18.92,6.62c0,.26-.21.47-.47.47h-5.68c-.26,0-.47-.21-.47-.47v-2.37c0-.26.21-.47.47-.47h5.68c.26,0,.47.21.47.47v2.37ZM15.62,2.27s-6.62.01-6.65,0H3.78v17.77h.86c.26,0,.47.22.47.48v1.4h7.75v-1.4c0-.26.21-.48.47-.48h3.08c.26,0,.47.22.47.48v1.4h1.57c.26,0,.47.21.47.48v1.25h1.9V2.27h-5.2ZM10.27,15.47l-2.53,2.52c-.09.1-.21.14-.33.14s-.24-.04-.34-.14l-1.26-1.26c-.43-.44.23-1.1.67-.67l.93.93,2.19-2.19c.44-.43,1.1.23.67.67ZM10.27,11.06l-2.53,2.52c-.09.09-.21.14-.33.14-.13,0-.25-.05-.34-.14l-1.26-1.26c-.43-.44.23-1.11.67-.67l.93.93,2.19-2.19c.44-.44,1.1.23.67.67ZM10.27,6.64l-2.53,2.52c-.17.19-.49.19-.67,0l-1.26-1.26c-.43-.44.23-1.1.67-.67l.93.93,2.19-2.19c.44-.44,1.1.23.67.67ZM18.92,17.03c0,.26-.21.47-.47.47h-3.79c-.26,0-.47-.21-.47-.47v-1.51c0-1.31,1.06-2.37,2.37-2.37,1.27-.03,2.39,1.1,2.36,2.37v1.51ZM16.56,8.23c2.79.09,2.79,4.14,0,4.23-2.79-.09-2.8-4.14,0-4.23ZM18.92,6.62c0,.26-.21.47-.47.47h-5.68c-.26,0-.47-.21-.47-.47v-2.37c0-.26.21-.47.47-.47h5.68c.26,0,.47.21.47.47v2.37ZM15.62,2.27s-6.62.01-6.65,0H3.78v17.77h.86c.26,0,.47.22.47.48v1.4h7.75v-1.4c0-.26.21-.48.47-.48h3.08c.26,0,.47.22.47.48v1.4h1.57c.26,0,.47.21.47.48v1.25h1.9V2.27h-5.2ZM10.27,15.47l-2.53,2.52c-.09.1-.21.14-.33.14s-.24-.04-.34-.14l-1.26-1.26c-.43-.44.23-1.1.67-.67l.93.93,2.19-2.19c.44-.43,1.1.23.67.67ZM10.27,11.06l-2.53,2.52c-.09.09-.21.14-.33.14-.13,0-.25-.05-.34-.14l-1.26-1.26c-.43-.44.23-1.11.67-.67l.93.93,2.19-2.19c.44-.44,1.1.23.67.67ZM10.27,6.64l-2.53,2.52c-.17.19-.49.19-.67,0l-1.26-1.26c-.43-.44.23-1.1.67-.67l.93.93,2.19-2.19c.44-.44,1.1.23.67.67ZM18.92,17.03c0,.26-.21.47-.47.47h-3.79c-.26,0-.47-.21-.47-.47v-1.51c0-1.31,1.06-2.37,2.37-2.37,1.27-.03,2.39,1.1,2.36,2.37v1.51ZM16.56,8.23c2.79.09,2.79,4.14,0,4.23-2.79-.09-2.8-4.14,0-4.23ZM18.92,6.62c0,.26-.21.47-.47.47h-5.68c-.26,0-.47-.21-.47-.47v-2.37c0-.26.21-.47.47-.47h5.68c.26,0,.47.21.47.47v2.37ZM15.62,2.27s-6.62.01-6.65,0H3.78v17.77h.86c.26,0,.47.22.47.48v1.4h7.75v-1.4c0-.26.21-.48.47-.48h3.08c.26,0,.47.22.47.48v1.4h1.57c.26,0,.47.21.47.48v1.25h1.9V2.27h-5.2ZM10.27,15.47l-2.53,2.52c-.09.1-.21.14-.33.14s-.24-.04-.34-.14l-1.26-1.26c-.43-.44.23-1.1.67-.67l.93.93,2.19-2.19c.44-.43,1.1.23.67.67ZM10.27,11.06l-2.53,2.52c-.09.09-.21.14-.33.14-.13,0-.25-.05-.34-.14l-1.26-1.26c-.43-.44.23-1.11.67-.67l.93.93,2.19-2.19c.44-.44,1.1.23.67.67ZM10.27,6.64l-2.53,2.52c-.17.19-.49.19-.67,0l-1.26-1.26c-.43-.44.23-1.1.67-.67l.93.93,2.19-2.19c.44-.44,1.1.23.67.67ZM18.92,17.03c0,.26-.21.47-.47.47h-3.79c-.26,0-.47-.21-.47-.47v-1.51c0-1.31,1.06-2.37,2.37-2.37,1.27-.03,2.39,1.1,2.36,2.37v1.51ZM16.56,8.23c2.79.09,2.79,4.14,0,4.23-2.79-.09-2.8-4.14,0-4.23ZM18.92,6.62c0,.26-.21.47-.47.47h-5.68c-.26,0-.47-.21-.47-.47v-2.37c0-.26.21-.47.47-.47h5.68c.26,0,.47.21.47.47v2.37Z"/>
      <rect class="cls-1" y="22.87" width="1.1" height="1.74"/>
      <rect class="cls-1" x="5.11" y="22.87" width="7.75" height="1.74"/>
    </g>
  </g>
</svg>