<?xml version="1.0" encoding="UTF-8"?>
<svg id="Layer_2" data-name="Layer 2" xmlns="http://www.w3.org/2000/svg" viewBox="0 0 26.38 28.39">
  <defs>
    <style>
      .cls-1 {
        fill: #00293b;
      }
    </style>
  </defs>
  <g id="Layer_1-2" data-name="Layer 1">
    <g>
      <path class="cls-1" d="M11.72,7.18c-.98,0-1.83-.69-2.03-1.65-5.34,1.93-8.11,7.83-6.17,13.18,1.93,5.34,7.83,8.11,13.18,6.17,5.34-1.93,8.11-7.83,6.17-13.18-.56-1.56-1.5-2.96-2.72-4.08-.79-.72-.9-1.92-.26-2.77-1.33-.86-2.81-1.45-4.37-1.75-.05.35-.18.68-.4.96l-1.74,2.29c-.39.52-1.01.82-1.66.82ZM5.55,15.98c-.35,0-.62-.3-.62-.65,0-.34.28-.61.62-.62h1.19c.35,0,.62.3.62.65,0,.34-.28.61-.62.62h-1.19ZM8.79,20.57l-.84.84c-.24.25-.64.25-.89,0-.25-.24-.25-.64,0-.89,0,0,0,0,0,0l.84-.84c.25-.24.65-.24.89,0,.24.25.24.64,0,.88h0ZM9.06,11.15c-.25.25-.65.25-.89,0l-.84-.84c-.25-.24-.25-.64,0-.89.24-.25.64-.25.89,0,0,0,0,0,0,0l.84.84c.25.25.25.65,0,.89ZM13.83,23.38c0,.35-.27.64-.62.65-.35,0-.64-.27-.65-.62,0-.01,0-.02,0-.03v-1.19c0-.35.27-.64.62-.65.35,0,.64.27.65.62,0,.01,0,.02,0,.03v1.19ZM21.01,14.71c.35,0,.62.3.62.65,0,.34-.28.61-.62.62h-1.19c-.35,0-.64-.27-.65-.62s.27-.64.62-.65c.01,0,.02,0,.03,0h1.19ZM17.63,9.94l.84-.84c.24-.25.64-.25.89,0,.25.24.25.64,0,.89,0,0,0,0,0,0l-.84.84c-.24.25-.64.25-.89,0-.25-.24-.25-.64,0-.89,0,0,0,0,0,0ZM17.41,19.51c.25-.25.65-.25.89,0l.84.84c.24.25.24.65-.01.89-.25.24-.64.24-.88,0l-.84-.84c-.25-.25-.25-.65,0-.89ZM13.83,9.55v4.79l1.44-1.38c.25-.25.64-.25.89,0,.25.25.25.64,0,.89,0,0-.02.02-.02.02l-2.51,2.41c-.25.24-.65.23-.89-.02-.11-.12-.18-.27-.18-.44v-6.27c0-.35.3-.62.65-.62.34,0,.61.28.62.62h0Z"/>
      <path class="cls-1" d="M22.1,5.48c-.33-.31-.85-.28-1.16.05-.31.33-.28.85.05,1.16,4.7,4.31,5.02,11.61.71,16.31-4.31,4.7-11.61,5.02-16.31.71C.69,19.4.37,12.09,4.68,7.39c1.84-2.01,4.34-3.3,7.04-3.65l-.65.86c-.27.36-.2.87.16,1.15.36.27.87.2,1.15-.16l1.74-2.29c.25-.33.21-.8-.08-1.08L11.96.23c-.33-.31-.84-.3-1.16.02-.31.33-.3.84.02,1.16l.74.71C4.33,3.02-.8,9.6.1,16.83c.9,7.23,7.49,12.36,14.71,11.46,7.23-.9,12.36-7.49,11.46-14.71-.39-3.11-1.87-5.98-4.18-8.09Z"/>
    </g>
  </g>
</svg>