<svg width="206" height="62" viewBox="0 0 206 62" fill="none" xmlns="http://www.w3.org/2000/svg">
<path d="M198.371 61.037H7.63061C3.35801 61.037 0.000976562 57.68 0.000976562 53.4074V7.62963C0.000976562 3.35704 3.35801 0 7.63061 0H198.371C202.644 0 206.001 3.35704 206.001 7.62963V53.4074C206.001 57.5274 202.644 61.037 198.371 61.037Z" fill="#F4CD00"/>
<path d="M198.371 1.22074C201.881 1.22074 204.78 4.12 204.78 7.62963V53.4074C204.78 56.917 201.881 59.8163 198.371 59.8163H7.63061C4.12098 59.8163 1.22172 56.917 1.22172 53.4074V7.62963C1.22172 4.12 4.12098 1.22074 7.63061 1.22074H198.371ZM198.371 0H7.63061C3.35801 0 0.000976562 3.35704 0.000976562 7.62963V53.4074C0.000976562 57.68 3.35801 61.037 7.63061 61.037H198.371C202.644 61.037 206.001 57.68 206.001 53.4074V7.62963C206.001 3.35704 202.644 0 198.371 0Z" fill="#F4CD00"/>
<path d="M104.07 33.1123C100.407 33.1123 97.5081 35.8589 97.5081 39.6738C97.5081 43.4886 100.407 46.2352 104.07 46.2352C107.732 46.2352 110.631 43.4886 110.631 39.6738C110.479 35.8589 107.579 33.1123 104.07 33.1123ZM104.07 43.4886C102.086 43.4886 100.407 41.8101 100.407 39.5212C100.407 37.2323 102.086 35.5538 104.07 35.5538C106.053 35.5538 107.732 37.0797 107.732 39.5212C107.732 41.9627 106.053 43.4886 104.07 43.4886ZM89.8785 33.1123C86.2163 33.1123 83.317 35.8589 83.317 39.6738C83.317 43.4886 86.2163 46.2352 89.8785 46.2352C93.5407 46.2352 96.44 43.4886 96.44 39.6738C96.44 35.8589 93.3881 33.1123 89.8785 33.1123ZM89.8785 43.4886C87.8948 43.4886 86.2163 41.8101 86.2163 39.5212C86.2163 37.2323 87.8948 35.5538 89.8785 35.5538C91.8622 35.5538 93.5407 37.0797 93.5407 39.5212C93.5407 41.9627 91.7096 43.4886 89.8785 43.4886ZM72.9407 35.096V37.8427H79.5022C79.5022 39.3686 78.7393 40.5893 77.9763 41.3523C77.2133 42.1152 75.5348 43.336 72.9407 43.336C68.8207 43.336 65.7689 40.1315 65.7689 36.0115C65.7689 31.8915 68.9733 28.6871 72.9407 28.6871C76.9081 28.6871 76.7556 29.6027 77.9763 30.6708L79.96 28.6871C78.2815 27.1612 76.1452 25.9404 73.0933 25.9404C67.6 25.9404 62.8696 30.5182 62.8696 36.0115C62.8696 41.5049 67.6 46.0827 73.0933 46.0827C78.5867 46.0827 78.2815 45.1671 80.1126 43.1834C81.9437 41.3523 82.5541 38.7582 82.5541 36.7745C82.5541 34.7908 82.5541 35.5538 82.5541 35.096H73.0933H72.9407ZM142.065 37.2323C141.455 35.7064 139.929 33.1123 136.572 33.1123C133.215 33.1123 130.468 35.7064 130.468 39.6738C130.468 43.6412 133.215 46.2352 136.877 46.2352C140.539 46.2352 141.607 44.4041 142.218 43.336L140.081 41.8101C139.319 42.8782 138.403 43.6412 136.877 43.6412C135.351 43.6412 134.436 43.0308 133.673 41.6575L142.37 37.9952L142.065 37.2323ZM133.215 39.3686C133.215 36.9271 135.199 35.5538 136.572 35.5538C137.945 35.5538 138.708 36.1641 139.013 36.9271L133.215 39.3686ZM126.196 45.7775H129.095V26.7034H126.196V45.7775ZM121.465 34.6382C120.702 33.8752 119.481 33.1123 117.956 33.1123C114.751 33.1123 111.699 36.0115 111.699 39.6738C111.699 43.336 114.599 46.0827 117.956 46.0827C121.313 46.0827 120.702 45.3197 121.313 44.5567V45.4723C121.313 47.9138 119.939 49.2871 117.803 49.2871C115.667 49.2871 114.904 48.0664 114.599 46.9982L112.157 48.0664C112.92 49.7449 114.751 51.8812 117.956 51.8812C121.16 51.8812 124.059 49.8975 124.059 45.1671V33.5701H121.313V34.6382H121.465ZM118.261 43.4886C116.277 43.4886 114.599 41.8101 114.599 39.5212C114.599 37.2323 116.277 35.5538 118.261 35.5538C120.244 35.5538 121.77 37.2323 121.77 39.5212C121.618 41.9627 120.092 43.4886 118.261 43.4886ZM155.341 26.7034H148.474V45.7775H151.373V38.6056H155.341C158.545 38.6056 161.597 36.3167 161.597 32.6545C161.597 28.9923 158.545 26.7034 155.341 26.7034ZM155.493 35.8589H151.373V29.2975H155.493C157.63 29.2975 158.85 31.1286 158.85 32.5019C158.85 33.8752 157.63 35.8589 155.493 35.8589ZM173.041 33.1123C170.905 33.1123 168.769 34.0278 168.006 36.0115L170.6 37.0797C171.21 36.0115 172.126 35.7064 173.194 35.7064C174.72 35.7064 176.093 36.6219 176.246 38.1478C175.788 38.1478 174.567 37.5375 173.347 37.5375C170.6 37.5375 167.853 39.0634 167.853 41.8101C167.853 44.5567 170.142 46.0827 172.584 46.0827C175.025 46.0827 175.483 45.1671 176.246 44.2515H176.399V45.7775H179.145V38.453C178.84 34.9434 176.399 33.1123 173.041 33.1123ZM172.736 43.4886C171.821 43.4886 170.447 43.0308 170.447 41.8101C170.447 40.5893 172.126 39.8264 173.499 39.8264C174.873 39.8264 175.33 40.1315 176.093 40.4367C176.093 42.2678 174.415 43.4886 172.736 43.4886ZM188.911 33.5701L185.707 41.8101H185.554L182.197 33.5701H179.145L184.181 45.1671L181.281 51.576H184.181L191.963 33.5701H188.911ZM163.276 45.7775H166.175V26.7034H163.276V45.7775Z" fill="#022A3A"/>
<g filter="url(#filter0_d_2324_10300)">
<path d="M16.0232 11.4443C15.5654 11.9021 15.2603 12.6651 15.2603 13.5806V47.3036C15.2603 48.2192 15.5654 48.9821 16.0232 49.4399L34.9447 30.671V30.2132L15.8706 11.4443H16.0232Z" fill="#5BC9F4"/>
<path d="M41.2009 36.9274L34.9446 30.6711V30.2133L41.2009 23.957L48.6779 28.3822C50.8142 29.603 50.8142 31.5867 48.6779 32.8074L41.0483 36.9274H41.2009Z" fill="url(#paint0_linear_2324_10300)"/>
<path d="M41.3533 36.9274L34.9444 30.5186L16.0229 49.44C16.7859 50.203 17.8541 50.203 19.2274 49.44L41.3533 36.7748" fill="url(#paint1_linear_2324_10300)"/>
<path d="M41.3536 23.9572L19.075 11.292C17.7017 10.529 16.6336 10.6816 15.8706 11.292L34.9447 30.366L41.3536 23.8046V23.9572Z" fill="url(#paint2_linear_2324_10300)"/>
</g>
<path d="M107.578 22.126C106.663 22.126 105.9 21.8209 105.29 21.3631C104.679 20.7527 104.527 19.9898 104.527 19.0742V18.1586C104.527 17.8535 104.527 17.3957 104.832 16.9379H105.442C105.442 17.5483 105.442 18.006 105.442 18.3112C105.442 19.0742 105.442 19.8372 106.053 20.2949C106.663 20.7527 106.968 20.9053 107.731 20.9053C108.494 20.9053 109.41 20.9053 110.173 20.2949C110.935 19.6846 111.546 19.3794 111.851 18.769C111.088 17.2431 110.783 16.1749 110.783 15.5646C110.783 14.9542 110.783 14.9542 111.088 14.8016C111.393 14.649 111.546 14.3438 112.004 14.0386C112.004 14.4964 112.004 15.1068 112.461 16.1749C112.767 16.1749 113.224 16.4801 113.682 16.4801V17.5483C113.377 17.5483 112.919 17.5483 112.614 17.5483V18.006C112.614 18.769 112.614 19.3794 112.004 19.9898C111.393 20.6001 110.935 21.0579 110.173 21.5157C109.257 21.5157 108.494 21.9735 107.731 21.9735L107.578 22.126ZM108.799 12.9705C108.494 13.2757 108.189 13.7335 107.731 14.1912C107.273 13.7335 106.815 13.4283 106.51 13.1231C107.121 12.5127 107.426 12.2075 107.731 11.9023C108.036 12.2075 108.494 12.5127 108.799 12.9705Z" fill="#022A3A" stroke="#022A3A" stroke-width="0.2" stroke-miterlimit="10"/>
<path d="M113.377 17.7016V16.4808C113.834 16.4808 114.14 16.4809 114.445 16.1757C114.75 16.1757 115.055 15.7179 115.208 15.2601L115.513 14.6497C115.971 13.7342 116.429 13.1238 116.734 12.666C117.039 12.2083 117.649 12.0557 118.107 12.0557C118.565 12.0557 118.717 12.0557 119.023 12.666C119.328 13.2764 119.633 13.5816 119.786 14.192C119.938 14.8023 120.091 15.4127 120.091 16.0231C120.091 16.6334 120.091 16.6334 120.091 16.9386C120.091 17.2438 119.786 17.549 119.48 17.7016C118.87 17.7016 118.107 17.7016 117.344 17.3964C116.581 17.0912 115.971 16.9386 115.513 16.6334C115.208 16.9386 114.903 17.2438 114.597 17.3964C114.292 17.7016 113.987 17.8542 113.529 17.8542L113.377 17.7016ZM119.023 16.4808C119.023 15.7179 119.023 15.1075 118.565 14.4971C118.107 13.8868 118.107 13.5816 117.802 13.5816C117.497 13.5816 117.344 13.5816 117.192 13.5816C117.039 13.5816 116.886 13.8868 116.581 14.192C116.276 14.4971 116.123 14.9549 115.818 15.5653C116.734 15.8705 117.802 16.1757 119.023 16.3283V16.4808Z" fill="#022A3A" stroke="#022A3A" stroke-width="0.2" stroke-miterlimit="10"/>
<path d="M129.399 17.091C128.789 17.091 128.331 17.091 128.178 17.091C127.873 17.091 127.721 17.091 127.416 17.091C127.11 17.091 126.958 17.091 126.653 16.7858C126.347 16.4806 126.195 16.4806 126.042 16.328C125.89 16.1755 126.042 16.0229 126.042 16.0229C126.042 16.0229 126.042 15.5651 126.042 15.2599C126.042 14.9547 126.347 14.6495 126.347 14.4969C126.347 14.1917 126.958 13.8866 127.416 13.4288C128.026 12.971 128.636 12.6658 129.247 12.3606V11.9029C129.704 11.5977 130.01 11.2925 130.467 10.9873V16.4806C131.078 16.7858 131.688 16.9384 132.298 16.9384V18.0066C131.688 18.0066 131.078 18.0066 130.62 17.7014C130.162 17.3962 130.01 17.091 129.857 16.6332V16.328L129.399 17.091ZM126.653 14.6495C127.11 15.1073 127.568 15.2599 128.178 15.4125C128.789 15.5651 129.399 15.4125 130.01 15.4125L129.552 12.6658C128.178 13.2762 127.263 13.8866 126.653 14.4969V14.6495Z" fill="#022A3A" stroke="#022A3A" stroke-width="0.2" stroke-miterlimit="10"/>
<path d="M137.029 13.8862C137.029 13.8862 137.334 13.8862 137.487 13.8862C137.487 14.344 137.182 14.8018 137.029 15.107C136.876 15.4122 136.724 15.5648 136.724 15.7174C137.029 16.0225 137.487 16.1751 137.792 16.1751C138.097 16.1751 138.402 16.1751 138.86 16.1751V17.2433C137.792 17.2433 136.876 16.9381 136.266 16.3277L135.961 16.6329C135.961 16.6329 135.503 16.9381 134.74 17.0907C133.977 17.2433 133.367 17.0907 132.756 17.0907V15.8699C133.519 15.8699 133.977 15.8699 134.587 15.8699C135.045 15.8699 135.35 15.8699 135.656 15.5648C135.961 15.2596 136.113 14.9544 136.571 14.1914L136.876 13.5811C136.571 13.5811 136.876 13.5811 137.029 13.5811V13.8862ZM135.503 19.8374C135.503 20.1425 135.045 20.6003 134.435 21.0581C133.977 20.6003 133.519 20.2951 133.367 19.9899C133.672 19.6848 133.977 19.3796 134.435 18.9218C134.435 18.9218 134.893 19.227 135.503 19.8374ZM138.097 19.5322C138.097 19.8374 137.487 20.2951 137.029 20.6003C136.571 20.1425 136.113 19.8374 135.961 19.5322C136.266 19.227 136.571 18.9218 137.029 18.464C137.029 18.6166 137.487 19.0744 138.097 19.5322Z" fill="#022A3A" stroke="#022A3A" stroke-width="0.2" stroke-miterlimit="10"/>
<path d="M139.013 17.7008V16.6326C139.623 16.6326 140.233 16.6326 140.844 16.1749C140.844 14.9541 140.539 12.8178 140.386 9.76597V7.47708C140.386 7.17189 140.996 6.86671 141.302 6.56152C141.302 8.08745 141.302 10.5289 141.302 13.7334V16.0223C141.759 16.3274 142.37 16.48 142.98 16.48V17.5482C142.217 17.5482 141.454 17.5482 140.996 16.9378C140.539 17.243 140.233 17.3956 139.928 17.3956C139.928 17.5482 139.318 17.5482 138.86 17.5482L139.013 17.7008Z" fill="#022A3A" stroke="#022A3A" stroke-width="0.2" stroke-miterlimit="10"/>
<path d="M143.285 17.7023V16.6342H145.421C145.116 16.6342 144.963 16.1764 144.658 15.8712C144.353 15.566 144.658 15.1083 144.658 14.8031C144.658 14.3453 144.658 13.8875 145.116 13.2772C145.574 12.6668 145.726 12.3616 146.184 12.0564C146.642 11.7512 146.947 11.5986 147.405 11.5986C147.863 11.5986 148.168 11.5986 148.473 11.9038C148.778 11.9038 149.236 12.3616 149.694 12.8194L149.389 13.2772C148.931 13.2772 148.626 12.972 148.473 12.972H147.863C147.1 12.972 146.489 12.972 145.726 13.5823C145.726 14.0401 145.726 14.4979 146.032 14.9557C146.337 15.4134 146.642 15.7186 147.1 15.8712C147.558 16.1764 148.015 16.1764 148.626 16.329C149.083 16.329 149.389 16.329 149.846 16.0238C150.304 16.0238 150.762 15.7186 151.525 15.4134C151.525 15.4134 151.83 15.7186 151.83 16.0238C151.83 16.4816 151.525 16.7868 151.067 16.9394C149.694 17.2446 148.778 17.5497 148.015 17.5497C147.405 17.5497 146.642 17.5497 145.879 17.8549C145.116 18.1601 144.2 17.8549 143.438 17.8549L143.285 17.7023Z" fill="#022A3A" stroke="#022A3A" stroke-width="0.2" stroke-miterlimit="10"/>
<path d="M163.885 18.6166L163.427 15.8699C162.969 12.9707 162.664 10.987 162.512 9.91881C162.359 8.85066 162.359 8.0877 162.359 7.78251C162.359 7.47733 162.512 7.17214 162.664 6.86696C162.817 6.86696 163.122 6.56177 163.427 6.40918C163.427 6.40918 163.58 7.17214 164.038 8.39288L163.58 8.69807V9.00325L164.19 14.0388C164.343 14.8018 164.343 15.4121 164.343 16.1751C164.648 16.1751 165.106 16.4803 165.564 16.4803C166.021 16.4803 165.716 16.4803 165.716 16.4803V17.5484C165.716 17.5484 165.665 17.5484 165.564 17.5484C165.106 17.5484 164.801 17.5484 164.343 17.2433V17.8536C164.343 18.6166 164.19 19.227 163.732 19.8373C163.275 20.4477 162.664 20.9055 161.901 21.3633C161.138 21.821 160.375 21.9736 159.612 21.9736C158.849 21.9736 157.934 21.6684 157.324 21.2107C156.713 20.6003 156.561 19.8373 156.561 18.9218V18.0062C156.561 17.701 156.561 17.2433 156.866 16.7855H157.476C157.476 17.3958 157.476 17.8536 157.476 18.1588C157.476 18.9218 157.476 19.6847 158.086 20.1425C158.544 20.6003 159.002 20.7529 159.765 20.7529C160.528 20.7529 160.833 20.7529 161.444 20.4477C162.054 20.1425 162.512 19.9899 162.969 19.6847C163.427 19.3795 163.885 18.6166 164.038 18.3114L163.885 18.6166Z" fill="#022A3A" stroke="#022A3A" stroke-width="0.2" stroke-miterlimit="10"/>
<path d="M178.839 17.7011C178.381 17.7011 177.924 17.7011 177.466 17.3959C177.008 17.3959 176.55 16.9381 176.245 16.633C175.787 16.9381 175.177 17.2433 174.414 17.3959C173.651 17.5485 173.041 17.7011 172.278 17.7011C171.515 17.7011 170.599 17.7011 169.836 17.3959C169.073 17.0907 168.31 16.9381 167.853 16.7856L167.547 17.0907C167.242 17.5485 166.632 17.7011 165.716 17.7011C164.801 17.7011 165.564 17.7011 165.564 17.7011V16.633C165.564 16.633 165.615 16.633 165.716 16.633C166.174 16.633 166.632 16.633 166.937 16.3278C167.242 16.3278 167.547 15.7174 167.853 15.2596L168.158 14.8019C168.31 14.8019 168.463 14.4967 168.616 14.4967C168.768 14.4967 168.921 14.4967 169.073 14.4967C168.768 15.107 168.616 15.4122 168.616 15.7174C168.921 15.7174 169.226 16.0226 169.378 16.0226C171.515 13.1233 173.346 11.75 174.872 11.75C176.398 11.75 175.635 11.75 176.093 12.2078C176.55 12.6656 177.008 12.8181 177.313 13.1233C177.618 13.4285 177.924 13.8863 177.924 14.1915C177.924 14.8018 177.771 15.4122 177.313 16.0226C177.771 16.3278 178.381 16.4804 179.144 16.4804C179.907 16.4804 179.297 16.4804 179.297 16.4804L178.839 17.7011C178.941 17.7011 178.941 17.7011 178.839 17.7011ZM172.43 16.4804C173.956 16.4804 175.33 16.0226 176.856 15.107C176.55 14.4967 176.093 14.0389 175.635 13.7337C175.177 13.4285 174.719 13.2759 174.261 13.2759C173.804 13.2759 173.041 13.5811 172.43 14.0389C171.667 14.4967 170.904 15.2596 169.989 16.3278C170.904 16.3278 171.82 16.4804 172.43 16.4804Z" fill="#022A3A"/>
<path d="M178.839 17.7011C178.381 17.7011 177.924 17.7011 177.466 17.3959C177.008 17.3959 176.55 16.9381 176.245 16.633C175.787 16.9381 175.177 17.2433 174.414 17.3959C173.651 17.5485 173.041 17.7011 172.278 17.7011C171.515 17.7011 170.599 17.7011 169.836 17.3959C169.073 17.0907 168.31 16.9381 167.853 16.7856L167.547 17.0907C167.242 17.5485 166.632 17.7011 165.716 17.7011C164.801 17.7011 165.564 17.7011 165.564 17.7011V16.633C165.564 16.633 165.615 16.633 165.716 16.633C166.174 16.633 166.632 16.633 166.937 16.3278C167.242 16.3278 167.547 15.7174 167.853 15.2596L168.158 14.8019C168.31 14.8019 168.463 14.4967 168.616 14.4967C168.768 14.4967 168.921 14.4967 169.073 14.4967C168.768 15.107 168.616 15.4122 168.616 15.7174C168.921 15.7174 169.226 16.0226 169.378 16.0226C171.515 13.1233 173.346 11.75 174.872 11.75C176.398 11.75 175.635 11.75 176.093 12.2078C176.55 12.6656 177.008 12.8181 177.313 13.1233C177.618 13.4285 177.924 13.8863 177.924 14.1915C177.924 14.8018 177.771 15.4122 177.313 16.0226C177.771 16.3278 178.381 16.4804 179.144 16.4804C179.907 16.4804 179.297 16.4804 179.297 16.4804L178.839 17.7011ZM178.839 17.7011C178.941 17.7011 178.941 17.7011 178.839 17.7011ZM172.43 16.4804C173.956 16.4804 175.33 16.0226 176.856 15.107C176.55 14.4967 176.093 14.0389 175.635 13.7337C175.177 13.4285 174.719 13.2759 174.261 13.2759C173.804 13.2759 173.041 13.5811 172.43 14.0389C171.667 14.4967 170.904 15.2596 169.989 16.3278C170.904 16.3278 171.82 16.4804 172.43 16.4804Z" stroke="#022A3A" stroke-width="0.2" stroke-miterlimit="10"/>
<path d="M178.992 17.7018C178.89 17.7018 178.89 17.7018 178.992 17.7018V16.6337C178.89 16.6337 178.89 16.6337 178.992 16.6337C180.67 16.6337 181.891 16.6337 182.806 16.1759L183.722 15.8707C184.332 15.5655 184.943 15.4129 185.4 15.4129C184.943 15.4129 184.485 14.9552 184.18 14.65C183.722 14.3448 183.417 14.0396 183.112 13.887C182.806 13.7344 182.501 13.887 182.196 13.887C181.586 13.887 181.128 13.887 180.823 14.3448L180.365 14.65C180.212 14.65 180.06 14.1922 180.06 14.0396C180.06 13.5818 180.212 13.2766 180.67 12.9714C180.975 12.6663 181.586 12.5137 182.196 12.5137C182.806 12.5137 182.959 12.5137 183.264 12.8189C183.569 13.124 184.027 13.2766 184.485 13.5818C185.095 14.0396 185.553 14.3448 186.011 14.4974C186.469 14.65 186.774 14.8026 187.232 14.9552C187.689 15.1077 188.3 14.9552 189.063 14.9552L188.452 16.1759C188.147 16.1759 187.842 16.1759 187.537 16.1759H187.232C186.774 16.1759 186.469 16.1759 186.163 16.1759C185.858 16.1759 185.248 16.4811 184.485 16.9389C183.722 17.3966 182.959 17.7018 182.196 17.8544C181.433 17.8544 180.365 17.8544 178.992 17.8544V17.7018Z" fill="#022A3A"/>
<path d="M178.992 17.7018C178.89 17.7018 178.89 17.7018 178.992 17.7018ZM178.992 17.7018V16.6337M178.992 17.7018V17.8544C180.365 17.8544 181.433 17.8544 182.196 17.8544C182.959 17.7018 183.722 17.3966 184.485 16.9389C185.248 16.4811 185.858 16.1759 186.163 16.1759C186.469 16.1759 186.774 16.1759 187.232 16.1759H187.537C187.842 16.1759 188.147 16.1759 188.452 16.1759L189.063 14.9552C188.3 14.9552 187.689 15.1077 187.232 14.9552C186.774 14.8026 186.469 14.65 186.011 14.4974C185.553 14.3448 185.095 14.0396 184.485 13.5818C184.027 13.2766 183.569 13.124 183.264 12.8189C182.959 12.5137 182.806 12.5137 182.196 12.5137C181.586 12.5137 180.975 12.6663 180.67 12.9714C180.212 13.2766 180.06 13.5818 180.06 14.0396C180.06 14.1922 180.212 14.65 180.365 14.65L180.823 14.3448C181.128 13.887 181.586 13.887 182.196 13.887C182.501 13.887 182.806 13.7344 183.112 13.887C183.417 14.0396 183.722 14.3448 184.18 14.65C184.485 14.9552 184.943 15.4129 185.4 15.4129C184.943 15.4129 184.332 15.5655 183.722 15.8707L182.806 16.1759C181.891 16.6337 180.67 16.6337 178.992 16.6337M178.992 16.6337C178.89 16.6337 178.89 16.6337 178.992 16.6337Z" stroke="#022A3A" stroke-width="0.2" stroke-miterlimit="10"/>
<path d="M191.199 12.0551V13.1233C191.199 14.1914 191.199 15.7173 191.047 17.5484H190.284C190.284 13.7336 190.131 10.5292 189.826 7.93511C189.826 7.47733 189.979 7.17214 190.131 6.86696C190.284 6.86696 190.589 6.56177 191.047 6.40918C191.047 6.40918 191.199 7.17214 191.657 8.39288L191.199 8.85066C191.199 10.0714 191.199 11.1395 191.199 12.0551Z" fill="#022A3A" stroke="#022A3A" stroke-width="0.2" stroke-miterlimit="10"/>
<defs>
<filter id="filter0_d_2324_10300" x="11.2603" y="6.77539" width="43.0198" height="47.2373" filterUnits="userSpaceOnUse" color-interpolation-filters="sRGB">
<feFlood flood-opacity="0" result="BackgroundImageFix"/>
<feColorMatrix in="SourceAlpha" type="matrix" values="0 0 0 0 0 0 0 0 0 0 0 0 0 0 0 0 0 0 127 0" result="hardAlpha"/>
<feOffset/>
<feGaussianBlur stdDeviation="2"/>
<feComposite in2="hardAlpha" operator="out"/>
<feColorMatrix type="matrix" values="0 0 0 0 0 0 0 0 0 0 0 0 0 0 0 0 0 0 0.25 0"/>
<feBlend mode="normal" in2="BackgroundImageFix" result="effect1_dropShadow_2324_10300"/>
<feBlend mode="normal" in="SourceGraphic" in2="effect1_dropShadow_2324_10300" result="shape"/>
</filter>
<linearGradient id="paint0_linear_2324_10300" x1="47.4572" y1="30.5185" x2="10.5298" y2="30.5185" gradientUnits="userSpaceOnUse">
<stop stop-color="#FEE000"/>
<stop offset="0.2" stop-color="#FCCF0B"/>
<stop offset="0.5" stop-color="#FAB318"/>
<stop offset="0.8" stop-color="#F9A21B"/>
<stop offset="1" stop-color="#F99B1C"/>
</linearGradient>
<linearGradient id="paint1_linear_2324_10300" x1="37.8437" y1="34.0282" x2="3.20517" y2="68.6667" gradientUnits="userSpaceOnUse">
<stop stop-color="#EF4547"/>
<stop offset="1" stop-color="#C6186D"/>
</linearGradient>
<linearGradient id="paint2_linear_2324_10300" x1="3.05283" y1="-7.7821" x2="31.435" y2="20.4475" gradientUnits="userSpaceOnUse">
<stop stop-color="#279E6F"/>
<stop offset="0.3" stop-color="#4DAB6D"/>
<stop offset="0.7" stop-color="#6ABA6A"/>
<stop offset="1" stop-color="#74C169"/>
</linearGradient>
</defs>
</svg>
