<?xml version="1.0" encoding="UTF-8"?>
<svg id="Layer_2" data-name="Layer 2" xmlns="http://www.w3.org/2000/svg" viewBox="0 0 42.26 7.49">
  <g id="Layer_1-2" data-name="Layer 1">
    <g>
      <path d="M26.42,0c.91.04,1.91.63,2.8.23.04-.02.23-.14.24-.13.03,0,.02.03.02.05-.02.27-.26.65-.46.82-.15.12-.5.28-.69.28h-.45v3.71c.55-.18,1.01-.59,1.27-1.11.04-.09.07-.2.13-.29.03.03.01.1,0,.14-.2,1.76-2.21,2.72-3.75,1.85s-1.6-3.06-.3-4.13c.06-.05.3-.23.36-.25.02,0,.03,0,.02.02-.02.05-.16.2-.2.27-.52.83-.44,2.04.17,2.81.05.06.16.2.22.24.01,0,.02.02.04.02.14-.22.21-.46.23-.72V.94c-.54-.13-1.1-.01-1.53.33-.06.05-.13.17-.21.16.1-.69.55-1.19,1.23-1.35.13-.03.28-.06.42-.07h.43ZM26.36,1.01l-.21-.05v2.86c-.03.27-.08.55-.28.74l.13.1c.23-.18.33-.5.37-.78V1.01ZM27.79,1.25l-.4-.03v1.99c-.02.11-.01.21-.04.32-.13.61-.77.95-1.3,1.17.45.31,1.02.42,1.56.32.06,0,.13-.02.18-.05V1.25Z"/>
      <path d="M42.26,2.14v.07l-1.06,1.21c.28.13.56.27.81.45v1.42s-1.16.6-1.16.6c-.03-.03-.06-.05-.1-.06-.41-.18-1.15-.25-1.56-.07-.08.04-.18.15-.24.06l1.09-1.33c-.19-.12-.42-.19-.64-.21v-1.71s1.28-.74,1.28-.74c.04,0,.08.05.12.07.36.21.88.39,1.3.27.05-.01.1-.07.16-.03ZM40.38,2.59v.94l.48.14.92-1.05c-.44.16-.97.17-1.4-.03ZM41.04,5.11v-.7c-.05-.06-.13-.08-.21-.11-.08-.03-.27-.1-.35-.11-.02,0-.04,0-.05,0l-.88,1.07.37-.16c.36-.12.77-.16,1.12,0Z"/>
      <path d="M7.31.96c-.01-.1-.08-.25-.13-.33-.04-.06-.1-.09-.1-.16.16.05.29.16.4.28l.12.2c.15-.54.8-.79,1.31-.74.03,0,.12.03.05.05-.05.02-.1.02-.15.04-.42.18-.5.59-.52,1s.02.84,0,1.26l1.1-.74c.08,0,.54.6.59.71l.02,2.46c.02.07.48.27.57.28-.03.04-.06.08-.1.11-.13.12-.36.35-.5.44-.02.01-.04.03-.06.04-.07.02-.29-.1-.37-.14-.1-.05-.52-.33-.54-.42v-2.37c-.07-.2-.21-.38-.39-.5l-.33.25v2.28c.01.09.22.18.3.21.08.03.17.05.24.09.02,0,.03,0,.02.03l-.63.56s-.1-.02-.14-.04c-.27-.11-.55-.29-.77-.49l-.78.54c-.05.02-.32-.1-.38-.13-.38-.19-.78-.49-1.07-.79-.01-.01-.02-.03-.02-.05h-.02s-1.11.97-1.11.97c-.29-.18-.61-.3-.94-.37-.81-.16-1.94-.05-2.58.51C-.14,6.5,0,7.25.81,7.23v.05c0,.08-.26.02-.33,0C.15,7.18-.01,6.9,0,6.57c.04-1.08,1.57-1.96,2.55-1.97.02,0,.11-.15.13-.18.32-.65.05-2,.17-2.76.01-.07.04-.15.08-.2,0,.1-.02.19-.03.29-.04.84.1,1.74-.1,2.56l-.17.3.22-.03c.16-.19.22-.46.24-.7.04-.69-.04-1.42,0-2.11,0-.09.02-.21.04-.3.1-.43.47-.69.76-.99l-.65.39c-.31.14-.63.19-.97.15-.42-.05-.88-.27-1.3-.14-.1.03-.18.09-.28.13-.01-.01.09-.15.1-.17C1.21.25,1.69-.07,2.42.04c.67.1.95.33,1.69.13.06-.02.12-.05.18-.07.02,0,.02-.02.04.01-.35.66-.2,1.45-.23,2.17L5.63.11s.24.11.29.13c.33.13.72.11,1.05-.03.03-.01.16-.1.17-.09-.11.36-.43.73-.79.87-.4.15-.78.05-1.14-.14l-.73,1.05c.34.23.65.49.94.78.19.58.32,1.37.62,1.9.24.43.8.67,1.28.66V.96ZM4.1,2.87v.54c0,.37-.31.82-.64,1l-.36.2c.4.01.83.1,1.18.3.06.03.31.23.33.23.02,0,.04,0,.05-.02l.35-.3c-.18-.5-.36-1.01-.48-1.53-.13-.15-.27-.3-.44-.41Z"/>
      <path d="M34.03,2.57l1.13-.74s.03,0,.05.01c.04.03.22.23.26.28.07.08.32.39.34.47v2.42s.55.28.55.28c-.09.07-.6.58-.66.58-.04,0-.39-.19-.45-.23-.07-.04-.17-.1-.24-.14-.07-.05-.2-.13-.2-.23v-2.29c-.02-.18-.31-.42-.46-.52-.06.04-.31.18-.32.24v2.29s0,.03.02.05c.06.08.33.19.42.24.02,0,.03,0,.02.03l-.57.57c-.26-.11-.6-.27-.81-.46-.04-.03-.09-.07-.09-.12v-2.34c-.08-.2-.27-.36-.44-.48-.06.04-.31.18-.32.24v2.33c.15.1.3.18.46.25.02,0,.03,0,.02.03l-.57.57c-.33-.13-.63-.31-.9-.53v-2.48s-.1-.16-.1-.16l-.28-.33.74-.54c.24.22.43.49.63.74l1.12-.74s.09.07.11.09c.19.2.38.41.51.65Z"/>
      <path d="M13.41,5.02l.56.27-.65.57c-.32-.13-.64-.3-.89-.54l-.73.54c-.35-.13-.7-.31-.98-.55v-2.44s1.59-1.04,1.59-1.04c.07,0,.63.33.73.4.08.06.29.18.35.25.02.02.03.03.03.06v2.49ZM12.42,5.29v-2.33c-.2-.17-.44-.34-.71-.35v2.4c0,.07.25.21.31.23.13.05.25.07.4.06Z"/>
      <path d="M21.99,1.85s.03,0,.05.01c.07.05.23.23.29.31s.28.35.3.43v3.62c-.1.02-.19.02-.28.04-.6.13-1.24.8-1.88,1.04-.74.29-2.44.39-2.66-.63s1.33-1.27,1.81-.52c-.03.03-.02.02-.04,0-.05-.02-.09-.08-.15-.1-.52-.25-.97.29-.6.76.7.86,2.74.32,2.8-.87v-3.07c-.02-.14-.44-.47-.43-.51l.79-.52Z"/>
      <path d="M17.48,1.83c.28.34.57.68.82,1.05.03.05.22.31.22.34l-1.71,1.17v.46c.19.09.37.18.56.26.13.05.33.14.46.17.03,0,.07.02.1,0l.47-.39.03.05s-.03.05-.04.06c-.31.3-.71.55-1.02.86-.09.06-.34-.03-.45-.07-.38-.11-.76-.27-1.1-.47v-2.4s.02-.05.02-.05l1.57-1,.07-.02ZM16.81,4.3l.86-.6c-.24-.4-.52-.79-.86-1.11v1.71Z"/>
      <path d="M39.11,4.88l.02.08-1.11.91c-.53-.09-1.02-.31-1.49-.55v-2.4s.01-.07.01-.07c.51-.31,1-.67,1.5-.97.04-.02.09-.07.13-.05.38.43.73.89,1.06,1.37l-1.72,1.19v.43c.02.09.94.43,1.08.47l.52-.41ZM37.49,4.3l.87-.6c-.27-.39-.52-.79-.87-1.11v1.71Z"/>
      <path d="M21.36,3.23l-1.72,1.17c.02.09-.03.39.02.45.04.04.34.17.41.2.08.04.63.25.67.24l.49-.4.03.05s-.04.06-.06.08c-.31.3-.7.55-1.01.85-.06.03-.14,0-.2-.01-.45-.1-.91-.31-1.32-.52v-2.47s1.59-1.01,1.59-1.01h.05c.25.27.49.56.71.86.08.11.29.37.33.48,0,.01.02.03,0,.05ZM19.65,4.3c.09-.08.86-.56.86-.62,0-.04-.4-.58-.46-.66-.12-.15-.25-.31-.4-.44v1.71Z"/>
      <path d="M15.78.23s0,.03-.02.03c-.47.14-.62.44-.65.91v3.84c.16.13.36.18.54.26.02,0,.03,0,.02.03-.1.07-.6.57-.67.57-.03,0-.24-.11-.29-.14-.11-.06-.57-.32-.59-.43V1.08c-.02-.15-.06-.32-.15-.44-.02-.03-.12-.11-.11-.13,0-.05.1.01.13.02.12.06.22.16.3.26l.1.17c.17-.58.85-.81,1.4-.72Z"/>
      <path d="M31.14,5.27l-.65.59c-.15-.04-.86-.42-.9-.54v-2.47c0-.1-.44-.45-.43-.49l.79-.52s.03,0,.05.01c.08.05.25.25.31.33.1.12.19.26.27.39v2.43s.48.26.56.26Z"/>
      <path d="M29.97.35l.69.63c-.21.24-.44.46-.68.65l-.67-.65.67-.63Z"/>
      <path d="M22.02.35c.25.19.46.41.68.63,0,.05-.58.6-.68.65l-.66-.65.66-.63Z"/>
    </g>
  </g>
</svg>