<?xml version="1.0" encoding="UTF-8"?>
<svg id="Layer_2" data-name="Layer 2" xmlns="http://www.w3.org/2000/svg" viewBox="0 0 41.44 10.69">
  <defs>
    <style>
      .cls-1 {
        fill: #a9ff00;
      }

      .cls-1, .cls-2 {
        isolation: isolate;
      }

      .cls-3 {
        fill: #2f4959;
      }
    </style>
  </defs>
  <g id="Layer_1-2" data-name="Layer 1">
    <g class="cls-2">
      <rect class="cls-1" x="3.39" y="1.41" width="6.99" height="1.98"/>
      <path class="cls-3" d="M2.98,0v2.43h.43s0,.85,0,.85h6.92v-.74c1.23.15,2.31.81,3.2,1.64l1.17,1.64V0h2.88v6.72c0,.31.6,1.01.91,1.01h8.36c-.17-.86-.79-1.7-1.58-2.09-.19-.09-.87-.35-1.03-.35h-4.63v-2.91c0-.23,1.72-1.94,1.81-2.38h2.98l-1.81,2.43h2.18c.23,0,1.34.39,1.62.51,1.85.81,3.25,2.76,3.34,4.78h.47c.22-1.87,1.28-3.66,2.97-4.57.38-.2,1.67-.72,2.04-.72h5.17v2.86h-4.63c-.16,0-.84.26-1.03.35-.79.39-1.41,1.23-1.58,2.09h8.31v2.8l-.16.16h-23.97c-.77,0-1.66-.78-2.18-1.27v1.27H2.72c-1.36,0-2.72-1.61-2.72-2.91V0h2.98ZM12.14,7.72c.05-1.07-1.5-2.43-2.5-2.43H2.98v1.64c0,.14.66.79.8.79h8.36Z"/>
    </g>
  </g>
</svg>