<?xml version="1.0" encoding="UTF-8"?>
<svg id="Layer_2" data-name="Layer 2" xmlns="http://www.w3.org/2000/svg" viewBox="0 0 28.25 31.15">
  <defs>
    <style>
      .cls-1 {
        fill: #fff;
      }

      .cls-2 {
        fill: #ec2126;
      }
    </style>
  </defs>
  <g id="Layer_1-2" data-name="Layer 1">
    <g>
      <g>
        <path class="cls-2" d="M10.06,14.16l-1.85,1.86c.43.13.81.39,1.13.71l2.55-2.55h2.06l-1.82,1.83c.21.09.42.17.61.3.51-1.17,1.7-2.06,2.99-2.13,3.53-.2,5.21,4.19,2.45,6.34-1.42,1.11-3.47.96-4.72-.33-.96,1.34-3,1.47-4.12.25-.4.44-.96.73-1.56.82-1.64.24-3.09-1.02-3.1-2.67h1.45l.02.03c0,1.24,1.68,1.67,2.29.59.57-1-.43-2.17-1.5-1.76-.2.08-.36.21-.51.35l-1.05-.99,1.13-1.17h-1.84v-1.46h5.38ZM15.86,15.64c-1.52.11-2.42,1.78-1.65,3.11s2.73,1.39,3.56.06c.89-1.43-.23-3.29-1.91-3.17ZM11.15,17.35c-.86.09-1.34,1.06-.93,1.81.46.85,1.7.86,2.16,0s-.23-1.92-1.22-1.82Z"/>
        <path class="cls-2" d="M22.93,18.21c-1.16,2.65-3.29,5.28-6.09,6.27-2.5.88-4.98.2-6.41-2.07-.06-.1-.14-.21-.18-.33.72.77,1.66,1.28,2.72,1.41,1.8.23,3.61-.57,4.99-1.66s2.48-2.57,3.23-4.16c0-.02,0-.03-.01-.04-.04-.07-.21-.2-.27-.29-.99-1.31-.26-3.21,1.33-3.54.02-.14,0-.28.01-.42.08-2.01-.55-4.23-2.3-5.39-2.28-1.51-5.21-.48-7.11,1.16v-.02c.99-1.04,2.19-1.94,3.57-2.43,3.37-1.21,6.24.49,7.23,3.81.35,1.18.42,2.41.34,3.64.25.22.49.44.65.73.79,1.42-.11,3.13-1.69,3.33ZM22.57,14.6c-1,.08-1.59,1.18-1.09,2.06.53.94,1.9.94,2.42,0s-.23-2.15-1.33-2.06Z"/>
        <path d="M7.39,12.68l-.08.19c-.45.82-1.63.79-2.36.39-.04-.02-.22-.12-.22-.16l.39-.76.39.26c.25.14.85.2.91-.17.04-.22-.09-.31-.27-.4-.57-.26-1.24-.26-1.29-1.08-.08-1.3,1.24-1.52,2.21-1.1.05.02.21.07.2.13l-.37.72c-.22-.18-.52-.31-.81-.21-.3.11-.29.41-.01.55.41.21.88.18,1.18.62l.13.25v-2.14l.05-.02c.67.07,1.8-.19,2.35.27.27.22.36.51.4.84.61-1.58,3.07-1.6,3.75-.07l.08.19v-1.23c.5.02,1.03-.03,1.53,0,.32.02.64.11.87.34l.16.22v-.54l.02-.02h2.49l.02.02v.78l-.02.02h-.77v2.85h-.95v-2.85h-.7c.11.51-.01,1.05-.52,1.27-.07.03-.13.04-.2.06-.02,0-.03-.01-.02.02l1.14,1.49h-1.19l-.89-1.37v1.37h-.96v-1.21l-.13.3c-.47.88-1.52,1.21-2.46.94-.81-.23-1.36-.95-1.39-1.79l-.13.19c-.16.19-.53.37-.78.37h-.79v1.21h-.96v-.75ZM14.99,11.4h.24c.11,0,.31-.07.39-.14.15-.13.16-.43.04-.58-.07-.09-.26-.18-.37-.18h-.3v.9ZM8.35,11.43h.47s.16-.05.19-.07c.23-.15.23-.58,0-.74-.05-.03-.2-.09-.26-.09h-.41v.9ZM11.91,10.6c-.29.03-.58.25-.72.49-.48.84.36,1.77,1.26,1.45,1.12-.41.75-2.1-.54-1.94Z"/>
      </g>
      <rect class="cls-1" width="28.25" height="6.31"/>
      <rect class="cls-1" y="24.84" width="28.25" height="6.31"/>
    </g>
  </g>
</svg>