<?xml version="1.0" encoding="UTF-8"?>
<svg id="Layer_2" data-name="Layer 2" xmlns="http://www.w3.org/2000/svg" viewBox="0 0 40.88 13.38">
  <defs>
    <style>
      .cls-1 {
        fill: #3e008a;
      }
    </style>
  </defs>
  <g id="Layer_1-2" data-name="Layer 1">
    <g>
      <polygon class="cls-1" points="0 2.65 2.45 2.65 3.87 6.08 5.3 2.65 7.65 2.65 4.1 10.83 1.7 10.83 2.67 8.64 0 2.68 0 2.65"/>
      <path d="M29.88,11.61l.56-1.62h.93s.56,1.65.56,1.65l.52-1.65h1.22s-1.15,3.3-1.15,3.3l-1.04-.02-.58-1.69-.6,1.69c-.34,0-.69.04-1.03,0l-1.14-3.27c.06.01.13-.01.19-.01.26-.01.65-.02.91,0,.03,0,.1.01.13.03l.53,1.6Z"/>
      <path d="M23.09,13.29v-1.33c-.06-.26.07-.67-.14-.87-.22-.21-.65-.07-.69.24-.01.07-.02.19-.02.26-.02.56.02,1.14,0,1.7h-1.25v-3.31h1.25v.31c.09-.05.15-.14.24-.2.45-.33,1.18-.26,1.54.17.28.33.28.68.29,1.08.02.54.06,1.24.01,1.78,0,.02-.01.12-.02.13,0,.02-.08.04-.1.04h-1.12Z"/>
      <path d="M26.33,9.89c1.02-.05,1.77.57,1.87,1.59,0,.09.03.33,0,.41,0,.01-.02.02-.03.03l-2.3.06c-.05.07.2.32.25.36.15.12.5.11.67.03.08-.04.2-.16.28-.16.07,0,.22.06.3.09.15.05.31.11.46.17.04.02.21.08.23.11s-.09.16-.11.19c-.82.98-2.81.79-3.19-.53-.33-1.15.35-2.28,1.58-2.35ZM26.98,11.21c.02-.11-.07-.22-.15-.28-.26-.21-.66-.17-.87.09-.07.09-.13.16.02.2.08.02.23.03.31.03s.66,0,.69-.04Z"/>
      <path class="cls-1" d="M16.89,0v3.17c1.05-1.05,3-.87,3.57.6.05.14.18.55.18.68v4.16h-2.19v-3.44c0-.13-.16-.46-.26-.55-.35-.34-.97-.2-1.19.23-.03.05-.11.25-.11.29v3.47h-2.22V0h2.22Z"/>
      <path d="M35.06,9.89c.51,0,1.01.12,1.46.34l-.36.83c-.23-.05-.45-.15-.68-.2-.15-.03-.34-.07-.49-.03-.13.03-.19.12-.05.19.25.13.61.18.89.3.52.21.86.57.72,1.17-.22.92-1.5.99-2.25.8-.12-.03-.71-.22-.76-.3-.02-.03.07-.21.09-.25.04-.09.26-.54.32-.57.02,0,.03,0,.04,0,.4.16.74.28,1.19.25.07,0,.21-.03.19-.13-.01-.05-.15-.1-.19-.11-.54-.2-1.29-.21-1.48-.89-.24-.87.61-1.37,1.37-1.38Z"/>
      <path class="cls-1" d="M11.81,3.17v-.52h2.14v5.92l-.04.04h-2.09v-.55c-.78.87-2.2.88-3.17.32-1.72-.99-1.99-3.48-.69-4.93.96-1.08,2.78-1.35,3.85-.29ZM10.53,4.41c-1.63.03-1.62,2.31-.1,2.44,1.8.16,1.88-2.48.1-2.44Z"/>
      <path class="cls-1" d="M24.04,2.51c1.72-.14,3.41.79,3.69,2.58.39,2.52-1.86,4.13-4.21,3.57-3.51-.84-3.08-5.84.52-6.15ZM24.27,4.44c-1.68.19-1.22,2.81.52,2.36,1.43-.38,1.08-2.53-.52-2.36Z"/>
      <path class="cls-1" d="M31.09,2.51c2.14-.18,3.88,1.22,3.73,3.43-.16,2.32-2.83,3.38-4.81,2.52-3-1.29-2.2-5.68,1.08-5.96ZM31.32,4.44c-1.68.19-1.22,2.81.52,2.36,1.43-.38,1.08-2.53-.52-2.36Z"/>
      <polygon class="cls-1" points="40.88 0 38.54 5.42 35.88 5.42 38.22 0 40.88 0"/>
      <path class="cls-1" d="M36.31,5.94c1.51-.2,2.38,1.53,1.19,2.48-.97.77-2.51.04-2.4-1.24.05-.61.6-1.16,1.21-1.25Z"/>
    </g>
  </g>
</svg>