<?xml version="1.0" encoding="UTF-8"?>
<svg id="Layer_2" data-name="Layer 2" xmlns="http://www.w3.org/2000/svg" viewBox="0 0 113.41 100">
  <defs>
    <style>
      .cls-1 {
        fill: #b68a35;
        stroke-width: 0px;
      }
    </style>
  </defs>
  <g id="Layer_1-2" data-name="Layer 1">
    <g>
      <path class="cls-1" d="M40.16,55.01c1.8,1.84,5.12.63,7.01-.56.35-.7.61-1.58.64-2.37h11.05c1.71.07,3.1-.69,4.26-1.96-.07,1.61.22,1.97,1.9,1.96h9.59c.28-.74.58-1.56.59-2.37-.03-.97-.51-2.05-1.03-2.86l-.98,1.55c.41.46.85,1.12,1.04,1.71h-9.28c-.56-.03-1.05.02-1.2-.49.44-.26.77-.38,1.34-.38.37.07.89.12,1.28.11l.67-1.99c-2.32.1-4.33-.89-6.5-1.07-1.21.08-1.45,1.51-1.81,2.51l.34.19c.14-.24.29-.54.56-.68.31-.15.64-.06,1.01-.02.82.13,1.67.39,2.45.58-1.01.66-2.17,1.26-3.47,1.23h-11.56c-.31,0-.49-.19-.61-.44-.25-.56-.49-.9-.82-1.44l-.97,1.58c.64.83,1.12,1.93,1.24,2.95-1.29.83-3.33,1.39-4.86,1.02-2.09-.62-1.44-2.85-.73-4.38l-.37-.14c-1.09,1.59-2.09,3.99-.77,5.74Z"/>
      <polygon class="cls-1" points="45 46.39 43.44 45.42 42.43 46.77 43.99 47.73 45 46.39"/>
      <polygon class="cls-1" points="74.84 44.62 73.28 43.65 72.27 45 73.83 45.96 74.84 44.62"/>
      <path class="cls-1" d="M15.06,67.05c.54.53,1.23.71,2.11.7h7.32c.27-.82.59-1.52.59-2.37-.02-1-.47-2.05-1-2.89l-.98,1.59c.45.43,1.01,1.06,1.06,1.71h-6.62c-1.98-.01-2.6-.63-1.72-2.45l-.34-.14c-.71,1.11-1.39,2.7-.41,3.85Z"/>
      <polygon class="cls-1" points="19.65 61.44 20.8 62.12 21.77 60.85 20.35 59.98 19.81 60.68 18.69 59.98 17.71 61.28 19.13 62.12 19.65 61.44"/>
      <path class="cls-1" d="M28.07,68.01c.62-.8.85-1.96.87-2.97,0-.03-.32-7.11-.38-8.23l-1.4,2,.77,9.21h.14Z"/>
      <path class="cls-1" d="M33.72,69.36c.96-2,.27-4.38-1.31-5.8l-.94,1.84c.6.42,1.29,1.08,1.72,1.67.28.39.22.48-.02.89-.73,1.03-1.91,2.01-3.08,2.54-.89.38-1.56.1-2.45-.17l-.15.38c2.83,1.49,4.72,2.08,6.22-1.33Z"/>
      <path class="cls-1" d="M36.17,66.14c.06.47.05.87.31,1.21.18.22.49.4.8.41h22.09c.62,0,.94-.72,1.16-1.21.96.69,2.18,1.28,3.26,1.62l1.05-1.77c-.26-.48-.45-1.11-.57-1.6-.15-1.13-1.02-3.03-2.36-1.98-.8.6-1.39,1.68-1.79,2.56-.12.24-.49.44-.8.43h-21.66c-.15,0-.25-.05-.3-.15-.05-.1-.08-.22-.09-.37l-.47-8.47-1.23,1.78c.11,1.25.5,6.32.61,7.55ZM61.67,64.35c1.09-.86,1.54.97,1.72,1.74-.56-.18-1.22-.58-1.77-.91-.09-.05-.31-.22-.39-.27.13-.23.27-.41.44-.56Z"/>
      <path class="cls-1" d="M67.37,69.04c.33-.2.74-.11,1.02.11.32-.33.26-.92-.27-.91-.69.08-1.43.9-1.51,1.58,0,.32.33.56.63.68-.22.19-.41.58-.46.84l.24.1c.4-.68,1.24-.88,1.96-1.06l.32-.79c-.63.19-1.23.47-1.82.16-.3-.13-.41-.55-.1-.72Z"/>
      <path class="cls-1" d="M72.77,57.98c-.38-.37-.62-.66-.61-1.17h-.15l-1.06,1.37c-.02.39.11.71.39,1,.08,1.2.28,2.61-.59,3.56-1.46-1.88-3.37-3.91-5.59-4.85-.24.97-.59,2.31.4,2.94l1.69,1.07.06-.56c.94.61,1.93,1.43,2.65,2.3-.68.67-1.55,1.34-2.38,1.88l-.44.16c-.02.1-.35,2.07-.35,2.07h4.9c.19-.68.4-1.51.41-2.23-.02-.67-.39-1.37-.68-1.95.89-.95,1.11-2.24,1.03-3.55l1.06-1.4c-.31-.26-.55-.47-.73-.65ZM68.78,65.8v-.11c.59-.34,1.25-.83,1.73-1.3.26.43.55.94.69,1.42h-2.42Z"/>
      <path class="cls-1" d="M75.97,68.01c.66-.86.89-2.09.87-3.18,0-.11-.32-6.9-.37-8.02l-1.4,2,.77,9.21h.14Z"/>
      <path class="cls-1" d="M10.72,81.28c-.12.43-.28,1.04-.41,1.49-.08.29-.16.59-.25.89-.44-1.62-1.76-5.3-2.32-6.92h-1.13c-.55,1.66-1.79,5.3-2.3,6.92-.34-1.64-1.75-6.45-2.22-8.14H0l2.86,9.69h1.94c.12-.4,1.84-5.44,1.87-5.68.03-.1.05-.19.07-.27.03.08.06.17.08.27.06.19.12.42.2.62l1.74,5.06h1.94l2.77-9.69h-1.18l-1.57,5.76Z"/>
      <polygon class="cls-1" points="16.63 80.71 19.93 80.63 19.93 79.73 16.63 79.7 16.63 76.54 20.39 76.5 20.39 75.51 14.65 75.51 14.65 85.2 20.39 85.2 20.39 84.24 16.63 84.17 16.63 80.71"/>
      <polygon class="cls-1" points="23.87 76.5 26.8 76.54 26.8 85.2 28.78 85.2 28.78 76.54 31.71 76.47 31.71 75.51 23.87 75.51 23.87 76.5"/>
      <polygon class="cls-1" points="39.4 79.75 35.02 79.75 35.02 75.51 33.04 75.51 33.04 85.2 35.02 85.2 35.02 80.84 39.4 80.84 39.4 85.2 41.37 85.2 41.37 75.51 39.4 75.51 39.4 79.75"/>
      <polygon class="cls-1" points="45.62 80.71 48.92 80.63 48.92 79.73 45.62 79.7 45.62 76.54 49.38 76.5 49.38 75.51 43.64 75.51 43.64 85.2 49.38 85.2 49.38 84.24 45.62 84.17 45.62 80.71"/>
      <path class="cls-1" d="M62.1,83.16c.19-.43.28-.89.28-1.37v-6.27h-1.98v6.56c-.04.68.05,1.35-.46,1.76-.83.53-2.54.69-3.38.09-.47-.46-.52-1.05-.53-1.82v-6.59h-1.98v6.4c0,1.1.27,2.01,1.07,2.65,2.05,1.37,5.88,1,6.98-1.41Z"/>
      <path class="cls-1" d="M64.74,85.2l1.18-3.22,3.64-.05,1.13,3.26h2.12l-3.58-9.69h-1.91l-3.84,9.69h1.25ZM67.79,76.84l1.46,4.18h-2.99l1.53-4.18Z"/>
      <polygon class="cls-1" points="79.71 76.5 79.71 75.51 73.97 75.51 73.97 85.2 79.71 85.2 79.71 84.24 75.95 84.17 75.95 80.71 79.25 80.63 79.25 79.73 75.95 79.7 75.95 76.54 79.71 76.5"/>
      <path class="cls-1" d="M57.49,98.39c-.68,0-1.42.02-2.07.02.97-1.12,2.77-2.86,3.56-4.07,2.29-3.96-2.18-4.88-5.18-3.96l-.21,1.54c2.43-.97,4.99-.56,3.69,2.58-.46.99-3.12,3.79-3.84,4.69v.66h6.34l.33-1.53c-.93.03-1.73.05-2.62.06Z"/>
      <path class="cls-1" d="M67.26,91.35c-.8-1.37-2.91-1.6-4.23-.94-2.17,1.25-1.96,4.6-1.65,6.75.35,2.43,2.72,3.44,4.82,2.47,2.33-1.18,2.22-6.32,1.05-8.27ZM65.92,97.74c-.07.6-.17.94-.29,1.02-.48.26-1.25.41-1.68.02-.83-.98-.67-2.39-.74-3.76,0-1.17.05-2.08.14-2.73.09-.64.21-1,.35-1.08.75-.37,1.74-.31,2.01.79.41,1.06.35,4.59.21,5.74Z"/>
      <path class="cls-1" d="M74.79,95.18c-.44-.35-1.07-.59-1.61-.67v-.03c.71-.2,1.47-.64,1.83-1.33.44-.83.16-2.08-.63-2.54-1.08-.73-3.32-.69-4.67-.2l-.25,1.46c.98-.38,2.62-.63,3.46-.12.65.41.53,1.59-.08,2-.35.27-.88.42-1.59.47v.9c2.06-.1,2.89,1.21,2.27,3.08-.22.5-.49.61-.96.71-1.11.27-2.35-.36-3.2-1.04l-.59,1.38c1.28.73,2.98,1.02,4.44.47,1.78-.64,3.47-3.1,1.58-4.53Z"/>
      <polygon class="cls-1" points="77.19 92.7 77.77 93.55 80.31 91.64 80.31 99.86 82.25 99.86 82.25 90.17 80.79 90.17 77.19 92.7"/>
      <path class="cls-1" d="M113.21,73.88L100.4,0l-15.87,13.51c-3.6,3.07-5.31,7.81-4.51,12.47l12.82,73.88,15.87-13.51c3.6-3.06,5.31-7.81,4.5-12.47Z"/>
    </g>
  </g>
</svg>