<?xml version="1.0" encoding="UTF-8"?>
<svg id="Layer_2" data-name="Layer 2" xmlns="http://www.w3.org/2000/svg" viewBox="0 0 42.49 6.14">
  <g id="Layer_1-2" data-name="Layer 1">
    <g>
      <path d="M38.47,3.67h0s.02,0,.04,0,.02.01.02.01v.03s.04,0,.04.02c.01.01,0,.01-.01.01,0,0-.03,0-.03,0v.03s-.01.01-.01.01h-.04s.01,0,.01,0h-.01s-.06,0-.06-.01-.01-.01-.01-.01h-.05s0-.01,0-.01h.05s.04-.03.04-.03-.04-.01-.04-.02-.01-.01-.01-.01h-.01s-.03.01-.04.02h.01s-.03.04-.03.04c0,0,0,0-.02.01-.02,0-.04,0-.05,0h0s-.01,0-.03.01h.01s.02,0,.02,0h.01s.01.02.01.02c0,0,0,0-.02,0h-.06s0,0,0,0h-.01c-.06.04-.11.08-.17.12h0s.03.01.03.01h.04s.01.02.01.02h.04,0s0,.04,0,.04v.02h.01s.03-.01.03-.01v-.03s.03,0,.04-.01.04-.03.04-.03c0,0,0-.02,0-.02,0,0,.02-.01.03-.02,0,0,0-.03,0-.03,0,0,0-.01.01-.02h.05s.01,0,.03,0c0,0,.01,0,.01.01h.02v.02s-.04.01-.04.01h.02s.01.01.01.01l.04-.02h.01s0,0,0,0c.08-.08.16-.16.26-.23l-.02-.04h-.07s-.09.03-.16.06M38.01,4.17h.01s.05,0,.05,0h.04s.01-.04.01-.04h-.04s-.01.02-.01.02h-.06s-.01.01-.01.01ZM38.03,4.07h-.02s-.02,0-.02,0c0,0-.01,0-.02.01,0,0-.04.01-.04.01h0s.03,0,.03,0h.04s.01,0,.01,0h.03s.02-.01.02-.01h0s-.03-.02-.03-.02h0ZM38.03,4.11h-.02l-.04.02-.02.04h.02v-.03s.04-.03.04-.03h.02l-.03.02h.04s0,0,0,0h.02s.01-.04.01-.04h-.01s-.04,0-.04,0ZM38.37,4.02h0s-.01,0-.02,0h-.01s-.02.03-.02.03h.05s0-.03,0-.04M38.23,5.66h0s0-.04-.01-.04,0-.01-.01-.02h0s0,0,0-.01l-.02-.02h0s0-.05,0-.05h0v-.07l-.02-.04v-.07s0,0,0,0h0v-.04h0c-.13-.03-.25-.04-.39-.06.11.16.27.32.47.45M37.62,4.73c0,.16.04.3.11.43.13.02.26.04.4.06v-.03h-.01s0-.01,0-.02-.04-.02-.04-.02c0,0-.03-.01-.04-.02,0,0-.02,0-.03-.01s0-.01,0-.01c0,0-.04-.06-.04-.06s-.01-.01-.01-.02-.02-.02-.02-.03h-.02s0-.03,0-.04,0-.01.01-.02h0v-.03h0s.04-.05.04-.05c0,0,.01-.01.02-.02s.01-.02.01-.02c0,0,0-.03,0-.04s-.02-.04-.02-.04h-.01s-.01-.01-.01-.01h0s0,.02,0,.02h-.03s-.01-.01-.01-.01h-.01s-.04-.02-.04-.02v-.02s-.03-.02-.03-.02h0s-.01,0-.01,0h-.04s-.01,0-.01,0h-.01s-.03-.04-.03-.04h-.02s-.01,0-.02,0h-.01s-.01.06-.01.11M38.23,4.17s0,0,0,0h.07s.02-.04.03-.06l-.07.04s-.03.03-.03.03ZM39.61,3.78h.01s.02-.01.02-.01h0s.02-.01.02-.01c0,0,0-.01-.01-.02h-.02s-.03,0-.04,0h-.02s0,.02,0,.02c0,0,.02.02.03.02M39.77,4.17h0s-.04,0-.06,0h.03s.04,0,.04,0ZM39.61,4.17h.01-.04s.03,0,.03,0M39.71,4.39h0s-.01,0-.01,0l.04.06v.02s.03.03.03.03c0,0,0,.01,0,.02s.01.03.01.03c0,0,0,.01,0,.02,0,0,.04.05.04.06,0,0,.01,0,.04.01.02.01.02.02.02.02h0s.02.02.02.02v-.04h0s-.01,0-.01-.01-.01-.02-.01-.04-.01-.04-.01-.04c0,0-.01,0-.01-.02,0,0-.01-.01-.02-.02s-.01,0-.01-.02,0-.02-.01-.04-.02-.01-.02-.01c0,0,0,0,0-.01-.01-.02-.02-.04-.04-.06-.01,0-.02,0-.02,0M39.96,4.2h0s0-.01,0-.01h0s-.05,0-.08,0h0s.01.02.01.02h-.01v.06h.03s.01.01.02.01h0s.03,0,.03,0h0v-.03h0s0-.01,0-.01h0s0-.01,0-.01h0s0,0,0,0ZM40.97,4.32s.01,0,.01,0c0,0,0,.01.01.01s.01.01.01.01h0s-.02,0-.02,0h.01v.02h0s0,0,0,.02c0,.01,0,.04-.01.06h0c.02.08.04.16.04.24h0s0-.02,0-.02h0s0,.03,0,.03h-.01v.06h.02s-.01,0-.01,0h0s0,0,0,0h0v.02h0s.01.01.01.01h0s-.01,0-.01,0h0v.03h0s-.01.08-.02.11h.08s0,0,0,0h-.03s-.06.01-.06.01h0c-.01.06-.04.11-.06.16.06,0,.11-.02.16-.03h.01s0-.02.02-.03c.01,0,.02-.01.03-.02,0,0,.02,0,.03,0s0,.01,0,.01h.02s0,0,0-.01.02-.03.02-.03h.03s.06,0,.06,0v.02s-.03.01-.03.01h.01s.05,0,.08,0v-.02l.02-.04h0s.01.04.01.04c.04-.01.07-.02.1-.03.04-.09.06-.19.06-.28,0-.11-.02-.21-.07-.3-.11-.04-.21-.06-.32-.08h0s0,0,0,0h-.01s-.02-.01-.02-.01h-.01s-.01,0-.01,0h0s-.03-.01-.05-.01c0,0,0,0,0,0,0,0-.03,0-.03,0h0v-.02h0s-.06,0-.08-.01h-.01s.02,0,.03.01M41.09,5.02h-.01s.01-.01.01-.01h.01s-.01.01-.01.01h0ZM41.53,4.93h.06s0,0,0,0h-.01s-.04,0-.04,0h0ZM41.27,4.85h.04v.02h.01s0,.02,0,.02h.02s.02-.03.02-.03h0s.04.01.04.01l.05.02h.02v.02h.04v.02h-.01s0,0,0,0v.02s.03,0,.03,0h0s-.01,0-.01,0h-.03s-.01-.04-.01-.04h-.02s-.02,0-.02,0h0s-.01.01-.01.01h-.03s-.02,0-.02,0h-.02s.02-.01.02-.01h0s-.01-.04-.01-.04h-.02s-.04-.02-.04-.02h-.01s0,0,0,0h.01s-.01-.01-.01-.01h-.01s-.01-.01-.01-.01h0s0,0,0,0h0ZM41.1,4.88h.01s0-.01,0-.01v.02s0,.02,0,.02h.01v.02h-.02s0-.04,0-.04h-.01v.05h-.01v-.04s0-.03,0-.03v-.03s.04,0,.04,0h.02s0,0,0,0h-.02s-.03.01-.03.01v.02s.01.01.01.01h0ZM41.07,4.65h.01s0,.01,0,.01h0ZM41.12,4.69h-.01s0-.01,0-.01h0s.02,0,.02,0h0ZM41.12,4.69h0v.02h0s0-.02,0-.02ZM41.14,5.01h0s.04-.03.04-.03h0s-.04.03-.04.03ZM41.17,4.72h0v.02h0s0,0,0,0h0s0,.01,0,.01h0s0,0,0,0h-.01v-.02h0s0,0,0,0h-.02s0,.01,0,.01h0s0-.01,0-.01h0s.01,0,.01,0h0s.01,0,.01,0h0s0-.01,0-.01h0s.01,0,.01,0h.01ZM41.15,4.69h-.01s0-.01,0-.01h0s0-.01,0-.01h0s0,.02,0,.02c0,0,0,0,0,0ZM41.14,4.34h.01s0,.02,0,.02v.02h-.01v-.02h-.01s0-.01,0-.01h.01ZM41.1,4.63h.01s.01.02.01.02h0s0,0,0,0h0s-.01-.01-.01-.01h0ZM41.07,4.56h.01s0,.03,0,.03h0s0,.02,0,.02h0s0,.02,0,.02h0s0,.02,0,.02h0s0-.01,0-.01h0v-.02s0,0,0,0v-.03h0s.01-.03.01-.03h0ZM41.04,4.47h.01s0,.04,0,.04h0s-.01,0-.01,0h0s.01-.03.01-.03h0ZM39.72,4.12h-.02s.03-.04.02-.04-.06,0-.06,0v.02s-.01,0-.01,0h0s-.04-.01-.04-.01h0s-.02.04-.02.04h0c.06.01.12.01.18.02,0-.02-.03-.04-.03-.04ZM41.37,5.1h-.01s.01,0,.01,0M38.35,3.61h.01s0,0,0,0c0,0-.01,0-.02,0M38.41,3.61h.08s0,0,0,0c.05-.02.1-.04.15-.05h.04s-.08,0-.13,0l-.04.03h-.03s-.04,0-.05,0h-.03ZM37.4,4.01h0s0-.04,0-.04h-.02s-.03-.03-.03-.03h-.04c-.32.18-.54.4-.59.65.07-.07.2-.13.37-.19.07-.15.18-.28.33-.39M37.07,5.05c-.17-.06-.29-.12-.36-.19.11.49.82.9,1.78,1.05-.7-.14-1.24-.47-1.42-.86M37.39,4.07h.01s.01,0,.01,0c0,0-.01,0-.01,0h0s-.01,0-.02,0M38.36,5.78s.02.01.02.02.03.02.03.02c0,0-.03,0-.04,0s-.07-.04-.08-.04l-.06-.06s0,0,0-.01c-.23-.13-.4-.31-.52-.51-.23-.04-.44-.08-.6-.13.22.42.84.74,1.62.86-.12-.04-.25-.08-.37-.13h0ZM41.46,5.12s0,.01.01.01c.01-.02.03-.05.04-.08-.02,0-.04.01-.06.02h0s0,.03,0,.04M37.4,4.09h-.01c-.11.08-.2.18-.26.29.06-.02.13-.04.2-.06,0,0,0,0,0,0v-.04s0-.02,0-.02c0,0,0-.04.03-.06l.06-.06s.01-.03.01-.03h0-.02ZM37.41,4.37s-.01,0-.01,0h-.01s.01.04.01.04h0s.01.04.01.04v.02h0s0,.01,0,.02h0s-.01,0-.01,0l-.02-.02h0s0-.02,0-.02c0,0,0,0,0-.01h-.01s-.02-.02-.02-.02h.01s0-.02,0-.02h0s-.01-.04-.01-.04h0c-.09.01-.18.04-.25.06-.05.1-.07.2-.07.3,0,.1.02.2.06.29.16.06.37.1.6.14-.07-.13-.1-.28-.11-.42,0-.04,0-.08,0-.13t-.02,0s-.02,0-.02,0h0s-.01,0-.02-.01h-.02s-.01-.02-.01-.02h0s.01-.02.01-.02v-.02s-.04-.02-.04-.03h-.01s-.01-.02-.01-.03h0s-.01-.03-.01-.03c0,0-.01-.02-.02-.03.01,0,.02-.01.01-.02M37.64,3.79h.06s.06-.03.07-.03h0s.04,0,.04,0h.01s.02,0,.02,0c.02-.01.05-.02.07-.03,0,0-.01,0-.03.01-.03,0,0-.01-.03-.01,0,0,.01-.01.04-.02.02,0,.01,0,.06-.01.04,0,.04,0,.04,0h0c.14-.06.29-.1.45-.13h0s0,0,.01,0c-.31.05-.59.13-.84.23h0s0,0,0,0M39.24,3.53s-.05.04-.06.04c0,0-.01.04-.01.05s0,.03,0,.03c0,0-.05.02-.07.03s-.04.03-.07.04c0,0-.01,0-.03,0-.07.11-.13.25-.18.42.08,0,.16,0,.23,0v-.02s0,0,0,0h0s.01-.01.01-.01h.06s.01,0,.01,0v-.05s-.02-.01-.02-.01h-.03v-.02h.02s.02,0,.02,0h0s.02-.01.02-.01h.01s.02-.02.02-.02c0,0,.01,0,.02-.02,0-.01.04-.01.04-.01h.02s0-.02,0-.02h0s0-.02,0-.02h.03s0,0,0,0v.02s0,0,0,0v-.06h0s-.03,0-.03,0h-.03s-.01-.01-.01-.01v-.03s0-.01.01-.02t.03-.01s.03-.02.03-.03h0v-.25s-.02,0-.04,0l-.02.02h0ZM39.08,3.92h0s0,.03,0,.03h0s-.01,0-.01,0h-.01s-.01,0-.01,0h-.01s.01-.02.01-.02h0s0,0,0,0h0s.01-.01.01-.01h0s.01-.02.01-.02h.01s0,0,0,0h0s0,0,0,.01M39.18,3.96h-.01s.01.01.01.01h0s-.04.01-.04.01h-.06,0s0-.01,0-.01h0s.01,0,.01,0h0s-.01,0-.01,0h-.01s.01-.01.01-.01h0s0-.01,0-.01h0s.01,0,.01,0h0s0-.02,0-.02h0s0,0-.01,0c0,0,0,0,0,0h0s0-.01,0-.01h-.01,0s0-.02,0-.02h0s0-.02,0-.02h0s0,0,0,0h.02s-.03.02-.03.02h.04s0,.02,0,.02h-.01s.01.01.01.01c0,0,0,0,0,0s0,0,0,.01c0,0,0,0,0,.01h0s0,.01,0,.01h0s0,.02,0,.02h0s0,0,0,0h-.01ZM41.29,3.99h.03s.01.01.01.01h0s.01.02.01.02h0s0,.01,0,.01h0s0,.01,0,.01h.01s0,.02,0,.02c.1.09.18.19.23.3.17.06.3.12.37.19-.06-.24-.26-.45-.57-.63h-.01v.02h-.01s-.03,0-.03,0h0s-.01,0-.01,0h0s-.01,0-.01,0h0s0,.04,0,.04M39.27,4.12h-.03s-.03,0-.03,0h0s.06,0,.09,0v-.02h-.01s-.02.01-.02.01h0ZM38.61,5.29s-.02,0-.02,0c0,0-.04.02-.04.03,0,0,0,.03,0,.04,0,0,0,.01-.01.02h-.01s0,0,0,.01c0,0-.01,0-.01.01s-.01.03-.01.03c0,0,0,0,0,.01s0,.01-.01.02c0,0-.01,0-.02,0h0c.12.17.28.3.46.39.03-.01.06-.01.08-.01.01,0,.03,0,.04,0-.11-.12-.21-.31-.26-.55-.04,0-.1,0-.15,0M39.17,4.17v.02s0,0,0,0h-.01s-.01.03-.01.03h-.04s-.01,0-.01,0h-.01s-.01-.01-.01-.01h-.01v-.02h0s0-.04,0-.04c-.08,0-.16,0-.23,0-.04.18-.06.37-.06.55,0,.09,0,.18.01.26,0,0,.01.02.01.03s0,.02,0,.03c0,.08.02.15.04.22.16,0,.33.01.5.01v-.46h0s-.01-.03-.03-.04c-.01,0-.06.02-.06.02,0,0-.02.01-.04.01h-.06s-.02.01-.03.01-.02,0-.03-.02c0,0-.04-.04-.04-.04,0,0-.02-.02-.02-.03s-.02-.03-.03-.04c0,0-.02-.01-.03-.02t0-.03s-.01-.03-.01-.03v-.02s.02-.04.01-.05c0-.01,0-.01,0-.02s-.01-.01-.01-.04c0-.02.01-.04.01-.04,0,0,.01-.03.02-.04,0,0,.02-.04.03-.04s.04,0,.04-.04c0,0,0-.01,0-.01h0v-.03s0,0,0-.01.01-.01.02-.01.02-.02.02-.02h0s.01-.01.01-.01h.01s.03,0,.03,0h.02s.01-.01.01-.01c0,0,.01,0,.02-.01,0,0,.03.01.06,0,.03,0,.02,0,.02,0h.02s0-.06,0-.06h-.12v.03ZM38.43,5.53s0,.01-.01.02c-.01,0-.03,0-.04,0h-.02v.02s0,0,0,.01c0,0-.01,0-.01,0h-.02s0,0,0,0,0,.01,0,.01h.01s0,.01,0,.01h0s0,.02,0,.02h0s-.01.02-.01.02c0,0,0,.02,0,.02s.02,0,.02,0h0v.03s0,0,0,.01h0c.16.09.33.15.5.18,0,0,.02,0,.03-.01-.18-.11-.33-.23-.45-.38M39.08,5.84h.09l.07.04h.06s0-.57,0-.57c-.17,0-.33,0-.5-.01.06.24.16.43.27.55M37.05,5c-.04-.08-.06-.18-.06-.27,0-.1.02-.2.06-.29-.18.06-.31.13-.36.21,0,.03,0,.05,0,.08v.06c.06.08.18.15.36.21M39.43,5.24s0-.02,0-.03v-.05s.01-.03.01-.04,0-.02,0-.04,0-.01,0-.04c0-.01-.07-.11-.07-.11h-.01s.01-.03.01-.04c0,0,0-.01,0-.02s0-.01,0-.02c0-.01,0-.02-.02-.03h-.01v.46h.12s0-.05-.01-.05M39.38,4.31h.02s0,.03,0,.03h.02s.03.02.03.02h.01v-.03h0s.03-.01.03-.01h.03s.02.02.02.02h.02s.03,0,.03,0h.03s.02,0,.02,0h.04s0-.02,0-.02v-.02s.01-.01.01-.01h0s0-.02,0-.02h0v-.02h0s-.01,0-.01,0h-.01s-.01.01-.02.01,0,0,0-.01-.02,0-.02,0h0s-.01,0-.01,0h0s-.02,0-.02,0l-.03-.02v-.02s0,0,0-.01,0-.01,0-.01h-.02s-.01,0-.01,0h-.01s.02.04.02.04h0v.04h-.02s-.01-.02-.01-.02h0s-.01-.02-.01-.02v-.03s-.01,0-.01,0h-.04s.02.01.02.01h0s0,0,0,0h0s0,0,0,0h0s0,0,0,.01h0s0,0,0,0h0s0,.01,0,.01h0s0-.01,0-.01h0v-.02s-.04-.02-.04-.02h-.04v.1h0v.03s.02.02.03.02c.02,0,.04,0,.04,0M39.68,4.27h0,0s0,.01,0,.01h-.01s.02-.01.02-.01M39.52,4.26h.03s0,.01,0,.01h0s-.02,0-.02,0l-.02-.02h0ZM39.4,5.88s.12-.05.12-.05c0,0,.01,0,.04,0,.11-.11.21-.3.27-.55h-.04s-.01.02-.02.02-.01.02-.01.02c0,0,0,.02,0,.03,0,0,0,.01-.01.03-.01,0-.04.04-.06.06-.01.01-.04.03-.06.03s-.06.02-.06.02l-.02-.04v-.03s-.02-.04-.03-.05-.03-.04-.03-.05c0-.01,0-.03,0-.04,0,0,0,0,0-.01h-.13v.58s.06.03.07.01M39.46,5.79v.02s-.04.02-.04.02v-.04s.04,0,.04,0ZM39.38,4.1s-.02-.02-.02-.03-.01,0-.01,0h0s.01.03.02.03h0s0,.01,0,.01h.04l-.04-.02M38.7,5.12h0v.06s-.01.07-.02.08c.03,0,.06,0,.09,0-.01-.06-.03-.12-.04-.18h-.01s0,.03-.01.03M39.88,3.62h.01s0,0,0,0c.05.04.1.07.15.11h0s0-.05,0-.06c0-.01.02,0,.04-.01.01,0,.04-.01.07-.01-.16-.06-.33-.11-.49-.13.07.03.14.06.21.1h0ZM39.43,3.68h.09s0,.01.01.01c.01,0,.11.04.11.04h.01c-.09-.13-.2-.22-.32-.23v.2s0,0,.02,0c.02,0,.07-.01.07-.01M39.38,3.93h.05v-.02h0s.01-.03.01-.03h0v-.02h.06s.04-.01.04-.02c.01,0,0-.02,0-.02h-.04s-.06.03-.06.03h-.03v-.03s-.01-.02,0-.02c.01,0,.03-.03.03-.03h-.03s-.02,0-.02,0h0s-.01.03-.01.03l-.03.02v.03l.03.02-.02.03-.03.03h-.02v.03h.01s.04-.01.04-.01h0ZM39.7,3.75h.04s.06,0,.1-.01.02-.02.02-.02h.07s0,0,0,0c-.03-.02-.06-.04-.08-.06h0l-.04.04v.02s0,0,0,0l-.04-.04.04-.04h.01c-.1-.06-.21-.09-.33-.11.08.04.15.12.21.23M38.72,3.78v-.04s.01-.03.01-.03c0,0,0-.02.01-.02s0,0,0-.01c-.08.06-.16.13-.23.21,0,0,0,.01,0,.02,0,0,.02.01.02.01,0,0,0,0,.01.01h-.03s0,0,0,0h.04s0,.01,0,.01h0s0,.02,0,.02h-.04s-.03.03-.04.03-.01,0-.02,0h-.05s-.03.05-.04.07h.06s0,0,0,0l-.03.02h-.04s-.02.02-.02.02c0,.01-.01.04-.03.05.15-.01.3-.02.45-.03.04-.16.1-.3.17-.41h-.03l-.08.04-.04.05h-.02s-.04-.01-.04-.01v-.03h0ZM38.56,4.05s0,.01,0,.01h-.04s-.04,0-.04,0h0s.03-.04.03-.04l.02-.03h.02s0,0,0,0h-.01s.02,0,.02,0c0,0,.01,0,.01,0-.01.01-.01.04-.01.04M41.5,5.16h0s.02.04.03.05c0,0,.01,0,0,.02s0,.03-.02.04c-.02.02-.07.08-.08.1s-.02.03-.03.03c-.01,0-.04,0-.05.01-.01,0-.02,0-.04,0,0,0-.01,0-.03,0-.01,0-.01,0-.02,0-.26.22-.66.4-1.12.5.38-.06.74-.16,1.03-.3.42-.21.69-.47.74-.74-.07.07-.19.13-.36.19-.01.03-.04.07-.06.11M41.36,5.47s-.03.02-.04.03h-.01s.01-.04.01-.04h.04s0,0,0,.01M41.58,4.44c.04.09.06.19.06.29,0,.09-.02.18-.06.27.18-.06.3-.13.35-.21,0-.02,0-.04,0-.06,0-.03,0-.06,0-.08-.05-.08-.18-.15-.36-.21M40.31,5.27c-.14.01-.29.02-.44.03-.06.23-.16.43-.27.55.04,0,.09.01.11.02.25-.11.47-.33.59-.6M38.32,4.2c-.07.16-.11.33-.11.5h0s.03,0,.03,0c0,0,0,0,.02,0,0,0,.01,0,.02,0h0s.01,0,.01,0c0,0,0,0,.01.01,0,0,.02.01.02.01h0s0,0,.01.01c0,0,0,.01.02.01,0,0,.02,0,.04,0s.04.01.04.02c0,0,.01.01.01.02s0,.01,0,.01v.02s.01,0,.01.01,0,.01,0,.01c0,0,.02,0,.02,0h0s.03.01.04.01c0,0,.04.01.04.02,0,0,0,0,.01,0s.03.01.04.01.01,0,.02,0c0,0,.01,0,.02.01,0,0,.01.01.03.02,0-.08-.01-.16-.01-.24,0-.2.02-.39.06-.55-.16,0-.3,0-.45.01M40.88,5.2c-.18.03-.36.05-.54.06-.12.28-.33.5-.57.62.02,0,.04,0,.06.01.47-.11.86-.37,1.05-.69M41.27,5.36s-.01,0-.02,0-.02,0-.02,0c0,0,0-.02-.01-.03s-.05,0-.05,0c0,0-.03,0-.05,0t-.04.01s-.01.01-.03.02c-.01,0-.02,0-.04,0s-.02,0-.04.01-.04.01-.04,0h-.01s.04-.04.03-.05v-.07s0,0,0-.02c0-.01.01-.05.02-.06s.01,0,.02-.01c-.02,0-.04,0-.07.01-.18.33-.55.59-1.01.72h0c.57-.08,1.06-.28,1.36-.54h0M40.46,4.78h0c0,.15-.04.3-.09.45.18-.01.36-.04.55-.07.03-.06.05-.11.07-.17h-.03s-.04,0-.04,0h-.03s-.01-.02-.01-.02h0s.02,0,.02,0c0,0,.01,0,.01,0,0,0,.01,0,.02,0h.02s.03,0,.03,0h.01s.01-.04.01-.06h-.04s0,0,0,0h-.02v-.03s-.02-.01-.02-.01v-.02h0s.02,0,.02,0v-.02s.04,0,.04,0v-.02s.03,0,.03,0h0v-.06c0-.08-.01-.16-.03-.23,0,0-.02.01-.03.01-.01,0-.05.01-.05.01h-.01v.02h0v-.02s-.02,0-.04,0c-.01,0-.02.04-.02.04h.01s0,.02.01.03.03.02.03.02c0,0,.01.02.01.03v.04h-.02s-.03.04-.03.04h0s0-.02,0-.02h-.02s-.01,0-.01-.01-.02-.02-.02-.02h-.01s-.01-.01-.01-.01v.05s0,.01,0,.01h.01s.01.03.01.03h0s0,0,.01.01.01.02.02.02,0,.04,0,.04c0,0,.01.01.01.01h0l-.04-.02s-.02-.04-.02-.05c0,0-.03-.04-.04-.04,0,0,0-.04,0-.05s-.02-.04-.02-.05-.02-.04-.02-.04h0s-.01.03-.01.03h-.01v-.04s-.01-.03-.03-.03c-.01,0-.02-.03-.02-.03,0,0-.02-.01-.02-.01h0s-.02.01-.02.01h-.04v.02s0,0,0,0l-.03.03s-.02.01-.02.03c0,0-.02.01-.02.01h0s0,.06,0,.1c0,0,.02.03.03.03h0v.02l-.02.02h0ZM40.9,4.58h-.01s0-.02,0-.02h0s.01-.01.01-.01h0v.02s-.01.01-.01.01h0ZM40.7,4.78h.01s.02,0,.02,0h0s.03.03.03.03h.02s.02.03.02.03h.01s.01.01.01.01h0s0,.01,0,.01h.01s.02.02.02.02v.05h-.01s-.03-.03-.04-.03l-.02-.02s-.01-.01-.01-.01h-.01s0-.04,0-.04h-.01s-.01-.03-.01-.03c0,0-.03-.03-.03-.04-.02,0-.01,0-.01,0M41.26,4.29v.02c.1.02.18.04.25.06-.08-.16-.23-.3-.42-.42h-.04s-.03,0-.05,0h-.01v.04s-.03.02-.03.02h.03s0,.02,0,.02h.01s.03,0,.04,0,.02,0,.02,0c0,0,0,0,0,.01v.02s.04.04.04.04h0s0,.02,0,.02c0,0,0,.01,0,.02s0,.02,0,.02h-.01s-.01.01-.01.01h0s0,0,0,0c0,0-.01.01-.01.01h.01s-.01.03-.01.03h0,0s.02.02.03.03c.05,0,.09.01.13.03h.01s0-.04,0-.04h-.01v-.03h.02s.02.02.02.02v.02s0,.01,0,.01h0ZM41.18,4.14v-.02s-.03-.01-.03-.01l-.02-.02-.03-.03h0s.04.01.04.01l.04.03v.02l.02.03h0s0,0,0,0ZM41.26,4.2v.02s-.03,0-.03,0h0s0,0,0,0h-.02s0-.03,0-.03,0,0,0,0v-.02s-.01,0-.01,0l.04.02h.04s0,.02,0,.02c0,0,0,0,0,0ZM39.92,4.08h0s0,0,0,0h-.04s-.01.02-.01.02h0s0,.02,0,.04h.04-.01v-.02h0s0,0,0,0h0s0-.01,0-.01h.03s-.01-.01-.01-.01c0,.02,0,0,0,0ZM41.02,4.26h0s0-.01,0-.01h-.03s-.01,0-.01,0c.02,0,.04,0,.05,0M37.88,3.78h.07s.01,0,.01,0h0s0,.01,0,.01.01-.01.01-.01h0s.04-.01.04-.01h.04s-.03,0-.03,0c0,0-.08.01-.08,0,0,0-.01,0-.01-.01,0,0,.03,0,.03-.01h0s-.04.01-.06.03h.01s-.03.02-.03.02h0ZM40.31,3.66s.06.01.04.02c-.02,0,.03.02.03.02h.08s.06,0,.08,0,.07.03.07.03h.08s.04.01.04.01h0c-.24-.11-.52-.18-.84-.23.12.04.23.07.34.12.03.02.06.02.08.02M37.79,4.39h-.03s-.03,0-.04,0-.02,0-.04.02c-.01.04-.02.07-.04.11,0,.03.04.04.06.04.04,0,.06-.01.06-.02s.02-.02.02-.02h.04s.01,0,.01,0c0,0,0,0,0,.01,0,.01-.03.03-.03.03,0,0-.01.01-.01.02s-.01.01-.02.02.03,0,.03,0h.05s.03,0,.03,0c0,0-.01.05-.01.06s.02.03.04.04c0,0,0,0,.02,0,.01,0,.04,0,.04,0h.02s.01.03.01.03h0s.01-.02.01-.02h0s0-.01,0-.02,0,0,.01,0,.01,0,.03,0c.01,0,.02,0,.02,0h0s0,.02,0,.02h0s0,.02,0,.02h.01,0v-.02h.04s.02,0,.02,0h0s0,0,.02,0c0-.04,0-.08,0-.13h0c.01-.13.04-.25.09-.36-.05,0-.1,0-.14.01,0,0,0,0,0,0,0,0-.01.01-.03.02h0s-.05.05-.05.05c-.01,0-.03,0-.04.01,0,0-.03.02-.03.03,0,0,0,.04,0,.04,0,0,0,.02,0,.03s0,0,0,.01-.01.01-.02.01h0s0-.02,0-.03,0-.01,0-.01h0s0-.02,0-.02c0,0-.01,0-.02,0,0,0-.01,0-.01,0,0,0-.01-.01-.03-.01s-.05-.01-.05,0,.02.01,0,.01t-.03.01M38.02,4.58h-.03s.03,0,.03,0h0ZM38.08,4.55h0s.02,0,.02,0h.02s.01,0,.01,0h.02s-.02.01-.02.01h-.01s0,0,0,0h-.01s0,0,0,0h-.04v-.02h.03ZM37.92,4.49h.06s.02.01.02.01h.02s.01.01.01.01h.02s0,.02,0,.02h-.06.01s0,0,0,0h-.01s0-.02,0-.02h-.04s-.01-.01-.01-.01h0s-.01,0-.01,0h-.02s0,0,0,0h.04ZM41.15,3.95s.06.04.08.06h0v-.02s.01,0,.01,0v-.02h0s0-.02,0-.02h0s-.01-.01-.01-.01h0s-.01,0-.01,0h0s0,0,0,0h0s-.01,0-.01,0c0,0,0,0-.03,0-.03,0-.01.03-.01.03h0M40.27,4.49s-.01,0-.01,0-.02-.01-.02-.01l-.02-.03h-.06s-.04,0-.06,0c-.02,0-.01,0-.02-.01,0,0,0-.01-.01-.01-.01,0-.02,0-.02,0,0,0-.03-.01-.04-.01s-.02,0-.03-.01-.02-.04-.03-.04h-.03s0,.01,0,.02c0,0,.01.02.02.03,0,0,0,.01,0,.02s0,.01,0,.01h0s0-.02,0-.02h0s0,.03,0,.03h0s0,0,.01,0,.01,0,.01,0l.03-.03v.02s.02.02.03.02,0,0,.01,0c0,0,0,0,.01.01,0,0,0,0,0,0,0,0,0,.01-.01.03-.01.01,0,.03,0,.03,0,0,0,0-.01,0t0,0s-.01,0-.02.01c0,0-.01,0-.03,0-.01,0,0,.02,0,.02-.02,0-.05.02-.08.03v.04h.06s0-.01,0-.01c0,0,0,.03,0,.04,0,.01,0,.05-.02.07-.01.01-.03.04-.04.05h0c0,.15-.02.29-.06.42.15,0,.3-.01.45-.03.06-.16.1-.32.1-.5h0s-.01-.01-.02-.03c0-.01-.01-.02-.03-.05-.01-.03-.03-.04-.03-.06l-.02-.06h0v-.02h0s0,0,0,0c0,0-.01,0-.02,0s-.03-.03-.03-.03c0,0,0,0,.01,0,0,0,0,0,0,0M40.94,4.22v.02s0,0,.01,0h0v-.02h-.01ZM40.91,3.78s.03,0,.08.02c.02,0,.07.01.12.02-.28-.12-.6-.21-.96-.27.25.05.47.13.67.22.02,0,.06,0,.08,0M39.84,5.27c.03-.12.05-.25.06-.39l-.02.02s-.04.09-.04.09h.01s0,.03,0,.04v.03s.01,0,.01.02v.07s-.04.04-.05.05-.01.01-.02.02-.01.02-.01.02c0,0,0,0,0,.03.01,0,.03,0,.05,0M38.32,3.64s-.01,0-.01,0h-.04s0,.01,0,.01c-.08.02-.15.04-.22.07h0s.01,0,.03-.01h.03l-.02.02h.01s-.01.05-.01.05h.01s.03,0,.03,0,0-.01,0-.01h.04s.01,0,.01,0h.02s0-.02,0-.02h-.01s.03-.02.03-.02l.02-.02.02-.02h.03s0,0,0,0l-.04.02h-.01s0,.02,0,.02h.01s0,0,.01,0h0s.03-.01.04-.02c-.04,0,0-.01,0-.01l.03-.02.04-.02h.06s.03-.02.03-.02h-.1s-.02.03-.01.02M38.17,3.71l-.02-.02h.04s.01,0,.01,0l-.04.03ZM38.01,2.63s0,0,0,.01h0s.01,0,.02,0l.03-.03s-.04,0-.04,0"/>
      <path d="M42.48.25s-.01,0-.03,0c-.03.01-.13.09-.16.11t0-.01h0c.02-.06.09-.2.09-.28,0-.02,0-.04,0-.05,0,0,0-.01-.01-.01-.01,0-.03,0-.05.02-.04.04-.26.25-.27.25h0s0,0,0,0v-.05s.04-.08.04-.11c0-.01,0-.03,0-.04,0,0,0-.01-.01-.01-.01,0-.03,0-.04.02-.02.04-.32.35-.38.39h0s.01-.03.03-.06c0-.02.07-.16.07-.23,0,0,0-.01,0-.02,0,0-.01-.01-.02-.01-.04,0-.13.09-.33.33,0,0-.16.18-.17.19h0v-.02s0-.11-.03-.14c-.01-.01-.02-.02-.04-.02-.02,0-.04.02-.06.08-.03.06-.25.3-.51.5h0c-.23.19-.39.31-.57.58-.14.21-.38.31-.56.4-.05.02-.1.04-.14.06-.01,0-.18-.02-.38-.01-.01-.08-.06-.3-.32-.45-.25-.16-.63-.4-.89-.63-.16-.14-.27-.28-.33-.36-.04-.05-.06-.07-.06-.07-.01,0-.03,0-.04,0s0,.01,0,.04,0,.06.03.11h-.01s-.13-.07-.23-.22-.18-.36-.18-.36c0,0,0-.01-.01-.01-.01,0-.02.01-.02.03,0,.03-.01.06-.01.12,0,.05,0,.12.03.21h0s-.16-.14-.3-.38c0,0-.02-.03-.04-.02,0,0-.01,0-.01.01s0,.01,0,.03c0,.06.04.17.11.32-.09-.08-.17-.18-.25-.28,0,0-.03-.04-.05-.04,0,0-.01,0-.02,0,0,0,0,.01,0,.03,0,.05.03.15.09.28-.05-.04-.09-.07-.14-.11,0,0-.02-.01-.04,0,0,0-.01.02-.01.04,0,.04.04.12.05.15,0,0-.01,0-.01,0-.01,0-.04-.02-.06-.02,0,0-.01,0-.02,0h0s.02.08.04.11c.02.04.12.13.16.16-.04-.01-.11-.03-.11-.04,0,0-.03,0-.04,0t0,.01h0s.13.14.36.27c-.04,0-.06,0-.07,0h0s.15.12.26.16h-.01s-.04,0-.05,0h0s.01.06.27.16c-.04,0-.06,0-.06.01h0s.13.12.37.19c-.02,0-.04,0-.04.01h0c.01.06.25.14.46.21-.02,0-.04,0-.04.01,0,0,0,0,0,.01h0s.06.09.55.22h.01,0s-.02,0-.02.02h0s.01.03.05.05c.07.04.19.08.23.1-.15.08-.3.16-.44.25h0s0,.08-.06.11c-.04.02-.08.06-.1.13v.02c0,.06.04.13.11.2.01.01.03.01.03,0,0,0,0-.02,0-.03,0,0-.01-.04,0-.06,0-.01.01-.02.03-.02.04-.01.08,0,.11,0h.02s.08.01.13-.01c.04-.02.15-.01.21,0h.04s-.04.04-.05.06l-.04.03s-.06.04-.08.08c0,0-.2.04-.2.04,0,0,0,0,0,0,0,0-.05.09-.12.16-.07.06-.15.09-.15.09h0s-.03.04-.04.13v.03h0v.02s.01.02.03.03c0,0,.03.02.06.04,0,0,.02,0,.04.01h0c-.21.06-.4.13-.57.21-.55.26-.85.62-.85,1.01s.3.74.85,1.01c.52.25,1.2.38,1.93.38s1.42-.13,1.93-.38c.55-.26.85-.62.85-1.01s-.3-.74-.85-1.01c-.33-.16-.72-.27-1.14-.33h0s.03-.02.04-.04c.03.01.1.05.16.04.08-.02.1-.08.1-.1,0,0,0,0,.01,0h.01s.06.03.11.01c.03-.01.05-.04.06-.06,0-.01.01-.02.02-.02,0,0,.01,0,.03,0,.02,0,.06,0,.07-.03,0,0,.01-.03.01-.05,0,0,0-.03.01-.04,0,0,.11-.04.13-.12,0,0,0-.02,0-.04,0-.02-.03-.03-.06-.04l-.89-.23s-.03-.01-.06-.05c.08,0,.37,0,.55-.06,0,0,.02-.01.02-.02s0-.01-.01-.02c-.01,0-.02-.01-.03-.01h0s.28-.06.34-.09c.03-.01.04-.03.04-.04h0s-.02-.02-.04-.02c0,0-.03,0-.04,0,0,0,.02,0,.02,0,.07-.01.26-.06.38-.11,0,0,.03-.01.03-.03h0s0-.01-.01-.02c-.02-.01-.12-.01-.13-.01,0,0,0,0,0,0,0,0,.04-.01.06-.02.13-.04.36-.12.42-.21,0,0,0-.01,0-.02s0-.01-.02-.02h-.08,0s.02-.01.02-.01c.08-.04.31-.16.43-.26,0,0,.02-.03.02-.04h0s-.01-.03-.05-.03h0s0,0,.01,0h.01c.16-.08.26-.16.32-.23,0,0,0-.01,0-.02h0s0-.02-.02-.02c-.03,0-.1,0-.11.01h0s0,0,.01-.01h.02c.06-.05.18-.13.24-.24h0s0-.03-.01-.04c0,0-.01,0-.02,0h-.06s0,.01,0,0c0,0,.21-.21.25-.33.01-.04.02-.06.02-.07,0,0,0-.01,0-.01,0,0-.03,0-.04.01h0s-.14.09-.14.09h0s0,0,.01-.01l.03-.04c.06-.07.17-.2.18-.3h0c.01-.09.01-.1,0-.11M41.38.75c.17-.12.38-.28.57-.47h0s0,.01-.01.03c-.04.06-.25.27-.57.48.01,0,.01-.02.01-.04M42.18.26h.01s0,.04-.04.08c-.04.05-.43.42-.89.67.02-.03.04-.06.05-.08.23-.14.53-.35.87-.67M41.31.8s-.01.03-.07.08c-.06.04-.13.08-.2.11,0-.01.01-.02.02-.04,0,0,.11-.06.25-.16M40.92,1.7c-.13.04-.25.08-.38.11h0s.06-.1.06-.1c0,0,0,0,0,0,.14-.04.28-.07.41-.12h0v.03s-.05.06-.08.08M40.92,1.79h0s0,0,0,.01c-.01.02-.05.05-.12.08-.13.04-.26.08-.4.11t0,0h0s.06-.08.06-.08h0c.06-.01.23-.05.46-.13,0,0,0,0,0,0M40.99,1.49c-.11.04-.22.07-.32.1h0s.04-.1.04-.1h0c.06-.02.18-.06.35-.11,0,0,0,0,0,0h0v.02s-.04.06-.08.08M41.04,1.28c-.09.04-.18.06-.28.09h0s.03-.07.03-.07c0,0,0,0,0,0,.09-.02.18-.06.28-.09,0,0,0,0,0,0h0s-.01.06-.04.07M40.9,1.19h-.01s.04-.06.04-.06h0c.1-.04.2-.08.29-.14-.03.04-.07.08-.11.11-.06.03-.13.06-.2.08M37.39.74s.03.04.03.04c.07.11.24.33.52.5s.33.18.6.4.25.35.25.37-.02.02-.02.02c-.06.01-.18.06-.21.07s-.01-.01-.01-.01c.04-.05.04-.11.04-.11,0-.26-.42-.4-.8-.72-.38-.31-.4-.45-.41-.5-.01-.06,0-.06,0-.06M37.44,1.29c.09.01.18.03.27.04h0l.08.05h0s0,.01,0,0h-.04s-.1-.02-.16-.03c-.08-.02-.15-.05-.16-.06t0,0M37.33,1.19s0-.01,0-.01l.08.02.16.03h0l.08.05s0,0,0,0h0s-.09,0-.13-.02c-.09-.04-.16-.06-.17-.07M37.62,1.45c.06.01.13.02.2.03h.13s.08.06.08.06c0,0,0,0,0,0h0s-.16-.01-.16-.01c-.03,0-.06,0-.08-.01-.11-.02-.15-.06-.15-.06h0M37.82,1.6s.05,0,.07,0c.07,0,.14.01.21.02h0l.03.02s0,0,0,0h0s0,0,0,0c-.03,0-.07,0-.11,0-.1,0-.18-.04-.19-.04,0,0,0-.01,0-.01M37.35,1.07h.02s.08.06.08.06c0,0,0,0,0,0h0s-.07-.01-.07-.01c-.01,0-.03,0-.04-.01-.08-.03-.1-.05-.11-.06,0,0,0,0,0,0h0s.09.02.13.03M37.29.97s0,0,0,0c-.05-.01-.1-.03-.15-.04-.04-.02-.08-.05-.12-.08h0c.06.01.14.04.22.06l.06.04s0,.01,0,.01M36.9.37c.14.26.3.35.31.35.04.02.06.08.07.11h0s-.25-.14-.31-.28c-.06-.1-.07-.16-.07-.19h0M36.87.67c.06.04.13.07.2.1l.06.05h0s0,.01,0,0l-.06-.02h0s0,0-.04-.01c-.03-.01-.05-.03-.08-.04-.04-.03-.06-.04-.07-.06,0,0,0,0,0-.01t0-.01M36.41.3h0s.06.08.15.16h0s.06.06.1.08c.04.03.08.06.12.08,0,.01,0,.03.01.04-.06-.04-.11-.07-.16-.11-.06-.04-.11-.09-.16-.14l-.05-.05v-.02s-.04-.02-.04-.04h0s0,0,0,0M36.36.51h0s0,0,0,0c0,0,.04.03.07.06.07.05.21.13.43.23.01.02.03.04.05.06-.16-.07-.35-.16-.5-.28l-.04-.03s-.01-.03-.02-.04M36.42.71h-.02v-.02h0s0-.01,0,0c.04.03.16.11.4.21.06.02.12.05.18.07.04.01.09.03.13.05.01,0,.03.01.04.03h0v.03c-.07-.02-.14-.04-.21-.07-.21-.08-.38-.16-.5-.25,0,0-.03-.03-.03-.03ZM36.52.9s-.02-.01-.03-.01h0s0-.02,0-.01l.04.02c.07.04.15.07.23.1.13.05.28.1.42.14h.03s.03.03.03.04h0s-.01,0-.04,0l-.08-.02-.13-.04h-.06s-.07-.04-.07-.04c-.13-.06-.25-.11-.35-.18M36.7,1.11h0s0,0,0,0M36.79,1.15h0l-.07-.04h-.02s0-.02,0-.02c.08.03.16.06.25.08.12.04.24.06.37.09.01,0,.04.04.05.04s0,0,0,.01c-.07-.01-.15-.04-.22-.06s-.14-.04-.21-.07c-.06,0-.1-.03-.15-.05M37.01,1.31h0s0,0,0,0h0s0-.01,0-.01c.06.02.24.08.5.13.01,0,.06.04.06.05,0,0,0,0,0,0s0,0-.01,0c-.21-.04-.4-.1-.55-.17M37.31,1.51s0,0,0,0h0s0-.01,0-.01c.13.04.25.06.38.09.01,0,.04.02.04.03,0,0,0,0,0,.01-.01,0-.02,0-.03,0-.13-.04-.27-.07-.4-.11M37.59,1.68s0,0,0,0h0c.08.01.19.04.33.06,0,0,.01,0,.02,0,.01,0,.05.03.05.04-.13-.02-.26-.05-.4-.09M38.15,1.91s-.09-.01-.16-.02c0,0,0,0,0,0t0,0s.1,0,.15.01h0s.01,0,.03,0c.01,0,.04.02.04.03-.02,0-.04,0-.06-.01M38.23,1.8c-.09,0-.17-.04-.18-.04h0c.07,0,.13,0,.21,0h0s0,0,.01,0c.02,0,.04.03-.04.03M38.39,1.92s-.05,0-.06-.01h0s0-.02,0-.02h.08s.01.01.01.02t-.01.01M38.41,2.01h0s0,0,0,0h.04s0,0,0,.01h0s-.01,0-.03,0M38.44,2.95l.17-.13s.02-.01.02-.01h.11s-.16.09-.21.11c-.04.02-.08.04-.09.03,0,0,0,0,0,0M39.28,2.74s-.03-.06-.13-.08c0,0,0,0,0,0,.01,0,.09-.02.21.01h0s-.02-.05-.07-.06c0,0,0,0,0,0s.2-.03.2.25c0,0,0,0-.01,0s-.05-.06-.07-.09c-.03-.03-.03,0-.03.04s-.02.19-.04.17c-.01-.03-.03-.08-.05-.06-.02.03-.04.09-.14.15,0,0,0,0,0,0s.01-.09.01-.09h0s-.1.07-.21.12c0,0-.01,0-.01,0,0-.01.04-.11.04-.11,0,0-.09.06-.26.06,0,0,0,0,0,0s0-.06-.04-.08c0,0,.09-.04.18-.09.04-.03.08-.06.11-.08.07-.02.17-.04.31-.02,0,.01.01.02,0,0M39.81,3.27h0s-.01.01-.04,0l-.16-.24h0s.2.23.2.23ZM39.68,2.94s0,0,0,0l.38.33h0s0,.02-.01.02c0,0-.02,0-.04,0h-.01s-.16-.18-.16-.18l-.11-.13-.04-.04s0,0,0,0M39.62,3.18h0l-.06-.13h0s0,0,0,0l.06.13s0,0,0,0M39.64,2.64h0s-.07-.07-.11-.09h0s0-.01,0,0c0,0,.06.04.12.1t0,0M39.58,2.7s0,.01,0,.02c0,0-.01,0-.01,0h0c-.04-.11-.11-.15-.11-.15,0,0,0-.01,0-.02,0,0,.01,0,.02,0h0s.06.05.11.16M38.06,3.2s.12-.14.12-.14c0,0,.13-.01.2-.03.07-.01.21-.04.21-.04h0s-.03.03-.03.03c-.07,0-.09.04-.1.08,0,.04-.02.08-.02.08,0-.01-.01-.06-.05-.08-.04-.01-.13.01-.17.06-.04.06,0,.13,0,.13-.07-.03-.08-.08-.07-.09,0-.02.02-.06.02-.06s0,0,0,0c0,0-.06.05-.06.07,0,.02.02.08.02.08,0,0-.06-.04-.08-.06,0-.01.01-.03.01-.03M38.1,3.47h0s0-.01-.01-.01l-.04-.04h0v-.02s.01-.02.02-.03c.01.01.07.05.16.06h0v-.04s.05,0,.09,0c0,0,0,0,.01,0h0v-.04s-.05-.06-.05-.09c0-.02.02-.04.06-.06.03,0,.06,0,.07.03.04.07.01.1.01.1h0s0,.02,0,.02c0,0,.07-.02.07-.09v-.04s0-.05.02-.08c0,0,.02-.01.04,0,0,0,.04.05.18.03h0s-.02.04-.03.04c0,0,0,0,0,.01h0s0,0,.01.01c.02,0,.18,0,.31-.06,0,0,0,.03-.01.04t0,.01s0,0,.01,0c.01,0,.15-.04.28-.2h0s.01.03.03.05c0,0,.01.01.02,0,0,0,0,0,.07-.08h0s.07.14.11.22c0,0,.04.06.08.06h.03s.03,0,.04,0h.02s.03.04.05.04c-.15-.01-.3-.02-.45-.02-.42,0-.84.04-1.21.13h0ZM41.36,3.87s.05.03.08.04c.38.23.59.52.59.81,0,.35-.28.68-.8.93-.51.24-1.18.38-1.9.38s-1.39-.13-1.9-.38c-.52-.25-.8-.57-.8-.93,0-.27.16-.53.47-.74.09-.06.21-.13.33-.18.01,0,.03-.01.04-.01.5-.23,1.16-.36,1.86-.36s1.39.13,1.9.38c.05.02.09.04.14.07M39.85,3.36s.05-.03.05-.03h.03s.04.04.04.04c-.04,0-.08,0-.11,0M40.31,3.28s-.02.02-.06,0l-.52-.39h-.01v-.02h.04s.54.35.54.35c0,0,.03.02.04.04h0s0,.02,0,.03M40.51,3.18h0s-.03.03-.04.03h-.02s-.01-.01-.01-.01l-.41-.23-.24-.14h0s0-.01,0-.01h.01s.71.35.71.35h0s0,.02,0,.02M40.64,3.1s-.03.03-.04.02h0l-.79-.37h0s0-.01,0-.01l.68.26.17.06h0s-.01.02-.01.04M40.7,2.96h0s.01,0,.02.02v.02s-.04,0-.04,0l-.81-.3h-.01s0-.01,0-.01h.01l.82.27h0ZM39.94,2.23c-.22.16-.66.21-.75.21s-.16.11-.3.21c-.13.1-.28.07-.28.07.04-.05.03-.12.03-.12-.04.06-.1.11-.17.13-.06.01-.08.01-.16.01-.07,0-.13.03-.16.04s-.09,0-.09,0c.02-.01.06-.03.08-.03s.09-.02.09-.02c-.08-.02-.18.02-.18.02-.06.02-.08,0-.08,0-.08.02-.07.08-.07.08,0,0-.03-.04-.03-.11s.16-.15.16-.15c.08-.01.13.03.13.03.02.04.06.06.08.04.03-.02.04-.06.06-.06h.04l.03-.02s0,0,0,0c0,0-.04.01-.16.01-.12,0-.16-.07-.16-.07.22-.07.44-.28.67-.33s.48,0,.48,0c-.06.08-.08.13-.08.13.54-.35.87-.46.87-.46.23-.41.47-.59.67-.72.19-.13.43-.42.45-.46.02-.04.04-.04.04-.04,0,.15-.15.3-.27.42-.12.11-.3.24-.3.24-.01.01,0,.02,0,.02,0,0,.04,0,.04,0s0,.01,0,.01c-.04.06-.11.11-.11.11,0,.01,0,.01,0,.01,0,0,.01,0,.03,0,.01,0,0,.02,0,.02l-.11.11s0,.01,0,.01c0,0,.05,0,.06,0s0,.01,0,.01c-.02.06-.09.12-.1.13h0s.05.01.06.01,0,0,0,0c-.09.13-.28.24-.28.24,0,0,.06.02.06.03,0,0,0,0,0,0-.12.08-.31.15-.31.15,0,0,.04.02.04.03,0,.01,0,.03,0,.03M40.16,2.37c-.07,0-.18,0-.18,0,0,0-.01,0-.01-.01s0-.01.01-.01h.18s.01,0,.01.01h0s0,.01-.01.01M40.55,2.16h-.01s-.08.04-.12.05c-.04,0-.07.01-.1.02-.01,0-.03,0-.04,0-.06,0-.11.01-.16.02-.05,0,0-.02,0-.03h0s.2-.02.42-.07c0-.01,0,0,0,0M40.24,2.14s0,0,0,0l.04-.04s.03-.01.03-.01c.06,0,.23-.04.48-.12,0,0,0,0,0,0h0s-.07.04-.16.07c-.12.04-.25.06-.38.09M41.19,1.96s0,0,0,0c-.02,0-.21.1-.52.18.02-.01.04-.03.06-.05.13-.04.28-.08.45-.14,0,0,.01,0,.01,0,0,0,0,0,0,0M41.59,1.67s-.04.02-.09.05c-.03.01-.06.03-.1.05-.01,0-.03.01-.05.02-.1.04-.22.09-.35.14-.04.01-.08.03-.13.05,0-.01.02-.03.03-.04.04-.01.08-.03.12-.04.15-.05.3-.11.47-.18.04-.03.07-.04.1-.05,0,0,.01-.02,0,0M41.79,1.43h0s-.04.04-.08.06l-.14.08-.06.03c-.09.05-.19.09-.29.13-.07.03-.15.06-.23.09.01-.02.02-.04.04-.06.06-.02.11-.04.16-.06.15-.06.3-.13.5-.23.02-.01.09-.04.11-.05,0,0,0,0,0,0h0M42.1,1.09s-.3.21-.57.34l-.19.09c-.1.04-.19.08-.28.12.01-.03.02-.06.03-.09.35-.12.68-.28,1-.47,0,0,.01,0,.02,0t0,.02M42.23.78s-.56.42-1.13.67c0-.04,0-.06.01-.09.38-.14.74-.34,1.07-.58.02-.01.03-.02.04-.01,0,0,0,.01,0,.02M42.35.42s-.61.55-1.23.82v-.07c.65-.27,1.21-.77,1.21-.78h0s.02-.01.03,0c.01.01,0,.02,0,.04M2.91,4.51c0-.38-.22-.38-.38-.38h-.19v-.24c.3.01.62.04.99.04s.69-.01,1.01-.04v.24h-.1c-.16,0-.38.01-.38.38v1.1c-.31.09-1.06.25-1.64.25-1.27,0-2.22-.76-2.22-2.14C0,2.67.66,1.6,2.25,1.6c.55,0,1.14.13,1.61.29l-.04,1.16h-.38c0-.67-.47-1.08-1.1-1.08-1.03,0-1.33.78-1.33,1.76s.5,1.79,1.41,1.79c.18,0,.35-.04.48-.06v-.95h0ZM4.79,2.27c0-.24-.04-.35-.44-.36v-.24c.28.01.6.04.92.04s.64-.01.96-.04v.24c-.44,0-.47.12-.47.36v2.2c0,.65.4.89.97.89.77,0,1.03-.4,1.03-1.22v-1.87c0-.24-.04-.35-.48-.36v-.24c.2.01.42.04.64.04.18,0,.38-.01.56-.04v.24c-.33,0-.36.12-.36.36v1.91c0,1.35-.8,1.69-1.61,1.69-1.01,0-1.71-.28-1.71-1.49v-2.12h0ZM8.74,5.56c.47,0,.51-.12.51-.36v-2.93c0-.24-.04-.35-.48-.36v-.24c.32.01.64.04.96.04s.64-.01,1.06-.04v.24c-.54,0-.58.12-.58.36v2.98c0,.17,0,.23.33.23.67,0,1.25-.13,1.4-.9h.27c-.09.4-.18.8-.23,1.2-.46-.01-.98-.04-1.56-.04-.62,0-1.18.01-1.66.04v-.23h0ZM12.3,5.56c.47,0,.51-.12.51-.36v-2.93c0-.24-.04-.35-.47-.36v-.24c.5.01,1.01.04,1.52.04s1.03-.01,1.54-.04c0,.34.02.78.04,1.04h-.28c-.04-.71-.42-.73-.99-.73-.25,0-.41,0-.41.18v1.44h.47c.44,0,.59-.06.59-.53h.23c-.02.24-.04.48-.04.72,0,.28.01.55.04.73h-.23v-.17c0-.4-.18-.47-.55-.47h-.52v1.32c0,.24.04.35.6.36v.24c-.36-.01-.75-.04-1.06-.04s-.66.01-1.01.04v-.24h0ZM18.05,2.08c-.11-.14-.28-.18-.4-.18h-.06v-.24c.23.01.47.04.7.04s.47-.01.72-.04l2.03,2.62h.01v-2.03c0-.24-.04-.35-.52-.36v-.24c.25.01.51.04.71.04s.45-.01.59-.04v.24c-.38,0-.41.12-.41.36v3.53h-.45l-2.54-3.3h-.01v2.71c0,.24.04.35.53.36v.24c-.25-.01-.51-.04-.71-.04s-.45.01-.71.04v-.24c.49,0,.53-.12.53-.36v-3.11h0ZM22.06,5.56c.49,0,.53-.12.53-.36v-2.93c0-.24-.04-.35-.48-.36v-.24c.5.01,1.01.04,1.52.04s1.03-.01,1.54-.04c0,.34.02.78.04,1.06h-.28c-.04-.72-.42-.74-.99-.74h-.23c-.14,0-.18.05-.18.17v1.38h.44c.44,0,.59-.11.59-.55h.23c-.02.23-.04.46-.04.69,0,.28.01.55.04.72h-.23c0-.47-.16-.59-.59-.59h-.44v1.42c0,.16.08.22.23.22h.24c.64,0,1.1-.09,1.24-.79h.26c-.1.38-.16.75-.21,1.13-.53-.01-1.06-.04-1.59-.04s-1.1.01-1.66.04v-.23h0ZM25.42,1.67c.28.01.56.04.84.04s.53-.01.8-.04v.24h-.11c-.15.02-.16.09-.16.16,0,.06.03.19.06.33l.67,2.34h.01l.6-1.95-.14-.57c-.07-.28-.11-.32-.35-.32h-.13v-.24c.28.01.58.04.86.04.31,0,.63-.01.95-.04v.24h-.1c-.19,0-.3.05-.3.16,0,.09.03.2.07.41l.52,2.36h.01l.77-2.42c.04-.14.08-.25.08-.36,0-.13-.12-.16-.3-.16h-.13v-.24c.22.01.48.04.65.04.18,0,.37-.01.55-.04v.24c-.25,0-.38.19-.47.47l-1.13,3.45h-.62l-.62-2.37h-.01l-.77,2.37h-.62l-1.05-3.47c-.12-.39-.15-.44-.45-.44v-.25h.01ZM33.73,2.89h-.33c-.01-.58-.18-.95-.84-.95-.32,0-.63.13-.63.55,0,.83,2.08.52,2.08,2.03,0,.96-.72,1.36-1.57,1.36-.43,0-.98-.13-1.35-.36.02-.33.03-.81.03-1.15h.4c0,.62.25,1.13.89,1.13.4,0,.77-.16.77-.55,0-.97-2.04-.67-2.04-2.13,0-.78.57-1.23,1.44-1.23.4,0,.81.08,1.21.16l-.05,1.13h0Z"/>
    </g>
  </g>
</svg>