<?xml version="1.0" encoding="UTF-8"?>
<svg id="Layer_2" data-name="Layer 2" xmlns="http://www.w3.org/2000/svg" viewBox="0 0 602.92 126.33">
  <defs>
    <style>
      .cls-1 {
        fill: #fff;
      }

      .cls-2 {
        fill: #f1cc00;
      }
    </style>
  </defs>
  <g id="Layer_1-2" data-name="Layer 1">
    <g>
      <g>
        <path class="cls-2" d="M53.11,33l-1.49,10.48h28.71l-1.28,8.38h-40.48l3.75-23.61c.02-.14.08-.47.18-1.1l.21-1.3c1.05-5.88,3.7-8.35,9.84-8.36h41.56c4.83,0,8.74-3.92,8.74-8.75s-3.91-8.74-8.74-8.74c-.04,0-.08,0-.12,0-.02,0-.04,0-.05,0h-54.87c-5.52,0-10.12,3.87-11,9.26l-9.81,60.17h65.28c5.58,0,10.41-3.98,11.22-9.46l5.62-34.1h-39.01c-4.21,0-7.69,3-8.28,7.13"/>
        <g>
          <path class="cls-1" d="M10.43,90.31h2.3v5.17c-1.42,1.06-3.54,1.79-5.45,1.79-4.11,0-7.28-3.05-7.28-7s3.23-6.96,7.44-6.96c1.99,0,4.01.77,5.39,1.97l-1.5,1.93c-1.04-.96-2.5-1.55-3.9-1.55-2.66,0-4.74,2.03-4.74,4.62s2.11,4.64,4.76,4.64c.94,0,2.03-.34,2.97-.87v-3.74Z"/>
          <polygon class="cls-1" points="21.83 92.66 21.83 97.16 19.2 97.16 19.2 92.75 14.06 83.39 16.74 83.39 20.5 89.86 24.19 83.39 26.85 83.39 21.83 92.66"/>
          <polygon class="cls-1" points="31.59 83.39 35.92 92.22 40.22 83.39 43.26 83.39 43.26 97.16 40.85 97.16 40.84 87.32 36.76 95.74 35.05 95.74 30.98 87.32 30.98 97.16 28.54 97.16 28.54 83.39 31.59 83.39"/>
          <polygon class="cls-1" points="49.15 83.39 56.25 92.81 56.25 83.39 58.81 83.39 58.81 97.16 56.31 97.16 49.23 87.76 49.23 97.16 46.65 97.16 46.65 83.39 49.15 83.39"/>
          <path class="cls-1" d="M71.16,94.25h-6.73l-1.22,2.91h-2.74l6.04-13.77h2.74l5.96,13.77h-2.83l-1.22-2.91ZM70.22,91.99l-2.4-5.78-2.44,5.78h4.84Z"/>
          <polygon class="cls-1" points="85.19 83.39 85.19 85.73 80.9 85.73 80.9 97.16 78.24 97.16 78.24 85.73 73.95 85.73 73.95 83.39 85.19 83.39"/>
          <rect class="cls-1" x="87.05" y="83.39" width="2.64" height="13.77"/>
          <path class="cls-1" d="M106.67,90.28c0,3.95-3.19,7-7.34,7s-7.34-3.05-7.34-7,3.19-6.96,7.34-6.96,7.34,3.01,7.34,6.96M94.68,90.28c0,2.6,2.14,4.64,4.68,4.64s4.6-2.05,4.6-4.64-2.08-4.6-4.6-4.6-4.68,2.01-4.68,4.6"/>
          <polygon class="cls-1" points="111.48 83.39 118.58 92.81 118.58 83.39 121.14 83.39 121.14 97.16 118.64 97.16 111.56 87.76 111.56 97.16 108.98 97.16 108.98 83.39 111.48 83.39"/>
        </g>
        <g>
          <path class="cls-1" d="M6.53,109.16c.44,0,.78-.14,1.02-.41.24-.27.36-.64.36-1.09s-.12-.82-.36-1.1-.59-.41-1.02-.41-.79.13-1.04.4c-.25.27-.38.64-.38,1.11s.13.86.38,1.12c.25.26.6.39,1.04.39Z"/>
          <path class="cls-1" d="M27.87,105.51c0,.47.13.84.38,1.11.25.27.6.4,1.04.4s.78-.14,1.02-.41c.24-.27.37-.64.37-1.09s-.12-.84-.37-1.11-.59-.4-1.02-.4-.79.13-1.04.39c-.25.26-.38.63-.38,1.12Z"/>
          <path class="cls-1" d="M27.26,103.63c.34,0,.64-.11.88-.34s.36-.56.36-1-.12-.77-.36-1c-.24-.23-.54-.34-.88-.34-.36,0-.66.11-.91.32-.24.21-.36.55-.36,1.03s.12.81.36,1.02.55.32.91.32Z"/>
          <path class="cls-1" d="M25.23,107.02c.44,0,.78-.14,1.03-.41.24-.27.36-.64.36-1.09s-.12-.84-.36-1.11c-.24-.27-.59-.4-1.03-.4-.41,0-.75.12-1.01.36-.27.24-.4.62-.4,1.14s.13.88.4,1.13c.27.25.6.38,1.01.38Z"/>
          <path class="cls-1" d="M52.81,122.78c-.41,0-.75.12-1.01.36s-.4.62-.4,1.14.13.88.4,1.13c.27.25.61.38,1.01.38s.76-.13,1.01-.4.38-.64.38-1.11-.13-.86-.38-1.12c-.25-.26-.59-.39-1.01-.39Z"/>
          <path class="cls-1" d="M56.86,122.78c-.44,0-.79.13-1.04.39-.25.26-.38.63-.38,1.12s.13.84.38,1.11.6.4,1.04.4.78-.14,1.02-.41c.24-.28.36-.64.36-1.1s-.12-.82-.36-1.1c-.24-.27-.59-.41-1.02-.41Z"/>
          <path class="cls-1" d="M65.87,107.02c.44,0,.79-.14,1.04-.41.25-.27.38-.64.38-1.09s-.12-.84-.36-1.11-.59-.4-1.05-.4-.78.13-1.03.39c-.24.26-.36.63-.36,1.12s.13.84.38,1.11c.25.27.59.4,1.01.4Z"/>
          <path class="cls-1" d="M99.9,122.78c-.41,0-.75.12-1.01.36s-.4.62-.4,1.14.13.88.4,1.13.61.38,1.01.38.76-.13,1.01-.4.38-.64.38-1.11-.13-.86-.38-1.12c-.25-.26-.59-.39-1.01-.39Z"/>
          <path class="cls-1" d="M103.95,122.78c-.44,0-.79.13-1.04.39-.25.26-.38.63-.38,1.12s.13.84.38,1.11.6.4,1.04.4.78-.14,1.02-.41c.24-.28.36-.64.36-1.1s-.12-.82-.36-1.1c-.24-.27-.59-.41-1.02-.41Z"/>
          <path class="cls-1" d="M114.29,122.78c-.44,0-.79.13-1.04.39-.25.26-.38.63-.38,1.12s.13.84.38,1.11c.25.27.6.4,1.04.4s.78-.14,1.02-.41c.24-.28.37-.64.37-1.1s-.12-.84-.37-1.11-.59-.4-1.02-.4Z"/>
          <path class="cls-1" d="M120.46,117.58c-.2-.42-.39-.93-.56-1.56-.17-.62-.33-1.37-.47-2.25-.2-1.26-.52-2.22-.94-2.9-.42-.68-1-1.18-1.72-1.51-.31-.14-.67-.25-1.06-.32-.39-.07-.82-.11-1.3-.11-.83,0-1.62.09-2.36.26-.74.17-1.44.46-2.12.87l.9,1.96c.6-.31,1.17-.55,1.71-.7.54-.15,1.08-.22,1.61-.22.58,0,1.06.11,1.44.32s.68.57.92,1.07c.24.5.42,1.17.56,2,.2,1.05.42,1.91.66,2.57.24.66.5,1.14.8,1.44h-15.28v-9.33h-2.57v9.33h-15.84c-.64,0-1.17-.09-1.57-.27-.4-.18-.76-.49-1.07-.93.16-.41.27-.83.35-1.27.08-.44.12-.9.12-1.39,0-1.04-.22-1.96-.65-2.78-.43-.82-1.04-1.44-1.83-1.88-.39-.2-.81-.36-1.26-.48-.45-.12-.92-.18-1.43-.18-.75,0-1.52.13-2.31.4s-1.49.64-2.12,1.11c-.31.55-.55,1.17-.72,1.85s-.25,1.37-.25,2.06c0,.58.06,1.19.19,1.81.13.63.32,1.28.59,1.96h-5.65v-9.33h-2.57v9.33h-8.51v-9.33h-2.57v9.33h-18.3v-9.33h-2.5v9.33h-1.46c-.68,0-1.23-.13-1.67-.38-.44-.25-.86-.69-1.25-1.32.01-.14.03-.28.04-.42,0-.14.01-.29.01-.45v-4.92h-2.5v4.76c0,.86-.2,1.53-.61,2.01-.41.48-.99.72-1.74.72h-2.38v-7.49h-2.5v7.49h-5.72v-9.33h-2.52v11.21c0,.83-.13,1.53-.4,2.08-.27.56-.68.98-1.25,1.26-.57.28-1.29.42-2.17.42h-.99c-.97,0-1.73-.34-2.27-1.02-.54-.68-.81-1.65-.81-2.89,0-.94.07-1.85.2-2.72.13-.87.33-1.67.6-2.39H1.04c-.33.77-.59,1.6-.77,2.48-.18.89-.27,1.79-.27,2.72,0,1.13.19,2.13.58,3,.39.87.94,1.57,1.66,2.08.41.28.87.5,1.38.66.51.16,1.07.24,1.68.24h1.46c2.06,0,3.59-.48,4.6-1.43,1.01-.95,1.55-2.36,1.61-4.23h11.03c.82,0,1.53-.15,2.13-.46.6-.31,1.1-.72,1.47-1.24.6.61,1.2,1.05,1.8,1.31.6.26,1.25.39,1.94.39h20.62-1.92,26.89c.75,0,1.48-.13,2.18-.39.7-.26,1.31-.65,1.85-1.17.55.58,1.12.99,1.72,1.21.56.22,1.24.32,2.02.33,0,0,0,0,0,0h36.11-11.95,12.27v-2.14c-.25-.22-.48-.54-.68-.95ZM79.67,116.71c-.27.57-.64,1.02-1.13,1.33-.49.31-1.07.47-1.74.47h-1.41c-.3-.72-.5-1.39-.61-2.01-.11-.62-.16-1.24-.16-1.85,0-.42.02-.82.06-1.2.04-.38.12-.75.25-1.11.38-.25.79-.46,1.23-.61.44-.16.89-.24,1.34-.24.74,0,1.35.29,1.85.87s.74,1.34.74,2.28c0,.8-.13,1.49-.4,2.06Z"/>
        </g>
      </g>
      <g>
        <polygon class="cls-1" points="220.63 32.78 220.63 56.66 197.91 56.66 197.91 32.78 188.51 32.78 188.51 89.07 197.91 89.07 197.91 65.11 220.63 65.11 220.63 89.07 230.03 89.07 230.03 32.78 220.63 32.78"/>
        <polygon class="cls-1" points="300.44 66.8 281.87 36 281.87 32.78 291.12 32.78 305.22 57.71 319.78 32.78 328.4 32.78 328.4 36 309.84 66.39 309.84 89.07 300.44 89.07 300.44 66.8"/>
        <path class="cls-1" d="M400.38,59.24c5.48,0,8.69-2.73,8.69-9.01s-3.21-9.01-8.69-9.01h-12.45v18.01h12.45ZM378.52,32.78h23.58c10.81,0,16.53,6.51,16.53,17.29,0,7.32-3.14,13.43-9.63,16.25l10.26,19.54v3.22h-9.24l-11.28-21.63h-10.81v21.63h-9.4v-56.29Z"/>
        <path class="cls-1" d="M501.88,70.49v-19.14c0-6.03-3.99-10.94-12.14-10.94s-12.14,4.91-12.14,10.94v19.14c0,6.03,3.99,10.94,12.14,10.94s12.14-4.91,12.14-10.94M468.2,70.01v-18.17c0-12.78,8.38-20.26,21.54-20.26s21.54,7.48,21.54,20.26v18.17c0,12.78-8.38,20.26-21.54,20.26s-21.54-7.48-21.54-20.26"/>
        <polygon class="cls-1" points="556.86 85.85 574.02 59.96 558.2 36 558.2 32.78 567.75 32.78 579.89 52.4 592.58 32.78 601.59 32.78 601.59 36 585.61 59.88 602.92 85.85 602.92 89.07 593.37 89.07 579.66 67.68 565.87 89.07 556.86 89.07 556.86 85.85"/>
      </g>
      <rect class="cls-1" x="153.91" width="2.35" height="126.33"/>
    </g>
  </g>
</svg>