<?xml version="1.0" encoding="UTF-8"?>
<svg id="Layer_2" data-name="Layer 2" xmlns="http://www.w3.org/2000/svg" viewBox="0 0 42.88 34">
  <defs>
    <style>
      .cls-1 {
        fill: #ed1c24;
      }

      .cls-2 {
        fill: #fff;
      }

      .cls-3 {
        fill: #002839;
      }
    </style>
  </defs>
  <g id="Layer_1-2" data-name="Layer 1">
    <g>
      <g>
        <path class="cls-1" d="M15,18.53c1.17,0,2.34,0,3.51,0,.36,0,.47-.08.58-.42.74-2.26,1.48-4.52,2.23-6.77.04-.13.11-.24.26-.24.15,0,.22.1.26.23.75,2.27,1.49,4.54,2.24,6.81.1.3.22.38.54.38,2.35,0,4.71,0,7.06,0,.07,0,.15,0,.22.03.2.07.26.29.12.45-.04.05-.09.08-.14.12-1.93,1.41-3.86,2.82-5.79,4.24-.3.22-.33.31-.21.67.71,2.12,1.42,4.24,2.13,6.36.05.15.09.29.13.44.03.11.02.24-.09.28-.09.04-.21.02-.32,0-.05,0-.09-.06-.14-.09-1.89-1.37-3.78-2.75-5.68-4.12-.3-.22-.4-.22-.7,0-1.91,1.39-3.81,2.77-5.72,4.16-.06.05-.14.09-.21.1-.21.03-.35-.11-.29-.32.16-.52.33-1.04.5-1.56.58-1.74,1.17-3.48,1.75-5.22.01-.04.03-.09.04-.13.07-.24.03-.36-.17-.51-.62-.45-1.24-.91-1.86-1.36-1.34-.98-2.67-1.96-4.01-2.93-.03-.02-.06-.04-.09-.07-.09-.09-.14-.2-.09-.33.04-.13.15-.17.27-.19.05,0,.09,0,.14,0,1.17,0,2.34,0,3.51,0ZM23.23,22.81q.03.19-.13.31c-.84.61-1.67,1.24-2.45,1.92-.3.26-.57.55-.85.83-.11.12-.1.28,0,.38.11.1.29.11.41,0,.09-.08.17-.17.26-.26.36-.36.7-.74,1.08-1.08.48-.42.99-.81,1.49-1.21.05-.04.11-.08.17-.11.01.02.02.03.02.03,0,.66-.02,1.32-.02,1.98,0,.26,0,.53.03.79.02.16.19.24.35.21.15-.02.28-.19.27-.33-.01-.15-.09-.29-.06-.44,0-.02-.01-.04-.02-.07-.03-.15-.07-.29-.08-.44-.01-.28,0-.55,0-.83,0-.38,0-.76.02-1.15,0-.06.04-.14.09-.17.23-.17.47-.34.72-.49.94-.55,1.86-1.14,2.91-1.46.16-.05.28-.16.35-.32.06-.13-.02-.28-.15-.28-.12,0-.25.02-.36.06-.14.05-.26.13-.39.19-.1.05-.17.02-.19-.09-.02-.13-.03-.25-.03-.38,0-.25,0-.5,0-.75,0-.22-.1-.46-.38-.34-.13.05-.25.16-.36.25-.08.07-.15.11-.27.1-.28-.02-.52.08-.54.47,0,.07-.01.15-.01.22-.01.33-.03.65-.04.98,0,.16.08.23.23.19.17-.04.3-.19.31-.37.01-.23.01-.46.04-.69.03-.23.09-.46.3-.6.04-.03.12-.04.17-.03.03.01.06.09.05.14,0,.26-.02.51-.03.77,0,.16-.04.32.12.44-.85.49-1.69.98-2.51,1.46,0-.18,0-.37,0-.56.03-.47.06-.93.09-1.4,0-.12-.06-.17-.17-.18-.19-.02-.31.09-.32.28-.04.45-.08.9-.14,1.35-.01.08-.07.17-.14.23-.14.12-.28.06-.28-.12,0-.21,0-.42.04-.62.05-.19.17-.35.26-.53.03-.06.06-.12.07-.18.02-.13-.04-.2-.16-.15-.14.06-.3.15-.4.27-.39.5-.35,1.09-.29,1.68.02.16.21.27.38.23.17-.03.34-.09.51-.14ZM18.19,22.01s.03,0,.04,0c.01.04.03.09.04.13.04.23.08.47.12.7.1.62.2,1.25.3,1.87.04.27.09.53.15.8.02.07.09.16.15.17.07.02.17-.02.24-.07.05-.04.07-.12.08-.19.03-.16.05-.32.07-.48.06-.4.13-.8.19-1.2.03-.21.02-.43.06-.63.06-.36.13-.71.2-1.06.08-.36.16-.72.33-1.07.09-.19.13-.42.17-.63.13-.59.37-1.13.61-1.67.08-.17.21-.32.32-.47.07-.1.17-.19.23-.29.1-.16.05-.4-.09-.51-.17-.13-.37-.13-.52.02-.09.09-.17.19-.22.31-.24.62-.48,1.25-.69,1.88-.15.43-.27.86-.37,1.3-.15.64-.28,1.28-.41,1.93-.05.25-.08.5-.12.74-.04-.11-.06-.21-.07-.31-.01-.14-.02-.27-.04-.41-.04-.23-.11-.45-.15-.68-.08-.43-.14-.86-.22-1.28-.03-.17-.12-.25-.25-.26-.13,0-.24.07-.29.22-.21.63-.42,1.25-.63,1.88-.04.13,0,.23.12.27.11.04.24,0,.29-.12.07-.17.13-.34.2-.51.05-.13.11-.26.16-.4ZM21.09,22.92s0,0,0,0c0,.12,0,.24,0,.36,0,.11.07.17.19.15.19-.03.34-.19.35-.39.01-.18.03-.36.03-.55,0-.32.09-.59.38-.76.03-.02.06-.05.08-.07.08-.1.07-.21,0-.31-.07-.1-.15-.05-.24-.02-.12.04-.23.09-.36.12-.21.05-.33.14-.35.36-.04.37-.06.73-.09,1.1ZM20.62,23.77s-.01-.07,0-.1c.05-.45.11-.91.16-1.36,0-.09,0-.17,0-.26-.02-.15-.1-.19-.24-.14-.22.09-.31.27-.33.5-.02.23-.04.46-.05.68-.01.22-.03.45-.03.67,0,.06.03.16.07.18.06.02.15,0,.22-.03.08-.03.14-.09.21-.15ZM24.16,21.75c0,.11,0,.21.13.22.16.02.4-.2.4-.36,0-.17,0-.34.02-.51.02-.28.05-.55.06-.83,0-.06-.03-.16-.07-.18-.05-.03-.16-.01-.2.03-.08.08-.17.19-.19.3-.06.44-.1.89-.15,1.33ZM21,20.94c0-.13-.06-.21-.16-.19-.16.02-.37.24-.37.39,0,.1.04.16.14.17.15,0,.39-.22.39-.37ZM24.99,19.23s-.07-.08-.12-.09c-.17-.04-.37.12-.4.29-.02.14.06.23.2.21.13-.02.32-.22.32-.4Z"/>
        <path class="cls-3" d="M27.43,14.4v-.42s.02-.02.03-.02c.46,0,.93-.01,1.39,0,.28,0,.47.17.63.44v-.44c.06,0,.1,0,.14,0,.4,0,.8,0,1.19,0,.46,0,.77.31.77.77,0,.4,0,.8,0,1.19,0,.05,0,.09,0,.15h-.18c-.36,0-.71,0-1.07,0-.34,0-.61-.1-.81-.41,0,.1,0,.21,0,.31,0,.03-.05.09-.08.09-.44,0-.88,0-1.32,0-.26,0-.46-.14-.6-.36-.01-.02-.03-.03-.06-.07v.42s-.04.02-.06.02c-.43,0-.86.01-1.29,0-.46-.02-.74-.3-.75-.76,0-.41,0-.82,0-1.24,0-.1.04-.12.12-.12.41,0,.82,0,1.24,0,.27,0,.48.11.63.33.02.03.04.05.08.11ZM27.82,14.34v1.31h.33v-.38c.16.12.29.23.43.33.16.11.34.03.51.04-.07-.07-.14-.13-.21-.19-.07-.06-.14-.11-.23-.18.06-.01.1-.02.14-.03.21-.06.36-.27.34-.48-.02-.21-.18-.41-.39-.42-.31-.02-.61,0-.92,0ZM25.74,14.34c0,.36,0,.7,0,1.04q0,.31.31.28s.02,0,.04-.03v-.36h.63c0,.13.01.25.02.38h.33c0-.33.01-.64,0-.96,0-.18-.2-.35-.38-.35-.3-.01-.61,0-.93,0ZM31.19,15.65c0-.29,0-.57,0-.85,0-.28-.19-.46-.47-.46-.24,0-.49,0-.73,0-.04,0-.08,0-.12.01v1.3h.34v-.97c.15,0,.28,0,.42,0,.18,0,.22.04.22.23,0,.25,0,.49,0,.75h.34Z"/>
        <path class="cls-3" d="M26.02,30.91c0,.53-.41.94-.94.94-.52,0-.95-.43-.94-.94,0-.52.42-.93.94-.94.53,0,.94.41.94.94ZM24.63,30.92c0,.27.2.48.46.47.26,0,.46-.21.45-.49,0-.27-.2-.48-.46-.48-.26,0-.45.21-.45.49Z"/>
        <path class="cls-3" d="M21.39,30.92c0-.26,0-.52,0-.79,0-.11.03-.14.14-.13.19,0,.38,0,.58,0,.5.01.89.41.89.92,0,.49-.38.89-.88.91-.2,0-.4,0-.6,0-.1,0-.12-.04-.12-.12,0-.26,0-.52,0-.79ZM21.88,30.46v.92c.23.02.44-.02.56-.22.1-.17.1-.34-.01-.5-.13-.2-.33-.23-.55-.19Z"/>
        <path class="cls-3" d="M18.1,31.24c0,.16,0,.31,0,.47,0,.09-.02.12-.12.13-.36,0-.36.01-.36-.35,0-.44,0-.87,0-1.31v-.16c.34,0,.66-.02.98,0,.23.02.39.19.45.43.06.24,0,.44-.2.6-.02.02-.05.04-.08.07.12.23.24.45.37.71-.19,0-.35,0-.5,0-.03,0-.06-.05-.08-.08-.07-.13-.15-.26-.21-.4-.05-.11-.12-.15-.26-.11ZM18.1,30.83c.16-.02.34.06.43-.11.03-.06.02-.18-.02-.24-.1-.14-.27-.08-.41-.08v.44Z"/>
        <path class="cls-3" d="M21.14,31.83c-.15,0-.28.01-.42,0-.04,0-.07-.08-.12-.12-.04-.03-.09-.08-.13-.09-.16-.01-.33,0-.49,0-.08,0-.13.02-.14.1-.02.1-.09.13-.19.12-.11,0-.21,0-.34,0,.02-.07.03-.11.05-.15.24-.52.48-1.04.73-1.56.02-.05.08-.1.12-.11.04,0,.11.04.13.07.26.55.52,1.11.78,1.66,0,.02,0,.04,0,.08ZM20.46,31.21c-.08-.16-.15-.31-.23-.48-.08.18-.14.32-.21.48h.44Z"/>
        <path class="cls-3" d="M18.43,32.48c.2,0,.39-.02.58,0,.37.04.63.34.63.72,0,.39-.25.7-.62.74-.19.02-.39,0-.59,0v-1.47ZM18.73,32.73v.96c.21.02.4,0,.53-.19.12-.17.13-.35.03-.53-.12-.22-.32-.26-.56-.25Z"/>
        <path class="cls-3" d="M21.55,33.95v-1.46c.18,0,.36,0,.54,0,.14,0,.25.09.29.23.05.16.04.31-.07.42.08.1.18.19.22.3.08.25-.07.48-.34.51-.21.02-.42,0-.64,0ZM21.84,33.72c.14-.01.28.03.36-.1.03-.05.03-.15,0-.21-.08-.13-.23-.09-.36-.09v.4ZM21.85,32.72v.37c.21,0,.29-.07.28-.21,0-.13-.1-.18-.28-.16Z"/>
        <path class="cls-3" d="M19.96,32.48h.3c0,.17,0,.33,0,.49,0,.15,0,.3,0,.45,0,.19.12.3.3.3.18,0,.29-.11.3-.3,0-.26,0-.51,0-.77,0-.05,0-.1,0-.16h.32c-.01.37,0,.75-.05,1.12-.03.25-.31.41-.62.38-.31-.02-.51-.21-.54-.5,0-.05,0-.1,0-.15,0-.28,0-.56,0-.86Z"/>
        <path class="cls-3" d="M24.15,33.96c-.05,0-.09,0-.12,0-.14.02-.23-.02-.26-.17-.02-.12-.1-.17-.22-.15-.05,0-.1,0-.15,0-.2-.03-.34.02-.39.24,0,.03-.07.07-.11.07-.07.01-.14,0-.23,0,.02-.06.04-.1.05-.14.18-.43.36-.85.54-1.28.03-.08.08-.11.16-.11.09,0,.12.03.15.11.18.44.36.87.54,1.31.01.03.02.06.03.11ZM23.62,33.4c-.07-.17-.13-.33-.2-.51-.08.19-.14.35-.2.51h.41Z"/>
        <path class="cls-3" d="M23.32,30c.14,0,.26,0,.39,0,.03,0,.09.06.09.09,0,.55,0,1.09,0,1.64,0,.03-.05.06-.08.09,0,0-.02,0-.03,0-.46-.01-.37.08-.37-.36,0-.43,0-.86,0-1.29,0-.05,0-.11.01-.18Z"/>
        <path class="cls-3" d="M24.66,33.96h-.28v-1.47h.28v1.47Z"/>
        <path class="cls-2" d="M23.23,22.81c-.18.05-.34.1-.51.14-.17.03-.36-.07-.38-.23-.06-.58-.11-1.18.29-1.68.09-.12.25-.2.4-.27.12-.05.19.02.16.15-.01.06-.04.12-.07.18-.09.18-.21.34-.26.53-.05.2-.05.41-.04.62,0,.18.15.23.28.12.07-.06.13-.15.14-.23.06-.45.1-.9.14-1.35.02-.19.14-.3.32-.28.11.01.17.06.17.18-.03.47-.07.93-.09,1.4-.01.19,0,.38,0,.56.82-.48,1.66-.97,2.51-1.46-.16-.12-.12-.29-.12-.44,0-.26.02-.51.03-.77,0-.05-.02-.13-.05-.14-.05-.02-.12,0-.17.03-.21.14-.28.37-.3.6-.03.23-.03.46-.04.69-.01.18-.14.33-.31.37-.15.04-.23-.03-.23-.19,0-.33.03-.65.04-.98,0-.07.01-.15.01-.22.01-.39.26-.49.54-.47.12,0,.19-.03.27-.1.11-.1.23-.2.36-.25.28-.11.39.12.38.34,0,.25-.01.5,0,.75,0,.13,0,.26.03.38.02.11.09.14.19.09.13-.07.25-.14.39-.19.11-.04.24-.06.36-.06.14,0,.21.15.15.28-.07.16-.19.27-.35.32-1.05.32-1.97.91-2.91,1.46-.25.15-.48.32-.72.49-.05.03-.09.11-.09.17-.01.38-.02.76-.02,1.15,0,.28,0,.55,0,.83,0,.15.05.29.08.44,0,.02.02.05.02.07-.03.16.04.3.06.44.01.15-.12.31-.27.33-.16.03-.33-.05-.35-.21-.03-.26-.03-.53-.03-.79,0-.66.01-1.32.02-1.98,0,0,0-.01-.02-.03-.06.04-.12.07-.17.11-.5.4-1.01.79-1.49,1.21-.38.34-.72.72-1.08,1.08-.09.09-.17.17-.26.26-.11.1-.3.1-.41,0-.1-.1-.12-.26,0-.38.28-.29.55-.57.85-.83.78-.69,1.6-1.32,2.45-1.92q.16-.11.13-.31Z"/>
        <path class="cls-2" d="M18.19,22.01c-.05.13-.11.26-.16.4-.07.17-.13.34-.2.51-.05.11-.18.16-.29.12-.11-.05-.16-.14-.12-.27.21-.63.42-1.26.63-1.88.05-.15.16-.23.29-.22.14,0,.22.08.25.26.08.43.14.86.22,1.28.04.23.11.45.15.68.03.13.03.27.04.41.01.1.02.21.07.31.04-.25.07-.5.12-.74.13-.64.26-1.29.41-1.93.1-.44.23-.88.37-1.3.22-.63.45-1.25.69-1.88.04-.11.13-.22.22-.31.15-.15.35-.15.52-.02.14.11.19.34.09.51-.06.1-.16.19-.23.29-.11.15-.24.3-.32.47-.25.54-.49,1.09-.61,1.67-.05.21-.08.44-.17.63-.16.34-.25.7-.33,1.07-.08.35-.14.71-.2,1.06-.03.21-.03.42-.06.63-.06.4-.13.8-.19,1.2-.03.16-.04.32-.07.48-.01.07-.03.15-.08.19-.06.05-.17.09-.24.07-.06-.01-.14-.1-.15-.17-.06-.26-.11-.53-.15-.8-.1-.62-.2-1.25-.3-1.87-.04-.23-.08-.47-.12-.7,0-.04-.02-.09-.04-.13-.01,0-.03,0-.04,0Z"/>
        <path class="cls-2" d="M21.09,22.92c.03-.37.05-.73.09-1.1.02-.22.14-.31.35-.36.12-.03.24-.08.36-.12.08-.03.17-.07.24.02.07.1.08.21,0,.31-.02.03-.05.05-.08.07-.29.17-.37.45-.38.76,0,.18-.02.36-.03.55-.01.2-.16.35-.35.39-.12.02-.18-.04-.19-.15,0-.12,0-.24,0-.36,0,0,0,0,0,0Z"/>
        <path class="cls-2" d="M20.62,23.77c-.07.05-.14.12-.21.15-.07.03-.16.05-.22.03-.04-.02-.07-.12-.07-.18,0-.22.01-.45.03-.67.01-.23.03-.46.05-.68.02-.22.11-.41.33-.5.14-.06.22-.01.24.14.01.09.01.17,0,.26-.05.45-.11.91-.16,1.36,0,.03,0,.06,0,.1Z"/>
        <path class="cls-2" d="M24.16,21.75c.05-.45.09-.89.15-1.33.02-.11.11-.21.19-.3.04-.04.15-.05.2-.03.04.02.08.12.07.18-.01.28-.04.55-.06.83-.01.17-.01.34-.02.51,0,.16-.24.39-.4.36-.13-.02-.14-.12-.13-.22Z"/>
        <path class="cls-2" d="M21,20.94c0,.15-.25.37-.39.37-.11,0-.15-.07-.14-.17,0-.16.22-.37.37-.39.1-.02.17.06.16.19Z"/>
        <path class="cls-2" d="M24.99,19.23c0,.18-.19.38-.32.4-.14.02-.22-.06-.2-.21.03-.17.24-.33.4-.29.05.01.1.07.12.09Z"/>
        <path class="cls-3" d="M28.16,14.68c.16,0,.31,0,.46,0,.09,0,.15.06.16.15,0,.09-.06.15-.15.15-.15,0-.31,0-.47,0v-.3Z"/>
        <path class="cls-3" d="M26.71,14.98h-.62v-.29c.17,0,.34,0,.5,0,.12,0,.14.09.12.29Z"/>
      </g>
      <g>
        <path class="cls-1" d="M1.38,4.61s-.07.11-.07.2.02.15.07.2c.04.05.11.07.18.07s.13-.02.18-.07c.05-.05.07-.12.07-.2s-.02-.15-.07-.2c-.04-.05-.1-.07-.18-.07s-.14.02-.18.07Z"/>
        <path class="cls-1" d="M.7,4.61c-.04.05-.06.12-.06.19s.02.14.06.19c.04.05.1.08.19.08.07,0,.13-.02.18-.07.05-.05.07-.12.07-.2s-.02-.15-.06-.2c-.04-.05-.1-.07-.18-.07s-.14.02-.19.08Z"/>
        <path class="cls-1" d="M.35,4.16c.11.07.25.1.42.1h.79c.35,0,.61-.05.78-.16.17-.11.26-.26.26-.47,0-.09-.02-.16-.05-.23-.03-.06-.09-.12-.16-.18-.04-.03-.08-.05-.13-.08-.05-.02-.11-.05-.18-.08-.05-.02-.09-.04-.13-.06s-.06-.05-.08-.07c-.02-.03-.03-.05-.03-.08,0-.02,0-.05.03-.08.02-.03.04-.05.07-.08s.06-.04.09-.06c.03-.01.06-.02.08-.02.03,0,.06,0,.08.02.02.01.05.03.08.05.03.02.06.06.11.11.04.05.09.11.14.18.04.06.08.11.11.15s.05.07.08.1c.05.06.11.1.16.13s.12.05.2.06c.07,0,.17.01.28.01,0,0,0,0,0,0h2.83v-.81c0-.31-.07-.54-.22-.7-.15-.15-.37-.23-.66-.23-.14,0-.26.02-.37.06-.11.04-.21.1-.3.18-.09.08-.17.18-.23.3v-.57h-.65v1.27h-.37s-.09,0-.14-.02c-.05,0-.1-.04-.15-.08-.02-.02-.05-.05-.09-.11-.04-.05-.08-.12-.13-.19-.08-.11-.15-.2-.21-.27-.06-.07-.14-.13-.23-.17-.03-.01-.06-.02-.1-.04s-.08-.02-.13-.02c-.08,0-.17.02-.27.07-.1.04-.2.1-.29.18-.09.08-.17.16-.23.25-.04.07-.08.13-.09.2-.02.06-.03.13-.03.2,0,.06,0,.11.03.17.02.05.04.11.08.15.04.05.09.09.15.13.06.04.14.07.24.1.08.02.13.04.16.07s.05.05.05.08c0,.02-.02.04-.05.06-.04.02-.08.03-.13.03-.05,0-.11,0-.17,0h-.62c-.1,0-.18-.02-.23-.06-.06-.04-.09-.09-.12-.15-.02-.06-.03-.14-.03-.22,0-.07,0-.15.02-.24.01-.09.03-.17.05-.26H.1c-.03.12-.06.23-.08.35-.02.12-.03.23-.03.34,0,.13.03.25.09.36s.15.2.26.28ZM4.37,2.7c.07-.11.14-.2.22-.27.08-.07.16-.12.24-.16.08-.03.17-.05.27-.05.14,0,.24.03.31.1.06.06.1.16.1.3v.34h-1.14v-.25Z"/>
        <path class="cls-1" d="M4.99,1.5c.08,0,.14-.03.19-.08s.07-.12.07-.21-.02-.16-.07-.21c-.05-.05-.11-.07-.19-.07-.09,0-.15.02-.2.08-.05.05-.07.12-.07.21,0,.09.02.16.07.21.05.05.11.08.19.08Z"/>
        <path class="cls-1" d="M7.89,3.85c-.04.05-.06.12-.06.2s.02.14.06.19c.04.05.1.08.19.08.07,0,.13-.02.18-.07.05-.05.07-.11.07-.2s-.02-.15-.06-.2c-.04-.05-.1-.07-.18-.07s-.14.03-.19.08Z"/>
        <path class="cls-1" d="M8.93,4.24s.07-.11.07-.2-.02-.15-.07-.2c-.04-.05-.1-.07-.18-.07s-.14.02-.18.07c-.05.05-.07.12-.07.2s.02.15.07.2c.04.05.11.07.18.07s.13-.02.18-.07Z"/>
        <polygon class="cls-1" points="7.8 3.45 8.96 3.45 8.96 1.75 8.32 1.75 8.32 2.95 7.8 2.95 7.77 2.95 7.39 2.95 7.39 .88 6.75 .88 6.75 3.45 7.77 3.45 7.8 3.45"/>
        <path class="cls-1" d="M9.8,4.34c.17,0,.33-.04.46-.11.13-.07.23-.17.31-.3.07-.13.11-.27.11-.44v-1.74h-.65v1.69c0,.08-.03.16-.09.22-.06.06-.14.09-.24.09-.05,0-.1-.01-.16-.03s-.12-.05-.19-.08l-.23.48c.13.09.25.14.36.18s.22.05.33.05Z"/>
        <path class="cls-1" d="M14.14,5.14s.07-.11.07-.2-.02-.15-.07-.2c-.04-.05-.1-.07-.18-.07s-.14.02-.18.07c-.04.05-.07.12-.07.2s.02.15.07.2c.05.05.11.07.18.07s.13-.02.18-.07Z"/>
        <path class="cls-1" d="M13.47,5.14s.07-.11.07-.2-.02-.15-.06-.2c-.04-.05-.1-.07-.18-.07s-.14.03-.19.08c-.04.05-.06.12-.06.2s.02.14.06.19c.04.05.1.08.19.08.08,0,.14-.02.18-.07Z"/>
        <path class="cls-1" d="M14.18,2.45s.1-.09.17-.13c.05-.04.1-.06.13-.08.04-.01.06-.02.09-.02.02,0,.04,0,.07.02.02.01.05.02.08.04s.06.04.1.06l.22-.46c-.07-.05-.12-.08-.16-.11-.04-.03-.08-.04-.11-.05-.03-.01-.06-.02-.1-.02-.11,0-.22.02-.34.07s-.23.12-.34.21c-.11.09-.21.2-.3.32-.07.09-.12.18-.15.26-.03.08-.05.15-.05.22,0,.06.01.11.04.16.02.05.07.1.13.16.06.06.15.12.26.19.08.05.15.09.2.13.05.04.09.06.12.08.02.01.03.02.05.04.01.02.03.03.04.05,0,.02.02.03.02.05,0,.03-.02.06-.05.08-.03.02-.08.04-.15.04-.07,0-.16.01-.27.01h-.53c-.09,0-.17-.02-.22-.06-.06-.04-.1-.1-.12-.16-.03-.07-.04-.14-.04-.23,0-.07,0-.14.01-.22,0-.08.02-.16.05-.25h-.56c-.03.12-.06.23-.08.35-.02.12-.03.23-.03.34,0,.13.03.25.09.36s.14.2.24.28c.1.07.22.1.36.1h.85c.36,0,.63-.05.82-.15.19-.1.28-.26.28-.48,0-.09-.03-.16-.08-.23-.06-.07-.14-.15-.26-.24-.06-.04-.11-.08-.15-.11-.04-.03-.08-.05-.12-.08-.03-.02-.07-.05-.12-.08-.05-.03-.1-.07-.14-.11-.04-.04-.06-.08-.06-.11,0-.03.01-.06.04-.1s.06-.08.11-.12Z"/>
        <path class="cls-1" d="M17.15,2.97c-.06-.26-.14-.49-.23-.69-.1-.2-.22-.37-.37-.51-.15-.14-.33-.25-.55-.34l-.32.54c.14.07.26.14.36.22.1.08.17.15.23.23.04.06.08.14.12.22.04.09.08.19.11.31h-1.13v.5h1.79v-.48Z"/>
        <path class="cls-1" d="M19.5,1.5c.08,0,.14-.03.19-.08s.07-.12.07-.21-.02-.16-.07-.21c-.05-.05-.11-.07-.19-.07-.09,0-.15.02-.2.08-.05.05-.07.12-.07.21,0,.09.02.16.07.21.05.05.11.08.2.08Z"/>
        <polygon class="cls-1" points="18.8 3.45 19.81 3.45 19.81 1.75 19.17 1.75 19.17 2.95 18.8 2.95 18.77 2.95 18.39 2.95 18.39 .88 17.75 .88 17.75 3.45 18.77 3.45 18.8 3.45"/>
        <path class="cls-1" d="M25.92,1.5c.08,0,.14-.03.19-.08s.07-.12.07-.21-.02-.16-.07-.21c-.05-.05-.11-.07-.19-.07-.09,0-.15.02-.2.08-.05.05-.07.12-.07.21,0,.09.02.16.07.21.05.05.11.08.2.08Z"/>
        <path class="cls-1" d="M28.2,1.85c-.16.06-.28.15-.36.26-.08.11-.13.25-.13.4,0,.06.01.12.03.18.02.06.05.11.08.15.03.05.07.08.12.11h-.9v-.31c0-.31-.07-.54-.22-.7-.15-.15-.37-.23-.66-.23-.14,0-.26.02-.37.06-.11.04-.21.1-.3.18-.09.08-.17.18-.23.3v-.57h-.65v1.27h-.84V.88h-.64v2.35c0,.11-.02.21-.05.29-.03.08-.09.14-.16.19-.07.04-.16.07-.27.07h-.04c-.14,0-.26-.05-.35-.14-.09-.1-.13-.23-.13-.4,0-.08.01-.18.03-.3.02-.12.05-.24.08-.38h-.56c-.04.07-.08.14-.11.22-.03.08-.05.16-.07.24-.02.08-.02.17-.02.25,0,.2.04.38.13.55s.22.3.39.38c.08.04.17.07.26.09.1.02.21.03.34.03h.05c.31,0,.56-.07.76-.22s.31-.36.34-.64h5.74v-1.7h-.71c-.23,0-.42.03-.58.1ZM26.38,2.95h-1.14v-.25c.07-.11.14-.2.22-.27.08-.07.16-.12.24-.16.08-.03.17-.05.27-.05.14,0,.24.03.31.1.06.06.1.16.1.3v.34ZM28.84,2.25v.7h-.08c-.07,0-.13-.01-.2-.04-.06-.03-.12-.07-.16-.12-.04-.05-.06-.12-.06-.19s.02-.14.06-.19c.04-.05.09-.09.16-.11.07-.02.14-.04.23-.04h.06Z"/>
        <path class="cls-1" d="M28.84,1.5c.08,0,.14-.03.19-.08.05-.05.07-.12.07-.21s-.02-.16-.07-.21c-.05-.05-.11-.07-.19-.07-.09,0-.15.02-.2.08-.05.05-.07.12-.07.21,0,.09.02.16.07.21s.11.08.2.08Z"/>
        <path class="cls-1" d="M30.39.78c.08,0,.15-.02.22-.02.07,0,.12-.01.16-.01v-.25s-.05,0-.07,0-.05,0-.08,0c-.03,0-.07.01-.13.02h-.04s-.06-.02-.08-.05-.03-.05-.03-.09c0-.04.01-.08.04-.11s.06-.04.11-.04c.03,0,.06,0,.1.01.03,0,.07.02.1.03l.08-.2c-.09-.05-.19-.08-.32-.08s-.21.03-.28.09c-.07.06-.11.14-.11.25,0,.06.02.11.05.15.03.04.07.07.11.09l-.2.04v.22s.09-.02.16-.02c.07,0,.14-.02.22-.03Z"/>
        <path class="cls-1" d="M30.75,1.08h-.64v2.37h2.92v-1.07c0-.28-.08-.48-.25-.61-.16-.13-.42-.2-.76-.2h-.02s.09-.09.15-.14c.06-.05.12-.09.2-.13.07-.04.15-.08.24-.11s.18-.06.27-.08l-.24-.59c-.23.08-.44.18-.61.3s-.32.25-.44.4c-.05.06-.1.13-.14.2-.04.07-.08.14-.12.22v.43h.58c.14,0,.26.04.35.1.09.07.13.16.13.27v.5h-1.63v-1.87Z"/>
        <path class="cls-1" d="M35.36,3.45h1.93v-1.7h-.64v1.2h-1.03c-.1,0-.18-.03-.24-.08s-.08-.13-.08-.23c0-.07,0-.14.02-.21.01-.07.02-.14.04-.21h-.56s-.05.1-.07.15c-.02.06-.03.12-.04.18,0,.06-.02.13-.02.19,0,.22.06.39.19.51.13.12.3.18.51.18Z"/>
        <path class="cls-1" d="M36.25,1.75c.07,0,.13-.02.18-.07.05-.05.07-.11.07-.2s-.02-.15-.07-.2c-.04-.05-.1-.07-.18-.07s-.14.02-.18.07c-.05.05-.07.11-.07.2s.02.15.07.2c.04.05.11.07.18.07Z"/>
        <path class="cls-1" d="M35.58,1.75c.08,0,.14-.02.18-.07.05-.05.07-.11.07-.2s-.02-.15-.06-.2c-.04-.05-.1-.07-.18-.07s-.14.02-.19.08c-.04.05-.06.12-.06.19s.02.14.06.19c.04.05.1.08.19.08Z"/>
        <path class="cls-1" d="M42.88,2.64c0-.31-.07-.54-.22-.7-.15-.15-.37-.23-.66-.23-.14,0-.26.02-.37.06-.11.04-.21.1-.3.18-.09.08-.17.18-.23.3v-.57h-.65v1.27h-.84v-1.2h-.56c-.26,0-.49.04-.67.12-.18.08-.32.18-.42.32-.09.14-.14.29-.14.47,0,.16.04.29.11.42.08.12.19.22.33.28.15.07.33.1.54.1h.17v.07c0,.07-.03.13-.1.19s-.18.09-.32.09c-.07,0-.15,0-.24-.03-.09-.02-.18-.06-.27-.11l-.23.45c.1.06.22.11.35.14.13.04.27.05.41.05.22,0,.41-.03.57-.1.16-.07.27-.16.35-.28s.12-.25.12-.39v-.07h3.29v-.81ZM38.96,2.95h-.14c-.11,0-.2-.03-.26-.09s-.1-.14-.1-.23c0-.12.04-.21.12-.28.08-.07.18-.1.29-.1h.09v.7ZM42.23,2.95h-1.14v-.25c.07-.11.14-.2.22-.27.08-.07.16-.12.24-.16.08-.03.17-.05.27-.05.14,0,.24.03.31.1.06.06.1.16.1.3v.34Z"/>
        <path class="cls-1" d="M1.31,7.21c.29-.26.34-.43.34-.63,0-.37-.33-.61-.79-.61-.42,0-.71.18-.85.45l.5.25c.06-.12.17-.18.29-.18.13,0,.19.06.19.15,0,.07-.02.14-.15.27l-.71.66v.41h1.58v-.51h-.66l.28-.26Z"/>
        <path class="cls-1" d="M2.72,5.97c-.52,0-.89.38-.89,1.03s.37,1.03.89,1.03.89-.38.89-1.03-.37-1.03-.89-1.03ZM2.72,7.49c-.13,0-.22-.12-.22-.5s.1-.5.22-.5.22.12.22.5-.1.5-.22.5Z"/>
        <path class="cls-1" d="M4.94,7.21c.29-.26.34-.43.34-.63,0-.37-.33-.61-.79-.61-.42,0-.71.18-.85.45l.5.25c.06-.12.17-.18.29-.18.13,0,.19.06.19.15,0,.07-.02.14-.15.27l-.71.66v.41h1.57v-.51h-.66l.28-.26Z"/>
        <polygon class="cls-1" points="7.11 6.82 6.48 6.82 6.48 7.12 6.22 7.12 6.96 6.01 6.28 6.01 5.44 7.22 5.44 7.64 6.46 7.64 6.46 7.97 7.11 7.97 7.11 7.64 7.37 7.64 7.37 7.12 7.11 7.12 7.11 6.82"/>
        <path class="cls-1" d="M8.66,7.28c-.21,0-.37.14-.37.36,0,.15.07.26.18.31l-.14.47h.39l.2-.42c.1-.21.11-.28.11-.37,0-.22-.16-.36-.37-.36Z"/>
        <path class="cls-1" d="M10.36,7.21c.29-.26.34-.43.34-.63,0-.37-.33-.61-.79-.61-.42,0-.71.18-.85.45l.5.25c.06-.12.17-.18.29-.18.13,0,.19.06.19.15,0,.07-.02.14-.15.27l-.71.66v.41h1.58v-.51h-.66l.28-.26Z"/>
        <path class="cls-1" d="M11.77,5.97c-.52,0-.89.38-.89,1.03s.37,1.03.89,1.03.89-.38.89-1.03-.37-1.03-.89-1.03ZM11.77,7.49c-.13,0-.22-.12-.22-.5s.09-.5.22-.5.22.12.22.5-.1.5-.22.5Z"/>
        <path class="cls-1" d="M13.99,7.21c.29-.26.34-.43.34-.63,0-.37-.33-.61-.79-.61-.42,0-.71.18-.85.45l.5.25c.06-.12.17-.18.29-.18.13,0,.19.06.19.15,0,.07-.02.14-.15.27l-.71.66v.41h1.58v-.51h-.66l.28-.26Z"/>
        <path class="cls-1" d="M15.61,6.79l.37-.37v-.41h-1.47v.5h.7l-.29.29v.41h.26c.17,0,.23.05.23.13,0,.1-.11.15-.26.15-.17,0-.36-.04-.53-.14l-.22.49c.21.12.5.18.77.18.63,0,.9-.34.9-.67,0-.27-.16-.48-.47-.56Z"/>
        <path class="cls-1" d="M17.43,7.28c-.21,0-.37.14-.37.36,0,.15.07.26.18.31l-.14.47h.39l.2-.42c.1-.21.11-.28.11-.37,0-.22-.16-.36-.37-.36Z"/>
        <path class="cls-1" d="M19.13,7.21c.29-.26.34-.43.34-.63,0-.37-.33-.61-.79-.61-.42,0-.71.18-.85.45l.5.25c.06-.12.17-.18.29-.18.13,0,.19.06.19.15,0,.07-.02.14-.15.27l-.71.66v.41h1.58v-.51h-.66l.28-.26Z"/>
        <path class="cls-1" d="M20.54,5.97c-.52,0-.89.38-.89,1.03s.37,1.03.89,1.03.89-.38.89-1.03-.37-1.03-.89-1.03ZM20.54,7.49c-.13,0-.22-.12-.22-.5s.1-.5.22-.5.22.12.22.5-.1.5-.22.5Z"/>
        <path class="cls-1" d="M22.76,7.21c.29-.26.34-.43.34-.63,0-.37-.33-.61-.79-.61-.42,0-.71.18-.85.45l.5.25c.06-.12.17-.18.29-.18.13,0,.19.06.19.15,0,.07-.02.14-.15.27l-.71.66v.41h1.57v-.51h-.66l.28-.26Z"/>
        <path class="cls-1" d="M24.47,7.21c.29-.26.34-.43.34-.63,0-.37-.33-.61-.79-.61-.42,0-.71.18-.85.45l.5.25c.06-.12.17-.18.29-.18.13,0,.19.06.19.15,0,.07-.02.14-.15.27l-.71.66v.41h1.58v-.51h-.66l.28-.26Z"/>
        <path class="cls-1" d="M26.71,6.56c.06,0,.11-.02.15-.06.04-.04.06-.09.06-.17s-.02-.12-.05-.16c-.04-.04-.09-.06-.15-.06s-.12.02-.15.06c-.04.04-.05.1-.05.16s.02.12.05.16c.04.04.09.06.15.06Z"/>
        <path class="cls-1" d="M27.41,6.5s.06-.09.06-.17-.02-.13-.05-.17c-.04-.04-.09-.06-.15-.06s-.11.02-.15.06c-.04.04-.06.09-.06.16s.02.12.06.16c.04.04.09.06.15.06s.11-.02.15-.06Z"/>
        <path class="cls-1" d="M27.59,7.56h-.86c-.09,0-.15-.02-.2-.06s-.07-.11-.07-.19c0-.06,0-.12.01-.17,0-.06.02-.12.03-.17h-.47s-.04.08-.05.13c-.02.05-.03.1-.04.15,0,.05-.01.1-.01.16,0,.18.05.32.16.43.1.1.25.15.43.15h1.6v-1.41h-.53v1Z"/>
        <rect class="cls-1" x="28.64" y="5.84" width=".53" height="2.14"/>
        <path class="cls-1" d="M30.12,7.96c0,.07-.03.13-.08.18-.05.05-.12.08-.2.08-.04,0-.09,0-.14-.03s-.1-.04-.16-.07l-.19.4c.11.07.21.12.3.15s.18.04.27.04c.14,0,.27-.03.38-.09.11-.06.19-.14.25-.25.06-.11.09-.23.09-.36v-1.44h-.54v1.4Z"/>
        <path class="cls-1" d="M33.39,6.6c-.12-.06-.25-.08-.39-.08-.1,0-.2.01-.3.04-.1.03-.2.07-.29.13-.06.08-.1.17-.12.26s-.03.18-.03.25.01.14.03.2c.02.06.05.11.07.15h-.65v-1.72h-.53v2.14h1.7c.17,0,.33-.03.46-.09.13-.06.23-.14.29-.24.05-.07.08-.14.1-.21s.03-.14.03-.22c0-.13-.03-.25-.1-.36-.06-.11-.16-.19-.27-.25ZM33.18,7.42s-.06.08-.11.11c-.04.02-.09.03-.14.03h-.08s-.03-.09-.05-.14c-.01-.05-.02-.11-.02-.17,0-.03,0-.07,0-.11,0-.04.01-.08.03-.12.03-.02.05-.04.08-.04.03,0,.06-.01.09-.01.06,0,.12.02.17.07s.07.12.07.21c0,.07-.01.13-.04.18Z"/>
        <path class="cls-1" d="M34.53,8.63s-.06,0-.09.02c-.03-.01-.05-.03-.06-.05s-.02-.04-.02-.07c0-.04.01-.07.04-.09.02-.02.05-.04.09-.04.02,0,.05,0,.07,0,.03,0,.06.02.09.03l.07-.16s-.07-.04-.12-.05c-.04-.01-.09-.02-.14-.02-.1,0-.18.03-.24.08-.06.05-.09.12-.09.2,0,.04.01.08.04.12.03.03.06.06.11.08l-.18.03v.17s.07,0,.12-.02c.05,0,.11-.01.17-.02.06,0,.12-.01.18-.02.06,0,.11-.01.15-.02v-.2s-.05,0-.09,0-.06,0-.1.01Z"/>
        <polygon class="cls-1" points="35.37 7.56 35.05 7.56 35.03 7.56 34.72 7.56 34.72 5.84 34.18 5.84 34.18 7.97 35.03 7.97 35.05 7.97 35.9 7.97 35.9 5.84 35.37 5.84 35.37 7.56"/>
        <rect class="cls-1" x="36.46" y="5.84" width=".53" height="2.14"/>
        <path class="cls-1" d="M39.71,8.87c-.06,0-.11.02-.15.06-.04.04-.06.09-.06.16s.02.12.06.16c.04.04.09.06.15.06s.11-.02.15-.06c.04-.04.06-.1.06-.17s-.02-.13-.05-.17c-.04-.04-.09-.06-.15-.06Z"/>
        <path class="cls-1" d="M39.15,8.87c-.07,0-.12.02-.16.06-.04.04-.05.1-.05.16s.02.12.05.16c.04.04.09.06.16.06.06,0,.11-.02.15-.06.04-.04.06-.1.06-.17s-.02-.12-.05-.16c-.04-.04-.09-.06-.15-.06Z"/>
        <path class="cls-1" d="M42.35,6.35c.07,0,.12-.02.16-.06.04-.04.06-.1.06-.18s-.02-.14-.06-.18c-.04-.04-.09-.06-.16-.06-.07,0-.13.02-.17.06-.04.04-.06.1-.06.18,0,.07.02.13.06.17s.09.07.16.07Z"/>
        <path class="cls-1" d="M42.29,6.56c-.19,0-.35.03-.48.08-.13.05-.23.12-.3.22-.07.09-.1.2-.1.33,0,.05,0,.1.03.15.02.05.04.09.07.13.03.04.06.07.1.09h-.41s-.08,0-.12-.01c-.04,0-.08-.03-.12-.07-.02-.02-.04-.04-.08-.09-.03-.04-.07-.1-.11-.15-.06-.09-.12-.17-.17-.23-.05-.06-.11-.11-.19-.14-.02-.01-.05-.02-.09-.03s-.07-.01-.11-.01c-.07,0-.14.02-.23.06-.08.04-.16.09-.24.15-.08.06-.14.13-.19.21-.04.06-.06.11-.08.16-.01.05-.02.11-.02.17,0,.05,0,.09.02.14.01.04.04.09.07.13.03.04.07.08.13.11.05.03.12.06.2.08.06.02.11.04.14.05s.04.04.04.06c0,.02-.01.04-.04.05-.03.01-.07.02-.11.03-.04,0-.09,0-.14,0h-.51c-.08,0-.15-.02-.19-.05-.05-.03-.08-.07-.1-.13-.02-.05-.03-.11-.03-.18,0-.06,0-.13.01-.2,0-.07.02-.14.04-.22h-.47c-.03.1-.05.19-.06.29-.01.1-.02.19-.02.28,0,.11.03.21.08.3s.12.17.22.23c.09.06.21.09.34.09h.65c.29,0,.5-.04.65-.13.14-.09.22-.22.22-.39,0-.07-.01-.13-.04-.19-.03-.05-.07-.1-.13-.15-.03-.02-.07-.04-.11-.06-.04-.02-.09-.04-.15-.06-.04-.02-.08-.04-.11-.05s-.05-.04-.07-.06c-.02-.02-.02-.04-.02-.07,0-.02,0-.04.02-.06.01-.02.03-.04.06-.06s.05-.04.07-.05c.03-.01.05-.02.07-.02.03,0,.05,0,.07.01.02,0,.04.02.06.04.02.02.05.05.09.09.03.04.07.09.11.15.04.05.07.09.09.13s.04.06.06.08c.04.05.09.08.13.11s.1.04.16.05c.06,0,.14.01.23.01,0,0,0,0,0,0h1.7v-1.41h-.59ZM42.35,7.56h-.07c-.06,0-.11-.01-.16-.03-.05-.02-.1-.06-.13-.1-.04-.04-.05-.1-.05-.16s.02-.12.05-.16c.03-.04.07-.07.13-.09.06-.02.12-.03.19-.03h.05v.58Z"/>
      </g>
    </g>
  </g>
</svg>