<?xml version="1.0" encoding="UTF-8"?>
<svg id="Layer_2" data-name="Layer 2" xmlns="http://www.w3.org/2000/svg" viewBox="0 0 31.13 27.54">
  <defs>
    <style>
      .cls-1 {
        fill: #00293b;
      }
    </style>
  </defs>
  <g id="Layer_1-2" data-name="Layer 1">
    <g>
      <path class="cls-1" d="M26.89,24.65h-.32c-.52,0-.94.42-.94.94h2.19c0-.26-.1-.49-.27-.66-.17-.17-.4-.27-.66-.27Z"/>
      <path class="cls-1" d="M23.07,24.65h-.32c-.52,0-.94.42-.94.94h2.19c0-.26-.1-.49-.27-.66-.17-.17-.4-.27-.66-.27Z"/>
      <path class="cls-1" d="M26.56,23.88h.32c.33,0,.66.1.93.28v-7.81h-6.01v7.8c.27-.18.6-.28.94-.28h.32c.34,0,.66.1.94.28v-6.02c0-.45.36-.81.81-.81.22,0,.42.09.57.24.15.15.24.35.24.57v6.01c.27-.18.6-.28.94-.28Z"/>
      <path class="cls-1" d="M14.05,25.87c.32,0,.62.09.89.26v-6.79h-2.08v6.79c.26-.16.56-.26.89-.26h.31Z"/>
      <path class="cls-1" d="M16.19,26.13c.26-.17.56-.26.89-.26h.3c.32,0,.63.09.89.26v-6.8h-2.09v6.8Z"/>
      <path class="cls-1" d="M8.39,24.65h-.32c-.52,0-.94.42-.94.94h2.19c0-.26-.1-.49-.27-.66-.17-.17-.4-.27-.66-.27Z"/>
      <path class="cls-1" d="M14.05,26.65h-.31c-.49,0-.89.4-.89.89h2.08c0-.24-.1-.47-.26-.63-.16-.16-.38-.26-.63-.26Z"/>
      <path class="cls-1" d="M17.38,26.65h-.31c-.49,0-.89.4-.89.89h2.08c0-.24-.1-.47-.26-.63-.16-.16-.38-.26-.63-.26Z"/>
      <path class="cls-1" d="M4.57,24.65h-.32c-.52,0-.94.42-.94.94h2.19c0-.26-.1-.49-.27-.66-.17-.17-.4-.27-.66-.27Z"/>
      <path class="cls-1" d="M8.06,23.88h.32c.33,0,.66.1.93.28v-7.81H3.31v7.8c.27-.18.6-.28.94-.28h.32c.34,0,.66.1.94.28v-6.02c0-.45.36-.81.81-.81.22,0,.42.09.57.24.15.15.24.35.24.57v6.01c.27-.18.6-.28.94-.28Z"/>
      <path class="cls-1" d="M18.86,12.41h0c.43.62.86,1.54.96,2.79.16-.13.26-.33.28-.55.05-.62.15-1.18.26-1.69l-1.37-1.03c-.05.16-.09.32-.13.48Z"/>
      <path class="cls-1" d="M28.4,7.91c-.32-.32-.75-.5-1.2-.5h-1.06l-.18-.96c1.45-.84,1.19-2.46,1.21-2.56.02-.14.64-1.39.05-2.4-.15-.25-.35-.42-.63-.49-.36-.39-.05-.91-1.74-.98h-.09c-1.03,0-2.01.7-2.43,1.74-.2.47-.23,1.04-.08,1.59l.15.56c.02.11-.25,1.77,1.21,2.56l-.17.96h-.98c-.45,0-.89.18-1.21.5-.2.21-.44.48-.7.82.59.52.94.85,1.15,1.09.04-.05.08-.11.11-.15v5.91h6.01v-5.89c.66.87,1.47,2.42,1.7,4.94.03.37.28.69.64.76.54.11,1.01-.34.96-.86-.35-3.74-1.87-5.76-2.72-6.61ZM23.38,5.79c-.75-.75-.55-1.63-.58-1.86,0,0,.01-.02.02-.02.91-1.26,1.63.45,2.88-1.06.16.35.49.62.92.72,0,0,0,.02,0,.02.01.06.03.08.03.09,0,.02.02.04.02.06,0,0,.02.04.11.2v.35c0,1.07-.79,1.99-1.86,2.07-.56.04-1.13-.16-1.55-.58ZM25.54,7.41c-.5.24-1,.24-1.5,0-.06-.03-.12-.06-.18-.1l.12-.69c.25.09.53.14.81.14s.54-.04.81-.14l.12.69c-.06.04-.12.07-.19.1Z"/>
      <path class="cls-1" d="M9.9,7.91c-.32-.32-.75-.5-1.2-.5h-1.06l-.18-.96c1.45-.84,1.19-2.46,1.21-2.56.02-.14.64-1.39.05-2.4-.15-.25-.35-.42-.63-.49-.36-.39-.05-.91-1.74-.98h-.09c-1.03,0-2.01.7-2.43,1.74-.2.47-.23,1.04-.08,1.59l.15.56c.02.11-.25,1.77,1.21,2.56l-.17.96h-.98c-.45,0-.89.18-1.21.5C1.9,8.77.35,10.83,0,14.52c-.04.47.33.88.8.88.42,0,.76-.32.8-.74.23-2.55,1.05-4.12,1.71-4.99v5.91h6.01v-5.89s.04.06.07.09l.21-.19c.4-.35.72-.63.99-.87-.25-.34-.49-.6-.69-.81ZM4.88,5.79c-.75-.75-.55-1.63-.58-1.86,0,0,.01-.02.02-.02.91-1.26,1.63.45,2.88-1.06.16.35.49.62.92.72,0,0,0,.02,0,.02.01.06.03.08.03.09,0,.02.02.04.02.06,0,0,.02.04.11.2v.35c0,1.07-.79,1.99-1.86,2.07-.56.04-1.13-.16-1.55-.58ZM7.04,7.41c-.5.24-1,.24-1.5,0-.06-.03-.12-.06-.18-.1l.12-.69c.25.09.53.14.81.14s.55-.04.81-.14l.12.69c-.06.04-.12.07-.19.1Z"/>
      <path class="cls-1" d="M12.13,11.9l-1.38,1c.12.51.21,1.08.27,1.71.02.28.14.47.29.6.1-1.15.53-2.02,1-2.64-.06-.25-.12-.47-.18-.67Z"/>
      <path class="cls-1" d="M18.63,8.08c-.39-.34-.66-.33-1.96-.3v-.78c.34,0,.61,0,.75,0,.79,0,1.22.07,1.72.5.24.21.46.4.66.57.05-.09.1-.18.14-.28.19-.51.14-1.06-.15-1.64-.1-.21-.06-.42-.01-.68.09-.5.21-1.13-.62-1.92-.12-.11-.18-.29-.17-.48.04-.52,0-1.49-.66-2.2-.53-.56-1.33-.85-2.41-.85-.12,0-.24,0-.35.01-.13,0-.25-.01-.37-.01-1.07,0-1.88.29-2.41.85-.66.71-.7,1.68-.66,2.19.01.19-.05.37-.17.49-.84.79-.72,1.42-.62,1.92.05.27.09.48-.01.68-.29.59-.34,1.14-.15,1.64.04.1.09.19.14.28.47-.42.61-.54.91-.74.4-.27.7-.32,1.07-.32.42.01.81.02,1.15.02v.78c-.35,0-.73,0-1.15-.02-.23,0-.38.02-.64.19-.44.29-.43.34-2.56,2.2v2.23s2.53-1.82,2.53-1.82l.92.85.17.15c.2.18.19.5-.03.67-.04.03-.07.06-.11.1-.64.55-1.61,1.71-1.52,3.67v2.2c0,.19.15.35.35.35h6.29c.19,0,.35-.16.35-.35v-2.2c.09-1.96-.72-3.12-1.26-3.67-.05-.05-.09-.09-.13-.13-.17-.16-.19-.42-.04-.6l.15-.18.7-.85,2.68,2.01v-2.17c.12-.04-1.45-1.4-2.54-2.34ZM13.95,4.92c.19-.4.05-.95.04-.99-.07-.41-.03-.73.12-.92.14-.18.33-.2.35-.2.61-.11.94-.37,1.11-.63.18.26.51.53,1.13.63,0,0,.2.02.34.2.14.19.18.51.11.9-.02.08-.19.75.12,1.15-.04.92-.48,1.45-.75,1.54-.14.09-.43.22-.7.25-.44.06-.88-.05-1.15-.22h0s-.18-.12-.19-.14c-.48-.42-.68-1.21-.51-1.58ZM14.85,7.01c-.03.18,1.12.38,1.42-.01v.78c-.39,0-.86.01-1.42.01v-.78Z"/>
    </g>
  </g>
</svg>