<svg width="28" height="50" viewBox="0 0 28 50" fill="none" xmlns="http://www.w3.org/2000/svg">
<path d="M15.9303 12.851V15.6938H24.3644L22.5384 23.601H15.9303V49.8771H5.33592V23.601H0.391602V15.6938H5.34179V12.6745C5.34179 9.4967 5.7152 7.5942 6.45128 6.02473C7.1854 4.46124 8.60965 2.71828 10.5891 1.73312C12.5667 0.749963 15.4914 0.254395 18.5188 0.254395C21.5462 0.254395 24.0458 1.30935 27.0184 2.15889L25.0878 9.60539C23.471 8.64117 22.1885 7.87937 20.5775 7.87937C18.9665 7.87937 17.6518 8.28121 16.9626 8.95826C16.2725 9.62932 15.9303 10.9296 15.9303 12.851Z" fill="white"/>
</svg>
