<svg width="49" height="35" viewBox="0 0 49 35" fill="none" xmlns="http://www.w3.org/2000/svg">
<path d="M19.2952 24.6087V10.317L31.9483 17.4636L19.2952 24.6087ZM47.4391 5.81803C46.8677 3.73284 45.2536 2.12047 43.202 1.54989L43.1584 1.54027C38.0045 0.889555 32.0436 0.517716 25.9939 0.517716C25.3789 0.517716 24.7655 0.520921 24.1538 0.528935L24.2474 0.527333C23.7276 0.520921 23.1159 0.516113 22.5009 0.516113C16.4512 0.516113 10.487 0.887952 4.63256 1.60759L5.33309 1.53707C3.23957 2.11887 1.62545 3.72964 1.06535 5.77315L1.05566 5.81482C0.410012 9.19503 0.0419922 13.0849 0.0419922 17.0598C0.0419922 17.2008 0.0419923 17.3418 0.0436064 17.4813V17.4588C0.0436064 17.5774 0.0419922 17.7185 0.0419922 17.8595C0.0419922 21.8344 0.411626 25.7226 1.117 29.4939L1.05566 29.1029C1.62706 31.188 3.24118 32.8004 5.29273 33.371L5.33631 33.3806C10.4902 34.0313 16.4512 34.4032 22.5009 34.4032C23.1143 34.4032 23.7276 34.4 24.341 34.392L24.2474 34.3936C24.7671 34.4 25.3805 34.4048 25.9939 34.4048C32.0452 34.4048 38.0078 34.0329 43.8622 33.3133L43.1617 33.3838C45.2568 32.8036 46.8709 31.1912 47.4326 29.1477L47.4423 29.1061C48.0863 25.7259 48.4544 21.836 48.4544 17.8627C48.4544 17.7217 48.4544 17.5807 48.4528 17.4412V17.462C48.4528 17.3434 48.4544 17.2024 48.4544 17.0614C48.4544 13.0865 48.0847 9.19824 47.3794 5.42696L47.4391 5.81803Z" fill="white"/>
</svg>
