<svg width="207" height="62" viewBox="0 0 207 62" fill="none" xmlns="http://www.w3.org/2000/svg">
<path d="M199.359 0.621094H8.51942C4.30292 0.621094 0.884766 4.02842 0.884766 8.23158V53.8891C0.884766 58.0922 4.30292 61.4996 8.51942 61.4996H199.359C203.575 61.4996 206.993 58.0922 206.993 53.8891V8.23158C206.993 4.02842 203.575 0.621094 199.359 0.621094Z" fill="#F4CD00"/>
<path d="M199.359 1.83899C202.894 1.83899 205.772 4.7078 205.772 8.23158V53.8891C205.772 57.4128 202.894 60.2817 199.359 60.2817H8.51942C4.98446 60.2817 2.10653 57.4128 2.10653 53.8891V8.23158C2.10653 4.7078 4.98446 1.83899 8.51942 1.83899H199.364M199.359 0.621094H8.51942C4.32199 0.621094 0.884766 4.04744 0.884766 8.23158V53.8891C0.884766 58.0732 4.32199 61.4996 8.51942 61.4996H199.364C203.562 61.4996 206.999 58.0732 206.999 53.8891V8.23158C206.999 4.04744 203.562 0.621094 199.364 0.621094H199.359Z" fill="#F4CD00"/>
<path d="M73.2769 16.21C73.2769 17.4875 72.8968 18.4997 72.1366 19.2575C71.2732 20.156 70.1546 20.6107 68.77 20.6107C67.3853 20.6107 66.321 20.156 65.3979 19.2413C64.4748 18.3265 64.0078 17.1952 64.0078 15.842C64.0078 14.4888 64.4694 13.3575 65.3979 12.4427C66.321 11.5279 67.445 11.0732 68.77 11.0732C69.427 11.0732 70.0515 11.2032 70.6488 11.4576C71.2461 11.712 71.7239 12.053 72.0823 12.4752L71.2787 13.2763C70.6705 12.5564 69.8343 12.1937 68.77 12.1937C67.8034 12.1937 66.9726 12.5293 66.2667 13.2059C65.5608 13.8825 65.2133 14.7594 65.2133 15.842C65.2133 16.9245 65.5662 17.8014 66.2667 18.478C66.9726 19.1546 67.8034 19.4902 68.77 19.4902C69.7908 19.4902 70.6433 19.1492 71.3275 18.4726C71.7728 18.0288 72.028 17.4117 72.0932 16.6214H68.7645V15.5226H73.2009C73.2443 15.7608 73.2661 15.9881 73.2661 16.21H73.2769Z" fill="#022A3A" stroke="#022A3A" stroke-width="0.2" stroke-miterlimit="10"/>
<path d="M80.3134 12.3949H76.1432V15.2908H79.9062V16.3896H76.1432V19.2854H80.3134V20.4059H74.9648V11.2744H80.3134V12.3949Z" fill="#022A3A" stroke="#022A3A" stroke-width="0.2" stroke-miterlimit="10"/>
<path d="M85.2788 20.4049H84.1005V12.3939H81.543V11.2734H87.8364V12.3939H85.2788V20.4049Z" fill="#022A3A" stroke="#022A3A" stroke-width="0.2" stroke-miterlimit="10"/>
<path d="M92.3906 20.4049V11.2734H93.5689V20.4049H92.3906Z" fill="#022A3A" stroke="#022A3A" stroke-width="0.2" stroke-miterlimit="10"/>
<path d="M98.7867 20.4059H97.6083V12.3949H95.0508V11.2744H101.344V12.3949H98.7867V20.4059Z" fill="#022A3A" stroke="#022A3A" stroke-width="0.2" stroke-miterlimit="10"/>
<path d="M113.263 19.225C112.361 20.1506 111.243 20.6107 109.902 20.6107C108.56 20.6107 107.442 20.1506 106.546 19.225C105.644 18.3048 105.199 17.1735 105.199 15.842C105.199 14.5104 105.65 13.3791 106.546 12.4589C107.447 11.5333 108.566 11.0732 109.902 11.0732C111.237 11.0732 112.351 11.5387 113.257 12.4643C114.159 13.3899 114.615 14.5158 114.615 15.842C114.615 17.1681 114.164 18.3048 113.268 19.225H113.263ZM107.415 18.4618C108.093 19.1438 108.924 19.4902 109.902 19.4902C110.879 19.4902 111.715 19.1492 112.389 18.4618C113.067 17.7798 113.409 16.9029 113.409 15.842C113.409 14.7811 113.067 13.9042 112.389 13.2221C111.71 12.5401 110.879 12.1937 109.902 12.1937C108.924 12.1937 108.093 12.5347 107.415 13.2221C106.736 13.9042 106.399 14.7811 106.399 15.842C106.399 16.9029 106.741 17.7798 107.415 18.4618Z" fill="#022A3A" stroke="#022A3A" stroke-width="0.2" stroke-miterlimit="10"/>
<path d="M116.266 20.4049V11.2734H117.699L122.152 18.3751H122.201L122.152 16.6159V11.2734H123.33V20.4049H122.103L117.444 12.9568H117.395L117.444 14.716V20.4049H116.266Z" fill="#022A3A" stroke="#022A3A" stroke-width="0.2" stroke-miterlimit="10"/>
<path d="M104.91 33.7213C101.32 33.7213 98.3935 36.444 98.3935 40.1951C98.3935 43.9462 101.32 46.6689 104.91 46.6689C108.499 46.6689 111.426 43.9246 111.426 40.1951C111.426 36.4656 108.499 33.7213 104.91 33.7213ZM104.91 44.1194C102.944 44.1194 101.244 42.501 101.244 40.1951C101.244 37.8892 102.944 36.2708 104.91 36.2708C106.875 36.2708 108.575 37.8622 108.575 40.1951C108.575 42.528 106.875 44.1194 104.91 44.1194ZM90.6882 33.7213C87.099 33.7213 84.1722 36.444 84.1722 40.1951C84.1722 43.9462 87.099 46.6689 90.6882 46.6689C94.2775 46.6689 97.2043 43.9246 97.2043 40.1951C97.2043 36.4656 94.2775 33.7213 90.6882 33.7213ZM90.6882 44.1194C88.7226 44.1194 87.023 42.501 87.023 40.1951C87.023 37.8892 88.7226 36.2708 90.6882 36.2708C92.6539 36.2708 94.3535 37.8622 94.3535 40.1951C94.3535 42.528 92.6539 44.1194 90.6882 44.1194ZM73.7791 35.7078V38.4522H80.3711C80.1757 39.9948 79.6598 41.1261 78.8724 41.911C77.9113 42.8691 76.4126 43.9191 73.7791 43.9191C69.7228 43.9191 66.5462 40.6606 66.5462 36.6118C66.5462 32.563 69.7174 29.3044 73.7791 29.3044C75.9674 29.3044 77.5692 30.1651 78.7475 31.2639L80.6915 29.3261C79.0462 27.7563 76.8525 26.5547 73.7791 26.5547C68.2187 26.5547 63.5488 31.0636 63.5488 36.6064C63.5488 42.1491 68.2241 46.6581 73.7791 46.6581C76.7819 46.6581 79.0408 45.6783 80.811 43.838C82.63 42.0246 83.1948 39.4752 83.1948 37.4129C83.1948 36.7742 83.1459 36.1896 83.0482 35.697H73.7736L73.7791 35.7078ZM142.953 37.8405C142.41 36.3953 140.764 33.7213 137.392 33.7213C134.02 33.7213 131.267 36.3466 131.267 40.1951C131.267 43.8217 134.02 46.6689 137.713 46.6689C140.688 46.6689 142.41 44.8556 143.126 43.8001L140.911 42.3278C140.172 43.4049 139.162 44.1194 137.713 44.1194C136.263 44.1194 135.226 43.4591 134.563 42.16L143.246 38.5821L142.953 37.8459V37.8405ZM134.096 40.0002C134.02 37.4995 136.04 36.2221 137.49 36.2221C138.619 36.2221 139.58 36.785 139.901 37.5969L134.096 40.0002ZM127.037 46.2792H129.888V27.2529H127.037V46.2792ZM122.362 35.172H122.264C121.623 34.4142 120.396 33.7267 118.843 33.7267C115.596 33.7267 112.62 36.5685 112.62 40.2222C112.62 43.8758 115.596 46.6689 118.843 46.6689C120.391 46.6689 121.623 45.9814 122.264 45.1966H122.362V46.1276C122.362 48.6067 121.031 49.9274 118.892 49.9274C117.143 49.9274 116.063 48.6771 115.623 47.6215L113.136 48.65C113.847 50.3659 115.743 52.4769 118.892 52.4769C122.237 52.4769 125.066 50.5174 125.066 45.7325V34.111H122.362V35.1666V35.172ZM119.093 44.1194C117.127 44.1194 115.476 42.4793 115.476 40.2222C115.476 37.965 117.127 36.2762 119.093 36.2762C121.059 36.2762 122.563 37.9433 122.563 40.2222C122.563 42.501 121.037 44.1194 119.093 44.1194ZM156.316 27.2529H149.49V46.2792H152.341V39.0692H156.321C159.482 39.0692 162.582 36.7904 162.582 33.1584C162.582 29.5264 159.476 27.2475 156.321 27.2475L156.316 27.2529ZM156.386 36.4223H152.336V29.8998H156.386C158.515 29.8998 159.726 31.659 159.726 33.1584C159.726 34.6577 158.515 36.4169 156.386 36.4169V36.4223ZM173.996 33.6888C171.933 33.6888 169.799 34.5928 168.914 36.601L171.444 37.6511C171.982 36.601 172.992 36.2545 174.045 36.2545C175.517 36.2545 177.015 37.1368 177.042 38.7012V38.896C176.527 38.6037 175.424 38.1599 174.072 38.1599C171.346 38.1599 168.572 39.6538 168.572 42.4414C168.572 44.9855 170.803 46.6256 173.312 46.6256C175.229 46.6256 176.282 45.7703 176.945 44.7636H177.042V46.2304H179.79V38.9339C179.79 35.5563 177.26 33.6726 173.996 33.6726V33.6888ZM173.649 44.114C172.715 44.114 171.411 43.6485 171.411 42.501C171.411 41.0341 173.03 40.4712 174.431 40.4712C175.685 40.4712 176.271 40.7418 177.032 41.1099C176.809 42.8745 175.289 44.1194 173.643 44.1194L173.649 44.114ZM189.808 34.1056L186.545 42.3548H186.447L183.059 34.1056H179.991L185.073 45.635L182.174 52.0493H185.144L192.98 34.1056H189.814H189.808ZM164.146 46.2792H166.997V27.2529H164.146V46.2792Z" fill="#022A3A"/>
<g filter="url(#filter0_d_3523_513)">
<path d="M16.8153 12.0907C16.37 12.5616 16.1094 13.2869 16.1094 14.2288V47.8859C16.1094 48.8278 16.37 49.5531 16.8153 50.024L16.9293 50.1323L35.8422 31.2793V30.8354L16.9293 11.9824L16.8153 12.0907Z" fill="url(#paint0_linear_3523_513)"/>
<path d="M42.1461 37.5687L35.8418 31.279V30.8351L42.1461 24.5508L42.2873 24.632L49.759 28.8648C51.893 30.0719 51.893 32.053 49.759 33.2601L42.2873 37.4929L42.1461 37.5741V37.5687Z" fill="url(#paint1_linear_3523_513)"/>
<path d="M42.2884 37.4871L35.8375 31.0566L16.8105 50.0233C17.5165 50.7649 18.6731 50.8569 19.9817 50.1153L42.2829 37.4817" fill="url(#paint2_linear_3523_513)"/>
<path d="M42.2888 24.6322L19.9876 11.9986C18.6789 11.2571 17.5169 11.3491 16.8164 12.0906L35.8433 31.0573L42.2942 24.6268L42.2888 24.6322Z" fill="url(#paint3_linear_3523_513)"/>
<path opacity="0.2" d="M42.1476 37.3467L19.9876 49.8991C18.7495 50.6028 17.6418 50.5541 16.9304 49.9153L16.8164 50.029L16.9304 50.1373C17.6418 50.776 18.7495 50.8247 19.9876 50.121L42.2888 37.4874L42.1476 37.3467Z" fill="#022A3A"/>
<path opacity="0.12" d="M16.8153 49.8012C16.37 49.3303 16.1094 48.6049 16.1094 47.6631V47.885C16.1094 48.8269 16.37 49.5522 16.8153 50.0231L16.9293 49.9094L16.8153 49.8012Z" fill="#022A3A"/>
<path opacity="0.12" d="M49.7575 33.0323L42.1445 37.3464L42.2857 37.4871L49.7575 33.2543C50.8218 32.648 51.3593 31.8523 51.3593 31.0566C51.267 31.7766 50.724 32.4856 49.7575 33.0323Z" fill="#022A3A"/>
<path opacity="0.25" d="M19.9864 12.2211L49.7594 29.0822C50.726 29.6289 51.269 30.3379 51.3613 31.0579C51.3613 30.2622 50.8292 29.4665 49.7594 28.8602L19.9864 11.9992C17.8524 10.7921 16.1094 11.7935 16.1094 14.2293V14.4512C16.1094 12.0154 17.8524 11.0086 19.9864 12.2211Z" fill="white"/>
</g>
<defs>
<filter id="filter0_d_3523_513" x="12.1094" y="7.48633" width="43.252" height="47.1465" filterUnits="userSpaceOnUse" color-interpolation-filters="sRGB">
<feFlood flood-opacity="0" result="BackgroundImageFix"/>
<feColorMatrix in="SourceAlpha" type="matrix" values="0 0 0 0 0 0 0 0 0 0 0 0 0 0 0 0 0 0 127 0" result="hardAlpha"/>
<feOffset/>
<feGaussianBlur stdDeviation="2"/>
<feComposite in2="hardAlpha" operator="out"/>
<feColorMatrix type="matrix" values="0 0 0 0 0 0 0 0 0 0 0 0 0 0 0 0 0 0 0.25 0"/>
<feBlend mode="normal" in2="BackgroundImageFix" result="effect1_dropShadow_3523_513"/>
<feBlend mode="normal" in="SourceGraphic" in2="effect1_dropShadow_3523_513" result="shape"/>
</filter>
<linearGradient id="paint0_linear_3523_513" x1="34.1643" y1="13.8769" x2="8.62113" y2="39.4958" gradientUnits="userSpaceOnUse">
<stop stop-color="#00A1FF"/>
<stop offset="0.26" stop-color="#00BEFF"/>
<stop offset="0.51" stop-color="#00D2FF"/>
<stop offset="0.76" stop-color="#00DFFF"/>
<stop offset="1" stop-color="#00E3FF"/>
</linearGradient>
<linearGradient id="paint1_linear_3523_513" x1="52.5392" y1="31.057" x2="15.5931" y2="31.057" gradientUnits="userSpaceOnUse">
<stop stop-color="#FFE000"/>
<stop offset="0.41" stop-color="#FFBD00"/>
<stop offset="0.78" stop-color="#FFA500"/>
<stop offset="1" stop-color="#FF9C00"/>
</linearGradient>
<linearGradient id="paint2_linear_3523_513" x1="38.786" y1="34.5533" x2="4.14924" y2="69.2947" gradientUnits="userSpaceOnUse">
<stop stop-color="#FF3A44"/>
<stop offset="1" stop-color="#C31162"/>
</linearGradient>
<linearGradient id="paint3_linear_3523_513" x1="12.0217" y1="0.886021" x2="27.4915" y2="16.405" gradientUnits="userSpaceOnUse">
<stop stop-color="#32A071"/>
<stop offset="0.07" stop-color="#2DA771"/>
<stop offset="0.48" stop-color="#15CF74"/>
<stop offset="0.8" stop-color="#06E775"/>
<stop offset="1" stop-color="#00F076"/>
</linearGradient>
</defs>
</svg>
