<?xml version="1.0" encoding="UTF-8"?>
<svg id="Layer_2" data-name="Layer 2" xmlns="http://www.w3.org/2000/svg" viewBox="0 0 149 99.68">
  <defs>
    <style>
      .cls-1 {
        fill: #71ba44;
      }

      .cls-1, .cls-2, .cls-3, .cls-4, .cls-5, .cls-6, .cls-7, .cls-8, .cls-9, .cls-10 {
        stroke-width: 0px;
      }

      .cls-2 {
        fill: #727a82;
      }

      .cls-3 {
        fill: #29367b;
      }

      .cls-4 {
        fill: #58b75e;
      }

      .cls-5 {
        fill: #27b8be;
      }

      .cls-6 {
        fill: #3088c8;
      }

      .cls-7 {
        fill: #1e3871;
      }

      .cls-8 {
        fill: #d0da33;
      }

      .cls-9 {
        fill: #ada9ae;
      }

      .cls-10 {
        fill: #b1aeb3;
      }
    </style>
  </defs>
  <g id="Layer_1-2" data-name="Layer 1">
    <g>
      <path class="cls-9" d="M106.23,56.6v.11c0,7.19-5.24,12.47-13.75,12.47-6.88,0-11.62-2.72-14.9-6.59l5.79-5.5c2.62,2.94,5.35,4.58,9.22,4.58,3.17,0,5.4-1.8,5.4-4.63-.04-.08.62-4.96-7.48-4.96h-3.49l-1.31-5.34,12.25-12.3-4.91,3.15h-13.24v-7.19h25.81v6.32l-9.66,9.2c5.18.87,10.26,3.59,10.26,10.68M82.27,12.96c0-3.45,2.48-6.23,5.96-6.23h3.92l-1.03.51c.05,9.46-.19,10.65.42,12.04h-3.27c-3.48,0-6-2.82-6-6.27v-.04ZM88.23,20.87h3.48v-1.25c.25.44.6.78,1.1,1.02,1.11.53.3.2,32.07.29V5.15h-1.68v14.11s-29.04.11-29.6-.14c-.48-.22-.65-.71-.73-1.23-.13-.85-.05-.87-.07-12.74h-4.53c-4.63,0-7.79,3.67-7.79,7.86v.04c0,4.19,3.11,7.81,7.74,7.81M137.23,3.48h-3.67c.08-1.21-.48-3.48,1.99-3.48h1.18v1.17c-1.14.08-1.8-.28-1.8.64v.39h2.3v1.29ZM141.47,21.1c-.45,0-.9-.06-1.36-.19l.44-1.61c.76.22,1.73.23,2.13-.45.47-.8.3-1.08.32-13.7h1.68c-.05,11.78.12,12.11-.16,13.47-.32,1.6-1.29,2.48-3.05,2.48M92.8,3.48h-1.68v-1.67h1.68v1.67ZM129.68,9.25c.79-1.53,2.44-2.38,4.12-2.4h0s2.71,0,2.71,0l-.96.48v7.51c-1.32-.04-2.25.13-3.47-.26-1.67-.52-2.8-1.81-2.8-3.67,0-.6.13-1.15.39-1.65M129.68,15.17c2.18,1.55,5.16,1.3,5.31,1.33l.56-1.18c-.09,1.14.31,2.74-.75,3.54-.9.68-2.51.65-3.51.42-.41-.1-.88-.26-1.41-.5l-.52,1.61c1.06.39,2.08.71,3.2.71,1.63,0,2.82-.39,3.56-1.16.74-.77,1.11-1.82,1.11-3.13V5.15c-2.06.06-3.63-.21-5.51.44-5.04,1.73-5.14,7.38-2.04,9.58M89.45,3.48h-1.68v-1.67h1.68v1.67ZM72.11,5.13h1.73v15.7h-1.42l-11.14-14.12.99,2.29v11.84h-1.73V5.13h1.66l10.64,13.51-.73-1.93s0-11.58,0-11.58ZM6.77,20.95L0,5.13h1.98c.1.24,5.49,13.28,6.04,14.6l-.17-1.73,5.35-12.87h1.91l-6.76,15.81s-1.57,0-1.57,0ZM36.74,5.13h1.78v15.7h-1.78V5.13ZM55.79,13.03c0,3.57-2.56,6.44-6.16,6.44s-6.2-2.92-6.2-6.48v-.05c0-3.57,2.56-6.44,6.16-6.44s6.2,2.92,6.2,6.48v.04ZM49.63,4.86c-4.79,0-8.05,3.79-8.05,8.12v.04c0,4.33,3.21,8.08,8,8.08s8.05-3.79,8.05-8.12v-.05c0-4.33-3.21-8.07-8-8.07M33.81,16.57v.04c0,2.69-2.25,4.44-5.37,4.44-2.49,0-4.54-.83-6.43-2.51l1.1-1.3c1.64,1.48,3.21,2.22,5.39,2.22s3.51-1.12,3.51-2.67v-.04c0-4.38-9.37-1.49-9.37-7.52v-.04c0-2.47,2.18-4.28,5.17-4.28,2.29,0,3.93.65,5.53,1.93l-1.03,1.37c-3.57-2.9-7.89-1.79-7.89.83v.05c0,1.48.81,2.31,4.27,3.05,3.51.76,5.12,2.04,5.12,4.44M19.29,20.83h-1.78V5.13h1.78v15.7ZM122.62,22.6h1.68v1.67h-1.68v-1.67ZM119.27,22.6h1.68v1.67h-1.68v-1.67ZM14.05,61.28h14.57v7.25H.35v-6.65c14.13-11.99,19.32-14.33,19.32-19.55,0-3.21-2.13-4.96-5.13-4.96s-4.97,1.63-7.8,5.12l-5.89-4.74c3.77-5.12,7.42-7.9,14.24-7.9,7.91,0,13.15,4.63,13.15,11.77v.11c0,8.95-6.77,11.83-18.39,21.19l-1.62,1.25,5.83-2.89ZM140.21,49.57c0,6.54-4.69,11.87-11.46,11.87s-11.57-5.45-11.57-11.98v-.11c0-6.54,4.69-11.87,11.46-11.87s11.57,5.45,11.57,11.98v.11ZM128.75,29.75c-11.79,0-20.36,8.88-20.36,19.72v.11c0,10.84,8.46,19.61,20.25,19.61s20.36-8.88,20.36-19.72v-.11c0-10.84-8.46-19.61-20.25-19.61"/>
      <path class="cls-3" d="M51.45,27.24l1.94,1.85-1.86,1.93-1.93-1.85"/>
      <path class="cls-10" d="M55.88,29.17l1.93,1.85,1.86-1.93-1.93-1.85"/>
      <path class="cls-8" d="M53.16,31.6l1.51,1.44,1.44-1.5-1.51-1.44"/>
      <path class="cls-1" d="M58.68,32.43l1.51,1.44,1.44-1.5-1.51-1.44"/>
      <path class="cls-8" d="M50.69,33.9l1.51,1.44,1.44-1.5-1.5-1.44"/>
      <path class="cls-5" d="M55.75,34.07l1.51,1.44,1.45-1.5-1.51-1.44"/>
      <path class="cls-1" d="M53.77,35.8l1.06,1.02,1.02-1.06-1.06-1.02"/>
      <path class="cls-4" d="M57.77,36.6l1.06,1.02,1.02-1.06-1.06-1.01"/>
      <path class="cls-6" d="M66.5,28.56l3.29-.6.6,3.28-3.29.6-.6-3.28Z"/>
      <path class="cls-7" d="M62.21,29.93l2.64-.48.48,2.63-2.64.48-.48-2.63Z"/>
      <path class="cls-5" d="M67.3,33.6l2.64-.48.48,2.63-2.64.48-.48-2.63Z"/>
      <path class="cls-8" d="M63.67,33.99l2.05-.38.38,2.05-2.05.38-.38-2.05Z"/>
      <path class="cls-10" d="M67.66,37.88l2.05-.38.38,2.05-2.05.38-.38-2.05Z"/>
      <path class="cls-5" d="M60.59,34.82l2.05-.38.38,2.05-2.05.38-.38-2.05Z"/>
      <path class="cls-1" d="M64.32,37.5l2.05-.38.38,2.05-2.05.38-.38-2.05Z"/>
      <path class="cls-10" d="M61.7,37.75l1.44-.26.26,1.44-1.44.26-.26-1.44Z"/>
      <path class="cls-4" d="M64.48,40.73l1.44-.26.26,1.44-1.44.26-.26-1.44Z"/>
      <path class="cls-3" d="M76.27,39.3l-1.44,3.01,3.02,1.43,1.43-3.01"/>
      <path class="cls-5" d="M71.99,37.91l-1.15,2.42,2.42,1.15,1.15-2.42"/>
      <path class="cls-1" d="M73.97,43.87l-1.15,2.42,2.42,1.15,1.15-2.42"/>
      <path class="cls-8" d="M70.8,42.05l-.9,1.88,1.89.9.9-1.88"/>
      <path class="cls-8" d="M71.75,47.54l-.9,1.88,1.88.9.9-1.88"/>
      <path class="cls-6" d="M67.81,40.93l-.9,1.88,1.89.9.9-1.88"/>
      <path class="cls-10" d="M69.26,45.29l-.9,1.88,1.88.9.9-1.88"/>
      <path class="cls-1" d="M66.99,43.96l-.63,1.32,1.33.63.63-1.32"/>
      <path class="cls-5" d="M66.86,49.31l.63-1.32,1.33.63-.63,1.32-1.33-.63Z"/>
      <path class="cls-6" d="M77.9,53.73l-2.93,1.6,1.61,2.92,2.93-1.6"/>
      <path class="cls-5" d="M75.24,50.1l-2.35,1.29,1.29,2.35,2.35-1.29"/>
      <path class="cls-5" d="M73.36,56.08l-2.35,1.29,1.29,2.35,2.35-1.29"/>
      <path class="cls-3" d="M71.85,52.76l-1.83,1,1,1.83,1.83-1"/>
      <path class="cls-4" d="M69.4,57.77l-1.83,1,1,1.83,1.83-1"/>
      <path class="cls-7" d="M70.08,50.11l-1.83,1,1,1.83,1.83-1"/>
      <path class="cls-8" d="M68.71,54.49l-1.83,1,1,1.83,1.83-1"/>
      <path class="cls-10" d="M67.65,52.09l-1.29.71.71,1.28,1.29-.7"/>
      <path class="cls-5" d="M65.69,55.65l-1.29.71.71,1.28,1.29-.7"/>
      <path class="cls-1" d="M67.03,69.27l.41-3.31,3.32.41-.41,3.31-3.32-.41Z"/>
      <path class="cls-7" d="M67.75,64.21l.33-2.66,2.66.33-.33,2.66-2.66-.33Z"/>
      <path class="cls-5" d="M62.71,67.96l.33-2.66,2.66.33-.33,2.66-2.66-.33Z"/>
      <path class="cls-1" d="M64.1,63.88l.26-2.07,2.07.26-.26,2.07-2.07-.26Z"/>
      <path class="cls-10" d="M59.18,66.51l.26-2.07,2.07.26-.26,2.07-2.07-.26Z"/>
      <path class="cls-10" d="M64.22,60.69l.26-2.07,2.07.26-.26,2.07-2.07-.26Z"/>
      <path class="cls-1" d="M60.54,63.44l.26-2.07,2.07.26-.26,2.07-2.07-.26Z"/>
      <path class="cls-10" d="M61.78,60.34l.18-1.45,1.46.18-.18,1.45-1.46-.18Z"/>
      <path class="cls-10" d="M58.09,62.08l.18-1.45,1.46.18-.18,1.45-1.46-.18Z"/>
      <path class="cls-8" d="M57.56,72.46l-2.45-2.27-2.27,2.44,2.45,2.27"/>
      <path class="cls-1" d="M57.11,25.74l-2.45-2.27-2.27,2.44,2.45,2.27"/>
      <path class="cls-5" d="M60.17,68.8l-1.97-1.82-1.82,1.96,1.97,1.82"/>
      <path class="cls-1" d="M53.89,68.91l-1.97-1.82-1.82,1.96,1.97,1.82"/>
      <path class="cls-6" d="M56.57,66.43l-1.53-1.42-1.42,1.53,1.53,1.42"/>
      <path class="cls-8" d="M51.04,65.69l-1.53-1.42-1.42,1.53,1.53,1.42"/>
      <path class="cls-8" d="M58.54,63.92l-1.53-1.42-1.42,1.53,1.53,1.42"/>
      <path class="cls-10" d="M53.94,64l-1.53-1.42-1.42,1.53,1.53,1.42"/>
      <path class="cls-7" d="M55.89,62.24l-1.08-1-1,1.07,1.08,1"/>
      <path class="cls-10" d="M51.88,61.5l-1.08-1-1,1.07,1.08,1"/>
      <path class="cls-6" d="M39.35,67.08l3.28-.66.66,3.27-3.28.66-.66-3.27Z"/>
      <path class="cls-5" d="M44.4,66.15l2.63-.53.53,2.62-2.63.53-.53-2.62Z"/>
      <path class="cls-1" d="M39.24,62.56l2.63-.53.53,2.62-2.63.53-.53-2.62Z"/>
      <path class="cls-8" d="M43.56,62.59l2.05-.41.41,2.04-2.05.41-.41-2.04Z"/>
      <path class="cls-3" d="M46.63,61.7l2.05-.41.41,2.04-2.05.41-.41-2.04Z"/>
      <path class="cls-6" d="M42.86,59.08l2.05-.41.41,2.04-2.05.41-.41-2.04Z"/>
      <path class="cls-1" d="M46.2,59.27l1.44-.29.29,1.44-1.44.29-.29-1.44Z"/>
      <path class="cls-10" d="M43.37,56.34l1.44-.29.29,1.44-1.44.29-.29-1.44Z"/>
      <path class="cls-5" d="M33.33,59.11l1.39-3.04-3.04-1.38-1.39,3.04"/>
      <path class="cls-8" d="M37.64,60.43l1.11-2.44-2.44-1.11-1.11,2.44"/>
      <path class="cls-6" d="M35.56,54.51l1.11-2.44-2.44-1.11-1.11,2.44"/>
      <path class="cls-5" d="M36.86,55.41l.86-1.9,1.9.87-.86,1.9-1.9-.87Z"/>
      <path class="cls-10" d="M41.3,61.01l.87-1.9-1.9-.86-.87,1.9"/>
      <path class="cls-3" d="M35.82,49.93l.87-1.9,1.9.87-.87,1.9-1.9-.87Z"/>
      <path class="cls-4" d="M39.87,56.48l.87-1.9,1.9.87-.87,1.9-1.9-.87Z"/>
      <path class="cls-8" d="M38.34,52.15l.87-1.9,1.9.87-.87,1.9-1.9-.87Z"/>
      <path class="cls-7" d="M42.53,54.3l.61-1.33-1.34-.61-.61,1.33"/>
      <path class="cls-1" d="M41.96,50.27l.61-1.33-1.34-.61-.61,1.33"/>
      <path class="cls-5" d="M31.47,44.71l2.9-1.65-1.66-2.9-2.9,1.65"/>
      <path class="cls-1" d="M34.18,48.3l2.33-1.33-1.33-2.32-2.33,1.33"/>
      <path class="cls-7" d="M35.97,42.28l2.33-1.33-1.33-2.33-2.33,1.33"/>
      <path class="cls-6" d="M37.53,45.58l1.81-1.03-1.03-1.81-1.81,1.03"/>
      <path class="cls-1" d="M39.89,40.53l1.81-1.03-1.03-1.81-1.81,1.03"/>
      <path class="cls-5" d="M39.34,48.2l1.81-1.03-1.03-1.81-1.81,1.03"/>
      <path class="cls-8" d="M40.64,43.8l1.81-1.03-1.03-1.81-1.81,1.03"/>
      <path class="cls-10" d="M41.74,46.19l1.28-.73-.73-1.27-1.28.73"/>
      <path class="cls-1" d="M43.64,42.59l1.28-.73-.73-1.27-1.28.73"/>
      <path class="cls-1" d="M38.39,31.95l.35-3.32,3.32.36-.35,3.32-3.32-.36Z"/>
      <path class="cls-10" d="M38.49,36.45l.28-2.66,2.67.29-.28,2.66-2.67-.29Z"/>
      <path class="cls-5" d="M43.46,32.61l.28-2.66,2.67.29-.28,2.66-2.67-.29Z"/>
      <path class="cls-8" d="M42.8,36.2l.22-2.07,2.08.22-.22,2.07-2.08-.22Z"/>
      <path class="cls-6" d="M47.67,33.47l.22-2.07,2.08.22-.22,2.07-2.08-.22Z"/>
      <path class="cls-5" d="M42.73,39.38l.22-2.07,2.08.22-.22,2.07-2.08-.22Z"/>
      <path class="cls-1" d="M46.37,36.57l.22-2.07,2.08.22-.22,2.07-2.08-.22Z"/>
      <path class="cls-7" d="M45.86,39.15l.16-1.46,1.46.16-.16,1.46-1.46-.16Z"/>
      <path class="cls-10" d="M49.52,37.34l.16-1.46,1.46.16-.16,1.46-1.46-.16Z"/>
      <path class="cls-2" d="M65.29,51.24c-1.75-1.01-4.18-1.3-6.71-.38-1.1.42-2.21,1.14-3.14,1.86-.59-3.56-.3-6.86-.16-8.48,0,0,.01-.01.02,0,1.26.79.91,3.01.64,3.64,0,.01.01.02.02.01,1.57-1.85.8-3.9.48-4.42-.06-.09.3.19.59.56,1.1,1.4.59,2.97.71,2.93,0,0,0,0,0,0,.73-1.43.49-3.24-1-4.56-.07-.06.2.03.28.06,1.28.44,1.95,1.76,1.94,2.94,0,.26.86-2.21-1.22-3.46-.39-.23-.79-.36-1.05-.39-.2-.02,1.12-.22,2.05.41.56.38.7.83.69.7-.16-1.65-2.11-2.3-3.29-1.81-.12.06.46-.81,1.6-.74.22.01.42.06.58.14.01,0,.02,0,.01-.02-.86-.98-2.27-1-3.03.13,0,0-.02,0-.02,0-.28-.51-.52-1.16-.63-1.78-.02-.16-.08.76-.65,1.78,0,0-.02,0-.02,0-.75-1.14-2.17-1.12-3.03-.13,0,0,0,.02.01.02.57-.27,1.66-.19,2.2.59,0,.01,0,.02-.02.02-1.21-.51-3.12.18-3.29,1.81,0,.01.02.02.02,0,.05-.1.19-.32.44-.54.97-.86,2.5-.61,2.28-.58-.6.07-1.82.61-2.28,1.82-.37.99-.01,2.3,0,1.98.01-1.1.65-2.58,2.21-2.96.01,0,.02.01.01.02-2.43,2.13-.96,4.76-.98,4.55-.08-.85-.14-2.36,1.27-3.5.01,0,.03,0,.02.02-.32.52-1.09,2.56.48,4.42,0,.01.03,0,.02-.01-.26-.63-.62-2.85.64-3.64,0,0,.02,0,.02,0,.14,1.62.42,4.92-.16,8.48-1.99-1.52-3.96-2.52-6.49-2.41-1.27.06-2.48.43-3.36.93-.03.02,0,.06.03.05,3.68-1.18,6.86.25,9.82,2.71-1.5,1.3-2.85,2.67-3.64,3.08-.18-.25-.5-.4-.85-.32-.66.14-.81.97-.46,1.32,1.29,1.29,3.31-1.27,5.73-3.41,2.33,2.06,4.44,4.7,5.73,3.41.1-.1.22-.44.16-.71-.16-.67-1.05-.87-1.47-.29-.76-.38-2.09-1.73-3.64-3.08,2.98-2.48,6.13-3.87,9.82-2.71.03.01.06-.04.03-.05"/>
      <path class="cls-9" d="M53.51,86.44h.96v-8.59h-.96v8.59ZM28.39,85.48l-1.5-3.67c1.55-1.31,3.47-1.07,4.71,0l-1.5,3.67h-1.71ZM23.1,85.48c-.75-.02-1.28.07-1.98-.15-2.59-.82-1.89-4.42,1.01-4.42h.97v4.57ZM49.76,85.48c-1.54-.05-2.94.27-3.64-.96.14-.61.06-1.17.08-3.98h-.96v3.24c0,2.38-2.87,2.22-3.55.8-.27-.57-.11-.81-.16-4.04h-.96v3.31c0,1.08-.68,1.63-1.62,1.63h-1.86v-4.94h-.96v4.94h-5.03l1.68-4.01c-.95-.83-2.28-1.62-3.55-1.62s-2.59.75-3.55,1.62l1.69,4.01h-3.32v-5.54h-1.53c-2.17,0-3.97,1.25-3.97,3.29,0,3.64,4.46,3.19,4.54,3.21-.02.12.12.94-.43,1.35-.52.39-1.43.37-2.01.24-.24-.06-.51-.15-.81-.29l-.3.92c.61.22,1.19.41,1.83.41,1.83,0,2.67-.91,2.67-2.45v-.18c15.65-.1,15.19.23,16.14-.3.36-.2.66-.47.88-.8.23.38.55.68.95.9.84.45,2.12.41,2.9.02.4-.2.71-.51.93-.92.37.63.94,1.04,2.1,1.09h0s2.77.01,2.77.01v-8.59h-.96v7.63ZM135.81,85.05c-.85,1.98-3.77,2.04-4.62-.03-.25-.61-.25-1.33,0-1.94,1.02-2.54,4.81-1.81,4.81.98,0,.36-.07.69-.2,1M126.51,85.05c-.73,1.7-2.94,1.96-4.1.77-.95-.98-.92-2.58,0-3.54.75-.79,1.9-.92,2.77-.56,1.39.58,1.85,2.13,1.33,3.33M103.18,85.48c-.73-.02-1.27.07-1.96-.15-2.53-.83-1.92-4.43,1.01-4.43h.95v4.58h0ZM139.96,85.48h-3.3c1.03-2.26-.57-4.9-3.2-4.9-2.42,0-4.12,2.48-3.13,4.9h-2.97c1-2.19-.52-4.9-3.2-4.9-2.43,0-4.12,2.48-3.13,4.9h-3.04v-7.63h-.96v7.63h-3.06c-.05-.98.22-2.44-.6-3.36-.56-.63-1.18-.83-2.03-.83h-4.24l1.81-3.45h-1.04l-1.84,3.44c.06.38.17.68.43.97,4.8.04,5.11-.1,5.68.14.44.18.72.52.81.93.11.49.06.86.07,2.16h-8.87v-5.54h-1.51c-2.54,0-3.96,1.51-3.96,3.25,0,2.18,1.76,3.24,3.96,3.24h19.02c1.41,1.52,3.79,1.39,5.08,0h4.22c1.41,1.52,3.78,1.4,5.08,0h4.88v-8.59h-.96v7.63h0ZM143.71,86.44h.96v-8.59h-.96v8.59ZM73.06,88.54h.99v-.98h-.99v.98ZM82.43,85.48l-1.5-3.67c1.54-1.3,3.46-1.08,4.71,0l-1.5,3.67h-1.71ZM89.23,85.48h-4.08l1.68-4.01c-.95-.84-2.28-1.62-3.55-1.62s-2.59.75-3.55,1.62l1.69,4.01h-3.57v-5.54h-.96v6.7c0,.85-.06,1.47-.91,1.47-.2,0-.3-.02-.49-.07l-.25.92c.8.22,1.75.15,2.22-.55.43-.63.37-1.49.4-1.98h12.34v-8.59h-.96v7.63h0ZM16.42,80.78c-1.07-1.16-2.3-.74-2.72-.84v.96c.7.03,1.02-.08,1.5.15.4.19.68.5.8.94.13.5.06.89.08,3.49h-4.5v.96h5.45c-.04-3.63.1-4.01-.15-4.82-.1-.33-.25-.61-.46-.84M69.55,88.55h.99v-.98h-.99v.98ZM63.72,85.48c-.73-.02-1.26.07-1.96-.15-2.53-.83-1.92-4.43,1.01-4.43h.95v4.58ZM74.03,79.94h-.96v5.54h-3.62v-5.54h-.96v5.54h-3.81v-5.54c-1.21.04-3.01-.24-4.39.93-1.96,1.66-1.45,5.57,2.88,5.57h10.86s0-6.5,0-6.5ZM67.87,88.55h.99v-.98h-.99v.98ZM3.78,77.85h-.99v.98h.99s0-.98,0-.98ZM102.46,77.85h-.99v.98h.99v-.98ZM64.67,77.85h-.99v.98h.99v-.98ZM9.44,88.55h.99v-.98h-.99v.98ZM62.99,77.85h-.99v.98h.99v-.98ZM5.46,77.85h-.99v.98h.99v-.98ZM7.76,88.55h.99v-.98h-.99v.98ZM4.51,85.48c-.73-.02-1.27.07-1.96-.15-2.52-.83-1.93-4.43,1.01-4.43h.95v4.58ZM10.24,79.94h-.96v5.54h-3.81v-5.54c-1.15.04-2.06-.11-3.14.24-.9.3-1.64.86-2.04,1.72-.42.89-.34,2.02.04,2.75.69,1.31,2.15,1.78,3.63,1.78h6.28s0-6.5,0-6.5ZM92.98,86.44h.96v-8.59h-.96v8.59ZM104.14,77.85h-.99v.98h.99v-.98Z"/>
      <path class="cls-9" d="M.94,92.73h1.2v3.44l3.26-3.44h1.48l-2.85,2.94,2.97,3.9h-1.46l-2.34-3.08-1.07,1.09v1.98H.94"/>
      <path class="cls-9" d="M8.1,92.73h1.2v6.84h-1.2v-6.84Z"/>
      <path class="cls-9" d="M11.16,92.73h1.12l3.67,4.73v-4.73h1.18v6.84h-1.01l-3.78-4.86v4.86h-1.18"/>
      <path class="cls-9" d="M18.62,96.16v-.02c0-1.91,1.47-3.54,3.53-3.54,1.19,0,1.93.33,2.63.93l-.76.91c-1.85-1.58-4.14-.44-4.14,1.68v.02c0,1.41.93,2.44,2.33,2.44.65,0,1.23-.2,1.65-.52v-1.28h-1.75v-1.04h2.92v2.87c-2.45,2.09-6.41,1.02-6.41-2.45"/>
      <path class="cls-9" d="M29.25,98.47c3.19,0,3.16-4.65,0-4.65h-1.35v4.65h1.35ZM26.69,92.73h2.55c4.89,0,4.82,6.84,0,6.84h-2.55v-6.84Z"/>
      <path class="cls-9" d="M39.92,96.16v-.02c0-1.33-.97-2.43-2.33-2.43s-2.31,1.08-2.31,2.41v.02c0,1.33.97,2.43,2.33,2.43s2.31-1.08,2.31-2.41M34.01,96.16v-.02c0-1.92,1.49-3.54,3.59-3.54s3.57,1.59,3.57,3.52v.02c0,1.92-1.49,3.54-3.59,3.54-2.1,0-3.57-1.59-3.57-3.52"/>
      <path class="cls-9" d="M42.67,92.73h1.28l2.08,3.23,2.08-3.23h1.28v6.84h-1.2v-4.9l-2.16,3.22h-.04l-2.14-3.2v4.88h-1.18"/>
      <path class="cls-9" d="M59.7,96.16v-.02c0-1.33-.97-2.43-2.33-2.43s-2.31,1.08-2.31,2.41v.02c0,1.33.97,2.43,2.33,2.43s2.31-1.08,2.31-2.41M53.8,96.16v-.02c0-1.92,1.49-3.54,3.59-3.54s3.57,1.59,3.57,3.52v.02c0,1.92-1.49,3.54-3.59,3.54-2.1,0-3.57-1.59-3.57-3.52"/>
      <path class="cls-9" d="M62.46,92.73h5.1v1.09h-3.89v1.87h3.45v1.09h-3.45v2.78h-1.2"/>
      <path class="cls-9" d="M71.36,98.57l.72-.86c.66.57,1.31.89,2.16.89.74,0,1.21-.34,1.21-.86v-.02c0-1.53-3.83-.49-3.83-3.09v-.02c0-2.1,2.94-2.63,4.82-1.12l-.65.91c-1.58-1.17-2.97-.71-2.97.11v.02c0,1.51,3.83.55,3.83,3.08v.02c0,2.4-3.4,2.64-5.3.95"/>
      <path class="cls-9" d="M82.07,96.85l-1.18-2.73-1.17,2.73h2.36ZM80.35,92.68h1.12l3.01,6.89h-1.27l-.69-1.65h-3.24l-.7,1.65h-1.23l3.01-6.89Z"/>
      <path class="cls-9" d="M85.19,96.66v-3.94h1.2v3.89c0,1.27.66,1.95,1.73,1.95s1.72-.64,1.72-1.9v-3.94h1.2v3.88c0,2.04-1.15,3.07-2.95,3.07s-2.92-1.03-2.92-3.01"/>
      <path class="cls-9" d="M95.36,98.47c3.19,0,3.16-4.65,0-4.65h-1.35v4.65h1.35ZM92.81,92.73h2.55c4.89,0,4.82,6.84,0,6.84h-2.55v-6.84Z"/>
      <path class="cls-9" d="M100.53,92.73h1.2v6.84h-1.2v-6.84Z"/>
      <path class="cls-9" d="M110.65,96.85l-1.18-2.73-1.17,2.73h2.36ZM108.93,92.68h1.12l3.01,6.89h-1.27l-.69-1.65h-3.24l-.7,1.65h-1.23l3.01-6.89Z"/>
      <path class="cls-9" d="M117.16,96.11c.86,0,1.41-.45,1.41-1.14v-.02c0-.73-.53-1.13-1.42-1.13h-1.75v2.3s1.76,0,1.76,0ZM114.19,92.73h3.05c1.45,0,2.54.73,2.54,2.16-.03.08.14,1.58-1.63,2.09l1.85,2.59h-1.42l-1.68-2.38c-.13,0-1.58,0-1.51,0v2.38h-1.2v-6.84Z"/>
      <path class="cls-9" d="M125.63,96.85l-1.18-2.73-1.17,2.73h2.36ZM123.9,92.68h1.12l3.01,6.89h-1.27l-.69-1.65h-3.24l-.7,1.65h-1.23l3.01-6.89Z"/>
      <path class="cls-9" d="M132.35,98.5c.82,0,1.32-.32,1.32-.94v-.02c0-.58-.46-.92-1.41-.92h-1.91v1.88h2ZM132,95.61c.77,0,1.29-.3,1.29-.93v-.02c0-.54-.43-.87-1.2-.87h-1.73v1.82h1.64ZM129.17,92.73h3.07c1.2,0,2.25.56,2.25,1.74-.03.08.12.97-.98,1.54.8.27,1.36.73,1.36,1.66v.02c0,1.22-1.01,1.88-2.53,1.88h-3.17v-6.84Z"/>
      <path class="cls-9" d="M136.37,92.73h1.2v6.84h-1.2v-6.84Z"/>
      <path class="cls-9" d="M143.46,96.85l-1.18-2.73-1.17,2.73h2.36ZM141.73,92.68h1.12l3.01,6.89h-1.27l-.69-1.65h-3.24l-.7,1.65h-1.23l3.01-6.89Z"/>
    </g>
  </g>
</svg>