<?xml version="1.0" encoding="UTF-8"?>
<svg id="Layer_2" data-name="Layer 2" xmlns="http://www.w3.org/2000/svg" xmlns:xlink="http://www.w3.org/1999/xlink" viewBox="0 0 135 40">
  <defs>
    <style>
      .cls-1 {
        stroke: #fff;
        stroke-miterlimit: 10;
        stroke-width: .2px;
      }

      .cls-1, .cls-2, .cls-3 {
        fill: #fff;
      }

      .cls-4 {
        fill: #a6a6a6;
      }

      .cls-4, .cls-5, .cls-2, .cls-6, .cls-7, .cls-8, .cls-9, .cls-10, .cls-11, .cls-3, .cls-12 {
        stroke-width: 0px;
      }

      .cls-5 {
        fill: #002838;
      }

      .cls-2 {
        opacity: .25;
      }

      .cls-2, .cls-7, .cls-12 {
        isolation: isolate;
      }

      .cls-6 {
        fill: url(#linear-gradient);
      }

      .cls-7 {
        opacity: .12;
      }

      .cls-7, .cls-8, .cls-12 {
        fill: #000;
      }

      .cls-9 {
        fill: url(#linear-gradient-4);
      }

      .cls-10 {
        fill: url(#linear-gradient-2);
      }

      .cls-11 {
        fill: url(#linear-gradient-3);
      }

      .cls-12 {
        opacity: .2;
      }
    </style>
    <linearGradient id="linear-gradient" x1="21.8" y1="630.01" x2="5.02" y2="646.79" gradientTransform="translate(0 -621.3)" gradientUnits="userSpaceOnUse">
      <stop offset="0" stop-color="#00a0ff"/>
      <stop offset="0" stop-color="#00a1ff"/>
      <stop offset=".26" stop-color="#00beff"/>
      <stop offset=".51" stop-color="#00d2ff"/>
      <stop offset=".76" stop-color="#00dfff"/>
      <stop offset="1" stop-color="#00e3ff"/>
    </linearGradient>
    <linearGradient id="linear-gradient-2" x1="33.83" y1="641.3" x2="9.63" y2="641.3" gradientTransform="translate(0 -621.3)" gradientUnits="userSpaceOnUse">
      <stop offset="0" stop-color="#ffe000"/>
      <stop offset=".41" stop-color="#ffbd00"/>
      <stop offset=".78" stop-color="orange"/>
      <stop offset="1" stop-color="#ff9c00"/>
    </linearGradient>
    <linearGradient id="linear-gradient-3" x1="24.82" y1="643.59" x2="2.06" y2="666.35" gradientTransform="translate(0 -621.3)" gradientUnits="userSpaceOnUse">
      <stop offset="0" stop-color="#ff3a44"/>
      <stop offset="1" stop-color="#c31162"/>
    </linearGradient>
    <linearGradient id="linear-gradient-4" x1="7.3" y1="621.47" x2="17.46" y2="631.64" gradientTransform="translate(0 -621.3)" gradientUnits="userSpaceOnUse">
      <stop offset="0" stop-color="#32a071"/>
      <stop offset=".07" stop-color="#2da771"/>
      <stop offset=".48" stop-color="#15cf74"/>
      <stop offset=".8" stop-color="#06e775"/>
      <stop offset="1" stop-color="#00f076"/>
    </linearGradient>
  </defs>
  <g id="Layer_2-2" data-name="Layer 2">
    <g id="Layer_1-2" data-name="Layer 1-2">
      <g>
        <rect class="cls-8" x="0" y="0" width="135" height="40" rx="5.79" ry="5.79"/>
        <rect class="cls-5" x="0" y="0" width="135" height="40" rx="5" ry="5"/>
        <path class="cls-4" d="M130,.8c2.32,0,4.2,1.88,4.2,4.2v30c0,2.32-1.88,4.2-4.2,4.2H5c-2.32,0-4.2-1.88-4.2-4.2V5C.8,2.69,2.69.8,5,.8h125M130,0H5C2.25,0,0,2.25,0,5v30c0,2.75,2.25,5,5,5h125c2.75,0,5-2.25,5-5V5c0-2.75-2.25-5-5-5h0Z"/>
        <g>
          <path class="cls-1" d="M47.42,10.24c0,.84-.25,1.5-.75,2-.57.59-1.3.89-2.21.89s-1.6-.3-2.21-.9c-.6-.6-.91-1.34-.91-2.23s.3-1.63.91-2.23c.6-.6,1.34-.9,2.21-.9.43,0,.84.09,1.23.25.39.17.7.39.94.67l-.53.53c-.4-.47-.95-.71-1.64-.71-.63,0-1.18.22-1.64.67s-.69,1.02-.69,1.73.23,1.29.69,1.73c.46.44,1.01.67,1.64.67.67,0,1.23-.22,1.68-.67.29-.29.46-.7.5-1.22h-2.18v-.72h2.91c.03.16.04.31.04.45h0Z"/>
          <path class="cls-1" d="M52.03,7.74h-2.73v1.9h2.46v.72h-2.46v1.9h2.73v.74h-3.5v-6h3.5v.74Z"/>
          <path class="cls-1" d="M55.28,13h-.77v-5.26h-1.68v-.74h4.12v.74h-1.68v5.26h0Z"/>
          <path class="cls-1" d="M59.94,13v-6h.77v6h-.77Z"/>
          <path class="cls-1" d="M64.12,13h-.77v-5.26h-1.68v-.74h4.12v.74h-1.68v5.26h0Z"/>
          <path class="cls-1" d="M73.61,12.22c-.59.61-1.32.91-2.2.91s-1.61-.3-2.2-.91c-.59-.6-.88-1.35-.88-2.22s.3-1.62.88-2.22c.59-.61,1.32-.91,2.2-.91s1.6.31,2.2.91c.59.61.89,1.35.89,2.22s-.3,1.62-.88,2.22h0ZM69.78,11.72c.44.45.99.68,1.63.68s1.19-.22,1.63-.68c.44-.45.67-1.02.67-1.72s-.22-1.27-.67-1.72c-.44-.45-.99-.68-1.63-.68s-1.18.22-1.63.68c-.44.45-.67,1.02-.67,1.72s.22,1.27.67,1.72Z"/>
          <path class="cls-1" d="M75.57,13v-6h.94l2.92,4.67h.03l-.03-1.16v-3.51h.77v6h-.8l-3.05-4.89h-.03l.03,1.16v3.74h-.77Z"/>
        </g>
        <path class="cls-3" d="M68.13,21.75c-2.35,0-4.27,1.79-4.27,4.25s1.92,4.25,4.27,4.25,4.27-1.8,4.27-4.25-1.92-4.25-4.27-4.25ZM68.13,28.58c-1.29,0-2.4-1.06-2.4-2.58s1.11-2.58,2.4-2.58,2.4,1.05,2.4,2.58-1.11,2.58-2.4,2.58ZM58.82,21.75c-2.35,0-4.27,1.79-4.27,4.25s1.92,4.25,4.27,4.25,4.27-1.8,4.27-4.25-1.92-4.25-4.27-4.25ZM58.82,28.58c-1.29,0-2.4-1.06-2.4-2.58s1.11-2.58,2.4-2.58,2.4,1.05,2.4,2.58-1.11,2.58-2.4,2.58ZM47.74,23.05v1.8h4.32c-.13,1.01-.47,1.76-.98,2.27-.63.63-1.61,1.32-3.34,1.32-2.66,0-4.74-2.14-4.74-4.8s2.08-4.8,4.74-4.8c1.43,0,2.48.57,3.25,1.29l1.27-1.27c-1.08-1.03-2.51-1.82-4.53-1.82-3.64,0-6.7,2.96-6.7,6.6s3.06,6.6,6.7,6.6c1.97,0,3.45-.64,4.61-1.85,1.19-1.19,1.56-2.87,1.56-4.22,0-.42-.03-.8-.1-1.13h-6.07,0ZM93.05,24.45c-.36-.95-1.43-2.71-3.64-2.71s-4.01,1.72-4.01,4.25c0,2.38,1.8,4.25,4.22,4.25,1.95,0,3.08-1.19,3.55-1.88l-1.45-.97c-.48.71-1.15,1.18-2.09,1.18s-1.63-.43-2.06-1.29l5.69-2.35-.19-.48h0ZM87.25,25.87c-.05-1.64,1.27-2.48,2.22-2.48.74,0,1.37.37,1.58.9l-3.8,1.58ZM82.63,30h1.87v-12.5h-1.87v12.5ZM79.56,22.7h-.06c-.42-.5-1.22-.95-2.24-.95-2.13,0-4.08,1.87-4.08,4.27s1.95,4.24,4.08,4.24c1.01,0,1.82-.45,2.24-.97h.06v.61c0,1.63-.87,2.5-2.27,2.5-1.15,0-1.85-.82-2.14-1.52l-1.63.68c.47,1.13,1.71,2.51,3.77,2.51,2.19,0,4.04-1.29,4.04-4.43v-7.64h-1.77v.69h0ZM77.42,28.58c-1.29,0-2.37-1.08-2.37-2.56s1.08-2.59,2.37-2.59,2.27,1.1,2.27,2.59-1,2.56-2.27,2.56ZM101.8,17.5h-4.47v12.5h1.87v-4.74h2.61c2.07,0,4.1-1.5,4.1-3.88s-2.03-3.88-4.1-3.88h0ZM101.85,23.52h-2.65v-4.29h2.65c1.39,0,2.19,1.16,2.19,2.14s-.79,2.14-2.19,2.14h0ZM113.38,21.73c-1.35,0-2.75.59-3.33,1.91l1.66.69c.35-.69,1.01-.92,1.7-.92.96,0,1.95.58,1.96,1.61v.13c-.34-.19-1.06-.48-1.95-.48-1.79,0-3.6.98-3.6,2.81,0,1.67,1.46,2.75,3.1,2.75,1.26,0,1.95-.56,2.38-1.22h.06v.96h1.8v-4.79c0-2.22-1.66-3.46-3.79-3.46h0ZM113.16,28.58c-.61,0-1.47-.31-1.47-1.06,0-.96,1.06-1.33,1.98-1.33.82,0,1.21.18,1.7.42-.15,1.16-1.14,1.98-2.22,1.98h0ZM123.74,22l-2.14,5.42h-.06l-2.22-5.42h-2.01l3.33,7.58-1.9,4.21h1.95l5.13-11.79h-2.08ZM106.93,30h1.87v-12.5h-1.87v12.5Z"/>
        <g>
          <path class="cls-6" d="M10.43,7.54c-.29.31-.46.79-.46,1.4v22.11c0,.62.17,1.1.46,1.4l.07.07,12.39-12.39v-.29L10.51,7.47s-.07.07-.07.07Z"/>
          <path class="cls-10" d="M27.03,24.28l-4.13-4.13v-.29l4.13-4.13.09.05,4.89,2.78c1.4.79,1.4,2.09,0,2.89l-4.89,2.78-.09.05h0Z"/>
          <path class="cls-11" d="M27.12,24.22l-4.23-4.23-12.46,12.46c.46.49,1.22.55,2.08.06l14.61-8.3"/>
          <path class="cls-9" d="M27.12,15.78L12.51,7.48c-.86-.49-1.62-.43-2.08.06l12.46,12.46,4.23-4.23h0Z"/>
          <g>
            <path class="cls-12" d="M27.03,24.13l-14.51,8.25c-.81.46-1.54.43-2,.01h0l-.07.07h0l.07.07h0c.47.42,1.19.45,2-.01l14.61-8.3s-.09-.09-.09-.09Z"/>
            <path class="cls-7" d="M10.43,32.31c-.29-.31-.46-.79-.46-1.4v.15c0,.62.17,1.1.46,1.4l.07-.07s-.07-.07-.07-.07Z"/>
          </g>
          <path class="cls-7" d="M32.01,21.3l-4.99,2.83.09.09,4.89-2.78c.7-.4,1.05-.92,1.05-1.44h0c-.06.47-.42.94-1.05,1.3Z"/>
          <path class="cls-2" d="M12.51,7.62l19.5,11.08c.63.36.99.83,1.05,1.3h0c0-.52-.35-1.05-1.05-1.44L12.51,7.48c-1.4-.79-2.54-.14-2.54,1.47v.15c0-1.6,1.14-2.26,2.54-1.47Z"/>
        </g>
      </g>
    </g>
  </g>
</svg>