<?xml version="1.0" encoding="UTF-8"?>
<svg id="Layer_2" data-name="Layer 2" xmlns="http://www.w3.org/2000/svg" viewBox="0 0 33.73 21.71">
  <defs>
    <style>
      .cls-1 {
        fill: #00293b;
        fill-rule: evenodd;
      }
    </style>
  </defs>
  <g id="Layer_1-2" data-name="Layer 1">
    <path class="cls-1" d="M21.45,5.01h-.28c-.23,0-.44.1-.59.25-.15.15-.25.36-.25.59v2.75c0,.23.1.44.25.59.15.15.36.25.59.25h.28c.23,0,.44-.1.59-.25.15-.15.25-.36.25-.59v-2.75c0-.23-.1-.44-.25-.59-.15-.15-.36-.25-.59-.25h0ZM18.77,4.8h-.28c-.23,0-.44.1-.59.25-.15.15-.25.36-.25.59v2.91c0,.23.1.44.25.59s.36.25.59.25h.28c.23,0,.44-.1.59-.25.15-.15.25-.36.25-.59v-2.91c0-.23-.1-.44-.25-.59-.15-.15-.36-.25-.59-.25ZM14.29,5.84v-.6c0-.23-.1-.44-.25-.59-.15-.15-.36-.25-.59-.25h-.28c-.23,0-.44.1-.59.25-.15.15-.25.36-.25.59v2l1.96-1.4ZM16.95,5.53v-.29c0-.23-.1-.44-.25-.59-.15-.15-.36-.25-.59-.25h-.28c-.23,0-.44.1-.59.25-.15.15-.25.36-.25.59v.11c.36-.22.74-.26,1.12-.19.3.06.59.19.84.38h0ZM15.52,9.33c.1.04.2.06.31.06h.28c.23,0,.44-.1.59-.25.15-.15.25-.36.25-.59v-.27s-.05.04-.07.05l-1.36,1ZM9.43,6.2v1.52h2.19v-1.52h-2.19ZM7.2,13.92h1.54v-5.85S8.73,0,8.73,0h-1.54C6.77,0,6.39.17,6.11.45c-.28.28-.45.66-.45,1.08v10.86c0,.42.17.81.45,1.08.28.28.66.45,1.08.45h0ZM2.48,10.71h2.48V3.03h-2.48c-.16,0-.31.07-.42.17-.11.11-.17.25-.17.42v6.49c0,.16.07.31.17.42.11.11.25.17.42.17h0ZM1.18,6.2H0v1.52h1.18v-1.52ZM24.89,13.92h1.53c.42,0,.81-.17,1.08-.45.28-.28.45-.66.45-1.08V1.53c0-.42-.17-.81-.45-1.08-.28-.28-.66-.45-1.08-.45h-1.53v13.92ZM24.18,6.2h-1.19v1.52h1.19v-1.52ZM32.44,6.2v1.52h1.3v-1.52h-1.3ZM28.66,10.71h2.48c.16,0,.31-.07.42-.17.11-.11.17-.25.17-.42V3.62c0-.16-.07-.31-.17-.42s-.25-.17-.42-.17h-2.48v7.68ZM20.49,21.71h-6.91v-5.52c.26.16.52.3.79.41.18.07.39-.02.46-.2.07-.18-.02-.39-.2-.46-.69-.27-1.37-.8-1.95-1.4-.8-.82-1.42-1.76-1.68-2.33-.23-.52-.39-1.31-.38-2,0-.53.09-.97.29-1.11l1.03-.73s.03-.02.04-.03l.18-.12s.03-.02.04-.03l2.62-1.87s.03-.02.04-.03l.43-.31c.21-.15.45-.18.68-.14.29.06.57.23.81.46.14.23.18.5.13.75-.05.27-.21.53-.46.71l-2.11,1.55c-.41.3-.55.64-.44,1.06.09.34.37.7.84,1.12.25.23.42.38.57.55.15.17.29.35.48.62.11.16.33.2.49.09.16-.11.2-.33.09-.49-.21-.31-.36-.51-.54-.7-.17-.19-.36-.36-.62-.6-.37-.33-.58-.58-.63-.78-.03-.11.03-.21.18-.32l.13-.1c.09.07.18.13.29.17.2.09.41.14.64.14h.28c.42,0,.81-.17,1.09-.45.04-.04.07-.07.1-.11.03.04.07.08.1.11.28.28.67.45,1.09.45h.28c.42,0,.81-.17,1.09-.45.03-.03.06-.06.09-.1.04.05.08.1.13.15.28.28.67.45,1.09.45h.28c.31,0,.59-.09.83-.25-.04.71-.14,1.34-.3,1.91-.25.89-.66,1.64-1.22,2.35-.09.11-.16.24-.21.37,0,0,0,.01,0,.02-.04.13-.06.26-.06.4v6.77Z"/>
  </g>
</svg>